<?xml version="1.0"?>
<svg width="32" height="32" xmlns="http://www.w3.org/2000/svg" xmlns:svg="http://www.w3.org/2000/svg">
 <g class="currentLayer layer">
  <title>Layer 1</title>
  <g id="svg_11">
   <path d="m11.3807,7.54629c1.20263,0 2.18096,-0.97853 2.18096,-2.18096c0,-1.20263 -0.97833,-2.18097 -2.18096,-2.18097c-1.20244,0 -2.18097,0.97834 -2.18097,2.18097c0,1.20243 0.97853,2.18096 2.18097,2.18096zm0,-3.35583c0.64785,0 1.17486,0.52701 1.17486,1.17487c0,0.64766 -0.52701,1.17466 -1.17486,1.17466c-0.64766,0 -1.17467,-0.527 -1.17467,-1.17466c0,-0.64786 0.52701,-1.17487 1.17467,-1.17487zm0,0" id="svg_1"/>
   <path d="m17.3475,3.18436c-1.20263,0 -2.18096,0.97833 -2.18096,2.18097c0,1.20243 0.97833,2.18096 2.18096,2.18096c1.20264,0 2.18097,-0.97853 2.18097,-2.18096c0,-1.20263 -0.97853,-2.18097 -2.18097,-2.18097zm0,3.35563c-0.64785,0 -1.17486,-0.527 -1.17486,-1.17466c0,-0.64786 0.52701,-1.17487 1.17486,-1.17487c0.64767,0 1.17467,0.52701 1.17467,1.17487c0,0.64766 -0.527,1.17466 -1.17467,1.17466zm0,0" id="svg_2"/>
   <path d="m23.31412,7.54629c1.20263,0 2.18096,-0.97853 2.18096,-2.18096c0,-1.20263 -0.97833,-2.18097 -2.18096,-2.18097c-1.20263,0 -2.18097,0.97834 -2.18097,2.18097c0,1.20243 0.97834,2.18096 2.18097,2.18096zm0,-3.35583c0.64766,0 1.17486,0.52701 1.17486,1.17487c0,0.64766 -0.5272,1.17466 -1.17486,1.17466c-0.64786,0 -1.17487,-0.527 -1.17487,-1.17466c0,-0.64786 0.52701,-1.17487 1.17487,-1.17487zm0,0" id="svg_3"/>
   <path d="m17.3475,8.3721c-1.20263,0 -2.18096,0.97833 -2.18096,2.18096c0,1.20263 0.97833,2.18097 2.18096,2.18097c1.20264,0 2.18097,-0.97834 2.18097,-2.18097c0,-1.20263 -0.97853,-2.18096 -2.18097,-2.18096zm0,3.35582c-0.64785,0 -1.17486,-0.527 -1.17486,-1.17486c0,-0.64766 0.52701,-1.17467 1.17486,-1.17467c0.64767,0 1.17467,0.52701 1.17467,1.17467c0,0.64786 -0.527,1.17486 -1.17467,1.17486zm0,0" id="svg_4"/>
   <path d="m23.31412,8.3721c-1.20263,0 -2.18097,0.97833 -2.18097,2.18096c0,1.20263 0.97834,2.18097 2.18097,2.18097c1.20263,0 2.18096,-0.97834 2.18096,-2.18097c0,-1.20263 -0.97833,-2.18096 -2.18096,-2.18096zm0,3.35582c-0.64786,0 -1.17487,-0.527 -1.17487,-1.17486c0,-0.64766 0.52701,-1.17467 1.17487,-1.17467c0.64766,0 1.17486,0.52701 1.17486,1.17467c0,0.64786 -0.5272,1.17486 -1.17486,1.17486zm0,0" id="svg_5"/>
   <path d="m23.31412,13.55983c-1.20263,0 -2.18097,0.97853 -2.18097,2.18097c0,1.20263 0.97834,2.18097 2.18097,2.18097c1.20263,0 2.18096,-0.97834 2.18096,-2.18097c0,-1.20244 -0.97833,-2.18097 -2.18096,-2.18097zm0,3.35583c-0.64786,0 -1.17487,-0.52701 -1.17487,-1.17486c0,-0.64786 0.52701,-1.17467 1.17487,-1.17467c0.64766,0 1.17486,0.52681 1.17486,1.17467c0,0.64785 -0.5272,1.17486 -1.17486,1.17486zm0,0" id="svg_6"/>
   <path d="m18.44004,23.62086l0.19125,-0.26379c0.31014,-0.42767 0.50217,-0.81075 0.50217,-1.3974c0,-0.27788 -0.22527,-0.50315 -0.50295,-0.50315c-0.27788,0 -0.50315,0.22527 -0.50315,0.50315c0,0.29352 -0.06962,0.4744 -0.31054,0.80684l-0.19144,0.26379c-0.22468,0.31015 -0.34358,0.67641 -0.34358,1.05949l0,1.3489l-6.28321,0l0,-1.07415c0,-0.58391 -0.22742,-1.13282 -0.64022,-1.54562l-0.91909,-0.91909c-0.34827,-0.34827 -0.54011,-0.81133 -0.54011,-1.30373l0,-0.51371c0,-0.93746 -0.18068,-1.85244 -0.53737,-2.71931l-0.82756,-2.0126c-0.03814,-0.09249 -0.02894,-0.19809 0.02464,-0.28237c0.07372,-0.11655 0.21725,-0.17013 0.34925,-0.13063c0.43118,0.12946 0.78572,0.41887 0.99887,0.81525l0.18303,0.34065c0.26575,0.49474 0.45309,1.02565 0.55653,1.57769l0.09211,0.49083c0.04771,0.25539 0.28237,0.43256 0.54089,0.40831c0.25871,-0.02406 0.45661,-0.24112 0.45661,-0.501l0,-8.19373c0,-0.13649 0.05084,-0.26692 0.14333,-0.36743l0.00665,-0.00744c0.09817,-0.10677 0.23232,-0.16915 0.37741,-0.17501c0.14569,-0.00606 0.28375,0.04478 0.39071,0.14314c0.11127,0.10247 0.17502,0.24815 0.17502,0.39951l0,6.48071c0,0.27787 0.22527,0.50315 0.50315,0.50315c0.27788,0 0.50315,-0.22528 0.50315,-0.50315l0,-3.05527c0,-0.13004 0.05769,-0.25187 0.15859,-0.33419c0.23192,-0.1893 0.56396,-0.16994 0.77262,0.04478c0.10442,0.10735 0.16191,0.24913 0.16191,0.39892l0,3.23732c0,0.27788 0.22527,0.50315 0.50315,0.50315c0.27768,0 0.50295,-0.22527 0.50295,-0.50315l0,-1.98346c0,-0.1932 0.04615,-0.36783 0.13708,-0.51957c0.07001,-0.11694 0.18108,-0.19907 0.31269,-0.23114c0.12515,-0.03051 0.25323,-0.01076 0.36001,0.05495l0.03656,0.02288c0.1363,0.08526 0.21765,0.23192 0.21765,0.39266l0,2.78854c0,0.27788 0.22527,0.50315 0.50315,0.50315s0.50315,-0.22527 0.50315,-0.50315l0,-0.89229c0,-0.18343 0.05534,-0.36001 0.15996,-0.51078c0.12319,-0.17736 0.3293,-0.26868 0.52524,-0.23231c0.09563,0.0176 0.18499,0.0614 0.25813,0.12671c0.11381,0.10149 0.17893,0.24698 0.17893,0.39932l0,1.93848c0,0.27787 0.22527,0.50315 0.50315,0.50315c0.27768,0 0.50295,-0.22527 0.50295,-0.50315l0,-1.93848c0,-0.43882 -0.18773,-0.85808 -0.51527,-1.15023c-0.21081,-0.18792 -0.46834,-0.31425 -0.74505,-0.36528c-0.29665,-0.05476 -0.59779,-0.01604 -0.86804,0.1009l0,-0.26438c0,-0.51 -0.25832,-0.9758 -0.69068,-1.24605l-0.04146,-0.02581c-0.3385,-0.20846 -0.73859,-0.27103 -1.12695,-0.17619c-0.08956,0.02171 -0.176,0.05143 -0.25871,0.088c-0.06669,-0.26654 -0.20279,-0.51215 -0.39873,-0.71395c-0.44292,-0.45583 -1.08804,-0.59213 -1.65298,-0.39228l0,-2.04251c0,-0.43178 -0.18225,-0.84712 -0.49983,-1.13967c-0.30486,-0.28061 -0.70046,-0.4261 -1.11424,-0.4083c-0.41378,0.0172 -0.79608,0.19457 -1.0763,0.49963l-0.00665,0.00743c-0.2636,0.28667 -0.4087,0.659 -0.4087,1.04834l0,5.28962c-0.34495,-0.57629 -0.88486,-0.99711 -1.53272,-1.19149c-0.56201,-0.16876 -1.17428,0.05984 -1.48833,0.55595c-0.22801,0.35962 -0.26731,0.80958 -0.1052,1.20341l0.82776,2.0126c0.30623,0.74504 0.46169,1.53115 0.46169,2.33662l0,0.51371c0,0.76108 0.29645,1.47679 0.83461,2.01514l0.91928,0.91928c0.22273,0.22273 0.34553,0.51899 0.34553,0.83402l0,1.08804l-0.2898,0c-0.13356,0.00019 -0.26165,0.05319 -0.3559,0.14783c-0.09445,0.09445 -0.14725,0.22254 -0.14706,0.3561l0.00372,2.35676c0.00039,0.27749 0.22547,0.50237 0.50315,0.50237l0.00019,0l8.73169,-0.00254c0.13356,-0.0002 0.26164,-0.05319 0.3559,-0.14784c0.09445,-0.09445 0.14725,-0.22253 0.14705,-0.35609l-0.00371,-2.35677c-0.0004,-0.27748 -0.22547,-0.50236 -0.50315,-0.50236l-0.14667,0.00019l0,-1.36024c0.0002,-0.16974 0.0528,-0.33185 0.15214,-0.46913zm-8.23107,4.18829l-0.00216,-1.35047l7.72558,-0.00235l0.00216,1.35067l-7.72558,0.00215zm0,0" id="svg_7"/>
   <path d="m7.58938,8.04338l0.77477,0.44722c0.0792,0.04576 0.16563,0.06747 0.25089,0.06747c0.17404,0 0.34299,-0.09015 0.43627,-0.25148c0.13904,-0.24072 0.05651,-0.54832 -0.18421,-0.68736l-0.77476,-0.44722c-0.24053,-0.13904 -0.54813,-0.05651 -0.68717,0.18401c-0.13884,0.24072 -0.05651,0.54832 0.18421,0.68736zm0,0" id="svg_8"/>
   <path d="m7.56103,10.67567c0.03304,0 0.06648,-0.00332 0.10012,-0.00997l0.87684,-0.17697c0.2724,-0.05495 0.44879,-0.32012 0.39384,-0.59252c-0.05495,-0.2724 -0.32031,-0.44839 -0.59271,-0.39364l-0.87685,0.17678c-0.2724,0.05495 -0.44878,0.32031 -0.39383,0.59251c0.0481,0.23877 0.25812,0.40381 0.49259,0.40381zm0,0" id="svg_9"/>
   <path d="m19.09455,19.77479c-0.10404,-0.25754 -0.39736,-0.38191 -0.6549,-0.27768c-0.25773,0.10403 -0.3821,0.39716 -0.27788,0.6549l0.0047,0.01154c0.079,0.19574 0.26751,0.31464 0.46638,0.31464c0.06297,0 0.12672,-0.01193 0.18851,-0.03677c0.25754,-0.10423 0.38191,-0.39736 0.27788,-0.65509l-0.00469,-0.01154zm0,0" id="svg_10"/>
  </g>
 </g>
</svg>