<?xml version="1.0"?>
<svg width="20.000000000000004" height="20.000000000000004" xmlns="http://www.w3.org/2000/svg" xmlns:svg="http://www.w3.org/2000/svg">
 <g class="currentLayer layer">
  <title>Layer 1</title>
  <g id="svg_1">
   <g id="svg_2">
    <g id="svg_3">
     <rect fill="#030104" height="1.217985" id="svg_4" width="6.089925" x="7.60049" y="9.420239"/>
     <path d="m10.04255,15.51016l-6.09602,0c-0.33555,0 -0.60899,-0.27343 -0.60899,-0.60899l0,-10.35287l12.17985,0l0,5.13685c0.25213,-0.12362 0.528,-0.19609 0.81788,-0.19609c0.13641,0 0.26978,0.01705 0.40011,0.04567l0,-5.59542c0,-1.0091 -0.81849,-1.82698 -1.82698,-1.82698l-10.96187,0c-1.00849,0 -1.82697,0.81788 -1.82697,1.82698l0,10.96186c0,1.00849 0.81848,1.82698 1.82697,1.82698l5.73976,0l0.35626,-1.21799z" fill="#030104" id="svg_5"/>
     <rect fill="#030104" height="1.217985" id="svg_6" width="6.089925" x="7.60049" y="6.984269"/>
     <polygon fill="#030104" id="svg_7" points="7.600490570068359,13.074195146560669 11.92189884185791,13.074195146560669 13.145975112915039,11.856205224990845 7.600490570068359,11.856205224990845 "/>
     <rect fill="#030104" height="1.217985" id="svg_8" width="1.217985" x="5.16452" y="9.420239"/>
     <rect fill="#030104" height="1.217985" id="svg_9" width="1.217985" x="5.16452" y="6.984269"/>
     <rect fill="#030104" height="1.217985" id="svg_10" width="1.217985" x="5.16452" y="11.856209"/>
    </g>
   </g>
   <g id="svg_11">
    <path d="m17.68784,11.81602l-0.92384,-0.92567c-0.25456,-0.25639 -0.66624,-0.25822 -0.91775,-0.00548l-0.74297,0.74784l1.84524,1.85316l0.74358,-0.74845c0.25274,-0.25273 0.25091,-0.66563 -0.00426,-0.9214z" fill="#030104" id="svg_12"/>
    <path d="m11.46455,15.20689c-0.04081,0.03349 -0.07552,0.0749 -0.09135,0.12971l-0.64371,2.20151c-0.02862,0.09561 -0.00182,0.19914 0.06821,0.26978c0.05237,0.05177 0.1218,0.07978 0.19305,0.07978c0.02558,0 0.05177,-0.00365 0.07673,-0.01157l2.1936,-0.64675c0.05115,-0.01462 0.09073,-0.04628 0.12423,-0.08404l3.00781,-2.9932l-1.92624,-1.93355l-3.00233,2.98833zm0.2917,1.89762l-0.25699,-0.25883l0.36479,-1.2466l0.93297,0.19244l0.18453,0.95125l-1.2253,0.36174z" fill="#030104" id="svg_13"/>
   </g>
  </g>
 </g>
</svg>