<?xml version="1.0"?>
<svg width="32" height="32" xmlns="http://www.w3.org/2000/svg" xmlns:svg="http://www.w3.org/2000/svg">
 <g class="currentLayer layer">
  <title>Layer 1</title>
  <g id="svg_11">
   <path d="m11.380698,7.546291c1.202631,0 2.180966,-0.978531 2.180966,-2.180966c0,-1.20263 -0.978335,-2.180965 -2.180966,-2.180965c-1.202435,0 -2.180965,0.978335 -2.180965,2.180965c0,1.202435 0.97853,2.180966 2.180965,2.180966zm0,-3.355828c0.647856,0 1.174863,0.527006 1.174863,1.174862c0,0.647661 -0.527007,1.174667 -1.174863,1.174667c-0.64766,0 -1.174667,-0.527006 -1.174667,-1.174667c0,-0.647856 0.527007,-1.174862 1.174667,-1.174862zm0,0" id="svg_1"/>
   <path d="m17.347505,3.18436c-1.20263,0 -2.180965,0.978335 -2.180965,2.180965c0,1.202435 0.978335,2.180966 2.180965,2.180966c1.202631,0 2.180966,-0.978531 2.180966,-2.180966c0,-1.20263 -0.978531,-2.180965 -2.180966,-2.180965zm0,3.355632c-0.647856,0 -1.174862,-0.527006 -1.174862,-1.174667c0,-0.647856 0.527006,-1.174862 1.174862,-1.174862c0.647661,0 1.174667,0.527006 1.174667,1.174862c0,0.647661 -0.527006,1.174667 -1.174667,1.174667zm0,0" id="svg_2"/>
   <path d="m23.314117,7.546291c1.20263,0 2.180965,-0.978531 2.180965,-2.180966c0,-1.20263 -0.978335,-2.180965 -2.180965,-2.180965c-1.202631,0 -2.180966,0.978335 -2.180966,2.180965c0,1.202435 0.978335,2.180966 2.180966,2.180966zm0,-3.355828c0.64766,0 1.174862,0.527006 1.174862,1.174862c0,0.647661 -0.527202,1.174667 -1.174862,1.174667c-0.647856,0 -1.174863,-0.527006 -1.174863,-1.174667c0,-0.647856 0.527007,-1.174862 1.174863,-1.174862zm0,0" id="svg_3"/>
   <path d="m17.347505,8.372097c-1.20263,0 -2.180965,0.978335 -2.180965,2.180965c0,1.202631 0.978335,2.180966 2.180965,2.180966c1.202631,0 2.180966,-0.978335 2.180966,-2.180966c0,-1.20263 -0.978531,-2.180965 -2.180966,-2.180965zm0,3.355828c-0.647856,0 -1.174862,-0.527007 -1.174862,-1.174863c0,-0.64766 0.527006,-1.174667 1.174862,-1.174667c0.647661,0 1.174667,0.527007 1.174667,1.174667c0,0.647856 -0.527006,1.174863 -1.174667,1.174863zm0,0" id="svg_4"/>
   <path d="m23.314117,8.372097c-1.202631,0 -2.180966,0.978335 -2.180966,2.180965c0,1.202631 0.978335,2.180966 2.180966,2.180966c1.20263,0 2.180965,-0.978335 2.180965,-2.180966c0,-1.20263 -0.978335,-2.180965 -2.180965,-2.180965zm0,3.355828c-0.647856,0 -1.174863,-0.527007 -1.174863,-1.174863c0,-0.64766 0.527007,-1.174667 1.174863,-1.174667c0.64766,0 1.174862,0.527007 1.174862,1.174667c0,0.647856 -0.527202,1.174863 -1.174862,1.174863zm0,0" id="svg_5"/>
   <path d="m23.314117,13.559834c-1.202631,0 -2.180966,0.97853 -2.180966,2.180965c0,1.202631 0.978335,2.180966 2.180966,2.180966c1.20263,0 2.180965,-0.978335 2.180965,-2.180966c0,-1.202435 -0.978335,-2.180965 -2.180965,-2.180965zm0,3.355828c-0.647856,0 -1.174863,-0.527007 -1.174863,-1.174863c0,-0.647856 0.527007,-1.174667 1.174863,-1.174667c0.64766,0 1.174862,0.526811 1.174862,1.174667c0,0.647856 -0.527202,1.174863 -1.174862,1.174863zm0,0" id="svg_6"/>
   <path d="m18.440041,23.620864l0.191248,-0.263796c0.310142,-0.427667 0.502171,-0.810749 0.502171,-1.397398c0,-0.277876 -0.225273,-0.503149 -0.502953,-0.503149c-0.277877,0 -0.50315,0.225273 -0.50315,0.503149c0,0.29352 -0.069615,0.474403 -0.310533,0.806838l-0.191443,0.263796c-0.224686,0.310142 -0.34358,0.676407 -0.34358,1.059488l0,1.348902l-6.283207,0l0,-1.074154c0,-0.583912 -0.227424,-1.13282 -0.640229,-1.545625l-0.919084,-0.919083c-0.348274,-0.348274 -0.540108,-0.811336 -0.540108,-1.30373l0,-0.513709c0,-0.937465 -0.180688,-1.852442 -0.537371,-2.719314l-0.827566,-2.012597c-0.038132,-0.092495 -0.028941,-0.198092 0.02464,-0.282374c0.073722,-0.116547 0.217255,-0.170128 0.349251,-0.130627c0.431187,0.129454 0.785719,0.418868 0.998868,0.815247l0.183034,0.340647c0.265752,0.494741 0.453089,1.025658 0.556535,1.577695l0.092104,0.49083c0.047714,0.255388 0.282373,0.432556 0.54089,0.408307c0.258712,-0.024052 0.456609,-0.241112 0.456609,-0.500998l0,-8.193726c0,-0.136494 0.050842,-0.266926 0.143337,-0.367438l0.006649,-0.007431c0.098166,-0.10677 0.232313,-0.169151 0.377411,-0.175017c0.145684,-0.006062 0.283742,0.044781 0.390708,0.143142c0.111268,0.102468 0.175017,0.248153 0.175017,0.399508l0,6.480712c0,0.277876 0.225273,0.503149 0.503149,0.503149c0.277877,0 0.50315,-0.225273 0.50315,-0.503149l0,-3.055268c0,-0.130041 0.057687,-0.251868 0.15859,-0.334195c0.231922,-0.189292 0.563966,-0.169932 0.772617,0.044781c0.104424,0.107357 0.161915,0.249131 0.161915,0.398922l0,3.237324c0,0.277876 0.225274,0.50315 0.50315,0.50315c0.27768,0 0.502953,-0.225274 0.502953,-0.50315l0,-1.98346c0,-0.193203 0.04615,-0.367829 0.137081,-0.519575c0.070006,-0.116939 0.181079,-0.19907 0.312684,-0.23114c0.125151,-0.030506 0.253236,-0.010755 0.360007,0.054949l0.036567,0.02288c0.136298,0.085259 0.217647,0.231922 0.217647,0.392663l0,2.788539c0,0.277876 0.225273,0.503149 0.503149,0.503149s0.50315,-0.225273 0.50315,-0.503149l0,-0.892294c0,-0.183425 0.05534,-0.360006 0.159959,-0.510775c0.123197,-0.177364 0.329306,-0.268685 0.525247,-0.232313c0.095624,0.017599 0.18499,0.061402 0.258125,0.126716c0.11381,0.10149 0.178928,0.246979 0.178928,0.399312l0,1.938484c0,0.277876 0.225273,0.50315 0.50315,0.50315c0.27768,0 0.502953,-0.225274 0.502953,-0.50315l0,-1.938484c0,-0.438813 -0.187727,-0.858072 -0.515273,-1.150223c-0.210803,-0.187923 -0.468342,-0.314248 -0.745044,-0.365287c-0.296649,-0.054753 -0.597796,-0.016035 -0.868045,0.100904l0,-0.264383c0,-0.509994 -0.258321,-0.975793 -0.690682,-1.246043l-0.041456,-0.025812c-0.338497,-0.208456 -0.738591,-0.271032 -1.126953,-0.17619c-0.089562,0.021706 -0.175995,0.051429 -0.258712,0.087997c-0.066683,-0.266534 -0.202785,-0.512145 -0.398726,-0.713952c-0.44292,-0.455826 -1.088038,-0.592124 -1.652981,-0.392272l0,-2.042517c0,-0.431773 -0.182253,-0.847121 -0.499825,-1.139663c-0.304862,-0.280614 -0.700459,-0.426103 -1.114242,-0.408308c-0.413783,0.017209 -0.796083,0.194572 -1.076306,0.49963l-0.006648,0.00743c-0.263601,0.286676 -0.408699,0.659003 -0.408699,1.048342l0,5.289619c-0.34495,-0.576285 -0.884862,-0.997108 -1.532718,-1.191484c-0.56201,-0.16876 -1.174276,0.059838 -1.488329,0.555947c-0.228011,0.359616 -0.267316,0.809576 -0.105206,1.203413l0.827762,2.012597c0.306231,0.745044 0.461693,1.531154 0.461693,2.336623l0,0.513709c0,0.761079 0.296453,1.476791 0.834606,2.015139l0.919279,0.919279c0.222731,0.222731 0.345536,0.518989 0.345536,0.83402l0,1.088038l-0.289804,0c-0.133561,0.000196 -0.261646,0.053189 -0.355901,0.147836c-0.09445,0.09445 -0.147249,0.222535 -0.147053,0.356095l0.003715,2.356765c0.000391,0.277485 0.225469,0.502367 0.503149,0.502367l0.000196,0l8.731684,-0.002542c0.13356,-0.000196 0.261645,-0.05319 0.3559,-0.147836c0.094451,-0.09445 0.147249,-0.222535 0.147054,-0.356096l-0.003716,-2.356764c-0.000391,-0.277485 -0.225469,-0.502367 -0.503149,-0.502367l-0.146662,0.000195l0,-1.360243c0.000195,-0.169737 0.052798,-0.331848 0.152137,-0.469124zm-8.231076,4.188283l-0.002151,-1.350466l7.72558,-0.002347l0.002151,1.350662l-7.72558,0.002151zm0,0" id="svg_7"/>
   <path d="m7.589381,8.043378l0.774768,0.447222c0.079198,0.045758 0.165631,0.067465 0.25089,0.067465c0.174039,0 0.342994,-0.090149 0.436272,-0.251477c0.139035,-0.240722 0.056513,-0.548322 -0.184208,-0.687357l-0.774768,-0.447223c-0.240526,-0.139035 -0.548126,-0.056513 -0.687162,0.184013c-0.13884,0.240721 -0.056513,0.548321 0.184208,0.687357zm0,0" id="svg_8"/>
   <path d="m7.561027,10.675672c0.033047,0 0.066486,-0.003324 0.100121,-0.009973l0.876845,-0.176973c0.2724,-0.054949 0.448786,-0.320114 0.393837,-0.592515c-0.05495,-0.272401 -0.320311,-0.448395 -0.592711,-0.393642l-0.876845,0.176777c-0.272401,0.05495 -0.448787,0.320311 -0.393837,0.592516c0.048105,0.238766 0.258125,0.40381 0.49259,0.40381zm0,0" id="svg_9"/>
   <path d="m19.094546,19.774793c-0.104033,-0.257539 -0.397357,-0.381908 -0.654896,-0.27768c-0.257734,0.104032 -0.382104,0.397161 -0.277876,0.654896l0.004693,0.011537c0.079002,0.195745 0.267512,0.31464 0.466386,0.31464c0.062967,0 0.126716,-0.011929 0.18851,-0.036764c0.257539,-0.104228 0.381908,-0.397357 0.277876,-0.655091l-0.004693,-0.011538zm0,0" id="svg_10"/>
  </g>
  <rect fill="none" height="100%" id="backgroundrect" width="100%" x="0" y="0"/>
 </g>
</svg>