<?xml version="1.0" encoding="UTF-8" standalone="no"?>
<svg
   xmlns:dc="http://purl.org/dc/elements/1.1/"
   xmlns:cc="http://creativecommons.org/ns#"
   xmlns:rdf="http://www.w3.org/1999/02/22-rdf-syntax-ns#"
   xmlns:svg="http://www.w3.org/2000/svg"
   xmlns="http://www.w3.org/2000/svg"
   xmlns:sodipodi="http://sodipodi.sourceforge.net/DTD/sodipodi-0.dtd"
   xmlns:inkscape="http://www.inkscape.org/namespaces/inkscape"
   width="32"
   height="32"
   version="1.1"
   id="svg112"
   sodipodi:docname="ev-charging-cost-icon.svg"
   inkscape:version="1.0.2 (e86c870, 2021-01-15)">
  <metadata
     id="metadata118">
    <rdf:RDF>
      <cc:Work
         rdf:about="">
        <dc:format>image/svg+xml</dc:format>
        <dc:type
           rdf:resource="http://purl.org/dc/dcmitype/StillImage" />
        <dc:title></dc:title>
      </cc:Work>
    </rdf:RDF>
  </metadata>
  <defs
     id="defs116" />
  <sodipodi:namedview
     pagecolor="#ffffff"
     bordercolor="#666666"
     borderopacity="1"
     objecttolerance="10"
     gridtolerance="10"
     guidetolerance="10"
     inkscape:pageopacity="0"
     inkscape:pageshadow="2"
     inkscape:window-width="1920"
     inkscape:window-height="1017"
     id="namedview114"
     showgrid="false"
     inkscape:zoom="26.5625"
     inkscape:cx="16"
     inkscape:cy="16"
     inkscape:window-x="1912"
     inkscape:window-y="-8"
     inkscape:window-maximized="1"
     inkscape:current-layer="svg112" />
  <path
     id="path0"
     d="m 7.3557354,2.5907989 c -0.186252,0.012877 -0.421251,0.044608 -0.522426,0.071282 -0.101174,0.026213 -0.251095,0.057025 -0.332954,0.068522 -0.08186,0.011037 -0.206487,0.045068 -0.276389,0.074961 -0.07036,0.029892 -0.177055,0.063464 -0.236839,0.074961 -0.06025,0.011037 -0.163258,0.047828 -0.229481,0.081399 -0.06576,0.033571 -0.138885,0.061164 -0.162339,0.061164 -0.02345,0 -0.0791,0.019775 -0.124168,0.044149 -0.04461,0.023914 -0.199129,0.100254 -0.342612,0.1692363 -0.324217,0.1559 -0.682925,0.3596277 -0.932641,0.5307038 -0.07634,0.051967 -0.42723,0.3329546 -0.616702,0.4939133 -0.224422,0.1899312 -0.456202,0.4318292 -0.712817,0.7431693 -0.125088,0.1522209 -0.245117,0.2970838 -0.266271,0.3223773 -0.0814,0.096115 -0.328356,0.4819563 -0.328356,0.5132283 0,0.017475 -0.01977,0.048748 -0.04461,0.069442 -0.02437,0.020235 -0.121869,0.1982093 -0.216605,0.3950388 -0.09474,0.1972894 -0.199129,0.4097549 -0.23224,0.4722988 -0.03265,0.062544 -0.05933,0.1388844 -0.05933,0.1701563 0,0.030812 -0.02759,0.1108316 -0.06162,0.1770546 -0.03357,0.066223 -0.06116,0.1384245 -0.06116,0.1609587 0,0.022074 -0.03357,0.1471623 -0.07404,0.2773089 -0.222583,0.7132769 -0.309501,2.2948111 -0.160499,2.9253087 0.02989,0.126468 0.06622,0.306282 0.08048,0.399178 0.03127,0.202348 0.142103,0.58175 0.220283,0.754666 0.03127,0.06852 0.05657,0.143023 0.05657,0.165558 0,0.04369 0.0814,0.2327 0.201888,0.469539 0.04093,0.08048 0.0745,0.164638 0.0745,0.187632 0,0.02253 0.02667,0.0653 0.05979,0.0952 0.03265,0.02943 0.06806,0.09244 0.07864,0.139804 0.01012,0.04691 0.04553,0.109912 0.07818,0.139805 0.03311,0.02943 0.05978,0.07174 0.05978,0.0929 0,0.02161 0.01886,0.05795 0.04139,0.08048 0.02253,0.02253 0.05932,0.07542 0.0814,0.11727 0.193611,0.366066 1.166261,1.414137 1.553022,1.673051 0.100254,0.0676 0.19361,0.140264 0.207407,0.161878 0.0138,0.02116 0.06898,0.05978 0.122788,0.08508 0.159579,0.07542 0.280988,0.150381 0.305822,0.189011 0.01288,0.01978 0.07174,0.05197 0.130606,0.07174 0.05887,0.01932 0.107153,0.04691 0.107153,0.06116 0,0.01426 0.05197,0.04277 0.11543,0.063 0.063,0.02024 0.135665,0.05427 0.160959,0.07542 0.02529,0.02069 0.09703,0.05427 0.159119,0.07404 0.06162,0.02023 0.129227,0.05657 0.149462,0.08094 0.02023,0.02437 0.06622,0.04461 0.102093,0.04461 0.03633,4.6e-4 0.139345,0.03495 0.229941,0.0768 0.09014,0.04231 0.190851,0.0768 0.223503,0.0768 0.03311,0 0.09014,0.01977 0.127847,0.04415 0.03725,0.02391 0.164638,0.06025 0.282828,0.08048 0.118189,0.01978 0.230401,0.04875 0.249256,0.06346 0.01886,0.01518 0.205567,0.04829 0.414813,0.07358 0.209247,0.02529 0.477358,0.05932 0.595548,0.07542 0.419412,0.05703 1.520369,-0.02253 1.8891947,-0.136585 0.075881,-0.02345 0.2281015,-0.05841 0.3375536,-0.07772 0.109912,-0.01932 0.2276423,-0.05289 0.2612133,-0.07404 0.03403,-0.02161 0.106233,-0.04783 0.161419,-0.05841 0.05473,-0.01104 0.160958,-0.04783 0.236379,-0.08186 0.07496,-0.03403 0.152681,-0.06208 0.172456,-0.06208 0.01978,0 0.086,-0.02713 0.147622,-0.06024 0.06116,-0.03311 0.215225,-0.109452 0.341692,-0.170157 0.126928,-0.0607 0.286047,-0.144403 0.353649,-0.186252 0.0676,-0.04185 0.15728,-0.09336 0.199589,-0.113591 0.04231,-0.02069 0.0952,-0.05519 0.11727,-0.07634 0.02253,-0.02162 0.07082,-0.05519 0.107613,-0.0745 0.255234,-0.135205 1.188335,-0.987827 1.433912,-1.309744 0.04185,-0.05565 0.104393,-0.134285 0.137964,-0.175675 0.03403,-0.04093 0.09612,-0.124168 0.138425,-0.184872 0.04231,-0.06071 0.105773,-0.147623 0.141643,-0.192691 0.03587,-0.04553 0.0745,-0.113591 0.08646,-0.151761 0.01196,-0.03771 0.03311,-0.06898 0.04691,-0.06898 0.0138,0 0.04737,-0.05519 0.0745,-0.122789 0.02713,-0.0676 0.0607,-0.122789 0.07542,-0.122789 0.01426,0 0.04231,-0.05381 0.06162,-0.11911 0.01977,-0.06576 0.05656,-0.136585 0.08186,-0.157739 0.02529,-0.02069 0.04599,-0.05749 0.04599,-0.0814 0,-0.02437 0.03449,-0.108992 0.0768,-0.188092 0.04185,-0.07956 0.0768,-0.162338 0.0768,-0.184413 0,-0.02161 0.02759,-0.09382 0.06116,-0.160039 0.03403,-0.06622 0.06162,-0.145322 0.06162,-0.176135 0,-0.03035 0.02575,-0.103473 0.05703,-0.162338 0.03127,-0.05887 0.06668,-0.171536 0.07818,-0.250636 0.01196,-0.0791 0.04829,-0.220283 0.0814,-0.314099 0.03265,-0.09382 0.05978,-0.243278 0.06024,-0.332495 0,-0.08922 0.02345,-0.252014 0.05151,-0.361466 0.07312,-0.2869668 0.07312,-1.3327385 0,-1.6652331 -0.02851,-0.1301467 -0.05197,-0.2993832 -0.05197,-0.3761835 0,-0.0768 -0.02851,-0.2212033 -0.063,-0.3209977 -0.03449,-0.099796 -0.07496,-0.2483382 -0.09013,-0.3301972 -0.03174,-0.1724558 -0.135215,-0.4810366 -0.200978,-0.5992263 -0.02483,-0.044608 -0.04507,-0.098875 -0.04507,-0.1204891 0,-0.042769 -0.297084,-0.6452144 -0.415734,-0.8420439 C 13.979877,5.8890726 13.924691,5.7920374 13.898018,5.7414504 13.871804,5.6908634 13.808341,5.5938283 13.757754,5.5262257 13.707627,5.458623 13.643243,5.368946 13.61519,5.3266369 13.414222,5.0244944 12.465025,4.0573626 12.276014,3.9617071 12.256239,3.9515897 12.184497,3.9019224 12.116895,3.8513354 11.894312,3.685318 11.730134,3.5758661 11.703001,3.5758661 c -0.01472,0 -0.06576,-0.031732 -0.113591,-0.070822 C 11.51307,3.4434201 10.998002,3.1803676 10.734489,3.0690761 10.444764,2.9467475 10.290243,2.8906419 10.174353,2.8671879 10.102612,2.8524717 10.005576,2.8207399 9.9586677,2.7963661 9.9117597,2.7724523 9.8046075,2.7425599 9.7204491,2.730603 9.6362911,2.7186461 9.4564764,2.6832351 9.3212714,2.652423 9.0366044,2.5875797 7.9213904,2.5526287 7.3557354,2.5907989 m 1.688687,0.9082669 c 0.202348,0.042309 0.397798,0.0768 0.4341288,0.0768 0.036791,0 0.1269274,0.027133 0.2005085,0.060704 0.073581,0.033571 0.168777,0.061164 0.211086,0.061624 0.04231,0 0.1255483,0.026213 0.1844133,0.057945 0.05887,0.031272 0.15544,0.067603 0.214305,0.080019 0.05933,0.012877 0.128307,0.04047 0.1536,0.061624 0.02529,0.021615 0.09703,0.055186 0.15912,0.074961 0.06162,0.020235 0.129226,0.056566 0.149461,0.080939 0.02023,0.024374 0.05886,0.044149 0.08554,0.044149 0.02621,0 0.0975,0.031732 0.15728,0.069902 0.142563,0.091517 0.212465,0.1338257 0.321917,0.1945301 0.503571,0.280528 1.737894,1.5065734 1.737894,1.726397 0,0.016096 0.02023,0.045988 0.04507,0.066683 0.08232,0.068522 0.50541,0.8627387 0.50725,0.9528755 4.6e-4,0.025294 0.02851,0.087838 0.06208,0.1384245 0.03357,0.050587 0.06116,0.1237083 0.06116,0.1627982 0,0.03863 0.02207,0.1126711 0.04829,0.1641779 0.02667,0.051047 0.06806,0.1880917 0.09244,0.3035221 0.02391,0.1154304 0.05795,0.2478764 0.07542,0.2934047 0.132446,0.3490505 0.121408,2.1573072 -0.01518,2.4815232 -0.02253,0.05289 -0.05748,0.186252 -0.07726,0.295704 -0.02023,0.109912 -0.05013,0.207867 -0.06576,0.217524 -0.0161,0.01012 -0.03725,0.0722 -0.04737,0.138425 -0.01012,0.06622 -0.04231,0.161878 -0.07174,0.212465 -0.02943,0.05059 -0.063,0.132446 -0.07496,0.182113 -0.0115,0.04921 -0.04783,0.123709 -0.08048,0.165098 -0.03311,0.04185 -0.05979,0.09842 -0.05979,0.126468 0,0.02759 -0.02391,0.08462 -0.05335,0.126467 -0.06208,0.08738 -0.137505,0.220284 -0.200049,0.35227 -0.02437,0.05059 -0.06714,0.111291 -0.0952,0.134285 -0.02759,0.02299 -0.05059,0.05841 -0.05059,0.07772 0,0.01978 -0.02713,0.0699 -0.05978,0.111293 -0.296164,0.376183 -0.401477,0.501731 -0.565195,0.675107 -0.201429,0.212005 -0.606125,0.579911 -0.691203,0.627279 -0.02805,0.01564 -0.06484,0.04415 -0.0814,0.06346 -0.02713,0.03035 -0.345371,0.240519 -0.522426,0.344912 -0.172456,0.101634 -0.730293,0.377103 -0.763404,0.377103 -0.02069,0 -0.09152,0.02759 -0.15728,0.06116 -0.06622,0.03357 -0.169236,0.07036 -0.2290213,0.08186 -0.05979,0.01104 -0.164638,0.04553 -0.2322406,0.07634 -0.067603,0.03081 -0.1646378,0.05656 -0.2152248,0.05702 -0.050587,4.6e-4 -0.1821129,0.03035 -0.2920249,0.06576 -0.279608,0.09152 -1.658795,0.12003 -2.042336,0.04277 -0.135205,-0.02713 -0.345831,-0.06944 -0.46816,-0.09336 -0.122329,-0.02391 -0.260293,-0.063 -0.307201,-0.08646 -0.04645,-0.02391 -0.137965,-0.05289 -0.202348,-0.06438 -0.06438,-0.01196 -0.161419,-0.04829 -0.215225,-0.08094 -0.05335,-0.03265 -0.133826,-0.05932 -0.177974,-0.05978 -0.04461,0 -0.09749,-0.01977 -0.11773,-0.04461 -0.02023,-0.02437 -0.08784,-0.0607 -0.149922,-0.08048 -0.06162,-0.01977 -0.133365,-0.05427 -0.158659,-0.07588 -0.02529,-0.02207 -0.08324,-0.04921 -0.128307,-0.06025 -0.04507,-0.0115 -0.106233,-0.04691 -0.135205,-0.07956 -0.02943,-0.03219 -0.06668,-0.05841 -0.0837,-0.05841 -0.02897,0 -0.15682,-0.0837 -0.497593,-0.325137 -0.347657,-0.24647 -1.019545,-0.9087 -1.209476,-1.192447 -0.04415,-0.06622 -0.101174,-0.149462 -0.126467,-0.185333 -0.02529,-0.03587 -0.07404,-0.110832 -0.107613,-0.166478 -0.03403,-0.05519 -0.112671,-0.179354 -0.175675,-0.275469 -0.063,-0.09566 -0.11497,-0.19499 -0.11589,-0.220284 -9.2e-4,-0.02529 -0.02851,-0.08094 -0.06162,-0.122788 -0.03311,-0.04231 -0.06071,-0.0906 -0.06162,-0.107612 -9.2e-4,-0.01702 -0.03587,-0.0998 -0.07726,-0.184413 -0.04185,-0.08462 -0.07588,-0.174755 -0.07588,-0.200049 0,-0.02575 -0.02621,-0.09474 -0.05795,-0.1536 -0.03127,-0.05933 -0.0676,-0.169697 -0.08048,-0.245577 -0.01242,-0.07588 -0.04139,-0.174756 -0.06438,-0.219824 -0.02299,-0.04461 -0.05565,-0.196829 -0.07266,-0.337553 -0.01656,-0.141183 -0.05151,-0.332494 -0.0768,-0.42539 -0.07266,-0.2630532 -0.06576,-1.2380031 0.01058,-1.5212904 0.03173,-0.1177298 0.06576,-0.3072011 0.07542,-0.420792 0.0097,-0.1135908 0.03863,-0.2469566 0.06392,-0.296164 0.02575,-0.049207 0.05611,-0.1499215 0.0676,-0.2235026 0.0115,-0.073581 0.04645,-0.1821133 0.07772,-0.2409782 0.03127,-0.058865 0.05657,-0.1264676 0.05657,-0.1503814 0,-0.083699 0.321917,-0.7385705 0.515068,-1.0480711 0.10255,-0.163718 0.117266,-0.1848726 0.337089,-0.4764378 0.269951,-0.358248 1.006682,-1.0899203 1.097279,-1.0899203 0.0115,0 0.08646,-0.055186 0.166477,-0.1227885 0.08048,-0.067603 0.161419,-0.1232484 0.179814,-0.1232484 0.01886,0 0.07312,-0.031272 0.120949,-0.070362 0.04783,-0.03863 0.121409,-0.087378 0.163718,-0.1085322 0.04231,-0.021614 0.11819,-0.059785 0.168777,-0.085078 0.05105,-0.025294 0.113131,-0.059325 0.138424,-0.075421 0.02529,-0.016096 0.08048,-0.045068 0.122789,-0.063924 0.04231,-0.018395 0.146242,-0.066683 0.23086,-0.1071525 0.08462,-0.04001 0.174756,-0.073121 0.200509,-0.073121 0.02575,0 0.07358,-0.018855 0.107153,-0.041849 0.03311,-0.023454 0.108991,-0.052427 0.167856,-0.064843 0.05932,-0.012877 0.190391,-0.047828 0.292025,-0.07818 0.101174,-0.030812 0.336174,-0.084158 0.521966,-0.1186495 0.186253,-0.034951 0.365607,-0.068982 0.399638,-0.075881 0.246037,-0.050587 1.217308,-0.015176 1.565898,0.057025 m -1.287669,1.6808694 c -0.03817,0.054266 -0.04783,0.1609587 -0.04783,0.5215062 0,0.5467997 0.01012,0.5330032 -0.42999,0.5647351 -0.160499,0.011497 -0.361008,0.045988 -0.445626,0.0768 -0.08462,0.030352 -0.208786,0.064843 -0.276389,0.0768 -0.0676,0.011497 -0.171076,0.045988 -0.230401,0.075881 -0.05932,0.029892 -0.190391,0.094736 -0.292025,0.144403 -0.334794,0.1641778 -0.394579,0.2051073 -0.615782,0.424471 -0.77812,0.7703024 -0.520586,1.7567493 0.600606,2.2998699 0.0929,0.045068 0.220284,0.108992 0.282368,0.1416437 0.06254,0.032652 0.141643,0.059785 0.175675,0.059785 0.03403,0 0.131986,0.027593 0.217064,0.061164 0.08554,0.033571 0.23454,0.069442 0.331575,0.0791 0.384921,0.03863 0.652112,0.1103717 0.669128,0.1788941 0.0083,0.035871 0.0115,0.4378075 0.0069,0.8940095 l -0.0087,0.829627 -0.252475,-0.0051 c -0.161418,-0.0032 -0.288805,-0.02295 -0.351809,-0.05468 -0.05427,-0.02667 -0.15452,-0.05749 -0.223043,-0.06714 -0.111291,-0.01656 -0.352269,-0.110372 -0.524265,-0.203728 -0.03357,-0.01839 -0.09152,-0.04921 -0.128307,-0.06898 -0.03679,-0.01885 -0.127848,-0.09933 -0.202808,-0.178434 -0.09014,-0.09566 -0.160499,-0.143483 -0.209247,-0.142564 -0.08692,0.0014 -0.333874,0.0653 -0.38814,0.100255 -0.02069,0.01334 -0.107153,0.04461 -0.192231,0.0699 -0.171996,0.05105 -0.179354,0.07128 -0.09657,0.264432 0.11819,0.275929 0.833306,0.854461 1.055429,0.854001 0.02161,0 0.09428,0.02621 0.161879,0.0584 0.212006,0.100254 0.540821,0.187172 0.875615,0.23132 0.177515,0.02345 0.360548,0.05749 0.406996,0.07542 l 0.08462,0.03265 v 0.479198 c 0,0.628199 -0.02116,0.597386 0.412974,0.597386 0.488854,0 0.447005,0.05059 0.447005,-0.536682 0,-0.377103 0.01012,-0.50817 0.04047,-0.533464 0.05519,-0.04599 0.360548,-0.11865 0.604745,-0.144403 0.109452,-0.0115 0.23408,-0.03863 0.2763891,-0.05978 0.042309,-0.02161 0.1250879,-0.04875 0.1844127,-0.0607 0.1706165,-0.03449 0.6511928,-0.255694 0.8038738,-0.369745 0.04507,-0.03357 0.139804,-0.102554 0.210166,-0.153601 0.110832,-0.0791 0.200049,-0.178434 0.411135,-0.455283 0.02391,-0.03127 0.05243,-0.107152 0.06438,-0.169236 0.0115,-0.06209 0.03449,-0.128767 0.05105,-0.148542 0.104853,-0.127388 0,-0.781799 -0.144863,-0.902288 -0.02437,-0.02023 -0.04461,-0.05335 -0.04461,-0.07358 0,-0.02023 -0.03081,-0.066223 -0.06898,-0.1025542 -0.03771,-0.036331 -0.09657,-0.095655 -0.130606,-0.1319861 C 10.69218,9.6656235 10.413032,9.4747725 10.180792,9.3680799 10.046046,9.3059958 9.8965837,9.235174 9.8487567,9.2108002 9.8009282,9.1864262 9.7356252,9.1666512 9.7038934,9.1666512 c -0.031732,0 -0.163718,-0.034951 -0.293405,-0.0768 -0.129227,-0.042309 -0.303062,-0.0768 -0.386761,-0.0768 -0.471838,0 -0.460341,0.025753 -0.448384,-1.0586484 l 0.0087,-0.7974354 0.101633,-0.029432 c 0.252016,-0.072202 1.2076503,0.2846669 1.4992156,0.5601362 0.15958,0.1508413 0.27409,0.1604989 0.43137,0.036791 0.04415,-0.034491 0.104393,-0.063004 0.133366,-0.063004 0.02943,0 0.0883,-0.027593 0.130606,-0.061164 0.04277,-0.033112 0.113591,-0.074501 0.15774,-0.091057 0.09152,-0.034951 0.100714,-0.068982 0.03449,-0.124628 -0.02529,-0.020695 -0.04645,-0.055186 -0.04645,-0.07634 0,-0.048748 -0.409295,-0.4373478 -0.50817,-0.4828761 -0.04139,-0.018855 -0.07542,-0.044609 -0.07542,-0.057485 0,-0.012877 -0.04691,-0.03909 -0.104853,-0.057945 -0.05795,-0.019315 -0.120949,-0.053806 -0.140264,-0.07726 -0.01932,-0.023454 -0.07956,-0.051967 -0.133366,-0.063464 -0.05335,-0.011499 -0.1388843,-0.042771 -0.1894713,-0.068524 -0.05105,-0.026213 -0.1683169,-0.064843 -0.2612131,-0.086458 -0.092896,-0.021155 -0.2244222,-0.059785 -0.2920252,-0.085538 -0.0676,-0.025753 -0.184872,-0.048288 -0.260753,-0.049667 -0.46678,-0.0092 -0.491154,-0.03955 -0.492534,-0.6125628 -0.0014,-0.5780717 0.0161,-0.5546177 -0.423091,-0.5546177 -0.316859,0 -0.343992,0.0046 -0.38814,0.068062 M 22.453203,6.9104705 c -0.07588,0.023914 -0.172916,0.043689 -0.215685,0.043689 -0.328356,0.0023 -1.289509,0.7868581 -1.289509,1.0531297 0,0.015636 -0.02759,0.063464 -0.06162,0.1062328 -0.03357,0.043229 -0.06116,0.1080722 -0.06116,0.1444029 0,0.036331 -0.02759,0.144403 -0.06162,0.2405183 -0.05519,0.1568198 -0.06116,0.2538549 -0.06116,0.9303413 0,0.4621814 -0.01242,0.7785805 -0.03219,0.8149115 -0.03081,0.05795 -0.09106,0.05932 -2.516934,0.05932 h -2.485202 l -0.04783,0.06806 c -0.07036,0.100713 -0.0699,0.7772 9.2e-4,0.803873 0.02667,0.01058 1.165341,0.01886 2.53027,0.01886 1.961397,0 2.488422,0.0083 2.514175,0.03863 0.01977,0.02437 0.03587,0.35089 0.04185,0.871016 0.0074,0.591409 0.02069,0.844805 0.04737,0.876537 0.02023,0.02437 0.04645,0.106232 0.0584,0.181193 0.0115,0.07542 0.05381,0.184873 0.09336,0.243738 0.03955,0.05886 0.0722,0.122328 0.0722,0.141183 0,0.01886 0.02759,0.05932 0.06116,0.08968 0.03403,0.03081 0.06162,0.07082 0.06208,0.08922 9.2e-4,0.08416 0.501272,0.525186 0.721555,0.636477 0.05059,0.02529 0.119569,0.06116 0.153601,0.0791 0.03357,0.01793 0.165097,0.0653 0.291565,0.105313 l 0.230401,0.07266 2.06441,0.0092 c 2.214792,0.0097 2.119596,0.01564 2.30079,-0.140264 0.126007,-0.108532 0.134745,-0.164178 0.134745,-0.831927 0,-0.54542 0.0078,-0.652572 0.04829,-0.693502 0.04231,-0.04231 0.199588,-0.04829 1.258697,-0.04829 1.426094,0 1.279391,0.05795 1.266515,-0.498973 l -0.0083,-0.376184 -1.257777,-0.0083 c -0.959314,-0.006 -1.263756,-0.01702 -1.282151,-0.04599 -0.01334,-0.02069 -0.02437,-0.587729 -0.02483,-1.259617 l -4.6e-4,-1.2219055 0.0791,-0.029892 c 0.04599,-0.017476 0.570713,-0.029892 1.271573,-0.029892 1.059109,0 1.194774,-0.00552 1.21133,-0.048747 0.03541,-0.092896 0.02023,-0.7358112 -0.0184,-0.7744412 -0.02759,-0.027593 -0.352269,-0.037251 -1.271573,-0.037251 -1.097279,0 -1.236623,-0.00506 -1.253179,-0.048288 -0.01012,-0.026673 -0.01886,-0.338933 -0.01886,-0.6930422 0,-0.7436292 -0.01564,-0.7978952 -0.27317,-0.9308011 -0.131986,-0.068522 -4.056159,-0.068522 -4.272763,0 M 7.6932894,7.9990112 v 0.8756153 l -0.260753,-0.00736 c -0.180734,-0.00506 -0.305822,-0.026213 -0.405156,-0.068982 -0.0791,-0.034031 -0.177975,-0.062084 -0.219824,-0.062084 -0.0653,0 -0.302602,-0.098415 -0.450224,-0.187172 -0.02529,-0.015175 -0.08048,-0.042308 -0.121869,-0.060243 -0.100254,-0.042769 -0.366986,-0.3301953 -0.38952,-0.4194124 -0.05105,-0.2037277 0.19269,-0.4681599 0.603365,-0.654872 0.04231,-0.019315 0.11819,-0.056106 0.169237,-0.082319 0.05059,-0.025753 0.167857,-0.065303 0.260753,-0.087378 0.0929,-0.022074 0.238219,-0.061164 0.322837,-0.086918 0.08416,-0.025753 0.229481,-0.044149 0.322377,-0.04047 l 0.168777,0.00644 v 0.8751551 m 18.3676876,-0.2156847 0.0791,0.030352 -0.0083,2.9317475 c -0.0041,1.612346 -0.01931,2.942786 -0.03357,2.957042 -0.05565,0.05565 -3.208137,0.04921 -3.491424,-0.0074 -0.372964,-0.0745 -0.608884,-0.23408 -0.836525,-0.566115 -0.15498,-0.225342 -0.15728,-0.258913 -0.169237,-2.304009 -0.01196,-1.9434615 -0.0028,-2.1490287 0.100714,-2.3343612 0.02391,-0.042309 0.0607,-0.1108315 0.08232,-0.1522209 0.133366,-0.2547747 0.50725,-0.510469 0.807093,-0.5518584 0.268571,-0.036791 3.373235,-0.03955 3.46981,-0.00322 M 9.0789134,9.9075214 c 0.01839,0.014716 0.108073,0.04047 0.199589,0.057945 0.09106,0.017016 0.2212034,0.057025 0.288806,0.089677 0.067603,0.03219 0.1572797,0.07404 0.1995888,0.09336 0.5716338,0.259833 0.7542068,0.681545 0.4037768,0.93494 -0.2166043,0.15682 -0.3449123,0.232701 -0.4276907,0.253395 -0.045988,0.0115 -0.1250879,0.04599 -0.1756749,0.07726 -0.050587,0.03081 -0.133826,0.05611 -0.184413,0.05611 -0.05059,4.6e-4 -0.133825,0.02253 -0.184412,0.04921 -0.127388,0.06714 -0.453904,0.111292 -0.551399,0.07404 l -0.07818,-0.02943 v -0.828707 c 0,-0.7565073 0.0046,-0.8314681 0.05381,-0.8604407 0.05932,-0.034951 0.401477,-0.010577 0.456203,0.032652 m -6.431909,5.7218417 c -0.04875,0.05243 -0.131986,0.164178 -0.184873,0.248796 -0.05289,0.08462 -0.111751,0.171076 -0.129687,0.19269 -0.01839,0.02162 -0.04829,0.0837 -0.06668,0.138425 -0.01839,0.05427 -0.05105,0.119569 -0.07266,0.144863 -0.02161,0.02529 -0.04875,0.08784 -0.05978,0.138424 -0.01104,0.05059 -0.04553,0.161419 -0.0768,0.245577 -0.143483,0.388601 -0.142563,1.622464 0.0014,2.02762 0.02989,0.08416 0.06392,0.206947 0.07496,0.27271 0.01104,0.06576 0.04691,0.169237 0.07956,0.229941 0.03265,0.0607 0.05933,0.133826 0.05933,0.161878 0,0.04369 0.0929,0.257534 0.184873,0.425851 0.0138,0.02529 0.07082,0.135665 0.126467,0.245577 0.05565,0.109912 0.132446,0.238679 0.171077,0.286507 0.03909,0.04783 0.07036,0.09979 0.07036,0.11543 0,0.03127 0.371124,0.557837 0.46402,0.658091 0.03081,0.03357 0.0952,0.104393 0.142104,0.15682 0.46586,0.522426 1.1681,1.148785 1.547043,1.378726 0.02759,0.01702 0.103933,0.06254 0.169696,0.101174 0.06576,0.03863 0.181654,0.110832 0.257534,0.160499 0.07588,0.05013 0.15912,0.09887 0.184413,0.108992 0.02529,0.0097 0.07358,0.03311 0.107612,0.05197 0.06806,0.03817 0.177055,0.09014 0.384002,0.183493 0.07588,0.03449 0.189011,0.0883 0.251555,0.120029 0.06254,0.03127 0.138425,0.05748 0.169237,0.05748 0.03035,4.6e-4 0.124168,0.03449 0.208786,0.07588 0.08462,0.04139 0.167857,0.07588 0.185793,0.07634 0.07542,0.0023 0.103473,0.07036 0.06254,0.151761 -0.02207,0.04369 -0.04967,0.151761 -0.0607,0.239139 -0.01104,0.08784 -0.04415,0.212465 -0.07266,0.276389 -0.07772,0.173835 -0.07818,1.20581 -4.6e-4,1.356652 0.02897,0.05656 0.06208,0.15314 0.07358,0.214765 0.0115,0.06162 0.05335,0.172915 0.09336,0.247416 0.03955,0.0745 0.07174,0.151761 0.07174,0.171996 0,0.02023 0.02759,0.06162 0.06162,0.09244 0.03357,0.03035 0.06116,0.06806 0.06116,0.08324 0,0.01518 0.04507,0.08462 0.09979,0.15406 0.367446,0.464021 0.852621,0.765704 0.852621,0.530244 0,-0.01886 0.02575,-0.06208 0.05749,-0.09612 0.03173,-0.03403 0.06806,-0.09566 0.08048,-0.136585 0.01242,-0.04093 0.04599,-0.102094 0.0745,-0.135665 0.166477,-0.19637 0.15636,-0.224882 -0.187632,-0.517367 -0.360087,-0.305822 -0.595087,-0.973111 -0.518747,-1.473462 0.06254,-0.409755 0.114971,-0.650273 0.162799,-0.74317 0.02575,-0.05059 0.05748,-0.140264 0.07036,-0.199129 0.01242,-0.05886 0.04139,-0.134745 0.06346,-0.168776 0.11681,-0.178434 0.135665,-0.396878 0.135665,-1.556241 0,-1.1681 0.02667,-1.468863 0.140264,-1.594871 0.02391,-0.02667 0.05197,-0.09152 0.06254,-0.144403 0.01058,-0.05289 0.04553,-0.119569 0.07726,-0.148541 0.03173,-0.02897 0.05794,-0.0768 0.05794,-0.106693 0,-0.02989 0.03449,-0.09566 0.0768,-0.145783 0.04231,-0.05013 0.0768,-0.100254 0.0768,-0.111291 0,-0.09749 0.9505759,-1.153844 1.0384134,-1.153844 0.018395,0 0.044609,-0.0184 0.057945,-0.04139 0.027133,-0.04553 0.3646872,-0.286967 0.4952942,-0.35411 0.04553,-0.02299 0.109911,-0.0653 0.143943,-0.09382 0.03357,-0.02851 0.151301,-0.09703 0.261213,-0.15222 0.109452,-0.05519 0.220283,-0.111752 0.245577,-0.126008 0.02529,-0.0138 0.128767,-0.06254 0.230401,-0.107613 0.101174,-0.04507 0.239598,-0.108532 0.307201,-0.140723 0.0676,-0.03219 0.171076,-0.0676 0.230401,-0.0791 0.05886,-0.01104 0.135205,-0.03817 0.168776,-0.05979 0.03403,-0.02207 0.130607,-0.05473 0.215225,-0.07312 0.08416,-0.01839 0.19499,-0.05243 0.245577,-0.07542 0.05059,-0.02299 0.15452,-0.05105 0.230401,-0.06254 0.07588,-0.0115 0.207407,-0.04599 0.292025,-0.07634 0.235,-0.08554 0.528864,-0.1559 0.783179,-0.188092 0.126468,-0.0161 0.302143,-0.04967 0.38952,-0.07496 0.08738,-0.02529 0.246497,-0.05381 0.35319,-0.063 0.106692,-0.0097 0.276849,-0.03771 0.378482,-0.063 0.395039,-0.09841 0.945518,-0.134286 1.005762,-0.06576 0.0768,0.08692 0.08324,2.980035 0.0069,3.127657 l -0.04691,0.0906 h -2.342639 c -1.781583,0 -2.351837,0.0087 -2.37989,0.03679 -0.06116,0.0607 -0.05059,0.78042 0.0115,0.804334 0.02713,0.01058 3.244468,0.01885 7.150246,0.01885 7.042633,0 7.101957,4.6e-4 7.216008,0.06116 0.063,0.03403 0.133366,0.06162 0.1559,0.06162 0.02299,0 0.106693,0.03449 0.186252,0.0768 0.07956,0.04231 0.165558,0.0768 0.191771,0.0768 0.02621,0 0.08416,0.02575 0.128767,0.05703 0.04507,0.03127 0.121869,0.06668 0.171536,0.07864 0.04921,0.01196 0.123708,0.04829 0.165098,0.0814 0.04185,0.03265 0.09474,0.05932 0.11773,0.05932 0.03541,0 0.134285,0.04553 0.410674,0.188552 0.02529,0.01334 0.212006,0.108992 0.414814,0.213385 0.202348,0.103934 0.423551,0.221203 0.491154,0.261213 0.0676,0.03955 0.177514,0.101634 0.243737,0.137965 0.06668,0.03633 0.140264,0.08554 0.163718,0.108532 0.02345,0.02345 0.06025,0.04277 0.0814,0.04277 0.02162,0 0.06438,0.02759 0.09474,0.06116 0.03081,0.03403 0.07358,0.06162 0.09474,0.06162 0.02161,0 0.05748,0.01748 0.08002,0.03817 0.05657,0.05381 0.27179,0.216604 0.334794,0.253855 0.275929,0.161418 0.918844,0.851701 0.918844,0.985987 0,0.01931 0.03081,0.102553 0.06806,0.184872 0.290186,0.638776 -0.106233,1.982551 -0.66453,2.252962 -0.203267,0.09795 -0.220283,0.129227 -0.175215,0.318238 0.02069,0.08738 0.05473,0.248797 0.0745,0.358708 0.05059,0.27501 0.1559,0.334794 0.337094,0.191311 0.02069,-0.01656 0.0883,-0.04645 0.150381,-0.06622 0.06162,-0.01977 0.120029,-0.0561 0.129227,-0.08048 0.0097,-0.02483 0.03265,-0.04461 0.05197,-0.04461 0.0791,0 0.58175,-0.524265 0.58175,-0.606584 0,-0.0161 0.02621,-0.05289 0.05841,-0.08232 0.03219,-0.02897 0.0676,-0.08922 0.0791,-0.133366 0.01104,-0.04415 0.04461,-0.11589 0.07496,-0.159119 0.03035,-0.04323 0.06438,-0.129227 0.07588,-0.190851 0.01104,-0.06162 0.04277,-0.15728 0.07036,-0.212465 0.201889,-0.404697 0.09796,-1.761348 -0.170616,-2.226749 -0.09244,-0.159579 -0.101174,-0.173835 -0.171536,-0.277769 -0.06622,-0.09749 -0.742249,-0.77996 -0.772602,-0.77996 -0.01058,0 -0.08324,-0.05243 -0.161418,-0.11635 -0.07818,-0.06438 -0.171996,-0.136585 -0.208327,-0.161418 -0.422631,-0.287886 -0.590488,-0.394119 -0.648433,-0.412055 -0.03771,-0.0115 -0.06898,-0.03173 -0.06898,-0.04507 0,-0.01288 -0.05518,-0.04875 -0.122788,-0.0791 -0.0676,-0.03081 -0.122789,-0.06622 -0.122789,-0.0791 0,-0.01288 -0.04001,-0.03265 -0.08922,-0.04323 -0.04875,-0.01058 -0.113131,-0.04645 -0.143023,-0.0791 -0.02943,-0.03311 -0.0768,-0.05978 -0.104393,-0.05978 -0.02805,0 -0.09795,-0.03449 -0.15498,-0.0768 -0.05749,-0.04231 -0.127388,-0.0768 -0.1559,-0.0768 -0.02851,0 -0.06898,-0.02069 -0.08968,-0.04599 -0.02116,-0.02529 -0.09198,-0.06208 -0.15774,-0.08186 -0.06576,-0.01978 -0.134745,-0.05427 -0.153601,-0.0768 -0.01886,-0.02253 -0.04967,-0.04093 -0.06852,-0.04093 -0.01885,0 -0.110372,-0.03633 -0.203728,-0.08002 -0.0929,-0.04415 -0.245117,-0.11543 -0.338013,-0.158199 -0.0929,-0.04277 -0.217524,-0.101634 -0.276389,-0.131067 -0.05932,-0.02897 -0.151761,-0.06254 -0.205567,-0.0745 -0.05335,-0.0115 -0.114051,-0.04093 -0.134286,-0.0653 -0.01978,-0.02437 -0.05887,-0.04415 -0.08646,-0.04415 -0.02759,-4.6e-4 -0.119109,-0.03449 -0.203727,-0.07588 -0.08416,-0.04139 -0.179354,-0.07588 -0.211086,-0.07634 -0.03219,-9.2e-4 -0.101174,-0.02759 -0.153601,-0.05932 -0.05289,-0.03173 -0.143023,-0.06806 -0.200968,-0.08048 -0.05748,-0.01196 -0.147622,-0.04829 -0.199589,-0.08002 -0.05197,-0.03173 -0.126468,-0.05748 -0.164638,-0.05795 -0.106232,0 -0.373424,-0.146702 -0.464021,-0.254315 -0.04416,-0.05243 -0.102568,-0.11681 -0.129701,-0.143023 -0.04507,-0.04369 -0.397338,-0.452984 -0.472299,-0.548639 -0.01702,-0.02208 -0.06576,-0.07864 -0.108072,-0.125548 -0.04231,-0.04691 -0.15958,-0.179354 -0.261213,-0.293865 -0.101174,-0.11497 -0.19821,-0.224422 -0.215225,-0.243277 -0.01702,-0.01885 -0.0929,-0.110372 -0.168777,-0.202808 -0.07588,-0.09244 -0.158659,-0.190391 -0.184413,-0.217524 -0.02529,-0.02713 -0.135665,-0.151302 -0.245577,-0.27547 -0.109911,-0.124168 -0.23408,-0.262592 -0.276389,-0.308121 -0.04231,-0.04507 -0.09796,-0.108072 -0.123708,-0.140264 -0.447925,-0.555077 -0.666829,-0.775361 -0.794676,-0.798355 -0.0607,-0.01104 -0.159119,-0.04415 -0.217984,-0.07312 -0.05933,-0.02897 -0.189931,-0.06208 -0.290186,-0.07358 -0.100254,-0.0115 -0.198209,-0.03403 -0.217984,-0.05059 -0.02023,-0.01656 -0.179814,-0.05105 -0.355488,-0.07634 -0.175675,-0.02575 -0.35365,-0.06024 -0.395959,-0.07634 -0.04231,-0.0161 -0.263512,-0.04369 -0.491614,-0.06162 -0.228101,-0.01748 -0.559676,-0.04553 -0.737191,-0.06162 -0.407915,-0.03817 -1.43897,-0.03863 -1.781582,-9.2e-4 -0.143484,0.01564 -0.514608,0.04415 -0.825029,0.063 -0.31042,0.01931 -0.600606,0.04875 -0.645214,0.06576 -0.04461,0.01702 -0.264432,0.05013 -0.488395,0.07358 -0.223962,0.02391 -0.434588,0.05748 -0.4677,0.07542 -0.03311,0.01794 -0.188551,0.04507 -0.344911,0.06024 -0.15682,0.01518 -0.340773,0.04783 -0.408835,0.0722 -0.0676,0.02437 -0.212006,0.05473 -0.320538,0.06714 -0.108532,0.01288 -0.27271,0.04921 -0.365147,0.08094 -0.09244,0.03173 -0.196829,0.05748 -0.23224,0.05748 -0.03495,4.6e-4 -0.160959,0.03449 -0.279148,0.07634 -0.11819,0.04185 -0.249716,0.07634 -0.292025,0.0768 -0.04185,4.59e-4 -0.114051,0.02069 -0.160039,0.04415 -0.04553,0.02391 -0.15774,0.05933 -0.249256,0.07818 -0.09152,0.01885 -0.192231,0.05427 -0.223963,0.07818 -0.03173,0.02391 -0.09382,0.04415 -0.137505,0.04461 -0.04415,4.6e-4 -0.144862,0.03587 -0.224422,0.07772 -0.07956,0.04231 -0.15682,0.0768 -0.171536,0.0768 -0.04645,0 -0.733052,0.336634 -0.753287,0.369285 -0.01012,0.01656 -0.04047,0.03035 -0.06714,0.03035 -0.02713,0 -0.1241693,0.05151 -0.2166063,0.11497 -0.091976,0.06346 -0.2046471,0.136125 -0.2497155,0.161419 -0.3697448,0.206487 -1.1984528,0.961153 -1.5369258,1.399421 -0.05105,0.06622 -0.295244,0.419872 -0.324217,0.469539 -0.01656,0.02805 -0.06162,0.102554 -0.09979,0.165558 -0.03863,0.063 -0.0699,0.133825 -0.0699,0.157279 0,0.02345 -0.02069,0.06024 -0.04599,0.08094 -0.02529,0.02116 -0.06254,0.09566 -0.08232,0.165098 -0.01978,0.0699 -0.05243,0.147622 -0.07266,0.172916 -0.01978,0.02575 -0.05335,0.11543 -0.07358,0.199588 -0.02069,0.08416 -0.05381,0.172456 -0.07358,0.19637 -0.02529,0.03081 -0.04047,0.35135 -0.05151,1.080723 -0.01656,1.12855 -0.01334,1.107396 -0.170156,1.032435 -0.05978,-0.02851 -0.126468,-0.05151 -0.148542,-0.05151 -0.02253,0 -0.105773,-0.03449 -0.185332,-0.0768 -0.0791,-0.04231 -0.169237,-0.0768 -0.200049,-0.0768 -0.03127,0 -0.07266,-0.02023 -0.09336,-0.04461 -0.02023,-0.02437 -0.08738,-0.0607 -0.149462,-0.0814 -0.06208,-0.01978 -0.145782,-0.06208 -0.186252,-0.09336 -0.04001,-0.03127 -0.08922,-0.05703 -0.108532,-0.05703 -0.01977,0 -0.063,-0.02115 -0.09611,-0.04691 -0.05428,-0.04273 -0.382636,-0.263009 -0.501285,-0.33705 -0.257534,-0.160499 -0.476898,-0.34951 -0.944598,-0.813991 -0.372504,-0.370665 -0.902288,-1.049451 -0.902288,-1.157063 0,-0.0184 -0.01886,-0.04875 -0.04139,-0.06806 -0.023,-0.01886 -0.08324,-0.120492 -0.134286,-0.226265 -0.219364,-0.454823 -0.254315,-0.532543 -0.254315,-0.566115 0,-0.01977 -0.02023,-0.07496 -0.04461,-0.122788 -0.02437,-0.04783 -0.06622,-0.176595 -0.0929,-0.286506 -0.02667,-0.109912 -0.06162,-0.247877 -0.07772,-0.307202 -0.101174,-0.372504 -0.0069,-1.356192 0.1559,-1.627982 0.01518,-0.02529 0.04783,-0.0906 0.0722,-0.145323 0.02483,-0.05427 0.05933,-0.11681 0.0768,-0.137964 0.271331,-0.330196 0.271791,-0.320078 -0.03219,-0.607504 -0.300303,-0.283748 -0.357788,-0.304442 -0.481036,-0.171996 m 16.0278076,1.04945 c 0.262133,0.01012 0.538522,0.03127 0.614402,0.04737 0.07588,0.01564 0.283288,0.04921 0.460802,0.07358 0.177515,0.02483 0.378023,0.06484 0.445626,0.08876 0.06714,0.02391 0.187632,0.05151 0.267191,0.06116 0.257534,0.03127 0.499892,0.177055 0.649354,0.39044 0.02069,0.02943 0.11451,0.140724 0.209246,0.247876 0.09428,0.107153 0.211086,0.242358 0.259833,0.300763 0.04875,0.05795 0.11635,0.134286 0.149922,0.169696 0.03403,0.03495 0.130606,0.144863 0.215225,0.243738 0.08416,0.09887 0.169236,0.19637 0.189011,0.216604 0.01931,0.02023 0.108532,0.125548 0.197749,0.23408 0.08922,0.108532 0.190851,0.226262 0.225802,0.261673 0.11773,0.120489 0.279149,0.303062 0.445626,0.503571 0.0906,0.109912 0.191311,0.223503 0.223503,0.252015 0.09841,0.08922 0.123248,0.230401 0.04369,0.251556 -0.03633,0.0097 -1.541984,0.01794 -3.346101,0.0184 l -3.279878,4.6e-4 -0.02989,-0.0791 c -0.04921,-0.130146 -0.03955,-3.222853 0.01058,-3.264702 0.06852,-0.05657 0.854,-0.06346 2.048314,-0.01794 m -7.018719,7.860304 c -0.316399,0.06392 -0.475518,0.11681 -0.660391,0.218903 -0.04231,0.02345 -0.120029,0.063 -0.172915,0.08784 -0.05289,0.02529 -0.104393,0.06668 -0.114511,0.0929 -0.0097,0.02575 -0.03679,0.04737 -0.05933,0.04737 -0.05105,0 -0.555077,0.523346 -0.614862,0.638316 -0.2331605,0.447925 -0.2667319,0.536682 -0.3596281,0.943218 -0.043689,0.192691 -0.035411,0.660391 0.015176,0.845723 0.025294,0.09244 0.061624,0.237299 0.080479,0.321917 0.018855,0.08416 0.053346,0.175216 0.0768,0.201889 0.02345,0.02667 0.04277,0.06852 0.04277,0.0929 0,0.02391 0.03449,0.09474 0.0768,0.15682 0.04231,0.06254 0.0768,0.125088 0.0768,0.140264 0,0.0814 0.633717,0.665909 0.835605,0.771222 0.05565,0.02897 0.128767,0.06806 0.162799,0.08646 0.478277,0.263052 1.536465,0.319158 1.939782,0.103013 0.06438,-0.03449 0.138424,-0.063 0.163718,-0.06346 0.02575,-4.59e-4 0.103473,-0.03863 0.172915,-0.08462 0.06944,-0.04599 0.181654,-0.120949 0.249716,-0.166477 0.169237,-0.113131 0.473219,-0.415734 0.579912,-0.578072 0.166017,-0.251555 0.285126,-0.475518 0.286506,-0.538982 9.2e-4,-0.03495 0.04047,-0.100714 0.08784,-0.146242 l 0.086,-0.08232 h 4.042362 4.041903 l 0.09566,0.08922 c 0.05335,0.04967 0.09566,0.120489 0.09612,0.160959 0,0.04001 0.02759,0.106693 0.0607,0.149002 0.03265,0.04231 0.06025,0.09198 0.06071,0.110831 0.0023,0.122329 0.495293,0.66407 0.78042,0.85768 0.210625,0.143483 0.328815,0.207407 0.494833,0.268571 1.124871,0.413434 2.409321,-4.6e-4 2.993371,-0.964372 0.133826,-0.220744 0.244658,-0.458043 0.264893,-0.565655 0.01242,-0.06668 0.04323,-0.170157 0.06852,-0.229021 0.06438,-0.152681 0.06484,-0.924823 4.6e-4,-1.075205 -0.02529,-0.05932 -0.05611,-0.162798 -0.06852,-0.2304 -0.01242,-0.0676 -0.04921,-0.168777 -0.08186,-0.224423 -0.03219,-0.05611 -0.05886,-0.11451 -0.05886,-0.130146 0,-0.07496 -0.251096,-0.406996 -0.464021,-0.613023 -0.332955,-0.322377 -0.372505,-0.35273 -0.62636,-0.481037 -0.03403,-0.01701 -0.109912,-0.05564 -0.169236,-0.08554 -0.05887,-0.03035 -0.211086,-0.07358 -0.338014,-0.09703 -0.678325,-0.124168 -0.606584,-0.121409 -1.017259,-0.04323 -0.208786,0.03955 -0.42815,0.09749 -0.487015,0.128307 -0.05932,0.03081 -0.127387,0.05611 -0.151761,0.05611 -0.04967,0 -0.423551,0.242818 -0.58405,0.378943 -0.400557,0.341232 -0.754206,0.978169 -0.820429,1.47944 -0.0115,0.08462 -0.03541,0.163718 -0.05427,0.176135 -0.06162,0.04139 -8.049315,0.02851 -8.090704,-0.01334 -0.02024,-0.02023 -0.03725,-0.106692 -0.03771,-0.19177 -4.6e-4,-0.08738 -0.02713,-0.213386 -0.06116,-0.289266 -0.03357,-0.07358 -0.06162,-0.15636 -0.06254,-0.183953 -4.6e-4,-0.02805 -0.04553,-0.127387 -0.09979,-0.221663 -0.285127,-0.496213 -0.630499,-0.852162 -1.019559,-1.050831 -0.301682,-0.15406 -0.432749,-0.203267 -0.630038,-0.235919 -0.109452,-0.01793 -0.254775,-0.04599 -0.322377,-0.06254 -0.175675,-0.04231 -0.323297,-0.03265 -0.706379,0.04461 m 0.845263,0.876995 c 0.326516,0.06208 0.951496,0.509549 0.951496,0.681545 0,0.02529 0.02667,0.07036 0.05979,0.09979 0.03265,0.02989 0.07312,0.111292 0.08968,0.181653 0.01655,0.0699 0.05151,0.182574 0.07726,0.250176 0.02621,0.06806 0.04737,0.218904 0.04737,0.338014 0,0.119109 -0.02116,0.26995 -0.04737,0.337553 -0.02575,0.0676 -0.06071,0.180274 -0.07726,0.250636 -0.01656,0.0699 -0.05703,0.151761 -0.08968,0.181193 -0.03311,0.02989 -0.06025,0.06898 -0.06071,0.08784 -0.0041,0.11635 -0.452984,0.494833 -0.736271,0.62084 -0.27363,0.121409 -0.884353,0.131986 -1.096818,0.01886 -0.07128,-0.03771 -0.149462,-0.06852 -0.173836,-0.06852 -0.119569,0 -0.674187,-0.526565 -0.711437,-0.675107 -0.01058,-0.04277 -0.03955,-0.100254 -0.06484,-0.128307 -0.166017,-0.184413 -0.146702,-0.980928 0.03219,-1.331818 0.105313,-0.206487 0.595547,-0.721555 0.687064,-0.721555 0.02989,0 0.08508,-0.02161 0.122788,-0.04783 0.138425,-0.09703 0.66407,-0.137045 0.990586,-0.07496 m 13.085023,0.0023 c 0.882973,0.201888 1.477141,1.407699 1.066006,2.163285 -0.0184,0.03357 -0.05887,0.113591 -0.09014,0.177054 -0.08232,0.169237 -0.572553,0.636937 -0.667289,0.636937 -0.01885,0 -0.0929,0.03081 -0.164177,0.06806 -0.194071,0.103013 -0.868718,0.103473 -1.050371,9.19e-4 -0.06714,-0.03817 -0.143943,-0.06898 -0.170156,-0.06898 -0.02621,0 -0.07956,-0.02437 -0.11819,-0.05381 -0.294784,-0.225802 -0.407915,-0.331115 -0.491154,-0.459422 -0.05243,-0.08094 -0.11635,-0.174296 -0.142104,-0.207407 -0.02529,-0.03311 -0.04645,-0.0883 -0.04691,-0.122789 -4.6e-4,-0.03449 -0.02805,-0.123248 -0.06162,-0.196829 -0.08462,-0.187172 -0.08462,-0.588649 9.2e-4,-0.787778 0.03357,-0.07864 0.06116,-0.174755 0.06116,-0.213385 0,-0.03909 0.02208,-0.08876 0.04829,-0.110832 0.02667,-0.02207 0.07404,-0.09014 0.104853,-0.150841 0.264892,-0.519207 1.05175,-0.827328 1.720879,-0.674187"
     stroke="#0078d3"
     fill="#0078d3"
     fill-rule="evenodd"
     class=""
     stroke-opacity="1"
     fill-opacity="1" />
</svg>
