<?xml version="1.0"?>
<svg width="32" height="32" xmlns="http://www.w3.org/2000/svg" xmlns:svg="http://www.w3.org/2000/svg">
 <g class="currentLayer layer">
  <title>Layer 1</title>
  <g fill="#0078d3" id="svg_3">
  <path d="m7.35574,2.5908c-0.18626,0.01288 -0.42126,0.04461 -0.52243,0.07128c-0.10117,0.02621 -0.2511,0.05703 -0.33295,0.06852c-0.08186,0.01104 -0.20649,0.04507 -0.27639,0.07496c-0.07036,0.0299 -0.17706,0.06347 -0.23684,0.07496c-0.06025,0.01104 -0.16326,0.04783 -0.22948,0.0814c-0.06576,0.03357 -0.13889,0.06117 -0.16234,0.06117c-0.02345,0 -0.0791,0.01977 -0.12417,0.04415c-0.04461,0.02391 -0.19913,0.10025 -0.34261,0.16923c-0.32422,0.1559 -0.68293,0.35963 -0.93264,0.53071c-0.07634,0.05196 -0.42723,0.33295 -0.61671,0.49391c-0.22442,0.18993 -0.4562,0.43183 -0.71281,0.74317c-0.12509,0.15222 -0.24512,0.29708 -0.26627,0.32238c-0.0814,0.09611 -0.32836,0.48195 -0.32836,0.51323c0,0.01747 -0.01977,0.04874 -0.04461,0.06944c-0.02437,0.02023 -0.12187,0.19821 -0.2166,0.39504c-0.09474,0.19729 -0.19913,0.40975 -0.23224,0.47229c-0.03265,0.06255 -0.05933,0.13889 -0.05933,0.17016c0,0.03081 -0.02759,0.11083 -0.06162,0.17706c-0.03357,0.06622 -0.06116,0.13842 -0.06116,0.16095c0,0.02208 -0.03357,0.14717 -0.07404,0.27731c-0.22259,0.71328 -0.30951,2.29481 -0.1605,2.92531c0.02989,0.12647 0.06622,0.30628 0.08048,0.39918c0.03127,0.20235 0.1421,0.58175 0.22028,0.75467c0.03127,0.06852 0.05657,0.14302 0.05657,0.16555c0,0.04369 0.0814,0.2327 0.20189,0.46954c0.04093,0.08048 0.0745,0.16464 0.0745,0.18764c0,0.02253 0.02667,0.0653 0.05979,0.0952c0.03265,0.02943 0.06806,0.09244 0.07864,0.1398c0.01012,0.04691 0.04553,0.10991 0.07818,0.1398c0.03311,0.02943 0.05978,0.07174 0.05978,0.0929c0,0.02161 0.01886,0.05795 0.04139,0.08048c0.02253,0.02253 0.05932,0.07542 0.0814,0.11727c0.19361,0.36607 1.16626,1.41414 1.55302,1.67306c0.10025,0.0676 0.19361,0.14026 0.20741,0.16187c0.0138,0.02116 0.06898,0.05978 0.12278,0.08508c0.15958,0.07542 0.28099,0.15038 0.30583,0.18901c0.01288,0.01978 0.07174,0.05197 0.1306,0.07174c0.05887,0.01932 0.10716,0.04691 0.10716,0.06116c0,0.01426 0.05197,0.04277 0.11543,0.063c0.063,0.02024 0.13566,0.05427 0.16095,0.07542c0.02529,0.02069 0.09703,0.05427 0.15912,0.07404c0.06162,0.02023 0.12923,0.05657 0.14947,0.08094c0.02023,0.02437 0.06622,0.04461 0.10209,0.04461c0.03633,0.00046 0.13934,0.03495 0.22994,0.0768c0.09014,0.04231 0.19085,0.0768 0.2235,0.0768c0.03311,0 0.09014,0.01977 0.12785,0.04415c0.03725,0.02391 0.16464,0.06025 0.28283,0.08048c0.11819,0.01978 0.2304,0.04875 0.24925,0.06346c0.01886,0.01518 0.20557,0.04829 0.41482,0.07358c0.20924,0.02529 0.47735,0.05932 0.59554,0.07542c0.41942,0.05703 1.52037,-0.02253 1.8892,-0.13658c0.07588,-0.02345 0.2281,-0.05841 0.33755,-0.07772c0.10991,-0.01932 0.22764,-0.05289 0.26122,-0.07404c0.03403,-0.02161 0.10623,-0.04783 0.16141,-0.05841c0.05473,-0.01104 0.16096,-0.04783 0.23638,-0.08186c0.07496,-0.03403 0.15268,-0.06208 0.17246,-0.06208c0.01978,0 0.086,-0.02713 0.14762,-0.06024c0.06116,-0.03311 0.21523,-0.10945 0.34169,-0.17016c0.12693,-0.0607 0.28605,-0.1444 0.35365,-0.18625c0.0676,-0.04185 0.15728,-0.09336 0.19959,-0.11359c0.04231,-0.02069 0.0952,-0.05519 0.11727,-0.07634c0.02253,-0.02162 0.07082,-0.05519 0.10761,-0.0745c0.25524,-0.13521 1.18834,-0.98783 1.43392,-1.30974c0.04185,-0.05565 0.10439,-0.13429 0.13796,-0.17568c0.03403,-0.04093 0.09612,-0.12417 0.13843,-0.18487c0.04231,-0.06071 0.10577,-0.14762 0.14164,-0.19269c0.03587,-0.04553 0.0745,-0.11359 0.08646,-0.15176c0.01196,-0.03771 0.03311,-0.06898 0.04691,-0.06898c0.0138,0 0.04737,-0.05519 0.0745,-0.12279c0.02713,-0.0676 0.0607,-0.12279 0.07542,-0.12279c0.01426,0 0.04231,-0.05381 0.06162,-0.11911c0.01977,-0.06576 0.05656,-0.13659 0.08186,-0.15774c0.02529,-0.02069 0.04599,-0.05749 0.04599,-0.0814c0,-0.02437 0.03449,-0.10899 0.0768,-0.18809c0.04185,-0.07956 0.0768,-0.16234 0.0768,-0.18442c0,-0.02161 0.02759,-0.09382 0.06116,-0.16003c0.03403,-0.06622 0.06162,-0.14533 0.06162,-0.17614c0,-0.03035 0.02575,-0.10347 0.05703,-0.16234c0.03127,-0.05887 0.06668,-0.17153 0.07818,-0.25063c0.01196,-0.0791 0.04829,-0.22029 0.0814,-0.3141c0.03265,-0.09382 0.05978,-0.24328 0.06024,-0.3325c0,-0.08922 0.02345,-0.25201 0.05151,-0.36146c0.07312,-0.28697 0.07312,-1.33274 0,-1.66524c-0.02851,-0.13014 -0.05197,-0.29938 -0.05197,-0.37618c0,-0.0768 -0.02851,-0.2212 -0.063,-0.321c-0.03449,-0.09979 -0.07496,-0.24834 -0.09013,-0.3302c-0.03174,-0.17245 -0.13522,-0.48103 -0.20098,-0.59922c-0.02483,-0.04461 -0.04507,-0.09888 -0.04507,-0.12049c0,-0.04277 -0.29708,-0.64522 -0.41573,-0.84204c-0.04047,-0.06761 -0.09566,-0.16464 -0.12233,-0.21523c-0.02622,-0.05059 -0.08968,-0.14762 -0.14027,-0.21522c-0.05012,-0.06761 -0.11451,-0.15728 -0.14256,-0.19959c-0.20097,-0.30215 -1.15016,-1.26928 -1.33918,-1.36493c-0.01977,-0.01012 -0.09151,-0.05979 -0.15912,-0.11037c-0.22258,-0.16602 -0.38676,-0.27547 -0.41389,-0.27547c-0.01472,0 -0.06576,-0.03174 -0.11359,-0.07083c-0.07634,-0.06162 -0.59141,-0.32467 -0.85492,-0.43596c-0.28973,-0.12233 -0.44425,-0.17844 -0.56014,-0.20189c-0.07174,-0.01472 -0.16877,-0.04645 -0.21568,-0.07082c-0.04691,-0.02392 -0.15406,-0.05381 -0.23822,-0.06577c-0.08416,-0.01195 -0.26397,-0.04736 -0.39918,-0.07818c-0.28467,-0.06484 -1.39988,-0.09979 -1.96553,-0.06162m1.68868,0.90827c0.20235,0.0423 0.3978,0.0768 0.43413,0.0768c0.03679,0 0.12693,0.02713 0.20051,0.0607c0.07358,0.03357 0.16878,0.06116 0.21109,0.06162c0.04231,0 0.12554,0.02622 0.18441,0.05795c0.05887,0.03127 0.15544,0.0676 0.2143,0.08002c0.05933,0.01287 0.12831,0.04047 0.1536,0.06162c0.02529,0.02162 0.09703,0.05519 0.15912,0.07496c0.06162,0.02024 0.12923,0.05657 0.14946,0.08094c0.02023,0.02438 0.05886,0.04415 0.08554,0.04415c0.02622,0 0.0975,0.03173 0.15728,0.0699c0.14257,0.09152 0.21247,0.13383 0.32192,0.19453c0.50357,0.28053 1.7379,1.50658 1.7379,1.7264c0,0.0161 0.02023,0.04599 0.04507,0.06668c0.08232,0.06852 0.50541,0.86274 0.50725,0.95288c0.00046,0.02529 0.02851,0.08784 0.06208,0.13842c0.03357,0.05059 0.06116,0.12371 0.06116,0.1628c0,0.03863 0.02207,0.11267 0.04829,0.16418c0.02667,0.05105 0.06806,0.18809 0.09244,0.30352c0.02391,0.11543 0.05795,0.24788 0.07542,0.29341c0.13244,0.34905 0.1214,2.1573 -0.01518,2.48152c-0.02253,0.05289 -0.05748,0.18625 -0.07726,0.2957c-0.02023,0.10992 -0.05013,0.20787 -0.06576,0.21753c-0.0161,0.01012 -0.03725,0.0722 -0.04737,0.13842c-0.01012,0.06622 -0.04231,0.16188 -0.07174,0.21247c-0.02943,0.05059 -0.063,0.13244 -0.07496,0.18211c-0.0115,0.04921 -0.04783,0.12371 -0.08048,0.1651c-0.03311,0.04185 -0.05979,0.09842 -0.05979,0.12647c0,0.02759 -0.02391,0.08462 -0.05335,0.12646c-0.06208,0.08738 -0.13751,0.22029 -0.20005,0.35227c-0.02437,0.05059 -0.06714,0.11129 -0.0952,0.13429c-0.02759,0.02299 -0.05059,0.05841 -0.05059,0.07772c0,0.01978 -0.02713,0.0699 -0.05978,0.11129c-0.29617,0.37618 -0.40148,0.50173 -0.5652,0.67511c-0.20143,0.212 -0.60612,0.57991 -0.6912,0.62728c-0.02805,0.01564 -0.06484,0.04415 -0.0814,0.06346c-0.02713,0.03035 -0.34537,0.24052 -0.52243,0.34491c-0.17245,0.10163 -0.73029,0.3771 -0.7634,0.3771c-0.02069,0 -0.09152,0.02759 -0.15728,0.06116c-0.06622,0.03357 -0.16924,0.07036 -0.22902,0.08186c-0.05979,0.01104 -0.16464,0.04553 -0.23224,0.07634c-0.06761,0.03081 -0.16464,0.05656 -0.21523,0.05702c-0.05058,0.00046 -0.18211,0.03035 -0.29202,0.06576c-0.27961,0.09152 -1.6588,0.12003 -2.04234,0.04277c-0.1352,-0.02713 -0.34583,-0.06944 -0.46816,-0.09336c-0.12233,-0.02391 -0.26029,-0.063 -0.3072,-0.08646c-0.04645,-0.02391 -0.13796,-0.05289 -0.20235,-0.06438c-0.06438,-0.01196 -0.16142,-0.04829 -0.21522,-0.08094c-0.05335,-0.03265 -0.13383,-0.05932 -0.17798,-0.05978c-0.04461,0 -0.09749,-0.01977 -0.11773,-0.04461c-0.02023,-0.02437 -0.08784,-0.0607 -0.14992,-0.08048c-0.06162,-0.01977 -0.13336,-0.05427 -0.15866,-0.07588c-0.02529,-0.02207 -0.08324,-0.04921 -0.1283,-0.06025c-0.04507,-0.0115 -0.10624,-0.04691 -0.13521,-0.07956c-0.02943,-0.03219 -0.06668,-0.05841 -0.0837,-0.05841c-0.02897,0 -0.15682,-0.0837 -0.49759,-0.32514c-0.34766,-0.24647 -1.01955,-0.9087 -1.20948,-1.19244c-0.04415,-0.06622 -0.10117,-0.14946 -0.12647,-0.18534c-0.02529,-0.03587 -0.07404,-0.11083 -0.10761,-0.16647c-0.03403,-0.05519 -0.11267,-0.17936 -0.17567,-0.27547c-0.063,-0.09566 -0.11497,-0.19499 -0.11589,-0.22029c-0.00092,-0.02529 -0.02851,-0.08094 -0.06162,-0.12278c-0.03311,-0.04231 -0.06071,-0.0906 -0.06162,-0.10762c-0.00092,-0.01702 -0.03587,-0.0998 -0.07726,-0.18441c-0.04185,-0.08462 -0.07588,-0.17475 -0.07588,-0.20005c0,-0.02575 -0.02621,-0.09474 -0.05795,-0.1536c-0.03127,-0.05933 -0.0676,-0.16969 -0.08048,-0.24558c-0.01242,-0.07588 -0.04139,-0.17475 -0.06438,-0.21982c-0.02299,-0.04461 -0.05565,-0.19683 -0.07266,-0.33755c-0.01656,-0.14119 -0.05151,-0.3325 -0.0768,-0.42539c-0.07266,-0.26306 -0.06576,-1.23801 0.01058,-1.52129c0.03173,-0.11773 0.06576,-0.3072 0.07542,-0.42079c0.0097,-0.1136 0.03863,-0.24696 0.06392,-0.29617c0.02575,-0.04921 0.05611,-0.14992 0.0676,-0.2235c0.0115,-0.07358 0.04645,-0.18211 0.07772,-0.24098c0.03127,-0.05886 0.05657,-0.12647 0.05657,-0.15038c0,-0.0837 0.32191,-0.73857 0.51506,-1.04807c0.10255,-0.16372 0.11727,-0.18487 0.33709,-0.47644c0.26995,-0.35825 1.00669,-1.08992 1.09728,-1.08992c0.0115,0 0.08646,-0.05519 0.16648,-0.12279c0.08048,-0.0676 0.16142,-0.12325 0.17981,-0.12325c0.01886,0 0.07312,-0.03127 0.12095,-0.07036c0.04783,-0.03863 0.12141,-0.08738 0.16372,-0.10853c0.04231,-0.02161 0.11819,-0.05979 0.16878,-0.08508c0.05105,-0.02529 0.11313,-0.05932 0.13842,-0.07542c0.02529,-0.0161 0.08048,-0.04507 0.12279,-0.06392c0.04231,-0.0184 0.14624,-0.06669 0.23086,-0.10716c0.08462,-0.04001 0.17476,-0.07312 0.20051,-0.07312c0.02575,0 0.07358,-0.01885 0.10715,-0.04185c0.03311,-0.02345 0.10899,-0.05242 0.16786,-0.06484c0.05932,-0.01288 0.19039,-0.04783 0.29202,-0.07818c0.10118,-0.03081 0.33618,-0.08416 0.52197,-0.11865c0.18625,-0.03495 0.36561,-0.06898 0.39964,-0.07588c0.24603,-0.05059 1.21731,-0.01518 1.5659,0.05703m-1.28767,1.68086c-0.03817,0.05427 -0.04783,0.16096 -0.04783,0.52151c0,0.5468 0.01012,0.533 -0.42999,0.56474c-0.1605,0.01149 -0.36101,0.04598 -0.44563,0.0768c-0.08462,0.03035 -0.20879,0.06484 -0.27639,0.0768c-0.0676,0.01149 -0.17107,0.04598 -0.2304,0.07588c-0.05932,0.02989 -0.19039,0.09473 -0.29202,0.1444c-0.3348,0.16418 -0.39458,0.20511 -0.61579,0.42447c-0.77812,0.7703 -0.52058,1.75675 0.60061,2.29987c0.0929,0.04507 0.22028,0.10899 0.28237,0.14164c0.06254,0.03266 0.14164,0.05979 0.17567,0.05979c0.03403,0 0.13199,0.02759 0.21707,0.06116c0.08554,0.03357 0.23454,0.06945 0.33157,0.0791c0.38492,0.03863 0.65211,0.11038 0.66913,0.1789c0.0083,0.03587 0.0115,0.4378 0.0069,0.89401l-0.0087,0.82962l-0.25248,-0.0051c-0.16141,-0.0032 -0.2888,-0.02295 -0.3518,-0.05468c-0.05427,-0.02667 -0.15452,-0.05749 -0.22305,-0.06714c-0.11129,-0.01656 -0.35227,-0.11037 -0.52426,-0.20372c-0.03357,-0.01839 -0.09152,-0.04921 -0.12831,-0.06898c-0.03679,-0.01885 -0.12785,-0.09933 -0.20281,-0.17844c-0.09014,-0.09566 -0.1605,-0.14348 -0.20924,-0.14256c-0.08692,0.0014 -0.33388,0.0653 -0.38814,0.10025c-0.02069,0.01334 -0.10716,0.04461 -0.19224,0.0699c-0.17199,0.05105 -0.17935,0.07128 -0.09657,0.26443c0.11819,0.27593 0.83331,0.85447 1.05543,0.85401c0.02161,0 0.09428,0.02621 0.16188,0.0584c0.21201,0.10025 0.54082,0.18717 0.87562,0.23132c0.17751,0.02345 0.36055,0.05749 0.40699,0.07542l0.08462,0.03265l0,0.47919c0,0.6282 -0.02116,0.59739 0.41298,0.59739c0.48885,0 0.447,0.05059 0.447,-0.53668c0,-0.37711 0.01012,-0.50817 0.04047,-0.53347c0.05519,-0.04599 0.36055,-0.11865 0.60475,-0.1444c0.10945,-0.0115 0.23408,-0.03863 0.27639,-0.05978c0.04231,-0.02161 0.12508,-0.04875 0.18441,-0.0607c0.17062,-0.03449 0.65119,-0.25569 0.80387,-0.36974c0.04507,-0.03357 0.13981,-0.10256 0.21017,-0.15361c0.11083,-0.0791 0.20005,-0.17843 0.41113,-0.45528c0.02391,-0.03127 0.05243,-0.10715 0.06438,-0.16923c0.0115,-0.06209 0.03449,-0.12877 0.05105,-0.14855c0.10486,-0.12738 0,-0.7818 -0.14486,-0.90228c-0.02437,-0.02023 -0.04461,-0.05335 -0.04461,-0.07358c0,-0.02023 -0.03081,-0.06623 -0.06898,-0.10256c-0.03771,-0.03633 -0.09657,-0.09565 -0.13061,-0.13198c-0.13433,-0.1435 -0.41348,-0.33435 -0.64572,-0.44104c-0.13474,-0.06208 -0.28421,-0.13291 -0.33203,-0.15728c-0.04783,-0.02437 -0.11313,-0.04415 -0.14487,-0.04415c-0.03173,0 -0.16371,-0.03495 -0.2934,-0.0768c-0.12923,-0.04231 -0.30306,-0.0768 -0.38676,-0.0768c-0.47184,0 -0.46034,0.02575 -0.44839,-1.05865l0.0087,-0.79743l0.10164,-0.02943c0.25201,-0.07221 1.20765,0.28466 1.49921,0.56013c0.15958,0.15084 0.27409,0.1605 0.43137,0.03679c0.04415,-0.03449 0.10439,-0.063 0.13337,-0.063c0.02943,0 0.0883,-0.02759 0.1306,-0.06117c0.04277,-0.03311 0.11359,-0.0745 0.15774,-0.09105c0.09152,-0.03495 0.10072,-0.06898 0.03449,-0.12463c-0.02529,-0.0207 -0.04645,-0.05519 -0.04645,-0.07634c0,-0.04875 -0.40929,-0.43735 -0.50817,-0.48288c-0.04139,-0.01885 -0.07542,-0.04461 -0.07542,-0.05748c0,-0.01288 -0.04691,-0.03909 -0.10485,-0.05795c-0.05795,-0.01931 -0.12095,-0.0538 -0.14026,-0.07726c-0.01932,-0.02345 -0.07956,-0.05196 -0.13337,-0.06346c-0.05335,-0.0115 -0.13888,-0.04277 -0.18947,-0.06852c-0.05105,-0.02622 -0.16832,-0.06485 -0.26121,-0.08646c-0.0929,-0.02116 -0.22443,-0.05979 -0.29203,-0.08554c-0.0676,-0.02575 -0.18487,-0.04829 -0.26075,-0.04967c-0.46678,-0.0092 -0.49116,-0.03955 -0.49254,-0.61256c-0.0014,-0.57807 0.0161,-0.55462 -0.42309,-0.55462c-0.31686,0 -0.34399,0.0046 -0.38814,0.06806m14.69649,1.73054c-0.07588,0.02391 -0.17291,0.04369 -0.21568,0.04369c-0.32836,0.0023 -1.28951,0.78686 -1.28951,1.05313c0,0.01564 -0.02759,0.06346 -0.06162,0.10623c-0.03357,0.04323 -0.06116,0.10807 -0.06116,0.1444c0,0.03634 -0.02759,0.14441 -0.06162,0.24052c-0.05519,0.15682 -0.06116,0.25386 -0.06116,0.93034c0,0.46219 -0.01242,0.77858 -0.03219,0.81492c-0.03081,0.05795 -0.09106,0.05932 -2.51694,0.05932l-2.4852,0l-0.04783,0.06806c-0.07036,0.10071 -0.0699,0.7772 0.00092,0.80387c0.02667,0.01058 1.16534,0.01886 2.53027,0.01886c1.9614,0 2.48842,0.0083 2.51418,0.03863c0.01977,0.02437 0.03587,0.35089 0.04185,0.87101c0.0074,0.59141 0.02069,0.84481 0.04737,0.87654c0.02023,0.02437 0.04645,0.10623 0.0584,0.18119c0.0115,0.07542 0.05381,0.18488 0.09336,0.24374c0.03955,0.05886 0.0722,0.12233 0.0722,0.14119c0,0.01886 0.02759,0.05932 0.06116,0.08968c0.03403,0.03081 0.06162,0.07082 0.06208,0.08922c0.00092,0.08416 0.50127,0.52518 0.72155,0.63647c0.05059,0.02529 0.11957,0.06116 0.1536,0.0791c0.03357,0.01793 0.1651,0.0653 0.29157,0.10532l0.2304,0.07266l2.06441,0.0092c2.21479,0.0097 2.1196,0.01564 2.30079,-0.14027c0.12601,-0.10853 0.13474,-0.16418 0.13474,-0.83193c0,-0.54542 0.0078,-0.65257 0.04829,-0.6935c0.04231,-0.04231 0.19959,-0.04829 1.2587,-0.04829c1.4261,0 1.27939,0.05795 1.26652,-0.49897l-0.0083,-0.37618l-1.25778,-0.0083c-0.95931,-0.006 -1.26376,-0.01702 -1.28215,-0.04599c-0.01334,-0.02069 -0.02437,-0.58773 -0.02483,-1.25962l-0.00046,-1.22191l0.0791,-0.02989c0.04599,-0.01747 0.57071,-0.02989 1.27157,-0.02989c1.05911,0 1.19478,-0.00552 1.21133,-0.04875c0.03541,-0.09289 0.02023,-0.73581 -0.0184,-0.77444c-0.02759,-0.02759 -0.35227,-0.03725 -1.27157,-0.03725c-1.09728,0 -1.23662,-0.00506 -1.25318,-0.04829c-0.01012,-0.02667 -0.01886,-0.33893 -0.01886,-0.69304c0,-0.74363 -0.01564,-0.7979 -0.27317,-0.9308c-0.13199,-0.06852 -4.05616,-0.06852 -4.27276,0m-14.7599,1.08856l0,0.87562l-0.26075,-0.00736c-0.18074,-0.00506 -0.30583,-0.02622 -0.40516,-0.06899c-0.0791,-0.03403 -0.17797,-0.06208 -0.21982,-0.06208c-0.0653,0 -0.30261,-0.09841 -0.45023,-0.18717c-0.02529,-0.01518 -0.08048,-0.04231 -0.12187,-0.06024c-0.10025,-0.04277 -0.36698,-0.3302 -0.38952,-0.41942c-0.05105,-0.20372 0.19269,-0.46816 0.60337,-0.65487c0.04231,-0.01931 0.11819,-0.0561 0.16924,-0.08232c0.05059,-0.02575 0.16785,-0.0653 0.26075,-0.08738c0.0929,-0.02207 0.23822,-0.06116 0.32284,-0.08691c0.08416,-0.02576 0.22948,-0.04415 0.32237,-0.04047l0.16878,0.00644l0,0.87515m18.36769,-0.21568l0.0791,0.03035l-0.0083,2.93175c-0.0041,1.61234 -0.01931,2.94278 -0.03357,2.95704c-0.05565,0.05565 -3.20814,0.04921 -3.49143,-0.0074c-0.37296,-0.0745 -0.60888,-0.23408 -0.83652,-0.56612c-0.15498,-0.22534 -0.15728,-0.25891 -0.16924,-2.30401c-0.01196,-1.94346 -0.0028,-2.14902 0.10072,-2.33436c0.02391,-0.04231 0.0607,-0.11083 0.08232,-0.15222c0.13336,-0.25477 0.50725,-0.51047 0.80709,-0.55186c0.26857,-0.03679 3.37323,-0.03955 3.46981,-0.00322m-16.98205,2.12424c0.01839,0.01472 0.10808,0.04047 0.19959,0.05795c0.09106,0.01701 0.22121,0.05702 0.28881,0.08967c0.0676,0.03219 0.15728,0.07404 0.19959,0.09336c0.57163,0.25984 0.7542,0.68155 0.40377,0.93494c-0.2166,0.15682 -0.34491,0.2327 -0.42769,0.2534c-0.04598,0.0115 -0.12508,0.04599 -0.17567,0.07726c-0.05059,0.03081 -0.13383,0.05611 -0.18441,0.05611c-0.05059,0.00046 -0.13383,0.02253 -0.18442,0.04921c-0.12738,0.06714 -0.4539,0.11129 -0.5514,0.07404l-0.07818,-0.02943l0,-0.82871c0,-0.75651 0.0046,-0.83147 0.05381,-0.86044c0.05932,-0.03495 0.40148,-0.01058 0.45621,0.03265m-6.43191,5.72184c-0.04875,0.05243 -0.13199,0.16418 -0.18487,0.2488c-0.05289,0.08462 -0.11176,0.17108 -0.12969,0.19269c-0.01839,0.02162 -0.04829,0.0837 -0.06668,0.13843c-0.01839,0.05427 -0.05105,0.11956 -0.07266,0.14486c-0.02161,0.02529 -0.04875,0.08784 -0.05978,0.13842c-0.01104,0.05059 -0.04553,0.16142 -0.0768,0.24558c-0.14348,0.3886 -0.14256,1.62246 0.0014,2.02762c0.02989,0.08416 0.06392,0.20695 0.07496,0.27271c0.01104,0.06576 0.04691,0.16924 0.07956,0.22994c0.03265,0.0607 0.05933,0.13383 0.05933,0.16188c0,0.04369 0.0929,0.25753 0.18487,0.42585c0.0138,0.02529 0.07082,0.13566 0.12647,0.24558c0.05565,0.10991 0.13244,0.23868 0.17108,0.2865c0.03909,0.04783 0.07036,0.09979 0.07036,0.11543c0,0.03127 0.37112,0.55784 0.46402,0.65809c0.03081,0.03357 0.0952,0.1044 0.1421,0.15682c0.46586,0.52243 1.1681,1.14879 1.54704,1.37873c0.02759,0.01702 0.10394,0.06254 0.1697,0.10117c0.06576,0.03863 0.18165,0.11084 0.25753,0.1605c0.07588,0.05013 0.15912,0.09887 0.18442,0.109c0.02529,0.0097 0.07358,0.03311 0.10761,0.05197c0.06806,0.03817 0.17705,0.09014 0.384,0.18349c0.07588,0.03449 0.18901,0.0883 0.25155,0.12003c0.06254,0.03127 0.13843,0.05748 0.16924,0.05748c0.03035,0.00046 0.12417,0.03449 0.20879,0.07588c0.08462,0.04139 0.16785,0.07588 0.18579,0.07634c0.07542,0.0023 0.10347,0.07036 0.06254,0.15176c-0.02207,0.04369 -0.04967,0.15176 -0.0607,0.23914c-0.01104,0.08784 -0.04415,0.21246 -0.07266,0.27639c-0.07772,0.17383 -0.07818,1.20581 -0.00046,1.35665c0.02897,0.05656 0.06208,0.15314 0.07358,0.21476c0.0115,0.06162 0.05335,0.17292 0.09336,0.24742c0.03955,0.0745 0.07174,0.15176 0.07174,0.172c0,0.02023 0.02759,0.06162 0.06162,0.09244c0.03357,0.03035 0.06116,0.06806 0.06116,0.08324c0,0.01518 0.04507,0.08462 0.09979,0.15406c0.36745,0.46402 0.85262,0.7657 0.85262,0.53024c0,-0.01886 0.02575,-0.06208 0.05749,-0.09612c0.03173,-0.03403 0.06806,-0.09566 0.08048,-0.13659c0.01242,-0.04093 0.04599,-0.10209 0.0745,-0.13566c0.16648,-0.19637 0.15636,-0.22488 -0.18763,-0.51737c-0.36009,-0.30582 -0.59509,-0.97311 -0.51875,-1.47346c0.06254,-0.40975 0.11497,-0.65027 0.1628,-0.74317c0.02575,-0.05059 0.05748,-0.14026 0.07036,-0.19913c0.01242,-0.05886 0.04139,-0.13474 0.06346,-0.16877c0.11681,-0.17844 0.13567,-0.39688 0.13567,-1.55625c0,-1.1681 0.02667,-1.46886 0.14026,-1.59487c0.02391,-0.02667 0.05197,-0.09152 0.06254,-0.1444c0.01058,-0.05289 0.04553,-0.11957 0.07726,-0.14854c0.03173,-0.02897 0.05794,-0.0768 0.05794,-0.10669c0,-0.02989 0.03449,-0.09566 0.0768,-0.14579c0.04231,-0.05013 0.0768,-0.10025 0.0768,-0.11129c0,-0.09749 0.95058,-1.15384 1.03841,-1.15384c0.0184,0 0.04461,-0.0184 0.05795,-0.04139c0.02713,-0.04553 0.36469,-0.28697 0.49529,-0.35411c0.04553,-0.02299 0.10991,-0.0653 0.14395,-0.09382c0.03357,-0.02851 0.1513,-0.09703 0.26121,-0.15222c0.10945,-0.05519 0.22028,-0.11175 0.24558,-0.12601c0.02529,-0.0138 0.12876,-0.06254 0.2304,-0.10761c0.10117,-0.04507 0.2396,-0.10853 0.3072,-0.14073c0.0676,-0.03219 0.17107,-0.0676 0.2304,-0.0791c0.05886,-0.01104 0.1352,-0.03817 0.16878,-0.05979c0.03403,-0.02207 0.1306,-0.05473 0.21522,-0.07312c0.08416,-0.01839 0.19499,-0.05243 0.24558,-0.07542c0.05059,-0.02299 0.15452,-0.05105 0.2304,-0.06254c0.07588,-0.0115 0.20741,-0.04599 0.29202,-0.07634c0.235,-0.08554 0.52887,-0.1559 0.78318,-0.18809c0.12647,-0.0161 0.30215,-0.04967 0.38952,-0.07496c0.08738,-0.02529 0.2465,-0.05381 0.35319,-0.063c0.10669,-0.0097 0.27685,-0.03771 0.37848,-0.063c0.39504,-0.09841 0.94552,-0.13428 1.00577,-0.06576c0.0768,0.08692 0.08324,2.98004 0.0069,3.12766l-0.04691,0.0906l-2.34264,0c-1.78159,0 -2.35184,0.0087 -2.37989,0.03679c-0.06116,0.0607 -0.05059,0.78042 0.0115,0.80433c0.02713,0.01058 3.24447,0.01885 7.15024,0.01885c7.04264,0 7.10196,0.00046 7.21601,0.06116c0.063,0.03403 0.13337,0.06162 0.1559,0.06162c0.02299,0 0.10669,0.03449 0.18625,0.0768c0.07956,0.04231 0.16556,0.0768 0.19177,0.0768c0.02621,0 0.08416,0.02575 0.12877,0.05703c0.04507,0.03127 0.12187,0.06668 0.17154,0.07864c0.04921,0.01196 0.1237,0.04829 0.16509,0.0814c0.04185,0.03265 0.09475,0.05932 0.11774,0.05932c0.0354,0 0.13428,0.04553 0.41067,0.18856c0.02529,0.01334 0.212,0.10899 0.41481,0.21338c0.20235,0.10393 0.42355,0.2212 0.49116,0.26121c0.0676,0.03955 0.17751,0.10164 0.24373,0.13797c0.06668,0.03633 0.14027,0.08554 0.16372,0.10853c0.02345,0.02345 0.06025,0.04277 0.0814,0.04277c0.02162,0 0.06438,0.02759 0.09474,0.06116c0.03081,0.03403 0.07358,0.06162 0.09474,0.06162c0.02161,0 0.05748,0.01748 0.08002,0.03817c0.05657,0.05381 0.27179,0.2166 0.3348,0.25386c0.27593,0.16141 0.91884,0.8517 0.91884,0.98598c0,0.01931 0.03081,0.10256 0.06806,0.18487c0.29019,0.63878 -0.10623,1.98256 -0.66453,2.25297c-0.20327,0.09795 -0.22028,0.12922 -0.17521,0.31823c0.02068,0.08738 0.05473,0.2488 0.0745,0.35871c0.05059,0.27501 0.1559,0.3348 0.33709,0.19131c0.02069,-0.01656 0.0883,-0.04645 0.15038,-0.06622c0.06162,-0.01977 0.12003,-0.0561 0.12923,-0.08048c0.0097,-0.02483 0.03265,-0.04461 0.05197,-0.04461c0.0791,0 0.58175,-0.52426 0.58175,-0.60658c0,-0.0161 0.02621,-0.05289 0.05841,-0.08232c0.03219,-0.02897 0.0676,-0.08922 0.0791,-0.13337c0.01104,-0.04415 0.04461,-0.11589 0.07496,-0.15912c0.03035,-0.04323 0.06438,-0.12922 0.07588,-0.19085c0.01104,-0.06162 0.04277,-0.15728 0.07036,-0.21246c0.20189,-0.4047 0.09796,-1.76135 -0.17062,-2.22675c-0.09244,-0.15958 -0.10117,-0.17384 -0.17153,-0.27777c-0.06622,-0.09749 -0.74225,-0.77996 -0.77261,-0.77996c-0.01058,0 -0.08324,-0.05243 -0.16141,-0.11635c-0.07818,-0.06438 -0.172,-0.13658 -0.20833,-0.16142c-0.42263,-0.28788 -0.59049,-0.39412 -0.64843,-0.41205c-0.03771,-0.0115 -0.06898,-0.03173 -0.06898,-0.04507c0,-0.01288 -0.05518,-0.04875 -0.12279,-0.0791c-0.0676,-0.03081 -0.12279,-0.06622 -0.12279,-0.0791c0,-0.01288 -0.04001,-0.03265 -0.08922,-0.04323c-0.04875,-0.01058 -0.11313,-0.04645 -0.14302,-0.0791c-0.02943,-0.03311 -0.0768,-0.05978 -0.1044,-0.05978c-0.02805,0 -0.09795,-0.03449 -0.15498,-0.0768c-0.05749,-0.04231 -0.12739,-0.0768 -0.1559,-0.0768c-0.02851,0 -0.06898,-0.02069 -0.08968,-0.04599c-0.02116,-0.02529 -0.09198,-0.06208 -0.15774,-0.08186c-0.06576,-0.01978 -0.13474,-0.05427 -0.1536,-0.0768c-0.01886,-0.02253 -0.04967,-0.04093 -0.06852,-0.04093c-0.01885,0 -0.11037,-0.03633 -0.20373,-0.08002c-0.0929,-0.04415 -0.24511,-0.11543 -0.33801,-0.1582c-0.0929,-0.04277 -0.21752,-0.10164 -0.27639,-0.13107c-0.05932,-0.02897 -0.15176,-0.06254 -0.20557,-0.0745c-0.05335,-0.0115 -0.11405,-0.04093 -0.13428,-0.0653c-0.01978,-0.02437 -0.05887,-0.04415 -0.08646,-0.04415c-0.02759,-0.00046 -0.11911,-0.03449 -0.20373,-0.07588c-0.08416,-0.04139 -0.17935,-0.07588 -0.21108,-0.07634c-0.03219,-0.00092 -0.10118,-0.02759 -0.15361,-0.05932c-0.05289,-0.03173 -0.14302,-0.06806 -0.20096,-0.08048c-0.05748,-0.01196 -0.14763,-0.04829 -0.19959,-0.08002c-0.05197,-0.03173 -0.12647,-0.05748 -0.16464,-0.05795c-0.10623,0 -0.37342,-0.1467 -0.46402,-0.25431c-0.04416,-0.05243 -0.10257,-0.11681 -0.1297,-0.14303c-0.04507,-0.04369 -0.39734,-0.45298 -0.4723,-0.54864c-0.01702,-0.02208 -0.06576,-0.07864 -0.10807,-0.12554c-0.04231,-0.04691 -0.15958,-0.17936 -0.26122,-0.29387c-0.10117,-0.11497 -0.19821,-0.22442 -0.21522,-0.24328c-0.01702,-0.01885 -0.0929,-0.11037 -0.16878,-0.2028c-0.07588,-0.09244 -0.15866,-0.19039 -0.18441,-0.21753c-0.02529,-0.02713 -0.13567,-0.1513 -0.24558,-0.27547c-0.10991,-0.12417 -0.23408,-0.26259 -0.27639,-0.30812c-0.04231,-0.04507 -0.09796,-0.10807 -0.12371,-0.14026c-0.44792,-0.55508 -0.66682,-0.77536 -0.79467,-0.79836c-0.0607,-0.01104 -0.15912,-0.04415 -0.21799,-0.07312c-0.05933,-0.02897 -0.18993,-0.06208 -0.29018,-0.07358c-0.10026,-0.0115 -0.19821,-0.03403 -0.21799,-0.05059c-0.02023,-0.01656 -0.17981,-0.05105 -0.35548,-0.07634c-0.17568,-0.02575 -0.35365,-0.06024 -0.39596,-0.07634c-0.04231,-0.0161 -0.26351,-0.04369 -0.49162,-0.06162c-0.2281,-0.01748 -0.55967,-0.04553 -0.73719,-0.06162c-0.40791,-0.03817 -1.43897,-0.03863 -1.78158,-0.00092c-0.14348,0.01564 -0.51461,0.04415 -0.82503,0.063c-0.31042,0.01931 -0.6006,0.04875 -0.64521,0.06576c-0.04461,0.01702 -0.26443,0.05013 -0.4884,0.07358c-0.22396,0.02391 -0.43459,0.05748 -0.4677,0.07542c-0.03311,0.01794 -0.18855,0.04507 -0.34491,0.06024c-0.15682,0.01518 -0.34077,0.04783 -0.40883,0.0722c-0.0676,0.02437 -0.21201,0.05473 -0.32054,0.06714c-0.10853,0.01288 -0.27271,0.04921 -0.36515,0.08094c-0.09244,0.03173 -0.19683,0.05748 -0.23224,0.05748c-0.03495,0.00046 -0.16096,0.03449 -0.27915,0.07634c-0.11819,0.04185 -0.24971,0.07634 -0.29202,0.0768c-0.04185,0.00046 -0.11405,0.02069 -0.16004,0.04415c-0.04553,0.02391 -0.15774,0.05933 -0.24926,0.07818c-0.09152,0.01885 -0.19223,0.05427 -0.22396,0.07818c-0.03173,0.02391 -0.09382,0.04415 -0.13751,0.04461c-0.04415,0.00046 -0.14486,0.03587 -0.22442,0.07772c-0.07956,0.04231 -0.15682,0.0768 -0.17153,0.0768c-0.04645,0 -0.73306,0.33664 -0.75329,0.36929c-0.01012,0.01656 -0.04047,0.03035 -0.06714,0.03035c-0.02713,0 -0.12417,0.05151 -0.21661,0.11497c-0.09197,0.06346 -0.20464,0.13612 -0.24971,0.16142c-0.36975,0.20648 -1.19845,0.96115 -1.53693,1.39942c-0.05105,0.06622 -0.29524,0.41987 -0.32421,0.46954c-0.01656,0.02805 -0.06162,0.10255 -0.09979,0.16555c-0.03863,0.063 -0.0699,0.13383 -0.0699,0.15728c0,0.02345 -0.02069,0.06024 -0.04599,0.08094c-0.02529,0.02116 -0.06254,0.09566 -0.08232,0.1651c-0.01978,0.0699 -0.05243,0.14762 -0.07266,0.17292c-0.01978,0.02575 -0.05335,0.11543 -0.07358,0.19959c-0.02069,0.08416 -0.05381,0.17245 -0.07358,0.19637c-0.02529,0.03081 -0.04047,0.35135 -0.05151,1.08072c-0.01656,1.12855 -0.01334,1.10739 -0.17016,1.03243c-0.05978,-0.02851 -0.12647,-0.05151 -0.14854,-0.05151c-0.02253,0 -0.10578,-0.03449 -0.18533,-0.0768c-0.0791,-0.04231 -0.16924,-0.0768 -0.20005,-0.0768c-0.03127,0 -0.07266,-0.02023 -0.09336,-0.04461c-0.02023,-0.02437 -0.08738,-0.0607 -0.14947,-0.0814c-0.06208,-0.01978 -0.14578,-0.06208 -0.18625,-0.09336c-0.04001,-0.03127 -0.08922,-0.05703 -0.10853,-0.05703c-0.01977,0 -0.063,-0.02115 -0.09611,-0.04691c-0.05428,-0.04273 -0.38264,-0.26301 -0.50128,-0.33705c-0.25754,-0.1605 -0.4769,-0.34951 -0.9446,-0.81399c-0.37251,-0.37066 -0.90229,-1.04945 -0.90229,-1.15706c0,-0.0184 -0.01886,-0.04875 -0.04139,-0.06806c-0.023,-0.01886 -0.08324,-0.12049 -0.13429,-0.22627c-0.21936,-0.45482 -0.25431,-0.53254 -0.25431,-0.56611c0,-0.01977 -0.02023,-0.07496 -0.04461,-0.12279c-0.02437,-0.04783 -0.06622,-0.17659 -0.0929,-0.2865c-0.02667,-0.10992 -0.06162,-0.24788 -0.07772,-0.30721c-0.10118,-0.3725 -0.0069,-1.35619 0.1559,-1.62798c0.01518,-0.02529 0.04783,-0.0906 0.0722,-0.14532c0.02483,-0.05427 0.05933,-0.11681 0.0768,-0.13797c0.27133,-0.33019 0.27179,-0.32007 -0.03219,-0.6075c-0.3003,-0.28375 -0.35779,-0.30444 -0.48104,-0.172m16.02781,1.04945c0.26213,0.01012 0.53852,0.03127 0.6144,0.04737c0.07588,0.01564 0.28329,0.04921 0.4608,0.07358c0.17752,0.02483 0.37803,0.06484 0.44563,0.08876c0.06714,0.02391 0.18763,0.05151 0.26719,0.06116c0.25753,0.03127 0.49989,0.17706 0.64935,0.39044c0.02069,0.02943 0.11451,0.14073 0.20925,0.24788c0.09428,0.10715 0.21109,0.24236 0.25983,0.30076c0.04875,0.05795 0.11635,0.13429 0.14993,0.1697c0.03403,0.03495 0.1306,0.14486 0.21522,0.24374c0.08416,0.09887 0.16924,0.19637 0.18901,0.2166c0.01931,0.02023 0.10853,0.12555 0.19775,0.23408c0.08922,0.10853 0.19085,0.22626 0.2258,0.26167c0.11773,0.12049 0.27915,0.30307 0.44563,0.50358c0.0906,0.10991 0.19131,0.2235 0.2235,0.25201c0.09841,0.08922 0.12325,0.2304 0.04369,0.25156c-0.03633,0.0097 -1.54198,0.01794 -3.3461,0.0184l-3.27988,0.00046l-0.02989,-0.0791c-0.04921,-0.13015 -0.03955,-3.22286 0.01058,-3.26471c0.06852,-0.05657 0.854,-0.06346 2.04832,-0.01794m-7.01872,7.86031c-0.3164,0.06392 -0.47552,0.11681 -0.66039,0.2189c-0.04231,0.02345 -0.12003,0.063 -0.17292,0.08784c-0.05289,0.02529 -0.10439,0.06668 -0.11451,0.0929c-0.0097,0.02575 -0.03679,0.04737 -0.05933,0.04737c-0.05105,0 -0.55508,0.52335 -0.61486,0.63832c-0.23316,0.44792 -0.26673,0.53668 -0.35963,0.94322c-0.04369,0.19269 -0.03541,0.66039 0.01518,0.84572c0.02529,0.09244 0.06162,0.2373 0.08048,0.32192c0.01885,0.08416 0.05334,0.17521 0.0768,0.20188c0.02345,0.02667 0.04277,0.06852 0.04277,0.0929c0,0.02391 0.03449,0.09474 0.0768,0.15682c0.04231,0.06254 0.0768,0.12509 0.0768,0.14027c0,0.0814 0.63371,0.66591 0.8356,0.77122c0.05565,0.02897 0.12877,0.06806 0.1628,0.08646c0.47828,0.26305 1.53646,0.31916 1.93978,0.10301c0.06438,-0.03449 0.13843,-0.063 0.16372,-0.06346c0.02575,-0.00046 0.10347,-0.03863 0.17291,-0.08462c0.06944,-0.04599 0.18166,-0.12095 0.24972,-0.16647c0.16924,-0.11313 0.47322,-0.41574 0.57991,-0.57808c0.16602,-0.25155 0.28513,-0.47551 0.28651,-0.53898c0.00092,-0.03495 0.04047,-0.10071 0.08784,-0.14624l0.086,-0.08232l4.04236,0l4.0419,0l0.09566,0.08922c0.05335,0.04967 0.09566,0.12049 0.09612,0.16096c0,0.04001 0.02759,0.10669 0.0607,0.149c0.03265,0.04231 0.06025,0.09198 0.06071,0.11083c0.0023,0.12233 0.4953,0.66407 0.78042,0.85768c0.21063,0.14349 0.32882,0.20741 0.49484,0.26857c1.12487,0.41344 2.40932,-0.00046 2.99337,-0.96437c0.13382,-0.22074 0.24466,-0.45804 0.26489,-0.56565c0.01242,-0.06668 0.04323,-0.17016 0.06852,-0.22902c0.06438,-0.15269 0.06484,-0.92483 0.00046,-1.07521c-0.02529,-0.05932 -0.05611,-0.1628 -0.06852,-0.2304c-0.01242,-0.0676 -0.04921,-0.16878 -0.08186,-0.22442c-0.03219,-0.05611 -0.05886,-0.11451 -0.05886,-0.13015c0,-0.07496 -0.2511,-0.40699 -0.46402,-0.61302c-0.33296,-0.32238 -0.37251,-0.35273 -0.62636,-0.48104c-0.03403,-0.01701 -0.10991,-0.05564 -0.16924,-0.08554c-0.05887,-0.03035 -0.21108,-0.07358 -0.33801,-0.09703c-0.67833,-0.12417 -0.60658,-0.12141 -1.01726,-0.04323c-0.20879,0.03955 -0.42815,0.09749 -0.48701,0.12831c-0.05932,0.03081 -0.12739,0.05611 -0.15177,0.05611c-0.04967,0 -0.42355,0.24282 -0.58405,0.37894c-0.40055,0.34123 -0.7542,0.97817 -0.82042,1.47944c-0.0115,0.08462 -0.03541,0.16372 -0.05427,0.17614c-0.06162,0.04139 -8.04932,0.02851 -8.09071,-0.01334c-0.02024,-0.02023 -0.03725,-0.1067 -0.03771,-0.19177c-0.00046,-0.08738 -0.02713,-0.21339 -0.06116,-0.28927c-0.03357,-0.07358 -0.06162,-0.15636 -0.06254,-0.18395c-0.00046,-0.02805 -0.04553,-0.12739 -0.09979,-0.22167c-0.28513,-0.49621 -0.6305,-0.85216 -1.01956,-1.05083c-0.30168,-0.15406 -0.43275,-0.20326 -0.63004,-0.23592c-0.10945,-0.01793 -0.25477,-0.04599 -0.32237,-0.06254c-0.17568,-0.04231 -0.3233,-0.03265 -0.70638,0.04461m0.84526,0.877c0.32652,0.06208 0.9515,0.50955 0.9515,0.68154c0,0.02529 0.02667,0.07036 0.05979,0.09979c0.03265,0.02989 0.07312,0.1113 0.08968,0.18166c0.01655,0.0699 0.05151,0.18257 0.07726,0.25017c0.02621,0.06806 0.04737,0.21891 0.04737,0.33802c0,0.11911 -0.02116,0.26995 -0.04737,0.33755c-0.02575,0.0676 -0.06071,0.18027 -0.07726,0.25064c-0.01656,0.0699 -0.05703,0.15176 -0.08968,0.18119c-0.03311,0.02989 -0.06025,0.06898 -0.06071,0.08784c-0.0041,0.11635 -0.45299,0.49483 -0.73627,0.62084c-0.27363,0.12141 -0.88436,0.13199 -1.09682,0.01886c-0.07128,-0.03771 -0.14946,-0.06852 -0.17384,-0.06852c-0.11957,0 -0.67418,-0.52657 -0.71143,-0.67511c-0.01058,-0.04277 -0.03955,-0.10025 -0.06484,-0.1283c-0.16602,-0.18442 -0.14671,-0.98093 0.03219,-1.33182c0.10531,-0.20649 0.59554,-0.72156 0.68706,-0.72156c0.02989,0 0.08508,-0.02161 0.12279,-0.04783c0.13842,-0.09703 0.66407,-0.13704 0.99058,-0.07496m13.08503,0.0023c0.88297,0.20189 1.47714,1.4077 1.066,2.16329c-0.0184,0.03357 -0.05887,0.11359 -0.09014,0.17705c-0.08232,0.16924 -0.57255,0.63694 -0.66729,0.63694c-0.01885,0 -0.0929,0.03081 -0.16417,0.06806c-0.19407,0.10301 -0.86872,0.10347 -1.05037,0.00092c-0.06714,-0.03817 -0.14395,-0.06898 -0.17016,-0.06898c-0.02621,0 -0.07956,-0.02437 -0.11819,-0.05381c-0.29478,-0.2258 -0.40792,-0.33112 -0.49115,-0.45942c-0.05243,-0.08094 -0.11635,-0.1743 -0.14211,-0.20741c-0.02529,-0.03311 -0.04645,-0.0883 -0.04691,-0.12279c-0.00046,-0.03449 -0.02805,-0.12325 -0.06162,-0.19683c-0.08462,-0.18717 -0.08462,-0.58865 0.00092,-0.78778c0.03357,-0.07864 0.06116,-0.17475 0.06116,-0.21338c0,-0.03909 0.02208,-0.08876 0.04829,-0.11083c0.02667,-0.02207 0.07404,-0.09014 0.10485,-0.15085c0.2649,-0.5192 1.05175,-0.82732 1.72088,-0.67418" fill="#0078d3" fill-rule="evenodd" id="path0" stroke="#0078d3"/>
  </g>
 </g>
</svg>