<?xml version="1.0"?>
<svg width="24" height="24" xmlns="http://www.w3.org/2000/svg" xmlns:svg="http://www.w3.org/2000/svg" version="1.1">
 <g class="currentLayer layer">
  <title>Layer 1</title>
  <g id="svg_1">
   <path d="m14.246426,7.279834l-1.691051,2.215511l1.082541,-2.585324c0.026896,-0.134477 0.134478,-0.211801 0.211802,-0.211801c0.026895,0 0.050429,0.026895 0.10422,0.050429l0.158011,0.077324l0.15801,0.077325c0.137839,0.08741 0.110944,0.215163 -0.023533,0.376536zm-2.292836,2.427313l0.474032,-3.721656c0.050429,-0.262231 -0.026896,-0.447137 -0.211802,-0.447137l-0.238697,0c-0.050429,0 -0.289126,0 -0.289126,0c-0.184906,0 -0.26223,0.158011 -0.211801,0.447137l0.477394,3.721656zm0.658938,4.034316c0.158011,0.369812 0.211801,0.608542 0.211801,0.948064l0,3.086251l0,0.423637c0,0.134477 -0.104219,0.26223 -0.26223,0.26223l-1.371667,0c-0.158011,0 -0.262231,-0.104253 -0.262231,-0.26223l0,-0.423637l0,-0.447137l-7.312197,0l0,0.447137l0,0.423637c0,0.134477 -0.10422,0.26223 -0.26223,0.26223l-1.378392,0c-0.15801,0 -0.26223,-0.104253 -0.26223,-0.26223l0,-0.423637l0,-3.086251c0,-0.346279 0.050429,-0.60851 0.211801,-0.948064l1.714585,-3.587179c0.184906,-0.423604 0.712729,-0.763158 1.186761,-0.763158l4.854626,0c0.474032,0 1.005217,0.346278 1.217019,0.763158l1.714584,3.587179zm-9.369698,-0.154649l8.018202,0l-1.159866,-2.477742c-0.238697,-0.474032 -0.447136,-0.581614 -0.948064,-0.581614l-3.79898,0c-0.077325,0 -0.134477,0 -0.184906,0c-0.369813,0.050429 -0.554719,0.184906 -0.736263,0.581614l-1.190123,2.477742zm1.109437,1.791908c0,-0.474032 -0.396708,-0.843844 -0.87074,-0.843844s-0.843844,0.369812 -0.843844,0.843844s0.369812,0.87074 0.843844,0.87074s0.87074,-0.393346 0.87074,-0.87074zm7.54417,0c0,-0.474032 -0.396708,-0.843844 -0.87074,-0.843844s-0.843844,0.369812 -0.843844,0.843844s0.369812,0.87074 0.843844,0.87074c0.474032,0.003362 0.87074,-0.393346 0.87074,-0.87074zm-0.524461,-5.648042l-1.082541,-2.585323c-0.050429,-0.134478 -0.134478,-0.211802 -0.211802,-0.211802c-0.026895,0 -0.050429,0 -0.077324,0s-0.026896,0.026895 -0.050429,0.026895l-0.158011,0.077325l-0.134477,0.10422c-0.134477,0.077324 -0.10422,0.211801 0.026895,0.369812l1.687689,2.218873zm10.838861,5.066428l-0.793449,2.982032l-0.10422,0.396708c-0.026895,0.134477 -0.184906,0.211801 -0.316021,0.184906l-1.317843,-0.346279c-0.134477,-0.026929 -0.211835,-0.184906 -0.184906,-0.316021l0.10422,-0.396708l0.134477,-0.423637l-6.518782,-1.741479l0,-0.500894c0,-0.211835 -0.026895,-0.44717 -0.077324,-0.658972c0.346279,-0.026895 0.658972,-0.262231 0.763158,-0.635371c0.134477,-0.44717 -0.158011,-0.921169 -0.608509,-1.055646c-0.28916,-0.050429 -0.581648,0.026895 -0.793449,0.211802l-0.60851,-1.267448c0.026896,-0.026895 0.050429,-0.077324 0.077325,-0.10422l2.585324,-3.008927c0.238697,-0.289126 0.635371,-0.447136 1.005183,-0.474032c0.134477,0 0.238731,0 0.346279,0.026896l4.619291,1.186761c0.474032,0.134477 0.897635,0.608509 0.97496,1.055646l0.736262,3.906562c0.084116,0.396708 0.060582,0.665662 -0.023466,0.978321zm-1.13297,-1.368305l-0.500928,-2.689544c-0.10422,-0.524461 -0.289126,-0.685833 -0.763124,-0.82031l-3.667899,-1.005217c-0.184906,-0.050429 -0.315988,-0.050429 -0.447137,-0.050429c-0.211801,0.026895 -0.396707,0.15801 -0.608509,0.396707l-1.79527,2.081035l7.782867,2.087758zm-0.500928,0.843844c-0.050429,-0.026895 -0.10422,-0.026895 -0.157977,-0.026895c-0.053824,0 -0.104253,0 -0.15801,0c-0.346279,0.026895 -0.635405,0.262231 -0.71273,0.635405c-0.134477,0.447136 0.134478,0.921135 0.581614,1.055612s0.921169,-0.157977 1.055646,-0.608509c0.12772,-0.453827 -0.158044,-0.927859 -0.608543,-1.055613z" id="svg_2"/>
  </g>
  <g id="svg_3"/>
  <g id="svg_4"/>
  <g id="svg_5"/>
  <g id="svg_6"/>
  <g id="svg_7"/>
  <g id="svg_8"/>
  <g id="svg_9"/>
  <g id="svg_10"/>
  <g id="svg_11"/>
  <g id="svg_12"/>
  <g id="svg_13"/>
  <g id="svg_14"/>
  <g id="svg_15"/>
  <g id="svg_16"/>
  <g id="svg_17"/>
 </g>
</svg>