<?xml version="1.0"?>
<svg width="24" height="24" xmlns="http://www.w3.org/2000/svg" xmlns:svg="http://www.w3.org/2000/svg" version="1.1">
 <g class="currentLayer layer">
  <title>Layer 1</title>
  <g id="svg_1">
   <path d="m14.45928,6.8326l-1.85128,2.42543l1.18511,-2.83029c0.02944,-0.14721 0.14722,-0.23187 0.23187,-0.23187c0.02944,0 0.05521,0.02945 0.11409,0.05521l0.17299,0.08465l0.17298,0.08465c0.1509,0.0957 0.12146,0.23555 -0.02576,0.41222zm-2.51009,2.6573l0.51895,-4.07429c0.05521,-0.28707 -0.02944,-0.4895 -0.23187,-0.4895l-0.26131,0c-0.05521,0 -0.31652,0 -0.31652,0c-0.20243,0 -0.28708,0.17298 -0.23187,0.4895l0.52262,4.07429zm0.72138,4.41657c0.17298,0.40485 0.23187,0.6662 0.23187,1.03789l0,3.37868l0,0.46377c0,0.14722 -0.1141,0.28708 -0.28708,0.28708l-1.50164,0c-0.17298,0 -0.28707,-0.11413 -0.28707,-0.28708l0,-0.46377l0,-0.48951l-8.00503,0l0,0.48951l0,0.46377c0,0.14722 -0.1141,0.28708 -0.28708,0.28708l-1.509,0c-0.17298,0 -0.28707,-0.11413 -0.28707,-0.28708l0,-0.46377l0,-3.37868c0,-0.37909 0.0552,-0.66616 0.23187,-1.03789l1.87704,-3.92707c0.20243,-0.46374 0.78026,-0.83547 1.29921,-0.83547l5.3146,0c0.51895,0 1.10046,0.37909 1.33233,0.83547l1.87705,3.92707zm-10.25749,-0.1693l8.77793,0l-1.26976,-2.71251c-0.26131,-0.51895 -0.4895,-0.63673 -1.03789,-0.63673l-4.15894,0c-0.08465,0 -0.14722,0 -0.20242,0c-0.40486,0.05521 -0.60728,0.20243 -0.80603,0.63673l-1.30289,2.71251zm1.21456,1.96169c0,-0.51895 -0.4343,-0.9238 -0.95324,-0.9238s-0.9238,0.40485 -0.9238,0.9238s0.40485,0.95324 0.9238,0.95324s0.95324,-0.43061 0.95324,-0.95324zm8.25898,0c0,-0.51895 -0.43429,-0.9238 -0.95324,-0.9238s-0.9238,0.40485 -0.9238,0.9238s0.40485,0.95324 0.9238,0.95324c0.51895,0.00368 0.95324,-0.43061 0.95324,-0.95324zm-0.57415,-6.1832l-1.18511,-2.83028c-0.05521,-0.14722 -0.14722,-0.23187 -0.23187,-0.23187c-0.02945,0 -0.05521,0 -0.08465,0s-0.02945,0.02944 -0.05521,0.02944l-0.17298,0.08465l-0.14722,0.1141c-0.14722,0.08465 -0.1141,0.23187 0.02944,0.40485l1.8476,2.42911zm11.86585,5.54648l-0.86863,3.26458l-0.11409,0.43429c-0.02945,0.14722 -0.20243,0.23187 -0.34597,0.20243l-1.44271,-0.37909c-0.14722,-0.02948 -0.2319,-0.20242 -0.20242,-0.34596l0.11409,-0.4343l0.14722,-0.46378l-7.13644,-1.90648l0,-0.54836c0,-0.2319 -0.02944,-0.48954 -0.08465,-0.72141c0.37909,-0.02944 0.72141,-0.28707 0.83547,-0.69557c0.14722,-0.48954 -0.17298,-1.00845 -0.66617,-1.15567c-0.31656,-0.0552 -0.63676,0.02945 -0.86863,0.23187l-0.66616,-1.38754c0.02944,-0.02944 0.0552,-0.08465 0.08465,-0.11409l2.83028,-3.29403c0.26132,-0.31652 0.69558,-0.4895 1.10043,-0.51894c0.14722,0 0.26135,0 0.37909,0.02944l5.05697,1.29921c0.51895,0.14722 0.98269,0.66616 1.06734,1.15567l0.80602,4.27671c0.09209,0.4343 0.06632,0.72873 -0.02569,1.07102zm-1.24032,-1.49796l-0.54839,-2.94438c-0.1141,-0.57415 -0.31652,-0.75081 -0.83543,-0.89803l-4.01544,-1.10046c-0.20242,-0.05521 -0.34592,-0.05521 -0.4895,-0.05521c-0.23187,0.02944 -0.43429,0.17298 -0.66616,0.4343l-1.96538,2.27821l8.5203,2.28557zm-0.54839,0.9238c-0.05521,-0.02944 -0.1141,-0.02944 -0.17295,-0.02944c-0.05892,0 -0.11413,0 -0.17298,0c-0.37909,0.02944 -0.69561,0.28708 -0.78026,0.69561c-0.14722,0.4895 0.14722,1.00841 0.63672,1.15563s1.00845,-0.17294 1.15567,-0.66616c0.13982,-0.49683 -0.17302,-1.01578 -0.6662,-1.15564z" id="svg_2"/>
  </g>
  <g id="svg_3"/>
  <g id="svg_4"/>
  <g id="svg_5"/>
  <g id="svg_6"/>
  <g id="svg_7"/>
  <g id="svg_8"/>
  <g id="svg_9"/>
  <g id="svg_10"/>
  <g id="svg_11"/>
  <g id="svg_12"/>
  <g id="svg_13"/>
  <g id="svg_14"/>
  <g id="svg_15"/>
  <g id="svg_16"/>
  <g id="svg_17"/>
 </g>
</svg>