<?xml version="1.0"?>
<svg width="24" height="24" xmlns="http://www.w3.org/2000/svg" xmlns:svg="http://www.w3.org/2000/svg" version="1.1">
 <g class="currentLayer layer">
  <title>Layer 1</title>
  <g id="svg_1">
   <path d="m14.11695,7.50192l0.33584,2.52062l-0.95832,-2.36346c-0.04314,-0.06471 -0.06471,-0.15716 -0.04314,-0.2003c0.02157,-0.06471 0.04314,-0.08628 0.11401,-0.11401l0.33588,-0.08628c0.12945,-0.04314 0.21573,0.04314 0.21573,0.24343zm7.31225,0.24344l0,7.50946l-2.00602,0c-0.04314,0.82274 -0.73646,1.49142 -1.58386,1.49142s-1.53763,-0.66868 -1.60543,-1.49142l-0.84431,0c-0.62245,0 -0.71489,-0.29274 -0.71489,-0.66864l0,-1.892c0,-0.33588 0.04314,-0.57931 0.20029,-0.91519l1.67014,-3.30022c0.20029,-0.40059 0.71489,-0.73646 1.15862,-0.73646l3.72546,0.00305zm-2.74248,7.37696c0,-0.46838 -0.37902,-0.8474 -0.8474,-0.8474s-0.86896,0.37902 -0.86896,0.8474s0.40058,0.86896 0.86896,0.86896s0.8474,-0.39753 0.8474,-0.86896zm1.73793,-6.44021l-2.36346,0c-0.35748,0.02157 -0.53617,0.17873 -0.75807,0.57931l-0.73643,1.67014l3.85488,0l0,-2.24945l0.00308,0zm-7.46632,3.94733l0,1.96284c0,0.49303 -0.33585,0.66867 -0.73644,0.66867l-1.67017,0c-0.06471,0.82275 -0.75803,1.49142 -1.60542,1.49142s-1.53764,-0.66867 -1.60543,-1.49142l-4.77007,0l0,-7.51562l3.67924,0c0.44373,0 0.89362,0.265 1.15862,0.73646l1.53764,2.42817l3.05062,0.69333c0.78268,0.13253 0.93984,0.62556 0.96141,1.02615zm-5.34938,-1.69479l-1.00146,-1.67014c-0.17873,-0.33588 -0.46838,-0.5824 -0.89362,-0.5824l-2.13544,0l0,2.24945l4.03052,0l0,0.00309zm2.16317,4.18767c0,-0.46838 -0.37902,-0.8474 -0.84739,-0.8474c-0.46838,0 -0.86897,0.37902 -0.86897,0.8474s0.40059,0.86896 0.86897,0.86896c0.46837,0 0.84739,-0.39753 0.84739,-0.86896zm1.58386,-6.35084c-0.04314,0 -0.08628,0.02157 -0.13558,0.08628l-0.17873,0.29273c-0.02157,0.02157 -0.02157,0.04314 -0.02157,0.06471c0,0.08628 0.06471,0.15716 0.2003,0.2003l2.36346,0.97989l-2.02759,-1.53763c-0.08936,-0.04006 -0.15407,-0.08628 -0.20029,-0.08628zm0.66867,-1.3127c-0.04314,0 -0.08628,0.02157 -0.13558,0.06471l-0.29274,0.29274c-0.04314,0.04314 -0.06471,0.08628 -0.06471,0.15715c0,0.08628 0.06471,0.17873 0.17872,0.24344l2.49289,1.91665l-1.91049,-2.49288c-0.11402,-0.13867 -0.20338,-0.18181 -0.26809,-0.18181z" id="svg_2"/>
  </g>
  <g id="svg_3"/>
  <g id="svg_4"/>
  <g id="svg_5"/>
  <g id="svg_6"/>
  <g id="svg_7"/>
  <g id="svg_8"/>
  <g id="svg_9"/>
  <g id="svg_10"/>
  <g id="svg_11"/>
  <g id="svg_12"/>
  <g id="svg_13"/>
  <g id="svg_14"/>
  <g id="svg_15"/>
  <g id="svg_16"/>
  <g id="svg_17"/>
 </g>
</svg>