<?xml version="1.0"?>
<svg width="32" height="32" xmlns="http://www.w3.org/2000/svg" xmlns:svg="http://www.w3.org/2000/svg">
 <metadata id="metadata50">image/svg+xml</metadata>

 <g class="layer">
  <title>Layer 1</title>
  <g id="g182">
   <path d="m30.40536,4.24686c-0.05067,-1.02891 -1.19003,-0.83797 -1.90342,-0.84407c-0.61099,0 -1.22198,0 -1.83297,0c0,0.56271 0,1.12542 0,1.68813c1.07145,-0.03878 2.16307,0.081 3.22087,-0.06633c0.30834,-0.12537 0.51963,-0.44801 0.51552,-0.77773z" fill="#0078d3" id="svg_2"/>
   <path d="m29.5613,8.82731c-0.96411,0 -1.92822,0 -2.89233,0c0,0.56271 0,1.12542 0,1.68813c1.07145,-0.03878 2.16307,0.081 3.22087,-0.06633c0.84657,-0.33334 0.57303,-1.64041 -0.32854,-1.6218z" fill="#0078d3" id="svg_3"/>
   <path d="m19.00221,12.32365c0.55338,-0.03891 1.11784,0.08122 1.66374,-0.06633c0.44841,-0.45928 0.23001,-1.48285 0.28206,-2.24453c-0.0062,-2.58112 0.01243,-5.16451 -0.0094,-7.74419c-0.16648,-0.99344 -0.78917,-0.59067 -1.21038,-0.67396c-0.90702,-0.06374 -1.88428,0.05367 -2.59414,1.2251c-1.36553,1.93001 -1.41951,6.06604 -0.10533,8.11203c0.53308,0.89171 1.25075,1.39813 1.97346,1.39188l-0.00001,0z" fill="#0078d3" id="svg_4" stroke-width="0.739688"/>
   <path d="m11.47959,24.98084c-1.97322,-0.08841 -3.40575,2.31041 -2.38442,4.00403c0.85694,1.76219 3.61064,1.89631 4.63277,0.22362c1.23779,-1.71907 -0.1311,-4.28843 -2.24835,-4.22765z" fill="#0078d3" id="svg_5"/>
   <path d="m25.49291,19.67635c-6.76064,0 -13.52127,0 -20.28191,0c0,0.60272 0,1.20543 0,1.80815c-0.69936,0.00161 -1.7232,0.14512 -1.90837,-0.76791c-0.04622,-3.98109 -0.00671,-7.9665 -0.01986,-11.94926c0.00464,-1.01225 1.12174,-1.01328 1.86052,-0.96409c3.09311,0 6.18621,0 9.27932,0c-0.1369,-0.84836 0.35477,-2.03724 -0.89638,-1.68813c-3.18434,0.00905 -6.36959,-0.01823 -9.55334,0.01386c-1.57941,0.11108 -2.58599,1.72006 -2.37825,3.20878c0.00919,3.81881 -0.01841,7.63854 0.01387,11.45676c0.11114,1.57939 1.72012,2.58591 3.20882,2.37818c0.6887,-0.17719 0.28826,0.73475 0.39367,1.14085c0.03889,0.95247 -0.08123,1.92524 0.06633,2.86404c0.20422,0.56406 1.95605,0.89685 1.82463,0.06624c0.18643,-2.67218 3.15216,-4.63619 5.68471,-3.75294c1.79886,0.53461 3.12331,2.32308 3.09325,4.20222c0.98412,0 1.96825,0 2.95237,0c-0.08969,-2.68342 2.67426,-4.94032 5.2861,-4.31082c1.99422,0.37521 3.55303,2.27979 3.51467,4.31082c0.75059,-0.0341 1.51962,0.07432 2.25678,-0.06633c0.81957,-0.45928 0.4204,-1.48285 0.51552,-2.24453c0.17506,-1.9368 -0.62436,-3.99774 -2.36515,-4.99469c-0.76249,-0.46532 -1.65421,-0.71321 -2.5473,-0.7112z" fill="#0078d3" id="svg_6"/>
   <path d="m22.17658,16.46244c-1.09775,-1.19461 -2.76568,-1.38926 -4.29506,-1.3065c-0.64716,0 -1.29433,0 -1.9415,0c0,0.94409 0,1.88819 0,2.83228c2.58745,0 5.1749,0 7.76235,0c-0.5086,-0.50859 -1.01719,-1.01719 -1.52579,-1.52578z" fill="#0078d3" id="svg_7"/>
   <path d="m5.211,17.80816c0.08541,0.40922 0.92074,0.06851 1.30382,0.18006c2.57903,0 5.15805,0 7.73707,0c0,-0.94409 0,-1.88819 0,-2.83228c-2.22078,0.009 -4.44248,-0.01824 -6.66268,0.01387c-1.31898,0.10932 -2.40326,1.31601 -2.37821,2.63835z" fill="#0078d3" id="svg_8"/>
   <path d="m25.94493,27.6931c0.07877,1.87643 -2.09941,3.3059 -3.7896,2.48912c-1.75294,-0.67312 -2.20099,-3.23967 -0.77905,-4.46653c1.31404,-1.34166 3.84727,-0.73264 4.4085,1.0592c0.10582,0.29378 0.16027,0.60596 0.16015,0.91821z" fill="#0078d3" id="svg_9"/>
   <path d="m25.29724,5.37671c0,0.27187 0.22041,0.49228 0.49228,0.49228c0.27187,0 0.49228,-0.22041 0.49228,-0.49228c0,-0.54518 -0.28198,-1.06935 -0.77367,-1.43811c-0.33583,-0.25188 -0.74905,-0.42015 -1.19545,-0.49172l0,-0.5316c0,-0.27187 -0.22041,-0.49228 -0.49228,-0.49228c-0.27187,0 -0.49228,0.22041 -0.49228,0.49228l0,0.5316c-0.44643,0.07157 -0.85965,0.23984 -1.19545,0.49172c-0.49169,0.36876 -0.77367,0.89293 -0.77367,1.43811c0,0.54519 0.28198,1.06933 0.77367,1.43812c0.33583,0.25189 0.74905,0.42015 1.19545,0.49172l0,1.94973c-0.56711,-0.1386 -0.98456,-0.50663 -0.98456,-0.92589c0,-0.27187 -0.22041,-0.49228 -0.49228,-0.49228c-0.27187,0 -0.49228,0.22041 -0.49228,0.49228c0,0.54519 0.28198,1.06934 0.77367,1.43812c0.33583,0.25189 0.74905,0.42015 1.19545,0.49172l0,0.53655c0,0.27187 0.22041,0.49228 0.49228,0.49228c0.27187,0 0.49228,-0.22041 0.49228,-0.49228l0,-0.53655c0.44643,-0.07158 0.85965,-0.23983 1.19545,-0.49172c0.49169,-0.36875 0.77367,-0.89293 0.77367,-1.43812c0,-0.54517 -0.28198,-1.06935 -0.77367,-1.43811c-0.33583,-0.25188 -0.74905,-0.42014 -1.19545,-0.49172l0,-1.94973c0.56711,0.13864 0.98456,0.50662 0.98456,0.92588zm-2.95368,0c0,-0.41926 0.41745,-0.78728 0.98456,-0.92588l0,1.85174c-0.56711,-0.13857 -0.98456,-0.5066 -0.98456,-0.92586zm2.95368,2.95368c0,0.41926 -0.41745,0.78729 -0.98456,0.92589l0,-1.85173c0.56711,0.1386 0.98456,0.50659 0.98456,0.92584z" fill="#0078d3" id="path71" stroke-width="0.032819"/>
   <path d="m22.49682,5.47721c-0.02079,0.39982 0.51011,0.65019 0.80541,0.37986c0.29968,-0.2596 0.1639,-0.70798 0.04438,-1.02489c-0.31464,-0.72785 -1.07376,-1.16701 -1.83435,-1.28481c-0.02385,-0.28217 0.07168,-0.60153 -0.11242,-0.84473c-0.23705,-0.31961 -0.8019,-0.17935 -0.86214,0.21392c-0.02059,0.20917 -0.0053,0.42064 -0.01,0.63081c-0.87349,0.12807 -1.76064,0.71636 -1.93986,1.62627c-0.1688,0.80719 0.36935,1.60798 1.08057,1.95293c0.26841,0.14009 0.56063,0.23258 0.85929,0.28047c0,0.64991 0,1.29982 0,1.94973c-0.46505,-0.10935 -0.99648,-0.43883 -0.9871,-0.97621c-0.0203,-0.39836 -0.5707,-0.59402 -0.83783,-0.29776c-0.25466,0.27196 -0.12306,0.6864 -0.0094,0.99311c0.31464,0.72785 1.07375,1.16704 1.83435,1.28481c0.02124,0.27057 -0.05953,0.56642 0.08408,0.81179c0.2051,0.34027 0.77954,0.2559 0.87835,-0.12885c0.04302,-0.22405 0.01334,-0.4555 0.02213,-0.68294c0.87349,-0.12807 1.76065,-0.71635 1.93986,-1.62627c0.16878,-0.80718 -0.36936,-1.60798 -1.0806,-1.95292c-0.26841,-0.14009 -0.56062,-0.23258 -0.85928,-0.28048c0,-0.64991 0,-1.29982 0,-1.94972c0.44622,0.11041 0.96548,0.41019 0.98456,0.92588zm-2.95368,0c0.02232,-0.51371 0.53562,-0.81755 0.98456,-0.92588c0,0.61724 0,1.23449 0,1.85173c-0.44625,-0.11036 -0.96549,-0.41018 -0.98456,-0.92585zm2.95368,2.95368c-0.02232,0.5137 -0.53563,0.81755 -0.98456,0.92588c0,-0.61724 0,-1.23449 0,-1.85173c0.44623,0.11038 0.96548,0.41017 0.98456,0.92585z" fill="#000000" fill-opacity="0" id="path125" stroke-width="0.032819"/>
  </g>
 </g>
</svg>