<svg xmlns="http://www.w3.org/2000/svg" width="64" height="58.381" style=""><rect id="backgroundrect" width="100%" height="100%" x="0" y="0" fill="none" stroke="none"/>
  
<g class="currentLayer" style=""><title>Layer 1</title><path id="path0" d="M15.503756595036783,3.613658392753435 C15.148477556488313,3.6382208941839513 14.70021190538148,3.69874991556628 14.507220822713176,3.749629382815196 C14.314229740044873,3.7996316178701672 14.028252044818203,3.858406174864606 13.872104714295665,3.8803369797132756 C13.715957383773127,3.9013905523680004 13.478227459213533,3.9663057347200645 13.344888165733616,4.023325827326613 C13.210671640059749,4.0803459199331575 13.007153771064083,4.144383870091276 12.893113585850994,4.1663146749399464 C12.778196168443959,4.18736824759467 12.581696156999866,4.257546823110417 12.455374721071523,4.321584773268535 C12.329930517337125,4.385622723426655 12.190450598499575,4.4382566550634674 12.145711756608288,4.4382566550634674 C12.100972914717,4.4382566550634674 11.99482781924943,4.47597763940318 11.908859064242641,4.522470945682361 C11.823767541429797,4.568087019767596 11.529017524263661,4.713707563962775 11.255321079752246,4.845292393054798 C10.636872383019726,5.142674106802776 9.952631271741192,5.531287968721223 9.47629419042806,5.857618344869447 C9.330673646232883,5.956745582785446 8.661345482251445,6.49273445328696 8.299925818345347,6.799765721168356 C7.871836507699291,7.162062617268397 7.4297114819500845,7.623486751284437 6.940215917727749,8.217372946586448 C6.701608760974208,8.507736802782848 6.472651158354083,8.784064943876105 6.432298477432529,8.832312714543182 C6.277028379103939,9.015654243078068 5.805954690954486,9.751652053799463 5.805954690954486,9.811303842987853 C5.805954690954486,9.84463866635783 5.768233706614772,9.904290455546217 5.720863168141642,9.943765904273821 C5.674369861862461,9.982364120807485 5.488396636745731,10.321852979864913 5.3076868047926835,10.697308358874157 C5.126976972839634,11.073640970077353 4.927845264813701,11.478922243680788 4.864684546849529,11.598225822057561 C4.802401061079303,11.717529400434334 4.751521593830387,11.863149944629505 4.751521593830387,11.92280173381789 C4.751521593830387,11.981576290812328 4.698887662193577,12.134214692559077 4.6339724798415105,12.260536128487427 C4.569934529683392,12.38685756441577 4.517300598046581,12.524583018865421 4.517300598046581,12.567567396368815 C4.517300598046581,12.609674541678267 4.4532626478884625,12.848281698431805 4.376066214821141,13.096538409318761 C3.9514858329508713,14.457125542130306 3.7856889482949185,17.473927057113485 4.069912179133694,18.6766123950146 C4.1269322717402375,18.917851248349983 4.196233615062039,19.260849036183195 4.22342781307439,19.438049939360454 C4.2830796022627755,19.824032104697068 4.494492561003964,20.547748664703203 4.6436220339749275,20.877587969627214 C4.703273823163311,21.008295566525295 4.751521593830387,21.150407181944686 4.751521593830387,21.19339155944808 C4.751521593830387,21.27672861787303 4.9067916921589765,21.63727104958518 5.136626526973049,22.089045629467797 C5.214700192234318,22.242561263408497 5.278738142392437,22.40309475490077 5.278738142392437,22.44695636459811 C5.278738142392437,22.489940742101503 5.329617609641353,22.57152333613856 5.392778327605526,22.628543428745104 C5.455061813375751,22.684686289157703 5.5226086923096585,22.80486709972842 5.5427850327704355,22.895222015704945 C5.562084141037266,22.98469969948752 5.629631019971171,23.104880510058237 5.691914505741398,23.161900602664787 C5.75507522370557,23.218043463077386 5.805954690954486,23.29874882492049 5.805954690954486,23.339101505842045 C5.805954690954486,23.380331418957546 5.841921210906307,23.449632762279347 5.884905588409701,23.49261713978274 C5.9278899659130975,23.535601517286135 5.998068541428845,23.636483219590023 6.040175686738292,23.716311349239188 C6.409490440389911,24.414588175620864 8.264836530587475,26.413800345625717 9.002588805696767,26.90768207081779 C9.193825423977177,27.036635203327968 9.371903559348386,27.17523788997157 9.398220525166789,27.216467803087067 C9.424537490985195,27.256820484008628 9.529805354258816,27.330507988300166 9.632441520950596,27.378755758967234 C9.936841092250148,27.522621838774516 10.168430391452112,27.665610686387847 10.215800929925244,27.739298190679385 C10.240363431355753,27.777019175019106 10.352649152180948,27.83842542859538 10.464934873006145,27.8761464129351 C10.57722059383134,27.912990165080867 10.669329974195758,27.965624096717665 10.669329974195758,27.992818294730025 C10.669329974195758,28.02001249274238 10.768457212111752,28.074400888767084 10.889515254876418,28.11299910530074 C11.00969606544713,28.151597321834398 11.148298752090732,28.216512504186465 11.196546522757806,28.256865185108026 C11.244794293424883,28.296340633835634 11.381642515680593,28.360378583993747 11.500068861863415,28.398099568333468 C11.61761797585229,28.43669778486712 11.746571108362478,28.50599912818892 11.785169324896135,28.552492434468107 C11.823767541429797,28.598985740747295 11.911490760824481,28.637583957280953 11.979914871952335,28.637583957280953 C12.049216215274136,28.638461189474896 12.245716226718228,28.704253604020906 12.418530968925754,28.784081733670078 C12.590468478939336,28.86478709551318 12.78258232941369,28.930579510059196 12.844865815183919,28.930579510059196 C12.90802653314809,28.930579510059196 13.016803325197497,28.968300494398903 13.088736365101138,29.014793800678092 C13.159792172810832,29.060409874763323 13.402785490534107,29.129711218085134 13.628234164378446,29.16830943461879 C13.853682838222781,29.2060304189585 14.06772749354581,29.261296047177154 14.10369401349763,29.28936747738345 C14.139660533449451,29.31831613978369 14.495816804191865,29.38147685774787 14.89495745243768,29.429724628414945 C15.29409810068349,29.47797239908202 15.805524469754499,29.542887581434087 16.030973143598835,29.57359070822222 C16.831008904478352,29.68236750027164 18.931102776787082,29.530606330718832 19.634642996332445,29.313052746620016 C19.779386308333677,29.26831390472872 20.06975016453008,29.201644257988768 20.278531426689426,29.164800505842997 C20.48818992104272,29.127956753697234 20.712761362693108,29.063918803539117 20.776799312851224,29.023566122617552 C20.841714495203295,28.98233620950206 20.97943994965295,28.93233397444709 21.08470781292657,28.91215763398631 C21.189098444006248,28.89110406133159 21.391739080807962,28.82092548581584 21.535605160615248,28.756010303463782 C21.678594008228583,28.6910951211117 21.826846249005598,28.637583957280953 21.864567233345312,28.637583957280953 C21.902288217685022,28.637583957280953 22.028609653613366,28.58582725783809 22.146158767602245,28.52266653987391 C22.262830649397177,28.459505821909737 22.556703434369364,28.313885277714565 22.797942287704746,28.19809062811358 C23.04005837323407,28.082295978512605 23.34358071233968,27.922639719214278 23.472533844849863,27.84281158956511 C23.601486977360047,27.76298345991595 23.77254725517968,27.66473345419391 23.85325261702279,27.62613523766024 C23.933957978865905,27.586659788932643 24.034839681169785,27.52086737438663 24.076946826479237,27.480514693465068 C24.11993120398263,27.439284780349567 24.21204058434705,27.375246830191454 24.282219159862798,27.338403078045687 C24.769083027503292,27.080496813025306 26.548987149021425,25.45410832544787 27.01742914058904,24.840045789685092 C27.0972572702382,24.733900694217517 27.21656084861497,24.583893989052612 27.28059879877309,24.504943091597394 C27.345513981125155,24.42686942633613 27.46394032730798,24.268090399231756 27.54464568915109,24.152295749630767 C27.625351050994198,24.036501100029785 27.74640909375886,23.87070421537383 27.814833204886718,23.784735460367042 C27.883257316014564,23.697889473166306 27.956944820306102,23.56805910846217 27.979752857348718,23.49524883636458 C28.002560894391337,23.42331579646094 28.04291357531289,23.363664007272558 28.069230541131297,23.363664007272558 C28.095547506949703,23.363664007272558 28.159585457107823,23.258396143998937 28.211342156550685,23.12944301148875 C28.263098855993547,23.000489878978563 28.327136806151668,22.895222015704945 28.355208236357967,22.895222015704945 C28.38240243437032,22.895222015704945 28.435913598201076,22.792585849013168 28.472757350346846,22.668018877472715 C28.51047833468656,22.542574673738315 28.580656910202304,22.407480915870504 28.62890468086938,22.367128234948947 C28.677152451536454,22.327652786221343 28.716627900264065,22.257474210705592 28.716627900264065,22.211858136620357 C28.716627900264065,22.165364830341176 28.782420314810082,22.00395410665496 28.863125676653187,21.8530701692961 C28.942953806302352,21.701308999743294 29.009623453042305,21.543407204832864 29.009623453042305,21.50130005952342 C29.009623453042305,21.460070146407915 29.062257384679118,21.322344691958264 29.126295334837238,21.19602325602992 C29.1912105171893,21.06970182010157 29.243844448826113,20.91881788274272 29.243844448826113,20.86004332574828 C29.243844448826113,20.802146000947786 29.292969451687135,20.662666082110242 29.352621240875525,20.550380361285047 C29.412273030063908,20.43809464045985 29.47981990899781,20.223172752942876 29.50175071384648,20.072288815584017 C29.524558750889103,19.921404878225164 29.593860094210903,19.652094594683483 29.657020812175077,19.473139227118324 C29.719304297945303,19.294183859553172 29.77106099738816,19.009083396520452 29.771938229582116,18.83890035089476 C29.771938229582116,18.66871730526908 29.8166770714734,18.358177108611894 29.870188235304155,18.14939584645255 C30.009668154141703,17.602002957429725 30.009668154141703,15.607176948394613 29.870188235304155,14.972938072171047 C29.815799839279453,14.724681361284091 29.77106099738816,14.401859913911654 29.77106099738816,14.255362137522532 C29.77106099738816,14.108864361133413 29.716672601363463,13.833413452234105 29.650880186817446,13.643054066147638 C29.585087772271436,13.452694680061175 29.507891339204114,13.169348681416345 29.478942676803868,13.013201350893809 C29.41841365542153,12.684239278163744 29.2210364117835,12.095616476025418 29.0955922080491,11.870167802181083 C29.04822166957597,11.785076279368239 29.009623453042305,11.68156288048251 29.009623453042305,11.64033296736701 C29.009623453042305,11.558750373329952 28.442931455752653,10.409576199259591 28.216605549714366,10.034120820250347 C28.139409116647045,9.905167687740164 28.034141253373427,9.720071694817381 27.98326178612451,9.62357615348323 C27.93325955106954,9.527080612149078 27.812201508304877,9.341984619226292 27.715705966970724,9.213031486716106 C27.620087657830517,9.084078354205921 27.49727515067796,8.913018076386289 27.443763986847202,8.832312714543182 C27.060413518092435,8.255971163120105 25.249806269786163,6.411151859249902 24.889263838074008,6.228687562908961 C24.851542853734298,6.2093884546421325 24.71469463147859,6.114647377695876 24.5857414989684,6.018151836361724 C24.161161117098136,5.701471014346913 23.847989223859116,5.492689752187566 23.796232524416247,5.492689752187566 C23.76816109420995,5.492689752187566 23.670788320681847,5.432160730805231 23.579556172511378,5.357595994319755 C23.433935628316206,5.240046880330878 22.451435571095747,4.738270065393285 21.948781523964207,4.525979874458152 C21.3961252417777,4.292636110868289 21.10137522461156,4.185613783206774 20.88031271173696,4.14087494131549 C20.743464489481248,4.112803511109188 20.55836849655847,4.0522744897268534 20.46889081277589,4.005781183447674 C20.379413128993313,3.960165109362439 20.1750180278037,3.9031450167558965 20.01448453631143,3.8803369797132756 C19.853951044819155,3.857528942670661 19.510953256985943,3.7899820637367494 19.253046991965572,3.7312075067423125 C18.71004026391248,3.6075177673958088 16.582752193591396,3.5408481206558484 15.503756595036783,3.613658392753435 M18.724953211209574,5.346191975798442 C19.110935376546188,5.426897337641551 19.48375905897359,5.492689752187566 19.55306040229539,5.492689752187566 C19.62323897781114,5.492689752187566 19.79517648782472,5.544446451630426 19.935533638856214,5.608484401788546 C20.075890789887705,5.6725223519466645 20.2574778540347,5.725156283583477 20.33818321587781,5.726033515777424 C20.41888857772092,5.726033515777424 20.577667604825297,5.776035750832394 20.689953325650492,5.836564772214728 C20.802239046475687,5.8962165614031115 20.986457807204523,5.965517904724912 21.09874352802972,5.989203173961478 C21.211906481048864,6.013765675391989 21.343491310140887,6.066399607028801 21.391739080807962,6.1067522879503535 C21.439986851475037,6.1479822010658545 21.57683507373075,6.212020151223973 21.69526141991357,6.249741135563687 C21.812810533902447,6.288339352097351 21.941763666412633,6.357640695419146 21.98036188294629,6.404134001698331 C22.01896009947995,6.450627307977513 22.092647603771486,6.488348292317226 22.143527071020404,6.488348292317226 C22.193529306075376,6.488348292317226 22.329500296137137,6.54887731369956 22.443540481350222,6.621687585797146 C22.715482461473744,6.796256792392565 22.84882175495366,6.876962154235679 23.05760301711301,6.992756803836659 C24.018172269484797,7.52786844214423 26.372663478038117,9.8665694712065 26.372663478038117,10.285886459913089 C26.372663478038117,10.31658958670123 26.411261694571774,10.373609679307773 26.458632233044906,10.413085128035384 C26.615656795761385,10.543792724933464 27.42271041419248,12.05877272387965 27.426219342968263,12.230710233893229 C27.427096575162214,12.278958004560304 27.48060773899297,12.398261582937076 27.54464568915109,12.494757124271228 C27.60868363930921,12.591252665605381 27.661317570946014,12.730732584442926 27.661317570946014,12.80529732092841 C27.661317570946014,12.878984825219945 27.703424716255466,13.02021920844539 27.753426951310438,13.11846921416743 C27.804306418559353,13.215841987695534 27.883257316014564,13.47725718149169 27.929750622293753,13.697442462172347 C27.975366696378988,13.917627742853 28.04028187873105,14.170270614709693 28.073616702101027,14.257116601910425 C28.32625957395772,14.922935837116079 28.305206001302995,18.372212823715046 28.044668039700788,18.990661520447567 C28.001683662197394,19.091543222751454 27.935014015457433,19.345940558996038 27.89729303111772,19.554721821155386 C27.858694814584055,19.764380315508678 27.801674721977513,19.951230772819354 27.771848827383323,19.96965264889224 C27.74114570059518,19.988951757159068 27.700793019673625,20.107378103341897 27.681493911406797,20.23369953927024 C27.662194803139972,20.360020975198584 27.60078854956369,20.542485271539526 27.54464568915109,20.638980812873676 C27.488502828738493,20.735476354207826 27.424464878580373,20.89162368473037 27.40165684153775,20.986364761676622 C27.379726036689082,21.080228606428935 27.31042469336728,21.22234022184832 27.24814120759706,21.301291119303542 C27.184980489632885,21.381119248952704 27.134101022383966,21.48901880880816 27.134101022383966,21.54252997263892 C27.134101022383966,21.595163904275733 27.08848494829873,21.703940696325137 27.032342087886132,21.7837688259743 C26.913915741703313,21.950442942824203 26.770049661896028,22.203963046874833 26.650746083519255,22.455728686537583 C26.604252777240077,22.552224227871733 26.522670183203026,22.668018877472715 26.469159019372267,22.711880487170053 C26.416525087735454,22.7557420968674 26.372663478038117,22.823288975801304 26.372663478038117,22.86013272794707 C26.372663478038117,22.897853712286786 26.320906778595248,22.993472021426992 26.258623292825025,23.072422918882207 C25.693685759923262,23.78999885353072 25.492799587509438,24.02948324247821 25.180504926464362,24.36019977959616 C24.79627722551564,24.764603821005654 24.024312894842424,25.466389576163134 23.86202493896226,25.556744492139654 C23.808513775131505,25.58657038673385 23.73833519961576,25.640958782758553 23.70675484063367,25.67780253490432 C23.654998141190806,25.735699859704802 23.047953462979592,26.136594972338514 22.71021906831006,26.33572668036445 C22.381256995579996,26.52959499522669 21.31717434432248,27.05505707940085 21.254013626358308,27.05505707940085 C21.214538177630704,27.05505707940085 21.079444419762893,27.107691011037662 20.954000216028493,27.171728961195775 C20.827678780100147,27.235766911353906 20.631178768656056,27.305945486869646 20.517138583442964,27.327876291718326 C20.403098398229876,27.348929864373048 20.203089458010002,27.41472227891905 20.07413632549981,27.473496835913497 C19.94518319298963,27.53227139290793 19.76008720006684,27.581396395768962 19.66359165873269,27.5822736279629 C19.567096117398542,27.583150860156852 19.316207709929742,27.640170952763395 19.10654921557645,27.7077178316973 C18.573192041656775,27.882287038292716 15.942372692010203,27.93667543431742 15.210761042258541,27.789300425734357 C14.952854777238171,27.737543726291495 14.551082432410519,27.65683836444839 14.317738668820658,27.61122229036315 C14.084394905230802,27.565606216277917 13.82122524704675,27.49104147979243 13.731747563264172,27.446302637901137 C13.64314711167554,27.40068656381591 13.468577905080119,27.34542093559726 13.345765397927561,27.32349013074858 C13.222952890775007,27.300682093705966 13.037856897852222,27.231380750384172 12.93522073116044,27.169097264613935 C12.833461796662608,27.106813778843712 12.679946162721913,27.055934311594804 12.595731872103016,27.05505707940085 C12.510640349290172,27.05505707940085 12.409758646986285,27.017336095061143 12.371160430452626,26.96996555658801 C12.332562213918967,26.923472250308834 12.203609081408779,26.854170906987026 12.085182735225956,26.81644992264732 C11.96763362123708,26.778728938307598 11.830785398981373,26.712936523761584 11.782537628314294,26.671706610646083 C11.73428985764722,26.629599465336636 11.62375860120992,26.577842765893774 11.537789846203127,26.556789193239048 C11.451821091196338,26.534858388390372 11.33514920940141,26.46731150945647 11.27988358118276,26.405028023686246 C11.223740720770163,26.343621770109973 11.152684913060465,26.293619535055 11.120227321884432,26.293619535055 C11.064961693665783,26.293619535055 10.82109114374856,26.133963275756674 10.171062088033953,25.67341637393458 C9.507874549410143,25.203219917979073 8.226238314053813,23.94000555869563 7.863941417953772,23.398753295030428 C7.779727127334873,23.272431859102085 7.6709503352854655,23.11365283199771 7.622702564618389,23.045228720869854 C7.574454793951313,22.976804609741997 7.481468181392947,22.833815762128665 7.417430231234828,22.727670666661098 C7.352515048882762,22.62240280338748 7.202508343717854,22.38555011102183 7.0823275331471365,22.202208582486943 C6.96214672257642,22.019744286146004 6.863019484660428,21.830262132253484 6.861265020272534,21.78201436158641 C6.85951055588464,21.733766590919334 6.806876624247829,21.627621495451763 6.743715906283658,21.5477933658026 C6.6805551883194845,21.467088003959493 6.627921256682676,21.374978623595073 6.6261667922947804,21.34252103241904 C6.624412327906887,21.310063441243006 6.557742681166928,21.152161646332576 6.478791783711711,20.99075092264636 C6.398963654062549,20.82934019896014 6.334048471710483,20.657402688946558 6.334048471710483,20.609154918279483 C6.334048471710483,20.560029915418465 6.284046236655515,20.428445086326438 6.223517215273182,20.316159365501242 C6.163865426084797,20.202996412482097 6.0945640827629965,19.99246068593486 6.070001581332485,19.847717373933627 C6.046316312095921,19.702974061932398 5.991050683877269,19.514369140233832 5.947189074179929,19.428400385227043 C5.903327464482587,19.343308862414197 5.84104397871236,19.05294500621779 5.808586387536327,18.784511954870062 C5.777006028554241,18.51520167132838 5.7103363818142805,18.1502730786465 5.662088611147205,17.973072175469234 C5.523485924503605,17.471295360531645 5.5366444074128065,15.61156310936435 5.682264951607982,15.07118807789309 C5.742793972990315,14.8466166362427 5.80770915534238,14.485196972336603 5.8261310314152635,14.268520620431737 C5.844552907488147,14.051844268526864 5.8998185357068,13.797446932282284 5.9480663063738755,13.703583087529971 C5.997191309234897,13.609719242777661 6.055088634035389,13.417605392303301 6.07701943888406,13.277248241271813 C6.09895024373273,13.136891090240312 6.165619890472691,12.929864292468864 6.225271679661075,12.817578571643665 C6.2849234688494615,12.705292850818473 6.3331712395165365,12.57633971830829 6.3331712395165365,12.530723644223052 C6.3331712395165365,12.371067384924727 6.947233775279323,11.121888740744428 7.315671296736997,10.531511474218204 C7.511294075987141,10.21921681317313 7.539365506193439,10.178864132251576 7.958682494900028,9.62269892128928 C8.473617792746822,8.939335042204695 9.878943767449659,7.543658621635274 10.051758509657184,7.543658621635274 C10.073689314505856,7.543658621635274 10.216678162119187,7.438390758361656 10.36931656386594,7.309437625851466 C10.522832197806636,7.180484493341282 10.677225063941282,7.074339397873713 10.712314351699153,7.074339397873713 C10.748280871650973,7.074339397873713 10.8517942705367,7.014687608685328 10.943026418707174,6.940122872199847 C11.034258566877643,6.866435367908316 11.174615717909138,6.77344875534995 11.255321079752246,6.733096074428396 C11.336026441595358,6.691866161312891 11.480769753596585,6.619055889215305 11.577265294930736,6.5708081185482285 C11.674638068458837,6.522560347881154 11.793064414641657,6.4576451655290885 11.841312185308734,6.426942038740948 C11.889559955975809,6.3962389119528105 11.99482781924943,6.340973283734158 12.075533181092542,6.305006763782339 C12.15623854293565,6.269917476024467 12.354493018767634,6.177808095660044 12.515903742453855,6.100611662592723 C12.677314466140073,6.024292461719352 12.849251976153651,5.9611317437551765 12.898376979014675,5.9611317437551765 C12.9475019818757,5.9611317437551765 13.03873413004617,5.925165223803358 13.10277208020429,5.881303614106013 C13.16593279816846,5.836564772214728 13.310676110169688,5.781299143996076 13.422961830994884,5.75761387475951 C13.536124784014028,5.733051373328999 13.786135959288876,5.666381726589039 13.980004274151128,5.608484401788546 C14.172995356819431,5.5497098447941084 14.621261007926265,5.447950910296274 14.975662814280787,5.382158495750266 C15.330941852829259,5.315488849010307 15.673062408468525,5.250573666658241 15.73797759082059,5.237415183749038 C16.20729681458215,5.140919642414886 18.06001120819787,5.208466521348791 18.724953211209574,5.346191975798442 M16.268703068158427,8.552475644674137 C16.19589279606084,8.655989043559867 16.177470919987957,8.859506912555531 16.177470919987957,9.547256952609853 C16.177470919987957,10.590286031212642 16.196770028254786,10.563969065394236 15.357258818647663,10.62449808677657 C15.051104782960218,10.646428891625241 14.668631546399396,10.712221306171255 14.507220822713176,10.770995863165695 C14.345810099026957,10.828893187966182 14.108957406661311,10.894685602512197 13.980004274151128,10.917493639554811 C13.85105114164094,10.939424444403487 13.653673898002904,11.005216858949495 13.54051094498376,11.062236951556045 C13.427347991964616,11.119257044162588 13.177336816689769,11.24294678350909 12.983468501827517,11.337687860455347 C12.34484346463422,11.650859753694373 12.230803279421131,11.728933418955641 11.8088545941327,12.14737317546828 C10.32457772197465,13.616737100329239 10.815827750584882,15.498400156345202 12.954519839427274,16.534411377396424 C13.131720742604532,16.620380132403213 13.374714060327808,16.74231540736182 13.493140406510632,16.80459889313205 C13.612443984887403,16.866882378902275 13.763327922246258,16.918639078345134 13.828243104598323,16.918639078345134 C13.89315828695039,16.918639078345134 14.080008744261065,16.971273009981942 14.242296700141232,17.035310960140066 C14.405461888215344,17.099348910298186 14.689685119054117,17.167773021426036 14.874781111976903,17.186194897498922 C15.609024458310406,17.259882401790456 16.118696362993518,17.396730624046164 16.15115395416955,17.52743822094424 C16.166944133660593,17.59586233207209 16.173084759018224,18.362563269581628 16.164312437078756,19.232777605976892 L16.147645025393764,20.81530448385699 L15.66604455091695,20.80565492972358 C15.358136050841608,20.799514304365946 15.115142733118336,20.761793320026232 14.994961922547619,20.701264298643906 C14.891448523661891,20.650384831394987 14.70021190538148,20.59161027440055 14.569504308483403,20.573188398327662 C14.357214117548267,20.54160803934558 13.897544447920124,20.362652671780424 13.569459607384006,20.18457453640921 C13.505421657225888,20.149485248651338 13.394890400788585,20.090710691656902 13.324711825272841,20.052989707317188 C13.25453324975709,20.01702318736537 13.080841275355617,19.863507553424668 12.937852427742282,19.712623616065816 C12.765914917728702,19.530159319724874 12.631698392054833,19.438927171554404 12.538711779496472,19.440681635942294 C12.37291489484052,19.443313332524134 11.901841206691067,19.56524860748275 11.79832780780534,19.631918254222708 C11.758852359077732,19.657357987847163 11.593932706615725,19.717009777035553 11.431644750735561,19.765257547702628 C11.103559910199444,19.862630321230725 11.089524195096294,19.901228537764382 11.247425990006725,20.269666059222057 C11.472874663851062,20.796005375590163 12.836970725438396,21.899563475575285 13.260673875114719,21.898686243381334 C13.301903788230222,21.898686243381334 13.44050647487382,21.948688478436306 13.569459607384006,22.010094732012586 C13.973863648793499,22.201331350292993 14.601084667465487,22.367128234948947 15.239709704658788,22.451342525567846 C15.578321331522266,22.496081367459137 15.927459744713108,22.5609965498112 16.016060196301737,22.595208605375127 L16.177470919987957,22.65749209114535 L16.177470919987957,23.57156803723796 C16.177470919987957,24.769867214169334 16.137118239066403,24.711092657174902 16.965225430152216,24.711092657174902 C17.897723252317704,24.711092657174902 17.817895122668546,24.807588198509052 17.817895122668546,23.687362686838938 C17.817895122668546,22.968032287802533 17.837194230935374,22.718021112527687 17.895091555735863,22.669773341860612 C18.000359419009484,22.582050122465926 18.58284159579019,22.443447435822325 19.048651890775957,22.394322432961303 C19.257433152935306,22.372391628112627 19.4951630774949,22.320634928669765 19.57586843933801,22.28028224774821 C19.65657380118112,22.239052334632714 19.814475596091548,22.187295635189844 19.92763854911069,22.164487598147232 C20.25309169306497,22.098695183601215 21.169799335739413,21.676746498312784 21.461040424129763,21.459192914213972 C21.547009179136552,21.395154964055852 21.727719011089604,21.263570134963828 21.861935536763472,21.166197361435724 C22.073348495504657,21.015313424076872 22.243531541130345,20.825831270184352 22.64618111815194,20.297737489428357 C22.691797192237182,20.23808570023997 22.74618558826188,20.093342388238742 22.768993625304496,19.97491604205592 C22.790924430153172,19.856489695873098 22.834786039850513,19.729291027750804 22.8663663988326,19.69157004341109 C23.066375339052477,19.448576725687815 22.8663663988326,18.20027531370146 22.590038257739344,17.970440478887397 C22.543544951460163,17.931842262353733 22.504946734926506,17.86868154438956 22.504946734926506,17.830083327855903 C22.504946734926506,17.791485111322242 22.446172177932066,17.703761891927556 22.373361905834475,17.63446054860576 C22.301428865930838,17.565159205283955 22.189143145105643,17.451996252264813 22.124227962753576,17.382694908943016 C21.868076162121096,17.108998464431597 21.335596220395367,16.74494710394366 20.892593962452214,16.541429234947994 C20.63556492962579,16.423002888765172 20.350464466593067,16.287909130897354 20.259232318422594,16.241415824618176 C20.168000170252128,16.194922518339 20.043433198711675,16.157201533999284 19.982904177329345,16.157201533999284 C19.92237515594701,16.157201533999284 19.670609516284266,16.090531887259324 19.423230037591253,16.01070375761016 C19.176727791092198,15.92999839576705 18.845134021780293,15.864205981221033 18.685477762481966,15.864205981221033 C17.785437531492512,15.864205981221033 17.807368336341185,15.913330984082059 17.8301763733838,13.844817470755416 L17.84684378506879,12.323696846451595 L18.040712099931042,12.267553986038997 C18.52143534221391,12.129828531589347 20.34432384123544,12.810560714092091 20.900489052197734,13.33602279826625 C21.20488862349729,13.62375495788081 21.42331943979005,13.642176833953691 21.723332850119867,13.406201373781997 C21.807547140738766,13.34040895923598 21.9224645581458,13.28602056321128 21.97773018636445,13.28602056321128 C22.03387304677705,13.28602056321128 22.146158767602245,13.233386631574465 22.226864129445357,13.169348681416345 C22.30844672348241,13.106187963452179 22.443540481350222,13.027237065996957 22.52775477196912,12.995656707014874 C22.70232397856454,12.928987060274913 22.719868622443474,12.864071877922846 22.59354718651513,12.757926782455286 C22.545299415848056,12.718451333727675 22.504946734926506,12.652658919181661 22.504946734926506,12.612306238260103 C22.504946734926506,12.51931962570174 21.724210082313817,11.778058421816661 21.535605160615248,11.691212434615927 C21.45665426316003,11.655245914664105 21.391739080807962,11.606120911803085 21.391739080807962,11.581558410372573 C21.391739080807962,11.556995908942064 21.302261397025386,11.506993673887091 21.19173014058809,11.471027153935268 C21.081198884150783,11.434183401789504 20.961018073580068,11.36839098724349 20.9241743214343,11.323652145352199 C20.887330569288533,11.278913303460914 20.772413151881494,11.224524907436205 20.669776985189714,11.202594102587536 C20.568018050691883,11.180663297738867 20.40485286261777,11.121011508550477 20.30835732128362,11.071886505689456 C20.21098454775552,11.021884270634486 19.987290338299076,10.948196766342953 19.810089435121814,10.906966853227448 C19.632888531944552,10.866614172305894 19.382000124475756,10.792926668014363 19.253046991965572,10.74380166515334 C19.124093859455385,10.694676662292316 18.90039964999894,10.651692284788922 18.755656337997713,10.649060588207082 C17.865265661141674,10.631515944328143 17.81877235486249,10.573618619527654 17.816140658280652,9.480587305869893 C17.81350896169881,8.377906438078718 17.84684378506879,8.42264527997001 17.00908703984956,8.42264527997001 C16.404674058220188,8.42264527997001 16.352917358777326,8.431417601909475 16.268703068158427,8.552475644674137 M44.302412290117545,11.853500390496087 C44.157668978116305,11.899116464581324 43.97257298519353,11.936837448921043 43.89099039115648,11.936837448921043 C43.26464660467843,11.941223609890773 41.43123131932954,13.43778173276408 41.43123131932954,13.945699173059303 C41.43123131932954,13.975525067653493 41.37859738769272,14.066757215823962 41.31368220534067,14.148339809861021 C41.249644255182545,14.230799636092023 41.197010323545726,14.35448937543853 41.197010323545726,14.423790718760323 C41.197010323545726,14.493092062082127 41.14437639190892,14.699241627659632 41.079461209556854,14.882583156194524 C40.97419334628324,15.181719334330396 40.962789327761925,15.366815327253178 40.962789327761925,16.657223884548976 C40.962789327761925,17.53884223946555 40.93910405852536,18.142377988900975 40.901383074185645,18.21167933222278 C40.84260851719121,18.322210588660077 40.72769109978418,18.324842285241917 36.1002912767146,18.324842285241917 L31.359728500625888,18.324842285241917 L31.26849635245542,18.454672649946055 C31.13427982678155,18.646786500420404 31.135157058975498,19.937195057716206 31.270250816843312,19.988074524965125 C31.32113028409223,20.008250865425897 33.4931571963046,20.02404104491694 36.09678234793881,20.02404104491694 C39.83817765512208,20.02404104491694 40.84348574938515,20.039831224407983 40.892610752246185,20.09772854920848 C40.9303317365859,20.144221855487658 40.96103486337404,20.767056713189913 40.97243888189534,21.75920632454379 C40.98647459699849,22.887326925959425 41.01191433062294,23.370681864824135 41.06279379787186,23.43121088620646 C41.10139201440553,23.477704192485646 41.151394249460495,23.633851523008186 41.17420228650312,23.77684037062152 C41.19613309135178,23.920706450428796 41.2768384531949,24.129487712588144 41.352280421874326,24.241773433413346 C41.427722390553754,24.35405915423854 41.49000587632398,24.475117197003197 41.49000587632398,24.511083716955028 C41.49000587632398,24.547050236906845 41.542639807960796,24.624246669974163 41.606677758118906,24.682143994774655 C41.67159294047097,24.7409185517691 41.72422687210779,24.817237752642466 41.725104104301735,24.852327040400343 C41.72685856868962,25.01286053189261 42.68128719570379,25.854126205887628 43.101481416604315,26.066416396822767 C43.19797695793848,26.11466416748984 43.3295617870305,26.183088278617692 43.394476969382566,26.217300334181623 C43.45851491954069,26.25151238974555 43.70940332700948,26.34186730572207 43.95064218034486,26.418186506595447 L44.39013550951222,26.556789193239048 L48.32803082813959,26.574333837117983 C52.55278107418755,26.592755713190865 52.37119401004057,26.60415973171218 52.71682349445561,26.306778017964202 C52.95718511559704,26.099751220192744 52.973852527282034,25.993606124725183 52.973852527282034,24.719864979114373 C52.973852527282034,23.679467597093417 52.98876547457914,23.475072495903806 53.06596190764647,23.39699883064254 C53.14666726948957,23.316293468799426 53.446680679819394,23.304889450278118 55.466946422478955,23.304889450278118 C58.1872434559081,23.304889450278118 57.90740638603906,23.415420706715416 57.88284388460855,22.3530925198458 L57.86705370511751,21.635516585197287 L55.46782365467291,21.619726405706242 C53.63791729809981,21.608322387184934 53.05718958570699,21.58726881453021 53.02210029794911,21.532003186311556 C52.99666056432466,21.49252773758395 52.975606991669935,20.4109004424475 52.97472975947599,19.12926420709117 L52.973852527282034,16.798458267774414 L53.12473646464089,16.741438175167872 C53.21245968403558,16.708103351797895 54.21338161732892,16.68441808256133 55.5502834809039,16.68441808256133 C57.570549223563475,16.68441808256133 57.829332720777785,16.67389129623397 57.86091307975988,16.591431470002966 C57.92845995869378,16.414230566825708 57.89951129629354,15.187859959688023 57.825823792002,15.114172455396492 C57.77318986036519,15.06153852375968 57.15386393143872,15.043116647686794 55.400276775739,15.043116647686794 C53.30720076098183,15.043116647686794 53.04139940621595,15.033467093553377 53.00981904723386,14.951007267322382 C52.99051993896704,14.900127800073463 52.973852527282034,14.304487140383557 52.973852527282034,13.62901835104449 C52.973852527282034,12.210533893432455 52.94402663268784,12.107020494546726 52.45277660407761,11.853500390496087 C52.20101096441488,11.722792793598014 44.7155886534665,11.722792793598014 44.302412290117545,11.853500390496087 M16.147645025393764,13.929908993568258 L16.147645025393764,15.600159090843036 L15.650254371425907,15.586123375739888 C15.3055021192048,15.57647382160647 15.066894962451258,15.536121140684916 14.877412808558743,15.454538546647864 C14.726528871199886,15.389623364295801 14.537923949501316,15.336112200465042 14.458095819852153,15.336112200465042 C14.333528848311703,15.336112200465042 13.880877036235136,15.148384510960412 13.5992855019782,14.979078697528678 C13.551037731311123,14.950130035128428 13.445769868037502,14.89837333568557 13.366818970582287,14.864161280121639 C13.175582352301875,14.782578686084587 12.66678767981271,14.234308564867815 12.623803302309316,14.064125519242126 C12.526430528781216,13.675511657323675 12.99136359157304,13.171103145804242 13.774731940767566,12.814946875061828 C13.855437302610676,12.778103122916058 14.000180614611905,12.70792454740031 14.097553388140005,12.657922312345342 C14.194048929474157,12.60879730948432 14.417743138930598,12.533355340804896 14.594944042107862,12.491248195495444 C14.772144945285122,12.449141050185993 15.049350318572321,12.374576313700512 15.210761042258541,12.32545131083949 C15.371294533750811,12.276326307978463 15.648499907038012,12.241237020220591 15.825700810215276,12.248254877772169 L16.147645025393764,12.260536128487427 L16.147645025393764,13.929908993568258 M51.18429885163049,13.518487094607188 L51.33518278898936,13.576384419407685 L51.31939260949831,19.16873965581878 C51.31149751975279,22.244315727796394 51.28254885735254,24.7821484648846 51.255354659340185,24.809342662896942 C51.14920956387262,24.91548775836452 45.13578287436704,24.903206507649255 44.59540784289578,24.7953069477938 C43.883972533604904,24.65319533237441 43.43395241811017,24.34879576107486 42.99972248210648,23.71543411704524 C42.7040952327464,23.28559034201129 42.69970907177667,23.22155239185317 42.67690103473406,19.320500825371575 C42.654092997691436,15.61331757375224 42.67163764157037,15.221194783058007 42.869014885208415,14.867670208897422 C42.914630959293646,14.786964847054318 42.984809534809386,14.656257250156237 43.02603944792489,14.577306352701026 C43.28043678416947,14.091319717254475 43.99362655784826,13.603578617420034 44.5655819483016,13.524627719964815 C45.077885549566545,13.454449144449072 51.00008009090165,13.449185751285391 51.18429885163049,13.518487094607188 M18.790745625755584,17.570422598447635 C18.82583491351346,17.59849402865393 18.996895191333095,17.64761903151496 19.171464397928517,17.680953854884937 C19.34515637232999,17.713411446060967 19.593413083216944,17.789730646934345 19.72236621572713,17.852014132704568 C19.85131934823732,17.913420386280848 20.02237962605695,17.993248515930013 20.10308498790006,18.03009226807578 C21.19348460497598,18.52572845765574 21.54174578597287,19.330150379504996 20.873294854185385,19.813505318369703 C20.46011849083642,20.11264149650557 20.215370708725256,20.257384808506806 20.057468913814823,20.296860257234407 C19.96974569442014,20.318791062083083 19.818861757061285,20.384583476629093 19.72236621572713,20.444235265817476 C19.625870674392978,20.503009822811915 19.4670916472886,20.55125759347899 19.370596105954448,20.55125759347899 C19.274100564620298,20.552134825672944 19.115321537515918,20.59424197098239 19.018825996181768,20.645121438231307 C18.775832678458492,20.77319733854754 18.152997820756234,20.85741162916644 17.967024595639508,20.786355821456745 L17.817895122668546,20.730212961044145 L17.817895122668546,19.149440547551944 C17.817895122668546,17.7063935885094 17.826667444608013,17.56340474089606 17.920531289360323,17.508139112677412 C18.033694242379468,17.441469465937452 18.686354994675916,17.487962772216633 18.790745625755584,17.570422598447635 M6.521776161215107,28.484945555534196 C6.428789548656742,28.584950025644133 6.270010521552365,28.798117448773226 6.169128819248478,28.959528172459443 C6.06824711694459,29.12093889614566 5.955961396119397,29.285858548607663 5.921749340555468,29.327088461723164 C5.886660052797595,29.368318374838665 5.829639960191052,29.486744721021495 5.794550672433177,29.591135352101162 C5.759461384675305,29.694648750986886 5.69717789890508,29.819215722527332 5.655947985789577,29.86746349319442 C5.614718072674076,29.915711263861482 5.562961373231213,30.03501484223827 5.541907800576489,30.13151038357242 C5.520854227921765,30.22800592490657 5.455061813375751,30.43941888364776 5.395410024187367,30.59995237514002 C5.121713579675953,31.341213579025094 5.123468044063847,33.69482755538448 5.398041720769207,34.467669118251635 C5.455061813375751,34.6282026097439 5.5199769957278155,34.86242360552772 5.541030568382542,34.98786780926211 C5.562084141037266,35.113312012996516 5.63050825216512,35.31068925663455 5.6927917379353445,35.42648390623553 C5.75507522370557,35.54227855583651 5.805954690954486,35.68175847467406 5.805954690954486,35.73526963850481 C5.805954690954486,35.81860669692976 5.983155594131748,36.22651966711504 6.158602032921117,36.54758665009959 C6.184918998739521,36.59583442076667 6.29369579078893,36.806370147313906 6.399840886256495,37.016028641667205 C6.505985981724063,37.225687136020504 6.652483758113185,37.47131215032561 6.726171262404719,37.562544298496086 C6.800735998890201,37.65377644666656 6.860387788078586,37.75290368458255 6.860387788078586,37.78272957917674 C6.860387788078586,37.84238136836512 7.568314168593685,38.84681223043426 7.745515071770946,39.03804884871466 C7.8042896287653845,39.10208679887278 7.927102135917943,39.2371805567406 8.01657981970052,39.33718502685054 C8.905216032168667,40.333720799174145 10.244749592325487,41.52851104732974 10.967588920137683,41.967127144303156 C11.020222851774493,41.99958473547919 11.165843395969668,42.08643072267993 11.291287599704066,42.16011822697147 C11.416731803438466,42.23380573126299 11.637794316313068,42.371531185712655 11.782537628314294,42.466272262658904 C11.927280940315526,42.56189057179912 12.086059967419901,42.65487718435748 12.13430773808698,42.67417629262432 C12.182555508754056,42.6925981686972 12.27466488911847,42.737337010588476 12.33958007147054,42.7733035305403 C12.469410436174671,42.846113802637895 12.677314466140073,42.94524104055389 13.07206895341615,43.1233191759251 C13.216812265417378,43.1891115904711 13.432611385128299,43.29174775716288 13.551914963505071,43.35227677854522 C13.67121854188184,43.4119285677336 13.815961853883067,43.46193080278857 13.874736410877507,43.46193080278857 C13.932633735677996,43.46280803498252 14.111589103243151,43.52772321733459 14.272999826929372,43.60667411478979 C14.43441055061559,43.68562501224501 14.593189577719965,43.75141742679103 14.627401633283894,43.75229465898498 C14.771267713091174,43.75668081995471 14.82477887692193,43.886511184658836 14.746705211660663,44.041781282987436 C14.704598066351217,44.12511834141238 14.651964134714405,44.331267906989886 14.630910562059677,44.497942023839784 C14.609856989404957,44.66549337288363 14.546696271440783,44.903223297443226 14.492307875416081,45.025158572401835 C14.344055634639064,45.35675234171374 14.343178402445117,47.32526138493044 14.491430643222133,47.61299354454501 C14.546696271440783,47.720893104400474 14.609856989404957,47.90511186512931 14.631787794253627,48.022660979118186 C14.6537185991023,48.14021009310706 14.73354672875146,48.3525002840422 14.809865929624834,48.49461189946158 C14.885307898304264,48.63672351488097 14.946714151880544,48.78409852346403 14.946714151880544,48.8226967399977 C14.946714151880544,48.86129495653136 14.999348083517352,48.94024585398658 15.064263265869421,48.99902041098102 C15.128301216027536,49.05691773578152 15.18093514766435,49.128850775685144 15.18093514766435,49.15779943808539 C15.18093514766435,49.18674810048564 15.266903902671139,49.31921016177161 15.371294533750811,49.451672223057585 C16.072203056714336,50.33679950674995 16.99768302132825,50.91226382597907 16.99768302132825,50.46312094267829 C16.99768302132825,50.42715442272647 17.046808024189275,50.34469459649547 17.107337045571605,50.279779414143405 C17.16786606695394,50.214864231791324 17.237167410275738,50.09731511780245 17.260852679512304,50.01924145254118 C17.284537948748866,49.941167787279916 17.348575898906986,49.824495905484994 17.40296429493169,49.760457955326864 C17.720522349140445,49.385879808511575 17.701223240873613,49.33149141248687 17.04505355980138,48.77357173713667 C16.358180751941006,48.19021232816203 15.909915100834171,46.91734841474516 16.055535645029344,45.96291978773101 C16.174839223406117,45.18130590292437 16.274843693516054,44.722513465490174 16.366075841686527,44.545312562312915 C16.41520084454755,44.448817020978765 16.475729865929882,44.277756743159124 16.500292367360395,44.16547102233393 C16.523977636596957,44.053185301508734 16.57924326481561,43.908441989507516 16.621350410125057,43.84352680715545 C16.844167387387557,43.50316071590407 16.88013390733937,43.086475423779326 16.88013390733937,40.874973062839345 C16.88013390733937,38.64680329021437 16.93101337458829,38.073093435373146 17.147689726493162,37.83273181423171 C17.193305800578397,37.781852346982795 17.246816964409156,37.65816260763629 17.26699330486993,37.557280905332405 C17.287169645330707,37.45639920302851 17.353839292070667,37.32920053490623 17.414368313452997,37.27393490668757 C17.47489733483533,37.218669278468916 17.5248995698903,37.127437130298446 17.5248995698903,37.070417037691904 C17.5248995698903,37.01339694508536 17.59069198443631,36.887952741350965 17.67139734627942,36.792334432210765 C17.75210270812253,36.69671612307055 17.817895122668546,36.60109781393035 17.817895122668546,36.58004424127562 C17.817895122668546,36.39407101615889 19.63113406755666,34.37906866666301 19.798685416600506,34.37906866666301 C19.833774704358376,34.37906866666301 19.88377693941335,34.34397937890513 19.90921667303781,34.30011776920779 C19.96097337248067,34.21327178200705 20.60486180283765,33.75272488018497 20.853995745918553,33.624648979868724 C20.94084173311929,33.58078737017139 21.06365424027185,33.50008200832828 21.12856942262391,33.445693612303565 C21.19260737278203,33.391305216278866 21.41717881443242,33.26059761938079 21.626837308785717,33.15532975610717 C21.835618570945062,33.05006189283355 22.04703152968625,32.942162332978086 22.095279300353326,32.91496813496573 C22.143527071020404,32.88865116914733 22.34090431465844,32.79566455658896 22.534772629520695,32.70969580158217 C22.727763712189,32.62372704657538 22.991810602566996,32.50266900381072 23.120763735077183,32.44126275023444 C23.24971686758737,32.379856496658164 23.447094111225407,32.31230961772425 23.56025706424455,32.29037881287559 C23.672542785069744,32.269325240220866 23.818163329264916,32.217568540778004 23.882201279423036,32.1763386276625 C23.947116461775106,32.13423148235305 24.13133522250394,32.07194799658283 24.29274594619016,32.03685870882495 C24.453279437682433,32.00176942106707 24.664692396423618,31.936854238715 24.76118793775777,31.89299262901767 C24.85768347909192,31.849131019320325 25.055937954923905,31.795619855489562 25.200681266925134,31.773689050640897 C25.345424578926362,31.751758245792224 25.59631298639516,31.685965831246207 25.757723710081383,31.62806850644573 C26.205989361188212,31.46490331837161 26.766540733120245,31.330686792697733 27.25165013637284,31.269280539121468 C27.492888989708224,31.238577412333328 27.82799168779592,31.174539462175204 27.994665804645816,31.12629169150813 C28.161339921495713,31.078043920841054 28.464862260601322,31.02365552481635 28.66838012959699,31.006110880937413 C28.871897998592654,30.987689004864535 29.19647391035298,30.934177841033772 29.39034222521524,30.885930070366697 C30.143884679815574,30.69820238086207 31.193931615969934,30.629778269734217 31.30884903337697,30.7604858666323 C31.455346809766095,30.92628275128824 31.467628060481353,36.444950483407816 31.322007516286174,36.72654201766475 L31.232529832503594,36.899356759872276 L26.763909036538404,36.899356759872276 C23.36551151718835,36.899356759872276 22.277743596694272,36.91602417155726 22.224232432863513,36.969535335388024 C22.107560551068584,37.085329984989 22.127736891529363,38.4581983685158 22.24616323771218,38.50381444260104 C22.297919937155047,38.52399078306181 28.435036366007132,38.53978096255286 35.88536938919762,38.53978096255286 C49.31930320729951,38.53978096255286 49.432466160318654,38.54065819474681 49.65001974441746,38.6564528443478 C49.77020055498819,38.721368026699864 49.90441708066206,38.774001958336676 49.947401458165444,38.774001958336676 C49.99126306786279,38.774001958336676 50.150919327161105,38.83979437288268 50.30268049671392,38.92049973472578 C50.45444166626672,39.00120509656889 50.61848408653478,39.066997511114906 50.668486321589754,39.066997511114906 C50.718488556644715,39.066997511114906 50.82901981308203,39.11612251397593 50.91411133589486,39.175774303164324 C51.00008009090165,39.235426092352704 51.14657786729077,39.302972971286614 51.24131894423702,39.32578100832922 C51.33518278898936,39.34858904537184 51.47729440440874,39.41789038869365 51.55624530186395,39.48105110665782 C51.63607343151311,39.543334592428046 51.736955133817006,39.59421405967696 51.780816743514336,39.59421405967696 C51.84836362244825,39.59421405967696 52.036968544146816,39.6810600468777 52.56418509270887,39.95387925919517 C52.61243286337594,39.97931899281962 52.96858913411836,40.16178328916057 53.35544853164892,40.3609149971865 C53.74143069698552,40.559169473018486 54.163379382273945,40.782863682474925 54.292332514784135,40.8591828833483 C54.42128564729431,40.93462485202773 54.63094414164762,41.05305119821056 54.757265577575964,41.12235254153235 C54.884464245698254,41.19165388485415 55.02482139672975,41.28551772960647 55.06956023862104,41.32937933930381 C55.114299080512325,41.3741181811951 55.184477656028065,41.41096193334087 55.22483033694964,41.41096193334087 C55.266060250065124,41.41096193334087 55.34764284410218,41.46359586497767 55.405540168902675,41.52763381513579 C55.46431472589711,41.59254899748786 55.54589731993417,41.64518292912467 55.58625000085571,41.64518292912467 C55.627479913971214,41.64518292912467 55.69590402509907,41.67851775249465 55.73888840260247,41.71799320122226 C55.846787962457924,41.820629367914044 56.25733262922505,42.13116956457122 56.37751343979576,42.20222537228091 C56.903852756163886,42.51013387235624 58.13022336330155,43.82685939547046 58.13022336330155,44.08301119610293 C58.13022336330155,44.1198549482487 58.18899792029599,44.278633975353074 58.26005372800569,44.43565853806956 C58.813587242386134,45.65413405546172 58.05741309120397,48.21740652617438 56.992453207752504,48.73321905621513 C56.604716578028004,48.920069513525796 56.57225898685198,48.979721302714175 56.65822774185877,49.34026373442633 C56.69770319058637,49.50693785127624 56.762618372938434,49.81484635135158 56.80033935727815,50.02450484570487 C56.8968348986123,50.549089697685076 57.09772107102613,50.66312988289817 57.443350555441185,50.38943343838676 C57.482826004168786,50.35785307940467 57.61177913667896,50.30083298679812 57.73020548286179,50.26311200245841 C57.84775459685068,50.22539101811869 57.95916308548192,50.156089674796895 57.97670772936087,50.109596368517714 C57.995129605433746,50.06222583004458 58.03899121513109,50.02450484570487 58.07583496727686,50.02450484570487 C58.2267189046357,50.02450484570487 59.1855336926196,49.02446014460547 59.1855336926196,48.867435581888984 C59.1855336926196,48.836732455100844 59.235535927674576,48.7665538795851 59.296942181250856,48.71041101917251 C59.35834843482712,48.655145390953855 59.425895313761046,48.54022797354682 59.4478261186097,48.45601368292792 C59.46887969126443,48.37179939230902 59.53291764142256,48.23495117005332 59.590814966223036,48.15249134382231 C59.64871229102353,48.07003151759132 59.713627473375595,47.90598909732326 59.735558278224275,47.78843998333438 C59.756611850879,47.670890869345506 59.817140872261334,47.48842657300456 59.86977480389814,47.383158709730935 C60.254879737040795,46.61119437905772 60.05662526120881,44.02335940691455 59.54432165994386,43.13560042664035 C59.36799798896055,42.8312008553408 59.35133057727555,42.80400665732844 59.2171140516017,42.605752181496456 C59.09079261567335,42.41977895637972 57.80126129057149,41.11796638056262 57.743363965770996,41.11796638056262 C57.72318762531023,41.11796638056262 57.58458493866662,41.01796191045268 57.435455465695654,40.896026635494074 C57.2863259927247,40.773214128341515 57.10737062515955,40.635488673891864 57.038069281837736,40.58811813541873 C56.231892895600595,40.03897078200801 55.911703144810005,39.83633014520629 55.80117188837271,39.80211808964236 C55.729238848469066,39.78018728479369 55.66958705928067,39.74158906826003 55.66958705928067,39.716149334635574 C55.66958705928067,39.69158683320506 55.56431919600706,39.623162722077204 55.43536606349687,39.56526539727671 C55.30641293098668,39.506490840282275 55.20114506771307,39.43894396134837 55.20114506771307,39.414381459917855 C55.20114506771307,39.38981895848735 55.124825866839686,39.35209797414763 55.03096202208738,39.33192163368686 C54.93797540952902,39.31174529322608 54.81516290237646,39.24332118209823 54.75814280976991,39.181037696328005 C54.701999949357315,39.11787697836383 54.611645033380796,39.066997511114906 54.55901110174398,39.066997511114906 C54.505499937913214,39.066997511114906 54.37216064443329,39.00120509656889 54.263383852383896,38.92049973472578 C54.15372982814054,38.83979437288268 54.02039053466062,38.774001958336676 53.966002138635915,38.774001958336676 C53.91161374261121,38.774001958336676 53.83441730954388,38.73452650960906 53.79494186081628,38.68627873894198 C53.75458917989472,38.63803096827491 53.619495422026915,38.56785239275916 53.494051218292526,38.53013140841945 C53.36860701455812,38.49241042407973 53.23702218546609,38.426618009533726 53.201055665514275,38.383633632030325 C53.16508914556246,38.34064925452692 53.10631458856801,38.30555996676905 53.0703480686162,38.30555996676905 C53.03438154866437,38.30555996676905 52.85981234206895,38.23625862344725 52.68173420669774,38.1529215650223 C52.50453330352049,38.068707274403415 52.21416944732408,37.93273628434165 52.036968544146816,37.85115369030459 C51.859767640969565,37.76957109626753 51.62203771640996,37.657285375442335 51.50975199558477,37.60114251502975 C51.39658904256562,37.545876886811094 51.220265371582315,37.48183893665297 51.117629204890534,37.459030899610354 C51.015870270392696,37.43710009476169 50.90007562079171,37.38095723434908 50.86147740425805,37.33446392806991 C50.82375641991834,37.28797062179073 50.749191683432855,37.250249637451006 50.69655775179605,37.250249637451006 C50.64392382015925,37.249372405257056 50.46935461356381,37.18445722290499 50.30794388987759,37.10550632544979 C50.14741039838533,37.026555427994566 49.96582333423834,36.96076301344855 49.905294312856,36.9598857812546 C49.84388805927972,36.95813131686671 49.712303230187686,36.9072518496178 49.61229876007775,36.846722828235464 C49.51141705777387,36.786193806853134 49.33947954776029,36.71689246353132 49.22894829132299,36.69320719429477 C49.11929426707964,36.67039915725214 48.947356757066046,36.60109781393035 48.84822951915005,36.540568792548015 C48.74910228123406,36.480039771165686 48.60699066581468,36.43091476830466 48.534180393717094,36.43003753611071 C48.331539756915376,36.43003753611071 47.82186785223226,36.15020046624168 47.64905311002474,35.94492813285811 C47.564838819405836,35.844923662748165 47.453430330774594,35.72211115559561 47.40167363133172,35.67210892054065 C47.31570487632493,35.5887718621157 46.64374501576165,34.80803520950302 46.500756168148314,34.625570913162065 C46.46829857697229,34.58346376785262 46.375311964413925,34.47556420799716 46.29460660257081,34.386086524214576 C46.21390124072771,34.296608840432 45.99020703127127,34.04396596857531 45.79633871640901,33.825535152282555 C45.60334763374071,33.606227103795845 45.41825164081793,33.3974458416365 45.38579404964189,33.36147932168468 C45.35333645846585,33.32551280173285 45.20859314646462,33.150943595137434 45.0638498344634,32.97461992415412 C44.91910652246217,32.798296253170804 44.76120472755174,32.61144579586013 44.712079724690724,32.559689096417266 C44.663831954023635,32.50793239697441 44.4532962274764,32.27107970460875 44.24363773312311,32.03422701224311 C44.0339792387698,31.797374319877463 43.79712654640417,31.533327429499465 43.71642118456106,31.44648144229872 C43.63571582271794,31.36051268729193 43.52957072725037,31.240331876721214 43.480445724389355,31.17892562314495 C42.62602156748514,30.1201063650511 42.20845904316644,29.699912144150574 41.96458849324921,29.65605053445323 C41.84879384364824,29.634996961798507 41.66106615414361,29.571836243834326 41.54878043331841,29.516570615615677 C41.43561748029927,29.46130498739703 41.186483537218365,29.398144269432862 40.995246918937966,29.376213464584183 C40.80401030065755,29.35428265973551 40.61715984334688,29.311298282232123 40.579438859007155,29.279717923250033 C40.5408406424735,29.24813756426795 40.23644107117394,29.182345149721932 39.90133837308626,29.134097379054865 C39.566235674998566,29.084972376193846 39.22674681594114,29.019179961647822 39.146041454098025,28.98847683485969 C39.06533609225491,28.957773708071542 38.6433874069665,28.905139776434737 38.20828023876885,28.87092772087081 C37.77317307057122,28.837592897500826 37.140688658735556,28.784081733670078 36.802077031872074,28.753378606881938 C36.02397207584123,28.680568334784354 34.05721749701242,28.679691102590397 33.40367951252202,28.751624142494038 C33.1299830680106,28.781450037088234 32.42205668749551,28.835838433112933 31.829924956581394,28.871804953064753 C31.237793225667282,28.908648705210524 30.684259711286824,28.964791565623123 30.599168188473982,28.99724915679915 C30.514076665661136,29.02970674797519 30.094759676954546,29.092867465939364 29.667547598502434,29.137606307830637 C29.24033552005033,29.183222381915883 28.838563175222678,29.247260332073992 28.775402457258508,29.28147238763792 C28.712241739294328,29.315684443201853 28.415737257740297,29.367441142644708 28.117478311798376,29.39638980504496 C27.8183421336625,29.425338467445208 27.46744925608377,29.48762195321543 27.337618891379634,29.534115259494627 C27.208665758869447,29.5806085657738 26.933214849970142,29.638505890574294 26.72618805219869,29.66219115981086 C26.51916125442723,29.68675366124137 26.205989361188212,29.756055004563173 26.029665690204897,29.816584025945495 C25.853342019221582,29.877113047327825 25.65421031119565,29.92623805018885 25.586663432261748,29.92623805018885 C25.519993785521788,29.9271152823828 25.279632164380352,29.992030464734867 25.05418349053602,30.07185859438404 C24.828734816691675,30.15168672403319 24.57784640922288,30.217479138579208 24.49714104737977,30.218356370773158 C24.41731291773061,30.219233602967094 24.279587463280958,30.25783181950075 24.191864243886272,30.302570661392046 C24.105018256685536,30.348186735477285 23.89097360136251,30.415733614411195 23.716404394767082,30.45170013436301 C23.541835188171664,30.487666654314822 23.349721337697307,30.555213533248732 23.289192316314978,30.600829607333978 C23.228663294932645,30.646445681419216 23.110236948749822,30.685043897952873 23.026899890324874,30.68592113014681 C22.942685599705975,30.686798362340767 22.750571749231614,30.754345241274663 22.598810579678815,30.834173370923843 C22.44704941012601,30.914878732766944 22.299674401542937,30.98067114731296 22.27160297133664,30.98067114731296 C22.183002519748012,30.98067114731296 20.873294854185385,31.62280511328204 20.834696637651724,31.685088599052264 C20.81539752938489,31.71666895803436 20.7575002045844,31.742985923852764 20.706620737335484,31.742985923852764 C20.654864037892615,31.742985923852764 20.469768044969836,31.841235929574808 20.29344437398652,31.962293972339474 C20.117997935197156,32.083352015104126 19.90307604768018,32.221954701747734 19.81710729267339,32.27020247241481 C19.11181260874013,32.66407972749694 17.531040195247925,34.10361775776369 16.885397300503058,34.93962003859504 C16.788024526974958,35.065941474523385 16.322214231989186,35.74053303166849 16.266948603770537,35.835274108614755 C16.235368244788447,35.88878527244552 16.149399489781658,36.0308968878649 16.076589217684074,36.15107769843562 C16.002901713392532,36.27125850900634 15.943249924204151,36.406352266874144 15.943249924204151,36.45109110876543 C15.943249924204151,36.49582995065673 15.903774475476542,36.566008526172475 15.855526704809467,36.60548397490008 C15.80727893414239,36.64583665582164 15.736223126432696,36.78794827124102 15.698502142092984,36.92041033252699 C15.66078115775327,37.05374962600691 15.598497671983043,37.20200186678394 15.559899455449383,37.250249637451006 C15.522178471109669,37.299374640312024 15.458140520951549,37.470434918131666 15.419542304417888,37.63096840962393 C15.380066855690282,37.79150190111621 15.316906137726107,37.959930482354 15.279185153386393,38.005546556439235 C15.230937382719318,38.06432111343367 15.201988720319074,38.67575195261462 15.18093514766435,40.067042212214304 C15.149354788682261,42.21977001615985 15.15549541403989,42.17941733523829 14.856359235904018,42.03642848762496 C14.74231905069093,41.98204009160026 14.615120382568639,41.938178481902916 14.57301323725919,41.938178481902916 C14.530028859755793,41.938178481902916 14.371249832651415,41.872386067356906 14.219488663098614,41.7916807055138 C14.068604725739757,41.71097534367069 13.896667215726175,41.64518292912467 13.837892658731738,41.64518292912467 C13.778240869543355,41.64518292912467 13.699289972088138,41.606584712591015 13.659814523360529,41.56009140631182 C13.621216306826868,41.51359810003264 13.493140406510632,41.44429675671085 13.374714060327808,41.404821307983234 C13.256287714144984,41.36710032364352 13.09663145484666,41.28639496180041 13.019435021779337,41.226743172612025 C12.943115820905962,41.167091383423646 12.849251976153651,41.11796638056262 12.812408224007886,41.11796638056262 C12.77468723966817,41.11796638056262 12.692227413437168,41.07761369964106 12.629066695472995,41.028488696780045 C12.525553296587269,40.94690610274298 11.899209510109227,40.526711881842445 11.67288360407094,40.38547749861701 C11.181633575460712,40.079323462929565 10.763193818948071,39.71878103121742 9.871048677704135,38.832776515331105 C9.160490600607197,38.12572736700996 8.149919113180438,36.83093264874442 8.149919113180438,36.625660315360854 C8.149919113180438,36.59057102760299 8.113952593228618,36.5326737028025 8.070968215725223,36.49582995065673 C8.027106606027882,36.45986343070491 7.912189188620846,36.26599511584266 7.814816415092747,36.064231711234875 C7.396376658580104,35.19664907142146 7.329707011840144,35.04839683064445 7.329707011840144,34.984358880486326 C7.329707011840144,34.946637896146605 7.291108795306483,34.841370032872994 7.244615489027302,34.750137884702525 C7.1981221827481185,34.65890573653205 7.118294053098957,34.413280722226936 7.06741458585004,34.20362222787364 C7.016535118601124,33.99396373352034 6.949865471861164,33.73079407533629 6.9191623450730235,33.61763112231716 C6.726171262404719,32.907073045220216 6.906003862163821,31.030673382367922 7.216544058821003,30.512229155745345 C7.2454927212212485,30.463981385078256 7.307776206991473,30.33941441353781 7.3542695132706575,30.235023782458143 C7.401640051743787,30.13151038357242 7.467432466289798,30.01220680519564 7.500767289659779,29.97185412427409 C8.018334284088413,29.342001409020256 8.019211516282361,29.36130051728709 7.439361036083499,28.813030396070317 C6.866528413436214,28.271778132405117 6.756874389192859,28.232302683677506 6.521776161215107,28.484945555534196 M37.095072584650325,30.486789422120893 C37.595094935200024,30.506088530387714 38.12231148376206,30.546441211309272 38.2670547957633,30.577144338097412 C38.411798107764525,30.60697023269161 38.80742982723454,30.671008182849718 39.146041454098025,30.7175014891289 C39.48465308096151,30.76487202760203 39.86712631752232,30.84119122847541 39.99607945003251,30.886807302560648 C40.124155350348744,30.93242337664588 40.353990185162814,30.98505730828269 40.50575135471563,31.003479184355577 C40.99700138332585,31.063130973543963 41.45930274953584,31.341213579025094 41.74440321256856,31.748249317016445 C41.78387866129617,31.804392177429037 41.96283402886132,32.01668236836417 42.143543860814376,32.22107746955378 C42.32337646057347,32.425472570743395 42.54619343783597,32.68337883576376 42.639180050394344,32.79478732439502 C42.73216666295269,32.905318580832315 42.86111979546288,33.0509391250275 42.92515774562101,33.11848600396141 C42.990072927973074,33.18515565070136 43.17429168870191,33.39481414505465 43.33570241238813,33.58341906675323 C43.496235903880404,33.77202398845179 43.658523859760564,33.95799721356852 43.69624484410028,33.996595430102175 C43.73308859624605,34.03519364663585 43.903271641871726,34.23607981904968 44.07345468749742,34.443106616821126 C44.24363773312311,34.650133414592574 44.43750604798535,34.87470485624297 44.50417569472532,34.942251735176875 C44.7287471363757,35.172086569990945 45.036655636451044,35.520347750987845 45.354213690659805,35.90282098754866 C45.527028432867326,36.11247948190196 45.71914228334168,36.32915583380683 45.78054853691796,36.38354422983153 C45.96827622642259,36.55372727545722 46.01564676489572,36.8230375589989 45.86388559534291,36.86339023992045 C45.79458425202111,36.881812115993334 42.92252604903916,36.897602295484376 39.48114415218572,36.898479527678326 L33.224724144956866,36.899356759872276 L33.16770405235032,36.74847282251341 C33.07384020759801,36.50021611162646 33.092262083670896,30.600829607333978 33.1878803928111,30.52100147768482 C33.31858798970918,30.41310191782935 34.81690057697038,30.399943434920147 37.095072584650325,30.486789422120893 M23.70675484063367,45.48044208106025 C23.103219091198245,45.602377356018856 22.79969675209264,45.703259058322736 22.44704941012601,45.898004605378944 C22.3663440482829,45.94274344727023 22.218091807505886,46.01818541594966 22.117210105202002,46.06555595442279 C22.01632840289811,46.11380372508986 21.918078397176068,46.19275462254508 21.898779288909235,46.24275685760005 C21.880357412836354,46.291881860461075 21.828600713393488,46.33311177357657 21.785616335890094,46.33311177357657 C21.688243562361997,46.33311177357657 20.72679707779626,47.33140201028808 20.61275689258317,47.55071005877479 C20.168000170252128,48.40513421567901 20.103962220094004,48.57444002911075 19.926761316916746,49.349913288559755 C19.843424258491794,49.717473577823476 19.85921443798284,50.609618719067406 19.95570997931699,50.963143293227986 C20.003957749984064,51.139466964211294 20.073259093305865,51.41579510530455 20.109225613257685,51.57720582899078 C20.145192133209505,51.737739320483044 20.21098454775552,51.91143129488452 20.25572338964681,51.962310762133434 C20.300462231538095,52.01319022938236 20.337305983683866,52.09301835903151 20.337305983683866,52.13951166531069 C20.337305983683866,52.18512773939594 20.403098398229876,52.320221497263745 20.483803760072984,52.438647843446574 C20.564509121916096,52.55795142182334 20.63030153646211,52.677255000200105 20.63030153646211,52.70620366260035 C20.63030153646211,52.861473760928945 21.839127499720853,53.97643587943538 22.224232432863513,54.1773220518492 C22.33037752833108,54.23258768006786 22.46985744716863,54.307152416553336 22.534772629520695,54.34224170431121 C23.447094111225407,54.84401851924879 25.465605389497078,54.95104084691031 26.23493802358846,54.53874171575529 C26.357750530741015,54.47294930120928 26.49898491396646,54.41856090518458 26.547232684633535,54.41768367299064 C26.596357687494557,54.41680644079669 26.744609928271576,54.3439961686991 26.877071989557543,54.25627294930441 C27.00953405084352,54.168549729909735 27.22357870616655,54.0255608822964 27.353409070870676,53.93871489509566 C27.676230518243116,53.72291577538474 28.256080998441977,53.14569699176772 28.45959886743764,52.83603402730448 C28.776279689452448,52.356188017215565 29.003482827684678,51.92897593876346 29.00611452426652,51.80791789599879 C29.007868988654415,51.74124824925884 29.083310957333843,51.615804045524435 29.17366587331037,51.528958058323695 L29.337708293578427,51.37193349560721 L37.048579278371136,51.37193349560721 L44.7585730309699,51.37193349560721 L44.94103732731084,51.5421165412329 C45.042796261808675,51.636857618179164 45.12350162365179,51.77195137604697 45.124378855845734,51.849147809114285 C45.124378855845734,51.92546700998766 45.17701278748254,52.05266567810995 45.240173505446705,52.133371039953076 C45.30245699121693,52.214076401796184 45.35509092285375,52.308817478742434 45.35596815504769,52.34478399869426 C45.360354316017435,52.57812776228411 46.30074722792844,53.611507286753486 46.844631188175484,53.98082204040511 C47.24640353300313,54.254518484916524 47.47185220684747,54.376453759875126 47.788533028862275,54.49312564167007 C49.93424297525624,55.281757384028275 52.38435249294977,54.49224840947612 53.498437379262256,52.65356973096354 C53.75371194770078,52.23249827786907 53.96512490644196,51.779846465792495 54.00372312297563,51.57457413240894 C54.027408392212195,51.44737546428664 54.08618294920663,51.24999822064861 54.134430719873706,51.13771249982341 C54.257243227026265,50.84647141143305 54.25812045922021,49.37359855779632 54.13530795206765,49.08674363037569 C54.08706018140059,48.97358067735656 54.02828562440614,48.776203433718514 54.00460035516957,48.64725030120834 C53.980915085933006,48.51829716869815 53.910736510417266,48.32530608602984 53.84845302464705,48.21916099056228 C53.78704677107075,48.11213866290076 53.736167303821844,48.000730174269506 53.736167303821844,47.970904279675324 C53.736167303821844,47.82791543206199 53.25719852592687,47.194553788032366 52.85104002012949,46.801553765144185 C52.21592391171197,46.18661399718745 52.14048194303254,46.12871667238695 51.65624977197389,45.88396889027579 C51.59133458962182,45.85151129909976 51.4465912776206,45.77782379480823 51.33342832460144,45.720803702201685 C51.22114260377626,45.66290637740119 50.93077874757985,45.580446551170176 50.68866266205052,45.5357077092789 C49.39474517597894,45.298855016913244 49.53159339823465,45.304118410076924 48.748225049040116,45.453247883047894 C48.349961632988254,45.52868985172732 47.931521876475614,45.63922110816463 47.819236155650415,45.697995665159056 C47.70607320263127,45.7567702221535 47.57624283792714,45.805017992820574 47.529749531647965,45.805017992820574 C47.4350084547017,45.805017992820574 46.721818681022924,46.26819659122451 46.41566464533548,46.527857320632776 C45.651595404407786,47.178763608541324 44.977003847262665,48.393730197157694 44.85068241133432,49.349913288559755 C44.82875160648564,49.51132401224597 44.78313553240041,49.66220794960482 44.7471690124486,49.685893218841386 C44.62961989845971,49.76484411629661 29.39297392179708,49.74028161486609 29.31402302434186,49.660453485216934 C29.2754248078082,49.62185526868328 29.24296721663217,49.456935616221266 29.24208998443822,49.2946476603411 C29.241212752244273,49.1279735434912 29.190333284995358,48.88761192234977 29.12541810264329,48.74286861034854 C29.061380152485174,48.60251145931704 29.007868988654415,48.444609664406606 29.00611452426652,48.39197573276981 C29.005237292072575,48.338464568939045 28.91926853706579,48.14898241504653 28.81575513818006,47.96914981528743 C28.27187117793302,47.02261627801879 27.61306980027894,46.34363855990393 26.87093136419992,45.9646742521189 C26.295467044970792,45.67080146714671 26.04545586969594,45.576937622394404 25.669123258492746,45.51465413662417 C25.460341996333398,45.48044208106025 25.183136623046202,45.426930917229484 25.05418349053602,45.3953505582474 C24.71908079244832,45.31464519640429 24.437489258191388,45.33306707247718 23.70675484063367,45.48044208106025 M25.319107613107963,47.153323874916865 C25.94194247081021,47.271750221099694 27.134101022383966,48.12529714580997 27.134101022383966,48.45338198634608 C27.134101022383966,48.50162975701316 27.184980489632885,48.58759851201995 27.24814120759706,48.643741372432544 C27.31042469336728,48.700761465039086 27.387621126434606,48.85603156336768 27.419201485416693,48.99024808904154 C27.45078184439878,49.123587382521464 27.51745149113874,49.33850927003844 27.56657649399976,49.467462402548634 C27.61657872905473,49.59729276725276 27.656931409976284,49.885024926867324 27.656931409976284,50.11222806509956 C27.656931409976284,50.339431203331785 27.61657872905473,50.62716336294634 27.56657649399976,50.75611649545653 C27.51745149113874,50.88506962796672 27.45078184439878,51.09999151548369 27.419201485416693,51.23420804115756 C27.387621126434606,51.36754733463748 27.31042469336728,51.523694665160015 27.24814120759706,51.57983752557262 C27.184980489632885,51.636857618179164 27.133223790190023,51.711422354664634 27.132346557996076,51.747388874616455 C27.124451468250555,51.969328619685 26.268272846958435,52.69129071530326 25.727897815487182,52.93165233644469 C25.205944660088814,53.163241635646656 24.040980306527416,53.18341797610743 23.635699032923977,52.96761885639651 C23.499728042862216,52.89568581649288 23.350598569891257,52.83691125949843 23.30410526361207,52.83691125949843 C23.076024893185895,52.83691125949843 22.018082867286008,51.83248039742931 21.947027059576314,51.54913439878447 C21.926850719115535,51.46755180474742 21.871585090896886,51.35789778050407 21.823337320229808,51.304386616673305 C21.506656498214998,50.952616506900625 21.54350025036077,49.4332503469847 21.884743573806087,48.76392218300326 C22.08562974621991,48.37004492792113 23.020759264967243,47.387544870700665 23.195328471562668,47.387544870700665 C23.25234856416921,47.387544870700665 23.357616427442828,47.34631495758517 23.42954946734647,47.296312722530196 C23.69359635772447,47.11121672960741 24.696272755405708,47.034897528734035 25.319107613107963,47.153323874916865 M50.27899522747735,47.157710035886595 C51.96328103985529,47.542814969029266 53.096665034434594,49.84291778155787 52.31241945304612,51.284210276212534 C52.27733016528825,51.34824822637064 52.20013373222092,51.5008866281174 52.14048194303254,51.62194467088206 C51.983457380316054,51.9447661182545 51.04832786156872,52.83691125949843 50.867618029615684,52.83691125949843 C50.83165150966386,52.83691125949843 50.69041712643842,52.89568581649288 50.554446136376654,52.966741624202555 C50.18425415053109,53.163241635646656 48.897354522011085,53.16411886784061 48.550847805402086,52.96849608859046 C48.42277190508584,52.89568581649288 48.27627412869671,52.83691125949843 48.22627189364175,52.83691125949843 C48.176269658586776,52.83691125949843 48.07451072408895,52.790417953219254 48.00082321979741,52.73427509280665 C47.43851738347749,52.30355408557875 47.222718263766566,52.10266791316492 47.06393923666219,51.85792013105376 C46.963934766552256,51.70352726491912 46.84199949159364,51.5254491295479 46.79287448873262,51.46228841158374 C46.74462671806555,51.39912769361957 46.70427403714399,51.293859830345944 46.70339680495003,51.22806741579993 C46.70251957275609,51.162275001253924 46.64988564111928,50.992969187822176 46.58584769096116,50.85261203679068 C46.42443696727494,50.49557853385432 46.42443696727494,49.72975482853874 46.58760215534906,49.349913288559755 C46.65164010550717,49.19990658339484 46.70427403714399,49.016565054859946 46.70427403714399,48.942877550568426 C46.70427403714399,48.868312814082934 46.74638118245343,48.77357173713667 46.79638341750841,48.73146459182723 C46.84726288475731,48.68935744651778 46.93761780073385,48.55952708181364 46.99639235772828,48.44373243221267 C47.50167810144167,47.45333728524668 49.00262238528471,46.8655917153023 50.27899522747735,47.157710035886595 " stroke="#0078d3" fill="#0078d3" fill-rule="evenodd" class="" stroke-opacity="1" fill-opacity="1"/></g></svg>