<?xml version="1.0"?>
<svg width="32" height="32" xmlns="http://www.w3.org/2000/svg" xmlns:svg="http://www.w3.org/2000/svg">
 <g class="currentLayer layer">
  <title>Layer 1</title>
  <path d="m7.16934,2.30819c-0.19019,0.01268 -0.42968,0.04555 -0.53346,0.07232c-0.10332,0.02724 -0.25641,0.0587 -0.33999,0.06997c-0.08312,0.01174 -0.21085,0.04649 -0.28223,0.07702c-0.07138,0.03099 -0.1808,0.0648 -0.24232,0.07607c-0.06104,0.01174 -0.1667,0.04884 -0.23339,0.08359c-0.06762,0.03381 -0.14275,0.06246 -0.16623,0.06246c-0.02395,0 -0.08125,0.02019 -0.1268,0.04508c-0.04555,0.02442 -0.20333,0.10237 -0.34985,0.17328c-0.3306,0.15872 -0.69688,0.36676 -0.95234,0.54145c-0.07796,0.05306 -0.43579,0.33999 -0.63021,0.50388c-0.22869,0.19488 -0.46537,0.44142 -0.72694,0.75934c-0.1282,0.15497 -0.25076,0.30383 -0.27236,0.32966c-0.08359,0.09814 -0.3353,0.49214 -0.3353,0.5236c0,0.01784 -0.02019,0.05025 -0.04555,0.07044c-0.02536,0.02066 -0.12444,0.20287 -0.22118,0.40432c-0.09674,0.20099 -0.20333,0.41795 -0.23715,0.48181c-0.03334,0.06387 -0.06057,0.14182 -0.06057,0.17375c0,0.03194 -0.02818,0.11318 -0.06293,0.18033c-0.03428,0.06809 -0.06246,0.14182 -0.06246,0.16483c0,0.02254 -0.03428,0.15027 -0.0756,0.28317c-0.22776,0.72788 -0.31557,2.34283 -0.16436,2.98665c0.03099,0.12961 0.06809,0.31322 0.08218,0.40808c0.03287,0.20662 0.14557,0.59404 0.2254,0.77061c0.03194,0.07044 0.05777,0.14652 0.05777,0.16906c0,0.04461 0.08311,0.23761 0.20615,0.47946c0.04226,0.08218 0.07607,0.16858 0.07607,0.19159c0,0.02301 0.02724,0.06716 0.06105,0.09721c0.03381,0.03005 0.0695,0.09486 0.0803,0.14229c0.01034,0.04837 0.04696,0.1127 0.07984,0.14323c0.03381,0.03005 0.06104,0.07278 0.06104,0.09532c0,0.02161 0.01926,0.0587 0.04227,0.08172c0.02301,0.02301 0.06058,0.07701 0.08312,0.11974c0.1977,0.37427 1.1909,1.44449 1.58536,1.7084c0.10331,0.06857 0.19817,0.1437 0.21226,0.1653c0.01409,0.0216 0.07044,0.06105 0.12538,0.08688c0.16295,0.07701 0.28693,0.15356 0.31229,0.19253c0.01315,0.02067 0.07279,0.05354 0.13336,0.07326c0.06011,0.02019 0.10942,0.0479 0.10942,0.06293c0,0.01409 0.05306,0.04367 0.11787,0.06433c0.06433,0.02067 0.13853,0.05542 0.16483,0.07702c0.02536,0.02113 0.09861,0.05541 0.16154,0.0756c0.0634,0.0202 0.13196,0.05776 0.15309,0.08265c0.02113,0.02489 0.06809,0.04508 0.10425,0.04555c0.0371,0.00047 0.14229,0.03569 0.2348,0.07843c0.09204,0.0432 0.19488,0.07842 0.22823,0.07842c0.03381,0 0.09251,0.02019 0.13007,0.04461c0.03851,0.02536 0.16859,0.06199 0.28928,0.08218c0.12115,0.02066 0.23527,0.05072 0.25452,0.06574c0.01972,0.01503 0.20991,0.04884 0.42405,0.07514c0.2132,0.02583 0.4865,0.06011 0.60766,0.07655c0.42827,0.05869 1.55249,-0.02255 1.92911,-0.13995c0.07749,-0.02348 0.23292,-0.05916 0.34469,-0.07889c0.11176,-0.01972 0.23198,-0.054 0.26673,-0.07607c0.03428,-0.0216 0.10848,-0.04837 0.16436,-0.05917c0.05635,-0.0108 0.1653,-0.04884 0.24184,-0.08312c0.07655,-0.03522 0.15591,-0.06434 0.1761,-0.06434c0.02019,0 0.08782,-0.02676 0.15074,-0.06057c0.06246,-0.03429 0.21978,-0.11224 0.34891,-0.17376c0.12914,-0.06198 0.29163,-0.14792 0.36066,-0.19065c0.06903,-0.04321 0.16107,-0.09486 0.20427,-0.11599c0.04321,-0.02161 0.09674,-0.05589 0.12022,-0.07796c0.02254,-0.0216 0.07185,-0.05588 0.10895,-0.07607c0.26156,-0.13807 1.21391,-1.00917 1.46421,-1.33742c0.0432,-0.05682 0.10706,-0.13712 0.14182,-0.17939c0.03381,-0.04226 0.09814,-0.12679 0.14087,-0.18831c0.04321,-0.06245 0.10801,-0.15074 0.14464,-0.19723c0.03616,-0.04649 0.07608,-0.11646 0.08829,-0.15497c0.01221,-0.0385 0.03381,-0.07044 0.04789,-0.07044c0.01456,0 0.04837,-0.05635 0.07608,-0.12538c0.02771,-0.06903 0.06246,-0.12585 0.07701,-0.12585c0.01456,0 0.04321,-0.05447 0.06293,-0.12116c0.02019,-0.06715 0.05776,-0.13947 0.08359,-0.16107c0.02583,-0.0216 0.04696,-0.0587 0.04696,-0.08312c0,-0.02442 0.03522,-0.11129 0.07795,-0.19253c0.04368,-0.08078 0.07843,-0.1653 0.07843,-0.18784c0,-0.02255 0.02817,-0.09627 0.06292,-0.16389c0.03475,-0.06716 0.06293,-0.14793 0.06293,-0.17939c0,-0.03099 0.0263,-0.10519 0.05823,-0.1653c0.0324,-0.06011 0.06809,-0.17563 0.07983,-0.2564c0.01221,-0.08077 0.04931,-0.22494 0.08312,-0.32074c0.03334,-0.0958 0.06105,-0.24841 0.06152,-0.33952c0.00047,-0.0911 0.02395,-0.25687 0.05259,-0.3691c0.07467,-0.29303 0.07467,-1.3609 0,-1.70089c-0.02911,-0.13243 -0.05306,-0.30571 -0.05306,-0.38366c0,-0.07842 -0.02865,-0.22588 -0.06387,-0.32778c-0.03569,-0.1019 -0.07701,-0.25405 -0.09251,-0.33764c-0.0324,-0.1761 -0.13806,-0.49073 -0.20521,-0.61142c-0.02536,-0.04555 -0.04649,-0.10096 -0.04649,-0.12304c0,-0.04367 -0.3029,-0.65837 -0.42405,-0.85983c-0.04133,-0.06903 -0.09721,-0.16765 -0.12445,-0.21977c-0.02723,-0.05166 -0.09204,-0.15075 -0.14369,-0.21978c-0.05119,-0.06856 -0.11693,-0.1606 -0.14605,-0.20333c-0.20474,-0.309 -1.174,-1.29657 -1.36653,-1.39424c-0.02113,-0.00986 -0.09392,-0.06105 -0.16295,-0.11271c-0.22729,-0.16952 -0.39494,-0.28082 -0.42264,-0.28082c-0.01503,0 -0.06715,-0.03287 -0.11599,-0.07278c-0.07749,-0.06293 -0.60391,-0.33154 -0.87299,-0.44518c-0.29584,-0.12492 -0.45316,-0.18221 -0.57197,-0.20616c-0.07326,-0.01455 -0.17187,-0.04743 -0.22024,-0.07232c-0.0479,-0.02488 -0.15732,-0.05494 -0.24325,-0.06762c-0.08594,-0.01174 -0.26955,-0.0479 -0.40761,-0.07889c-0.29069,-0.06621 -1.42946,-0.10237 -2.00707,-0.0634m1.72437,0.92746c0.20662,0.0432 0.4062,0.07889 0.4433,0.07889c0.03757,0 0.12961,0.02771 0.20474,0.06152c0.07514,0.03428 0.17235,0.06246 0.21508,0.06246c0.04367,0.00094 0.12867,0.0277 0.18878,0.05964c0.06011,0.0324 0.15825,0.06903 0.21883,0.08218c0.06058,0.01221 0.13149,0.04085 0.15732,0.06245c0.02583,0.02161 0.09861,0.05636 0.16201,0.07702c0.06339,0.02019 0.13196,0.05682 0.15215,0.08218c0.0216,0.02489 0.06011,0.04555 0.08781,0.04555c0.02724,0 0.09956,0.03193 0.16108,0.07091c0.1451,0.09345 0.21695,0.13665 0.32825,0.19864c0.51421,0.28645 1.77461,1.53887 1.77461,1.7624c0,0.01691 0.02066,0.04743 0.04602,0.06857c0.08406,0.0695 0.51609,0.88096 0.5175,0.973c0.00094,0.0263 0.02958,0.08923 0.06386,0.14135c0.03429,0.05166 0.06246,0.1268 0.06246,0.16577c0,0.03992 0.02254,0.11552 0.04978,0.16765c0.02677,0.05259 0.06903,0.19253 0.09392,0.3104c0.02442,0.11834 0.05917,0.25312 0.07701,0.29961c0.13525,0.35642 0.12398,2.20289 -0.01549,2.53442c-0.02254,0.05354 -0.0587,0.18972 -0.0789,0.30196c-0.02066,0.11223 -0.05118,0.21178 -0.06762,0.22165c-0.01597,0.0108 -0.03804,0.07372 -0.0479,0.14135c-0.01033,0.06762 -0.0432,0.16529 -0.07326,0.21742c-0.03005,0.05166 -0.06433,0.13477 -0.07654,0.18502c-0.01221,0.05072 -0.04884,0.12679 -0.08218,0.16953c-0.03381,0.04226 -0.06058,0.10049 -0.06058,0.12867c0,0.02817 -0.02489,0.0864 -0.05494,0.12914c-0.0634,0.08922 -0.14041,0.22493 -0.20428,0.35971c-0.02489,0.05119 -0.06856,0.11364 -0.09673,0.13665c-0.02912,0.02442 -0.05213,0.05964 -0.05213,0.07983c0,0.0202 -0.02771,0.07138 -0.06105,0.11412c-0.30242,0.38366 -0.40996,0.51186 -0.5776,0.6889c-0.20522,0.21648 -0.618,0.59216 -0.70487,0.64053c-0.02912,0.01644 -0.06668,0.04555 -0.08406,0.06481c-0.02677,0.03099 -0.35173,0.2456 -0.53346,0.35173c-0.1761,0.10378 -0.74526,0.38601 -0.77907,0.38601c-0.02066,0 -0.09345,0.02817 -0.16107,0.06198c-0.06668,0.03428 -0.17234,0.07138 -0.23339,0.08359c-0.06105,0.01127 -0.16765,0.04649 -0.23668,0.07796c-0.06997,0.03146 -0.16859,0.05776 -0.22024,0.05823c-0.05166,0.00047 -0.18596,0.03099 -0.29773,0.06715c-0.28598,0.09345 -1.69431,0.12256 -2.08643,0.04367c-0.13759,-0.02771 -0.3522,-0.07044 -0.47758,-0.09533c-0.12491,-0.02489 -0.26579,-0.06433 -0.31369,-0.08828c-0.0479,-0.02442 -0.14041,-0.05401 -0.20662,-0.06575c-0.06622,-0.01221 -0.16483,-0.04883 -0.21931,-0.08265c-0.05494,-0.03334 -0.13665,-0.06057 -0.1822,-0.06057c-0.04555,0 -0.09956,-0.02114 -0.12022,-0.04556c-0.02113,-0.02535 -0.08969,-0.06198 -0.15309,-0.08264c-0.06292,-0.0202 -0.13571,-0.05495 -0.16201,-0.07749c-0.02583,-0.02207 -0.08453,-0.05025 -0.13102,-0.06199c-0.04602,-0.01127 -0.108,-0.04742 -0.13806,-0.0803c-0.03005,-0.03334 -0.06856,-0.06011 -0.08547,-0.06011c-0.02958,0 -0.16013,-0.08546 -0.50763,-0.332c-0.35596,-0.25171 -1.04157,-0.92793 -1.23599,-1.21767c-0.04461,-0.06762 -0.10284,-0.15309 -0.12867,-0.18972c-0.02582,-0.03663 -0.0756,-0.1127 -0.10988,-0.16953c-0.03475,-0.05635 -0.11505,-0.18314 -0.17939,-0.28128c-0.06434,-0.09768 -0.1174,-0.19911 -0.11834,-0.22494c-0.00047,-0.0263 -0.02911,-0.08265 -0.06293,-0.12586c-0.03381,-0.04273 -0.06198,-0.09204 -0.06292,-0.10941c-0.00094,-0.01738 -0.03663,-0.1019 -0.07889,-0.18831c-0.04227,-0.08641 -0.07702,-0.17845 -0.07749,-0.20475c-0.00047,-0.02582 -0.02723,-0.09626 -0.0587,-0.15637c-0.03287,-0.06058 -0.0695,-0.17328 -0.08265,-0.25077c-0.01268,-0.07748 -0.04273,-0.17845 -0.06621,-0.22447c-0.02301,-0.04602 -0.05635,-0.20099 -0.07326,-0.34468c-0.01737,-0.14417 -0.05259,-0.33905 -0.07889,-0.43391c-0.0742,-0.26908 -0.06715,-1.26463 0.0108,-1.55344c0.0324,-0.12068 0.06715,-0.31416 0.07701,-0.43015c0.00987,-0.11552 0.03945,-0.2517 0.06575,-0.30289c0.02583,-0.05025 0.05729,-0.15262 0.06856,-0.22775c0.01174,-0.07514 0.04743,-0.1855 0.07983,-0.2456c0.03146,-0.06058 0.05729,-0.12961 0.05729,-0.15403c0,-0.08547 0.32919,-0.75418 0.52642,-1.06975c0.10425,-0.16765 0.11928,-0.18925 0.34422,-0.48697c0.27518,-0.36582 1.02748,-1.11295 1.11999,-1.11295c0.01221,0 0.08876,-0.05635 0.17,-0.12539c0.08218,-0.06903 0.16483,-0.12585 0.18361,-0.12585c0.01925,0 0.07467,-0.03193 0.1235,-0.07185c0.04884,-0.03897 0.12398,-0.08922 0.16718,-0.11129c0.04321,-0.0216 0.12069,-0.06058 0.17234,-0.08594c0.05166,-0.0263 0.11553,-0.06105 0.14135,-0.07748c0.02583,-0.01691 0.08218,-0.04602 0.12539,-0.06481c0.0432,-0.01972 0.14933,-0.06856 0.23527,-0.10988c0.08687,-0.04086 0.17938,-0.0742 0.20521,-0.0742c0.0263,0 0.07514,-0.01972 0.10895,-0.0432c0.03428,-0.02395 0.11176,-0.05354 0.17187,-0.06622c0.06058,-0.01315 0.19488,-0.0493 0.2982,-0.07983c0.10378,-0.03146 0.34374,-0.08547 0.53346,-0.12115c0.18925,-0.03522 0.37333,-0.07044 0.40761,-0.07702c0.25124,-0.05259 1.24303,-0.01597 1.59899,0.05776m-1.31488,1.71639c-0.03898,0.05541 -0.04884,0.16482 -0.04884,0.53252c0,0.55835 0.01033,0.54427 -0.43907,0.57667c-0.16436,0.01174 -0.36864,0.04743 -0.45504,0.07842c-0.08594,0.03099 -0.21273,0.06621 -0.28223,0.07842c-0.06903,0.01221 -0.17469,0.04649 -0.2348,0.07796c-0.06058,0.03005 -0.19489,0.09674 -0.29867,0.14698c-0.34187,0.16765 -0.40244,0.20944 -0.62832,0.43344c-0.79503,0.78658 -0.53253,1.79387 0.61283,2.34847c0.09485,0.04649 0.22446,0.11082 0.2888,0.1451c0.06386,0.03287 0.14417,0.06058 0.17939,0.06058c0.03428,0 0.13383,0.02818 0.22165,0.06246c0.08687,0.03475 0.23902,0.07044 0.33811,0.0803c0.39305,0.03991 0.66589,0.11317 0.68279,0.18314c0.00893,0.03616 0.01221,0.44706 0.00752,0.91337l-0.00845,0.84669l-0.25828,-0.00517c-0.16436,-0.00328 -0.29491,-0.02395 -0.35925,-0.05541c-0.05541,-0.02771 -0.15825,-0.05917 -0.22775,-0.06903c-0.11318,-0.01691 -0.35972,-0.1127 -0.53535,-0.2085c-0.03428,-0.01832 -0.09345,-0.04978 -0.13054,-0.0695c-0.03804,-0.0202 -0.13102,-0.10238 -0.2071,-0.18315c-0.09251,-0.0972 -0.16436,-0.14604 -0.21413,-0.1451c-0.08923,0.00188 -0.34093,0.06668 -0.39635,0.10237c-0.02113,0.01409 -0.10941,0.04555 -0.19582,0.07138c-0.1761,0.05212 -0.18361,0.07279 -0.09861,0.27049c0.12021,0.28176 0.85044,0.87204 1.07726,0.87157c0.0216,0 0.09673,0.02677 0.16529,0.05964c0.21649,0.10238 0.55225,0.19113 0.89412,0.23668c0.18127,0.02348 0.36817,0.05823 0.41607,0.07655l0.08593,0.03381l0,0.48885c0,0.64194 -0.0216,0.61048 0.42217,0.61048c0.49872,0 0.45598,0.05118 0.45598,-0.54849c0,-0.38507 0.00986,-0.51891 0.0418,-0.54521c0.05588,-0.04649 0.36769,-0.12069 0.61658,-0.14698c0.11223,-0.01174 0.23949,-0.03945 0.28223,-0.06105c0.04367,-0.02207 0.12773,-0.04931 0.18831,-0.06246c0.17469,-0.03428 0.66542,-0.26062 0.82086,-0.37709c0.04649,-0.03475 0.14322,-0.10472 0.21554,-0.15684c0.11224,-0.08077 0.20381,-0.18221 0.41935,-0.46537c0.02489,-0.03147 0.05354,-0.10895 0.06528,-0.17235c0.01221,-0.06339 0.03569,-0.13195 0.05212,-0.15168c0.10801,-0.13055 0.00047,-0.79832 -0.14745,-0.92182c-0.02489,-0.02019 -0.04508,-0.054 -0.04508,-0.07467c0,-0.02066 -0.0324,-0.06762 -0.07138,-0.10472c-0.03851,-0.03709 -0.09862,-0.09767 -0.1329,-0.1343c-0.13759,-0.14699 -0.42217,-0.3414 -0.65978,-0.45082c-0.13713,-0.06339 -0.28975,-0.13571 -0.33811,-0.1606c-0.04931,-0.02489 -0.116,-0.04555 -0.14887,-0.04555c-0.03193,0 -0.16717,-0.03475 -0.29913,-0.07795c-0.13196,-0.04321 -0.30994,-0.0789 -0.39493,-0.0789c-0.48181,0 -0.47007,0.02724 -0.45786,-1.08054l0.00939,-0.81476l0.10331,-0.02958c0.25734,-0.07373 1.23317,0.29068 1.53089,0.5715c0.16295,0.1545 0.27988,0.16483 0.44049,0.03804c0.04508,-0.03522 0.1066,-0.06434 0.13665,-0.06434c0.02958,0 0.08969,-0.0277 0.1329,-0.06199c0.04367,-0.03475 0.11599,-0.07607 0.1606,-0.09345c0.09392,-0.03522 0.10331,-0.07044 0.03569,-0.12726c-0.02583,-0.0216 -0.04696,-0.05635 -0.04696,-0.07795c0,-0.04978 -0.41794,-0.44706 -0.51938,-0.49308c-0.04179,-0.01878 -0.07654,-0.04555 -0.07654,-0.0587c0,-0.01315 -0.04837,-0.03992 -0.10754,-0.05917c-0.05917,-0.01972 -0.12351,-0.05494 -0.14323,-0.07889c-0.01972,-0.02395 -0.08124,-0.05354 -0.13571,-0.06528c-0.05495,-0.01127 -0.14229,-0.0432 -0.19395,-0.06997c-0.05212,-0.02629 -0.17187,-0.06574 -0.26626,-0.08734c-0.09533,-0.02207 -0.22963,-0.06152 -0.29866,-0.08782c-0.06904,-0.02629 -0.18925,-0.0493 -0.26627,-0.05071c-0.47664,-0.00939 -0.502,-0.04039 -0.50294,-0.62551c-0.00141,-0.59028 0.01691,-0.56633 -0.43203,-0.56633c-0.32355,0 -0.35126,0.00469 -0.39634,0.0695m15.0065,1.7671c-0.07748,0.02442 -0.1761,0.04508 -0.2193,0.04508c-0.33576,0.00188 -1.31722,0.80254 -1.31722,1.07491c0,0.0155 -0.02818,0.0648 -0.06246,0.10848c-0.03475,0.04414 -0.06293,0.11035 -0.06293,0.14745c0,0.0371 -0.02817,0.14746 -0.06292,0.2456c-0.05636,0.16013 -0.06246,0.25922 -0.06246,0.94953c0,0.47242 -0.01268,0.7955 -0.0324,0.83213c-0.03193,0.05964 -0.09345,0.06105 -2.57059,0.06105l-2.53771,0l-0.04884,0.06997c-0.07185,0.10284 -0.07138,0.79268 0.00047,0.82086c0.02771,0.00986 1.19044,0.01878 2.5842,0.01878c2.00237,0 2.54147,0.00845 2.5673,0.03945c0.02066,0.02489 0.03663,0.3583 0.04274,0.88895c0.00751,0.6039 0.0216,0.86312 0.04789,0.89552c0.02114,0.02489 0.04837,0.10801 0.05964,0.18503c0.01268,0.07701 0.05589,0.1883 0.09627,0.24841c0.03992,0.06011 0.07326,0.12539 0.07326,0.14464c0,0.01925 0.02818,0.06058 0.06246,0.09157c0.03475,0.03099 0.06339,0.07279 0.06339,0.0911c0.00094,0.08547 0.51186,0.53629 0.73727,0.64993c0.05119,0.0263 0.12163,0.06199 0.15638,0.08077c0.03428,0.01878 0.16858,0.06715 0.29725,0.10754l0.23574,0.07466l2.10803,0.00893c2.26159,0.00986 2.16438,0.01596 2.34894,-0.14276c0.12867,-0.1113 0.13853,-0.16765 0.13853,-0.84998c0,-0.55694 0.00704,-0.66636 0.04931,-0.70768c0.04273,-0.0432 0.20286,-0.04978 1.28435,-0.04978c1.4567,0 1.30689,0.05917 1.29374,-0.50904l-0.00892,-0.38461l-1.28435,-0.00845c-0.97958,-0.0061 -1.28999,-0.01737 -1.30924,-0.04696c-0.01315,-0.02113 -0.02442,-0.60015 -0.02489,-1.28623l0,-1.24819l0.0803,-0.03006c0.04696,-0.01784 0.58277,-0.03052 1.29844,-0.03052c1.08149,0 1.22002,-0.00611 1.23692,-0.04978c0.03616,-0.09486 0.02067,-0.75136 -0.01878,-0.79127c-0.02771,-0.02771 -0.35971,-0.03757 -1.29797,-0.03757c-1.1214,0 -1.26275,-0.00517 -1.28013,-0.04931c-0.01033,-0.02724 -0.01878,-0.34609 -0.01878,-0.70769c0,-0.75934 -0.01644,-0.81475 -0.27941,-0.95046c-0.13478,-0.0695 -4.14187,-0.0695 -4.36352,0m-15.07083,1.11154l0,0.89411l-0.26674,-0.00704c-0.18408,-0.00564 -0.31228,-0.02724 -0.41371,-0.07091c-0.08077,-0.03522 -0.18174,-0.06293 -0.22447,-0.06293c-0.06669,0 -0.309,-0.10096 -0.46021,-0.19206c-0.02583,-0.01503 -0.08171,-0.04274 -0.12444,-0.06105c-0.10238,-0.04367 -0.37427,-0.33764 -0.39681,-0.42874c-0.0526,-0.2071 0.19629,-0.47712 0.61564,-0.66777c0.0432,-0.01973 0.12069,-0.05776 0.17234,-0.08453c0.05213,-0.0263 0.17188,-0.06668 0.26674,-0.08923c0.09485,-0.02254 0.24325,-0.06292 0.32918,-0.08875c0.08641,-0.0263 0.2348,-0.04461 0.32966,-0.04085l0.17282,0.00563l0,0.89412m18.75484,-0.22024l0.08124,0.03099l-0.00845,2.99369c-0.00423,1.64642 -0.01973,3.00544 -0.03429,3.01952c-0.05682,0.05682 -3.27592,0.05025 -3.56519,-0.00751c-0.38085,-0.07655 -0.62175,-0.2395 -0.8542,-0.57808c-0.15826,-0.2301 -0.1606,-0.26391 -0.17281,-2.35222c-0.01174,-1.98499 -0.00282,-2.19537 0.10284,-2.38415c0.02395,-0.0432 0.06199,-0.11317 0.08406,-0.15544c0.13618,-0.25969 0.51796,-0.52078 0.82414,-0.56305c0.27472,-0.03804 3.44404,-0.04085 3.54266,-0.00375m-17.34041,2.16907c0.01878,0.01503 0.11035,0.0418 0.2038,0.0587c0.09298,0.01738 0.22588,0.05917 0.29444,0.09204c0.0695,0.03241 0.16107,0.07561 0.20428,0.09533c0.58371,0.26533 0.77014,0.69595 0.4123,0.9547c-0.22071,0.15966 -0.35219,0.23761 -0.43672,0.25875c-0.04696,0.01174 -0.12773,0.04696 -0.17986,0.07889c-0.05118,0.03146 -0.13618,0.05729 -0.18784,0.05729c-0.05165,0.00047 -0.13665,0.02301 -0.18784,0.05025c-0.13008,0.06856 -0.46396,0.11317 -0.56352,0.0756l-0.07983,-0.03052l0,-0.84622c0,-0.77249 0.0047,-0.84809 0.05494,-0.87815c0.06058,-0.03569 0.4095,-0.0108 0.46585,0.03334m-6.56734,5.84228c-0.05025,0.05401 -0.13525,0.16812 -0.18878,0.25453c-0.05495,0.08593 -0.11458,0.17469 -0.1329,0.19629c-0.01878,0.02254 -0.04931,0.08593 -0.06809,0.14182c-0.01879,0.05541 -0.05213,0.12209 -0.0742,0.14839c-0.02207,0.02536 -0.04978,0.08922 -0.06105,0.14041c-0.01127,0.0526 -0.04649,0.1653 -0.07842,0.25171c-0.14651,0.39634 -0.14557,1.65627 0.00141,2.06999c0.03099,0.08593 0.06527,0.21179 0.07654,0.27894c0.01128,0.06668 0.04837,0.17234 0.08171,0.23433c0.03288,0.06199 0.06011,0.13665 0.06011,0.1653c0,0.04414 0.09486,0.26344 0.18878,0.43485c0.01456,0.02629 0.07232,0.13853 0.12914,0.25123c0.05682,0.11177 0.13525,0.24325 0.17469,0.29209c0.03945,0.04884 0.07185,0.10191 0.07185,0.11787c0,0.03193 0.37897,0.56963 0.47383,0.672c0.03193,0.03428 0.0972,0.1066 0.14463,0.16013c0.47618,0.53394 1.19372,1.17259 1.5802,1.40786c0.02818,0.01737 0.1066,0.06386 0.17329,0.10331c0.06715,0.03898 0.18549,0.11317 0.26297,0.16389c0.07795,0.05119 0.16295,0.10096 0.18784,0.1113c0.0263,0.00986 0.07561,0.03381 0.11036,0.05306c0.0695,0.03898 0.18079,0.09204 0.39164,0.18737c0.07796,0.03475 0.19348,0.09016 0.25734,0.12257c0.06387,0.03193 0.14135,0.0587 0.17235,0.0587c0.03146,0 0.12726,0.03522 0.21319,0.07748c0.08641,0.04226 0.17188,0.07795 0.19019,0.07842c0.07748,0.00235 0.10566,0.07091 0.06387,0.1545c-0.02254,0.04461 -0.05025,0.15497 -0.06152,0.24419c-0.01221,0.0897 -0.04508,0.21649 -0.07514,0.28223c-0.07889,0.17751 -0.07936,1.23129 0,1.38532c0.02959,0.05776 0.0634,0.15637 0.07561,0.2193c0.01174,0.06293 0.05447,0.1761 0.09439,0.25264c0.04038,0.07608 0.07325,0.15497 0.07325,0.1761c0,0.0202 0.02865,0.06246 0.0634,0.09392c0.03428,0.031 0.06293,0.0695 0.06293,0.085c0,0.0155 0.04508,0.08641 0.10143,0.15685c0.37568,0.47429 0.87064,0.78282 0.87064,0.54144c0,-0.01831 0.02629,-0.06292 0.0587,-0.09767c0.0324,-0.03522 0.0695,-0.09721 0.08218,-0.13947c0.01268,-0.0418 0.04696,-0.10425 0.07654,-0.13853c0.16953,-0.20052 0.15873,-0.22964 -0.1916,-0.52783c-0.36816,-0.31276 -0.6086,-0.99414 -0.53064,-1.50507c0.06386,-0.41841 0.11834,-0.66401 0.16671,-0.75887c0.02629,-0.05166 0.05917,-0.14323 0.07184,-0.20334c0.01315,-0.0601 0.04227,-0.13806 0.06481,-0.17234c0.11928,-0.1822 0.13853,-0.40526 0.13853,-1.58912c0,-1.19325 0.02724,-1.49943 0.1437,-1.62857c0.02395,-0.02677 0.05259,-0.09345 0.06386,-0.14746c0.01033,-0.05353 0.04602,-0.12209 0.0789,-0.15168c0.03193,-0.02958 0.0587,-0.07842 0.0587,-0.10894c0,-0.03053 0.03522,-0.09721 0.07889,-0.14887c0.04273,-0.05118 0.07795,-0.10237 0.07795,-0.11364c0,-0.10002 0.97066,-1.17822 1.05989,-1.17822c0.01925,0 0.04602,-0.01879 0.06011,-0.04227c0.02723,-0.04649 0.37192,-0.29256 0.50528,-0.36159c0.04649,-0.02348 0.11271,-0.06715 0.14699,-0.0958c0.03428,-0.02911 0.1545,-0.09908 0.26673,-0.15543c0.11176,-0.05635 0.22494,-0.11412 0.25077,-0.12867c0.02582,-0.01456 0.13148,-0.06387 0.2348,-0.10942c0.10378,-0.04696 0.24513,-0.11129 0.31416,-0.1437c0.06903,-0.03287 0.17469,-0.0695 0.2348,-0.08077c0.06058,-0.01174 0.13853,-0.03944 0.17281,-0.06198c0.03475,-0.02208 0.13337,-0.05495 0.21977,-0.0742c0.08641,-0.01879 0.19911,-0.05354 0.25077,-0.07702c0.05212,-0.02301 0.15731,-0.05212 0.23527,-0.06386c0.07795,-0.01174 0.21226,-0.04649 0.29819,-0.07795c0.24044,-0.08688 0.54051,-0.15873 0.79973,-0.1916c0.12914,-0.01644 0.30806,-0.05119 0.39775,-0.07655c0.08922,-0.02629 0.2517,-0.05541 0.36065,-0.0648c0.10895,-0.00986 0.28317,-0.03898 0.38648,-0.06433c0.40339,-0.10097 0.9655,-0.13713 1.02701,-0.06716c0.07843,0.08876 0.085,3.043 0.00705,3.19374l-0.04743,0.09205l-2.39308,0c-1.81828,0 -2.40153,0.00892 -2.42923,0.03803c-0.06293,0.06199 -0.05213,0.79691 0.01127,0.82133c0.02723,0.0108 3.31302,0.01926 7.30132,0.01926c7.19144,0 7.25202,0.00047 7.36848,0.06292c0.06386,0.03381 0.13618,0.06246 0.15919,0.06246c0.02348,0 0.10895,0.03522 0.19019,0.07842c0.08077,0.0432 0.16906,0.07842 0.19629,0.07842c0.02583,0 0.08547,0.0263 0.13149,0.05823c0.04555,0.03194 0.12444,0.0681 0.17469,0.08031c0.05025,0.01221 0.12632,0.0493 0.16906,0.08265c0.04226,0.03381 0.09626,0.06104 0.12021,0.06104c0.03569,0 0.13713,0.04649 0.41842,0.19254c0.02629,0.01362 0.21695,0.11129 0.42404,0.21789c0.20663,0.10613 0.4325,0.22635 0.50201,0.26674c0.06903,0.03991 0.18079,0.10378 0.24841,0.14087c0.0681,0.0371 0.14323,0.08688 0.16718,0.1113c0.02348,0.02348 0.06152,0.0432 0.08312,0.0432c0.02207,0 0.06527,0.02771 0.09721,0.06246c0.03146,0.03475 0.07466,0.0634 0.09626,0.0634c0.02208,0 0.0587,0.0169 0.08171,0.0385c0.05777,0.05542 0.27754,0.22118 0.34187,0.25875c0.28129,0.1653 0.93826,0.87017 0.93826,1.00776c0,0.01925 0.03146,0.10425 0.06997,0.18831c0.29585,0.65227 -0.10895,2.02444 -0.67904,2.3001c-0.20756,0.10096 -0.22494,0.13289 -0.17892,0.32496c0.02161,0.08922 0.05589,0.25452 0.07655,0.36629c0.05165,0.28129 0.15872,0.34233 0.34375,0.19582c0.0216,-0.01691 0.09016,-0.04743 0.15355,-0.06762c0.06293,-0.0202 0.12257,-0.0573 0.13196,-0.08265c0.00986,-0.02489 0.03381,-0.04555 0.05307,-0.04555c0.08077,0 0.59404,-0.53488 0.59404,-0.61894c0,-0.01643 0.02677,-0.054 0.06011,-0.08358c0.0324,-0.03006 0.06856,-0.09158 0.07983,-0.13713c0.01174,-0.04461 0.04602,-0.1174 0.07701,-0.16201c0.03147,-0.04414 0.06575,-0.13149 0.07749,-0.19441c0.01127,-0.0634 0.04367,-0.16108 0.07138,-0.21743c0.20662,-0.41324 0.10049,-1.79856 -0.17422,-2.2738c-0.09345,-0.16248 -0.10285,-0.1775 -0.1747,-0.28363c-0.06762,-0.09956 -0.75793,-0.79691 -0.78892,-0.79691c-0.0108,0 -0.085,-0.05307 -0.16483,-0.11834c-0.07983,-0.06575 -0.17563,-0.13947 -0.21273,-0.16483c-0.43156,-0.29397 -0.60249,-0.40245 -0.66166,-0.42076c-0.03898,-0.01174 -0.07091,-0.0324 -0.07091,-0.04555c0,-0.01362 -0.05636,-0.05025 -0.12539,-0.08124c-0.0695,-0.03147 -0.12538,-0.06763 -0.12538,-0.08077c0,-0.01315 -0.04132,-0.03335 -0.0911,-0.04415c-0.04978,-0.0108 -0.11552,-0.04696 -0.14558,-0.08077c-0.03052,-0.03381 -0.07889,-0.06105 -0.10707,-0.06105c-0.02911,0 -0.09955,-0.03522 -0.15825,-0.07842c-0.0587,-0.0432 -0.13008,-0.07842 -0.15919,-0.07842c-0.02912,0 -0.06998,-0.02113 -0.09158,-0.04696c-0.02113,-0.02583 -0.09392,-0.0634 -0.16107,-0.08312c-0.06715,-0.02019 -0.13806,-0.05588 -0.15685,-0.07889c-0.01972,-0.02301 -0.05024,-0.0418 -0.06997,-0.0418c-0.01925,0 -0.1127,-0.03663 -0.20756,-0.08218c-0.09533,-0.04461 -0.25076,-0.1174 -0.34609,-0.1606c-0.09486,-0.04367 -0.22165,-0.10378 -0.28176,-0.13384c-0.06058,-0.03005 -0.15497,-0.06433 -0.20944,-0.07654c-0.05542,-0.01221 -0.11693,-0.04226 -0.1376,-0.06621c-0.02066,-0.02489 -0.0601,-0.04555 -0.08828,-0.04555c-0.02818,0 -0.12163,-0.03476 -0.20756,-0.07749c-0.08594,-0.04273 -0.18409,-0.07748 -0.21602,-0.07795c-0.03287,-0.00047 -0.10284,-0.02771 -0.15731,-0.06058c-0.05307,-0.03287 -0.14558,-0.0695 -0.20475,-0.08171c-0.0587,-0.01268 -0.15074,-0.04978 -0.20381,-0.08218c-0.05306,-0.03193 -0.12867,-0.0587 -0.16811,-0.05917c-0.10895,0 -0.38132,-0.14933 -0.4743,-0.25969c-0.04414,-0.05353 -0.10425,-0.11928 -0.13195,-0.14651c-0.04602,-0.04415 -0.40621,-0.46256 -0.48275,-0.55976c-0.01738,-0.02302 -0.06668,-0.08031 -0.10989,-0.12821c-0.0432,-0.04789 -0.16342,-0.18314 -0.26673,-0.30007c-0.10331,-0.1174 -0.20193,-0.22916 -0.21977,-0.24842c-0.01738,-0.01925 -0.09486,-0.11223 -0.17234,-0.20709c-0.07749,-0.09392 -0.16202,-0.19441 -0.18831,-0.22212c-0.02583,-0.02818 -0.13854,-0.15403 -0.25077,-0.28129c-0.11223,-0.12679 -0.2395,-0.26814 -0.28223,-0.31463c-0.0432,-0.04602 -0.09955,-0.11036 -0.12585,-0.14323c-0.45786,-0.5668 -0.68139,-0.79174 -0.81194,-0.81522c-0.06245,-0.01127 -0.16248,-0.04461 -0.22259,-0.07467c-0.06058,-0.02958 -0.19347,-0.06339 -0.29585,-0.0756c-0.10284,-0.01127 -0.20286,-0.03475 -0.22305,-0.05119c-0.02067,-0.01691 -0.18409,-0.05213 -0.363,-0.07842c-0.17892,-0.02583 -0.36113,-0.06058 -0.4048,-0.07749c-0.04273,-0.0169 -0.26814,-0.04461 -0.50106,-0.06292c-0.23339,-0.01785 -0.57197,-0.04602 -0.75324,-0.0634c-0.41653,-0.03851 -1.46937,-0.03851 -1.81875,-0.00094c-0.14746,0.01644 -0.52642,0.04555 -0.84293,0.06528c-0.31651,0.01925 -0.6133,0.0493 -0.65885,0.06668c-0.04602,0.01737 -0.26955,0.05165 -0.49872,0.0756c-0.22869,0.02348 -0.44377,0.05823 -0.47758,0.07655c-0.03381,0.01831 -0.19253,0.04555 -0.35267,0.06152c-0.15966,0.01502 -0.3475,0.04836 -0.417,0.07372c-0.06903,0.02489 -0.21649,0.05589 -0.32731,0.06856c-0.11083,0.01315 -0.27847,0.05025 -0.37286,0.08218c-0.09439,0.03288 -0.20052,0.05964 -0.23668,0.05964c-0.03663,0 -0.16483,0.03475 -0.28599,0.07749c-0.12021,0.04273 -0.25452,0.07795 -0.29725,0.07842c-0.04321,0.00094 -0.11693,0.02066 -0.16389,0.04555c-0.04649,0.02395 -0.16107,0.06011 -0.25452,0.07936c-0.09299,0.01973 -0.19583,0.05495 -0.2287,0.07984c-0.0324,0.02488 -0.0958,0.04508 -0.14041,0.04602c-0.04508,0 -0.14839,0.03569 -0.22916,0.07889c-0.08124,0.0432 -0.15967,0.07842 -0.17516,0.07842c-0.04743,0 -0.74855,0.34422 -0.76921,0.37662c-0.00986,0.01738 -0.04132,0.03146 -0.06903,0.03146c-0.02724,0 -0.12632,0.05307 -0.22024,0.11787c-0.09439,0.06434 -0.20944,0.13853 -0.25593,0.16436c-0.37709,0.21038 -1.22331,0.98099 -1.56846,1.42899c-0.05213,0.06762 -0.30195,0.42875 -0.33154,0.47946c-0.01644,0.02818 -0.06293,0.10472 -0.1019,0.16906c-0.03945,0.06433 -0.07185,0.13665 -0.07185,0.16107c0,0.02395 -0.02066,0.06105 -0.04649,0.08218c-0.0263,0.0216 -0.0634,0.09721 -0.08406,0.16906c-0.02019,0.07091 -0.054,0.15074 -0.0742,0.1761c-0.02019,0.02582 -0.054,0.1174 -0.0756,0.2038c-0.02066,0.08594 -0.05447,0.1761 -0.07467,0.20052c-0.02583,0.03099 -0.04132,0.35877 -0.05212,1.10356c-0.01785,1.15239 -0.01362,1.13079 -0.17422,1.05472c-0.06105,-0.02912 -0.12914,-0.05307 -0.15168,-0.05307c-0.02301,0 -0.10754,-0.03569 -0.18878,-0.07889c-0.08124,-0.04273 -0.17376,-0.07748 -0.20475,-0.07748c-0.03146,0 -0.0742,-0.02114 -0.09486,-0.04556c-0.02113,-0.02535 -0.08969,-0.06245 -0.15356,-0.08311c-0.06292,-0.02114 -0.14792,-0.06434 -0.18924,-0.0958c-0.04133,-0.03241 -0.09111,-0.0587 -0.11177,-0.0587c-0.01972,0 -0.06386,-0.02113 -0.09721,-0.04743c-0.05635,-0.04367 -0.39117,-0.26861 -0.51233,-0.34422c-0.26344,-0.16389 -0.48697,-0.35689 -0.96455,-0.83119c-0.38038,-0.37849 -0.92136,-1.07162 -0.92136,-1.18198c0,-0.01831 -0.01878,-0.04931 -0.04226,-0.06856c-0.02301,-0.01925 -0.08547,-0.12397 -0.13712,-0.23198c-0.224,-0.46397 -0.26016,-0.54333 -0.26016,-0.57761c0,-0.02019 -0.01973,-0.07654 -0.04461,-0.12538c-0.02536,-0.04884 -0.0681,-0.18033 -0.09486,-0.29256c-0.02724,-0.11224 -0.0634,-0.25359 -0.07984,-0.31369c-0.10331,-0.38038 -0.00704,-1.38485 0.1592,-1.66238c0.0155,-0.02536 0.04884,-0.09252 0.07373,-0.1484c0.02535,-0.05588 0.06057,-0.11881 0.07889,-0.14088c0.27659,-0.33717 0.27706,-0.32684 -0.03334,-0.62034c-0.30618,-0.28974 -0.36582,-0.31087 -0.49073,-0.1761m16.36599,1.07257c0.26814,0.00939 0.5499,0.03146 0.62738,0.0479c0.07796,0.01643 0.28928,0.05024 0.47007,0.07513c0.18127,0.02536 0.38601,0.06622 0.45504,0.09017c0.0695,0.02488 0.19207,0.05306 0.27331,0.06292c0.26297,0.03193 0.51092,0.18033 0.66307,0.39869c0.02113,0.03006 0.11693,0.1437 0.21367,0.25311c0.09627,0.10942 0.21555,0.24748 0.26532,0.30712c0.04978,0.05917 0.11881,0.13759 0.15309,0.17328c0.03475,0.03569 0.13337,0.14793 0.21978,0.24889c0.0864,0.10097 0.17328,0.20052 0.193,0.22118c0.01972,0.02067 0.11083,0.1282 0.20193,0.23903c0.0911,0.11082 0.19488,0.23104 0.23057,0.2672c0.12022,0.12304 0.28552,0.30947 0.45457,0.51421c0.09345,0.11224 0.1963,0.22776 0.2287,0.25781c0.10049,0.09016 0.12585,0.2348 0.04508,0.25687c-0.03757,0.00939 -1.57504,0.01785 -3.41727,0.01785l-3.34918,0.00047l-0.03006,-0.08031c-0.05118,-0.13289 -0.04085,-3.29094 0.01033,-3.33368c0.06998,-0.05776 0.87205,-0.0648 2.0916,-0.01784m-7.16749,8.02591c-0.32308,0.06528 -0.48557,0.11928 -0.67387,0.22353c-0.04368,0.02395 -0.12257,0.06387 -0.17657,0.08969c-0.05401,0.02583 -0.1066,0.06857 -0.11693,0.09439c-0.00987,0.02677 -0.03757,0.04837 -0.06058,0.04837c-0.05166,0 -0.56634,0.53441 -0.62786,0.65228c-0.23855,0.45739 -0.27283,0.54802 -0.36722,0.96314c-0.04461,0.19677 -0.03569,0.67435 0.01596,0.86407c0.02583,0.09392 0.06246,0.24137 0.08218,0.32825c0.01879,0.08593 0.05401,0.17891 0.07796,0.20568c0.02395,0.02771 0.04367,0.07044 0.04367,0.09486c0,0.02489 0.03522,0.09721 0.07889,0.16107c0.04274,0.06293 0.07796,0.12773 0.07796,0.14276c0,0.08312 0.6471,0.68045 0.85373,0.78799c0.05682,0.02911 0.13101,0.06903 0.1653,0.08781c0.48885,0.26861 1.5694,0.3259 1.98123,0.10519c0.06575,-0.03569 0.14135,-0.06433 0.16765,-0.06527c0.02583,0 0.10519,-0.03851 0.1761,-0.08594c0.07044,-0.04696 0.18549,-0.1235 0.25499,-0.16952c0.17281,-0.11553 0.48322,-0.42452 0.59264,-0.59076c0.16952,-0.25687 0.29068,-0.48604 0.29209,-0.55037c0.00094,-0.03569 0.04132,-0.10284 0.08969,-0.14933l0.08828,-0.08406l4.12731,0l4.1273,0l0.09768,0.09063c0.05401,0.05166 0.09768,0.12398 0.09768,0.16483c0.00047,0.04086 0.02817,0.10942 0.06198,0.15215c0.03429,0.0432 0.06246,0.09392 0.06246,0.1127c0.00235,0.12539 0.50576,0.67858 0.79691,0.87675c0.21508,0.14604 0.33623,0.21132 0.50529,0.27424c1.14817,0.42123 2.46023,-0.00094 3.05662,-0.98522c0.13665,-0.22587 0.2503,-0.46772 0.27049,-0.57713c0.01268,-0.06857 0.04414,-0.17423 0.06997,-0.23433c0.06527,-0.15591 0.06621,-0.94437 0.00047,-1.09793c-0.0263,-0.0601 -0.05729,-0.16623 -0.0695,-0.23527c-0.01268,-0.06856 -0.05072,-0.17234 -0.08359,-0.22916c-0.03334,-0.05682 -0.06105,-0.11693 -0.06105,-0.1329c0,-0.07654 -0.25593,-0.41512 -0.47336,-0.6255c-0.33998,-0.32966 -0.38037,-0.36065 -0.63959,-0.49167c-0.03475,-0.01738 -0.11223,-0.05635 -0.17234,-0.08735c-0.06058,-0.03099 -0.21602,-0.07513 -0.34563,-0.09908c-0.69265,-0.12679 -0.6194,-0.12398 -1.03828,-0.04415c-0.21367,0.04039 -0.43767,0.09956 -0.49824,0.13102c-0.06011,0.03147 -0.12961,0.05729 -0.1545,0.05729c-0.05072,0 -0.4325,0.24748 -0.59639,0.38742c-0.40949,0.34798 -0.77015,0.99837 -0.83777,1.51023c-0.01174,0.08641 -0.03663,0.16765 -0.05541,0.18033c-0.06293,0.04179 -8.21939,0.02864 -8.26165,-0.01362c-0.02067,-0.02113 -0.03804,-0.10942 -0.03804,-0.19629c-0.00047,-0.08969 -0.02818,-0.21743 -0.06293,-0.29491c-0.03428,-0.0756 -0.06292,-0.16013 -0.06386,-0.18831c-0.00047,-0.02817 -0.04649,-0.13008 -0.10191,-0.22588c-0.29115,-0.50716 -0.64429,-0.87063 -1.0411,-1.0735c-0.30852,-0.15731 -0.44189,-0.20803 -0.64335,-0.2409c-0.11176,-0.01879 -0.26016,-0.04696 -0.32966,-0.0634c-0.17938,-0.04367 -0.32965,-0.03381 -0.7213,0.04508m0.86406,0.89553c0.33295,0.06292 0.9716,0.52078 0.9716,0.69594c0,0.02583 0.02677,0.07185 0.06058,0.10191c0.03334,0.03052 0.07467,0.11411 0.09157,0.18549c0.01738,0.07138 0.0526,0.18643 0.07889,0.25546c0.02677,0.0695 0.04837,0.22306 0.04837,0.34515c0,0.12163 -0.0216,0.27566 -0.04837,0.34516c-0.02629,0.06903 -0.06151,0.18361 -0.07889,0.25546c-0.0169,0.07138 -0.05823,0.15497 -0.09157,0.18502c-0.03381,0.03053 -0.06152,0.07091 -0.06199,0.0897c-0.00469,0.11881 -0.46208,0.50529 -0.75182,0.63349c-0.27942,0.12444 -0.90304,0.13524 -1.12,0.01972c-0.07279,-0.03804 -0.15215,-0.07044 -0.17751,-0.07044c-0.12209,0 -0.68796,-0.53722 -0.726,-0.6889c-0.01127,-0.04321 -0.04085,-0.10191 -0.06668,-0.13102c-0.16952,-0.18831 -0.1498,-1.00119 0.0324,-1.35949c0.10754,-0.21132 0.60907,-0.73727 0.70205,-0.73727c0.031,0 0.08735,-0.0216 0.12539,-0.04884c0.14182,-0.09908 0.67857,-0.13947 1.01198,-0.07654m13.36103,0.00188c0.90163,0.20662 1.50835,1.43791 1.089,2.20946c-0.01925,0.03428 -0.06011,0.11599 -0.09204,0.18079c-0.08453,0.17282 -0.58559,0.64993 -0.68139,0.64993c-0.01972,0 -0.09486,0.03193 -0.16765,0.06997c-0.19911,0.10519 -0.88754,0.10566 -1.07256,0.00094c-0.06856,-0.03851 -0.14698,-0.07091 -0.17422,-0.07091c-0.02724,0 -0.08124,-0.02442 -0.12069,-0.05447c-0.30148,-0.23011 -0.41653,-0.33812 -0.50106,-0.46913c-0.054,-0.08265 -0.11928,-0.17798 -0.14511,-0.21132c-0.02629,-0.03428 -0.04789,-0.09064 -0.04836,-0.12586c-0.00047,-0.03522 -0.02818,-0.12632 -0.06246,-0.20051c-0.08688,-0.1916 -0.08688,-0.60109 0,-0.8049c0.03475,-0.0803 0.06339,-0.17844 0.06339,-0.21789c0,-0.03992 0.02208,-0.09063 0.04931,-0.11317c0.02677,-0.02254 0.07514,-0.09205 0.1066,-0.15403c0.27049,-0.53018 1.07397,-0.84481 1.75724,-0.6889" fill="#089344" fill-rule="evenodd" id="path0"/>
 </g>
</svg>