<?xml version="1.0"?>
<svg width="64" height="58.38100000000001" xmlns="http://www.w3.org/2000/svg" xmlns:svg="http://www.w3.org/2000/svg">
 <g class="currentLayer layer">
  <title>Layer 1</title>
  <path class="selected" d="m15.32086,3.32974c-0.35922,0.02395 -0.81157,0.08604 -1.00759,0.1366c-0.19514,0.05144 -0.48429,0.11087 -0.64217,0.13216c-0.15699,0.02217 -0.39825,0.0878 -0.53307,0.14546c-0.13481,0.05854 -0.34148,0.1224 -0.45767,0.14369c-0.11531,0.02217 -0.31487,0.09224 -0.44082,0.15788c-0.12773,0.06386 -0.26964,0.11796 -0.31399,0.11796c-0.04524,0 -0.15345,0.03814 -0.23948,0.08515c-0.08604,0.04612 -0.38406,0.19336 -0.66079,0.32729c-0.62443,0.2998 -1.31626,0.69272 -1.79877,1.02268c-0.14724,0.10022 -0.82311,0.64216 -1.19031,0.95171c-0.43195,0.36809 -0.87899,0.83375 -1.37303,1.43423c-0.24214,0.2927 -0.47364,0.57387 -0.51444,0.62265c-0.15788,0.18538 -0.63329,0.92954 -0.63329,0.98897c0,0.0337 -0.03814,0.0949 -0.08604,0.13304c-0.04789,0.03903 -0.23504,0.38317 -0.41776,0.76368c-0.18271,0.37962 -0.38406,0.7894 -0.44792,0.91003c-0.06297,0.12063 -0.11442,0.26786 -0.11442,0.32818c0,0.06031 -0.05321,0.21376 -0.11885,0.34059c-0.06475,0.12861 -0.11797,0.26787 -0.11797,0.31133c0,0.04257 -0.06475,0.28383 -0.1428,0.53484c-0.43018,1.3748 -0.59604,4.42508 -0.31044,5.64111c0.05854,0.2448 0.12861,0.59161 0.15522,0.77078c0.06209,0.39026 0.27496,1.12201 0.42575,1.45551c0.06031,0.13304 0.10909,0.27673 0.10909,0.31931c0,0.08426 0.157,0.4488 0.38938,0.90559c0.07983,0.15522 0.14369,0.31842 0.14369,0.36188c0,0.04347 0.05144,0.12684 0.11531,0.18361c0.06386,0.05676 0.13127,0.17916 0.15167,0.26875c0.01951,0.09135 0.08869,0.21287 0.15078,0.27052c0.06386,0.05677 0.11531,0.13748 0.11531,0.18006c0,0.0408 0.03636,0.11087 0.07982,0.15433c0.04347,0.04346 0.11442,0.14546 0.157,0.22618c0.37341,0.70691 2.24935,2.72831 2.9944,3.22678c0.19513,0.1295 0.3743,0.27141 0.40091,0.31221c0.02661,0.04081 0.13304,0.11531 0.23682,0.16409c0.30778,0.14547 0.54194,0.29004 0.58983,0.36366c0.02484,0.03903 0.13748,0.10111 0.2519,0.13837c0.11353,0.03814 0.20666,0.09047 0.20666,0.11885c0,0.02661 0.10023,0.08249 0.22263,0.12152c0.12152,0.03902 0.26166,0.10466 0.31133,0.14546c0.04789,0.03991 0.18626,0.10466 0.30512,0.1428c0.11974,0.03814 0.24923,0.1091 0.28915,0.15611c0.03991,0.04701 0.12861,0.08514 0.1969,0.08603c0.07007,0.00089 0.26875,0.06741 0.44349,0.14813c0.17384,0.0816 0.36809,0.14812 0.43106,0.14812c0.06386,0 0.17474,0.03814 0.24569,0.08426c0.07273,0.0479 0.31842,0.11708 0.54637,0.15522c0.22884,0.03903 0.44438,0.09579 0.48074,0.12418c0.03725,0.02838 0.39648,0.09224 0.80093,0.14191c0.40269,0.04878 0.9189,0.11353 1.14774,0.14458c0.80891,0.11087 2.93231,-0.04258 3.64366,-0.26432c0.14635,-0.04435 0.43994,-0.11176 0.65103,-0.14901c0.2111,-0.03725 0.43817,-0.102 0.5038,-0.14369c0.06475,-0.0408 0.20489,-0.09136 0.31044,-0.11176c0.10644,-0.0204 0.31221,-0.09224 0.45679,-0.15699c0.14457,-0.06652 0.29447,-0.12152 0.33261,-0.12152c0.03814,0 0.16586,-0.05055 0.28472,-0.11441c0.11796,-0.06475 0.4151,-0.21199 0.65901,-0.32818c0.24392,-0.11708 0.55081,-0.2794 0.68119,-0.36011c0.13039,-0.0816 0.30423,-0.17917 0.38583,-0.21908c0.08161,-0.0408 0.18272,-0.10555 0.22707,-0.14724c0.04257,-0.0408 0.1357,-0.10555 0.20577,-0.14369c0.49405,-0.26077 2.29282,-1.90609 2.76557,-2.52608c0.0816,-0.10732 0.20223,-0.25899 0.26786,-0.33882c0.06386,-0.07983 0.18538,-0.23948 0.26609,-0.35567c0.0816,-0.11797 0.20401,-0.28472 0.27319,-0.37253c0.0683,-0.08781 0.14369,-0.21997 0.16675,-0.2927c0.02306,-0.07273 0.06386,-0.13305 0.09047,-0.13305c0.0275,0 0.09136,-0.10643 0.14369,-0.23682c0.05233,-0.13038 0.11796,-0.2377 0.14546,-0.2377c0.0275,0 0.0816,-0.10289 0.11885,-0.22884c0.03814,-0.12684 0.1091,-0.26343 0.15788,-0.30423c0.04879,-0.0408 0.0887,-0.11087 0.0887,-0.15699c0,-0.04613 0.06652,-0.21021 0.14724,-0.36366c0.08249,-0.15256 0.14812,-0.31221 0.14812,-0.35479c0,-0.04257 0.05322,-0.18183 0.11885,-0.30955c0.06564,-0.12683 0.11886,-0.27939 0.11886,-0.33882c0,-0.05854 0.04967,-0.19868 0.10998,-0.31221c0.0612,-0.11353 0.12861,-0.33173 0.15079,-0.48429c0.02306,-0.15255 0.09313,-0.42485 0.15699,-0.6058c0.06297,-0.18094 0.11531,-0.4692 0.11619,-0.64127c0.00089,-0.17207 0.04524,-0.48517 0.09934,-0.69716c0.14103,-0.55347 0.14103,-2.57043 0,-3.21259c-0.05499,-0.25013 -0.10022,-0.57742 -0.10022,-0.72466c0,-0.14812 -0.05411,-0.42663 -0.12063,-0.6191c-0.06741,-0.19247 -0.14546,-0.47985 -0.17473,-0.63773c-0.0612,-0.33261 -0.26077,-0.92688 -0.38761,-1.15483c-0.0479,-0.08604 -0.08781,-0.1907 -0.08781,-0.23239c0,-0.08248 -0.57209,-1.24352 -0.80093,-1.62403c-0.07805,-0.13039 -0.1836,-0.31665 -0.23505,-0.4151c-0.05144,-0.09757 -0.17384,-0.28472 -0.27141,-0.4151c-0.09668,-0.1295 -0.22085,-0.30335 -0.27585,-0.38406c-0.38671,-0.58363 -2.21741,-2.44892 -2.58107,-2.63341c-0.03991,-0.01862 -0.17739,-0.1153 -0.30778,-0.21287c-0.42929,-0.32019 -0.74594,-0.53041 -0.79827,-0.53041c-0.02838,0 -0.12683,-0.06208 -0.21908,-0.13747c-0.14635,-0.11886 -1.14064,-0.6262 -1.64887,-0.84085c-0.55879,-0.23593 -0.85592,-0.34414 -1.08033,-0.38938c-0.13836,-0.02749 -0.32463,-0.08958 -0.41598,-0.13659c-0.09048,-0.04701 -0.29714,-0.10378 -0.45945,-0.12772c-0.16232,-0.02218 -0.50912,-0.09048 -0.76989,-0.14902c-0.54903,-0.12506 -2.69993,-0.19335 -3.7909,-0.11974m3.25694,1.75176c0.39027,0.08161 0.76723,0.14901 0.8373,0.14901c0.07096,0 0.2448,0.05234 0.38672,0.1162c0.14191,0.06475 0.32552,0.11796 0.40623,0.11796c0.08249,0.00178 0.24303,0.05234 0.35656,0.11265c0.11353,0.0612 0.29891,0.13038 0.41333,0.15522c0.11442,0.02306 0.24835,0.07716 0.29713,0.11797c0.04878,0.0408 0.18626,0.10643 0.30601,0.14546c0.11974,0.03814 0.24923,0.10732 0.28737,0.15522c0.0408,0.04701 0.11353,0.08603 0.16587,0.08603c0.05144,0 0.18803,0.06032 0.30423,0.13393c0.27407,0.17651 0.40977,0.25811 0.61999,0.37519c0.97122,0.54105 3.35184,2.90659 3.35184,3.32879c0,0.03193 0.03903,0.08958 0.08693,0.1295c0.15876,0.13127 0.97477,1.66395 0.97744,1.83779c0.00177,0.04967 0.05587,0.16853 0.12062,0.26698c0.06475,0.09757 0.11797,0.23948 0.11797,0.3131c0,0.07539 0.04257,0.21819 0.09402,0.31665c0.05056,0.09934 0.13038,0.36365 0.17739,0.58628c0.04612,0.22352 0.11176,0.47808 0.14546,0.56589c0.25545,0.67321 0.23416,4.16076 -0.02927,4.78696c-0.04257,0.10111 -0.11087,0.35833 -0.14901,0.57032c-0.03902,0.21199 -0.09668,0.40002 -0.12772,0.41865c-0.03016,0.0204 -0.07184,0.13925 -0.09047,0.26698c-0.01951,0.12772 -0.0816,0.31221 -0.13837,0.41066c-0.05676,0.09757 -0.12151,0.25456 -0.14457,0.34947c-0.02306,0.09579 -0.09225,0.23948 -0.15522,0.32019c-0.06386,0.07983 -0.11442,0.18981 -0.11442,0.24303c0,0.05322 -0.04701,0.1632 -0.10378,0.24392c-0.11974,0.16852 -0.2652,0.42485 -0.38583,0.67941c-0.04701,0.09668 -0.12949,0.21465 -0.18271,0.25811c-0.05499,0.04612 -0.09846,0.11265 -0.09846,0.15079c0,0.03814 -0.05233,0.13481 -0.1153,0.21553c-0.57121,0.72465 -0.77432,0.96679 -1.09097,1.30118c-0.38761,0.40889 -1.16725,1.11847 -1.33134,1.20982c-0.05499,0.03105 -0.12595,0.08604 -0.15877,0.1224c-0.05055,0.05854 -0.66433,0.46389 -1.00759,0.66434c-0.33261,0.19602 -1.40762,0.72909 -1.47148,0.72909c-0.03903,0 -0.17651,0.05322 -0.30423,0.11708c-0.12595,0.06475 -0.32552,0.13482 -0.44082,0.15788c-0.11531,0.02129 -0.31665,0.08781 -0.44703,0.14724c-0.13216,0.05942 -0.31842,0.10909 -0.41599,0.10998c-0.09757,0.00089 -0.35124,0.05854 -0.56234,0.12684c-0.54016,0.1765 -3.20018,0.23149 -3.94079,0.08248c-0.25988,-0.05233 -0.66523,-0.13304 -0.90205,-0.18005c-0.23593,-0.04701 -0.50202,-0.12151 -0.59249,-0.16675c-0.09047,-0.04612 -0.26521,-0.102 -0.39027,-0.12418c-0.12506,-0.02306 -0.31132,-0.09224 -0.41421,-0.1561c-0.10378,-0.06298 -0.25811,-0.11442 -0.34415,-0.11442c-0.08603,0 -0.18803,-0.03991 -0.22706,-0.08604c-0.03991,-0.04789 -0.16941,-0.11708 -0.28915,-0.1561c-0.11885,-0.03814 -0.25633,-0.10378 -0.306,-0.14635c-0.04879,-0.04169 -0.15966,-0.09491 -0.24747,-0.11708c-0.08692,-0.02129 -0.204,-0.08959 -0.26077,-0.15167c-0.05676,-0.06298 -0.12949,-0.11353 -0.16142,-0.11353c-0.05588,0 -0.30246,-0.16143 -0.95882,-0.62709c-0.67232,-0.47542 -1.96729,-1.75265 -2.33449,-2.29991c-0.08427,-0.12772 -0.19425,-0.28915 -0.24303,-0.35833c-0.04879,-0.06918 -0.1428,-0.21287 -0.20755,-0.3202c-0.06564,-0.10643 -0.21731,-0.34591 -0.33882,-0.53129c-0.12152,-0.18449 -0.22175,-0.37607 -0.22352,-0.42486c-0.00089,-0.04967 -0.05499,-0.1561 -0.11885,-0.2377c-0.06387,-0.08072 -0.11708,-0.17385 -0.11886,-0.20667c-0.00177,-0.03282 -0.06918,-0.19247 -0.14901,-0.35567c-0.07983,-0.1632 -0.14546,-0.33705 -0.14635,-0.38672c-0.00088,-0.04878 -0.05144,-0.18183 -0.11087,-0.29536c-0.06209,-0.11442 -0.13127,-0.32729 -0.15611,-0.47364c-0.02394,-0.14635 -0.08071,-0.33705 -0.12506,-0.42397c-0.04346,-0.08692 -0.10643,-0.37962 -0.13836,-0.65103c-0.03282,-0.2723 -0.09934,-0.64039 -0.14901,-0.81956c-0.14015,-0.50823 -0.12684,-2.3886 0.0204,-2.93409c0.0612,-0.22795 0.12683,-0.59338 0.14546,-0.81246c0.01862,-0.2182 0.0745,-0.47542 0.12417,-0.5721c0.04879,-0.0949 0.10821,-0.28826 0.1295,-0.43017c0.02217,-0.14192 0.08958,-0.35036 0.15079,-0.46389c0.05942,-0.11442 0.10821,-0.2448 0.10821,-0.29092c0,-0.16143 0.62176,-1.42447 0.99429,-2.02052c0.1969,-0.31664 0.22529,-0.35744 0.65014,-0.91978c0.51977,-0.69095 1.94069,-2.10211 2.11542,-2.10211c0.02306,0 0.16764,-0.10644 0.32108,-0.23682c0.15522,-0.13039 0.31133,-0.23771 0.34681,-0.23771c0.03636,0 0.14102,-0.06031 0.23327,-0.13571c0.09224,-0.07361 0.23416,-0.16852 0.31576,-0.21021c0.0816,-0.0408 0.22795,-0.11442 0.32552,-0.16231c0.09756,-0.04967 0.21819,-0.11531 0.26697,-0.14635c0.04879,-0.03193 0.15522,-0.08692 0.23682,-0.1224c0.0816,-0.03726 0.28206,-0.1295 0.44437,-0.20755c0.16409,-0.07717 0.33882,-0.14014 0.38761,-0.14014c0.04967,0 0.14191,-0.03726 0.20577,-0.08161c0.06475,-0.04523 0.2111,-0.10111 0.32463,-0.12506c0.11442,-0.02483 0.3681,-0.09313 0.56323,-0.15078c0.19602,-0.05943 0.64926,-0.16143 1.00759,-0.22884c0.35745,-0.06652 0.70514,-0.13304 0.76989,-0.14546c0.47453,-0.09934 2.3478,-0.03016 3.02012,0.10909m-2.4835,3.24187c-0.07362,0.10466 -0.09225,0.31133 -0.09225,1.00582c0,1.0546 0.01951,1.028 -0.82931,1.0892c-0.31044,0.02217 -0.69627,0.08958 -0.85947,0.14812c-0.16232,0.05854 -0.4018,0.12506 -0.53307,0.14812c-0.13039,0.02306 -0.32995,0.08781 -0.44349,0.14724c-0.11441,0.05677 -0.36809,0.18272 -0.56411,0.27762c-0.64571,0.31665 -0.76013,0.39559 -1.18676,0.81867c-1.50163,1.48567 -1.00582,3.38822 1.15749,4.43572c0.17917,0.08781 0.42397,0.20933 0.54549,0.27408c0.12063,0.06209 0.2723,0.11442 0.33882,0.11442c0.06475,0 0.25279,0.05321 0.41865,0.11796c0.16409,0.06564 0.45147,0.13305 0.63862,0.15167c0.74239,0.0754 1.25771,0.21376 1.28965,0.34592c0.01685,0.0683 0.02306,0.84439 0.01419,1.72515l-0.01597,1.5992l-0.48783,-0.00975c-0.31044,-0.00621 -0.55702,-0.04524 -0.67853,-0.10466c-0.10466,-0.05234 -0.29891,-0.11176 -0.43018,-0.13039c-0.21376,-0.03193 -0.67942,-0.21287 -1.01114,-0.39381c-0.06475,-0.03459 -0.17651,-0.09402 -0.24658,-0.13127c-0.07184,-0.03814 -0.24746,-0.19336 -0.39115,-0.34592c-0.17473,-0.1836 -0.31044,-0.27585 -0.40446,-0.27407c-0.16852,0.00354 -0.64394,0.12595 -0.7486,0.19336c-0.03991,0.0266 -0.20666,0.08603 -0.36986,0.13482c-0.33262,0.09845 -0.34681,0.13747 -0.18627,0.51089c0.22707,0.53218 1.6063,1.6471 2.03471,1.64621c0.0408,0 0.18271,0.05056 0.31221,0.11264c0.40889,0.19336 1.04307,0.361 1.68878,0.44704c0.34237,0.04434 0.69539,0.10998 0.78586,0.14457l0.16231,0.06386l0,0.92334c0,1.21248 -0.0408,1.15305 0.79739,1.15305c0.94195,0 0.86124,0.09668 0.86124,-1.03597c0,-0.72732 0.01863,-0.9801 0.07894,-1.02977c0.10555,-0.08781 0.6945,-0.22795 1.16459,-0.27762c0.21198,-0.02218 0.45235,-0.07451 0.53307,-0.11531c0.08248,-0.04169 0.24125,-0.09313 0.35567,-0.11797c0.32995,-0.06475 1.25683,-0.49226 1.55042,-0.71223c0.08781,-0.06564 0.27052,-0.19779 0.40712,-0.29625c0.21198,-0.15256 0.38494,-0.34414 0.79206,-0.87898c0.04701,-0.05943 0.10111,-0.20578 0.12329,-0.32552c0.02306,-0.11974 0.06741,-0.24924 0.09845,-0.28649c0.204,-0.24658 0.00089,-1.50784 -0.27851,-1.74112c-0.04701,-0.03814 -0.08515,-0.102 -0.08515,-0.14102c0,-0.03903 -0.0612,-0.12773 -0.13482,-0.1978c-0.07273,-0.07007 -0.18626,-0.18449 -0.25101,-0.25367c-0.25988,-0.27762 -0.79738,-0.64483 -1.24619,-0.85149c-0.25899,-0.11974 -0.54726,-0.25633 -0.63861,-0.30334c-0.09313,-0.04701 -0.21908,-0.08604 -0.28117,-0.08604c-0.06032,0 -0.31576,-0.06563 -0.565,-0.14723c-0.24924,-0.08161 -0.5854,-0.14902 -0.74594,-0.14902c-0.91003,0 -0.88785,0.05145 -0.86479,-2.04091l0.01774,-1.53889l0.19513,-0.05587c0.48606,-0.13926 2.32918,0.54903 2.89151,1.07944c0.30778,0.29181 0.52864,0.31132 0.83198,0.07184c0.08515,-0.06652 0.20134,-0.12152 0.25811,-0.12152c0.05587,0 0.16941,-0.05233 0.25101,-0.11707c0.08249,-0.06564 0.21908,-0.14369 0.30334,-0.17651c0.17739,-0.06652 0.19513,-0.13305 0.06741,-0.24037c-0.04878,-0.0408 -0.0887,-0.10644 -0.0887,-0.14724c0,-0.09401 -0.7894,-0.84439 -0.98098,-0.93131c-0.07894,-0.03548 -0.14458,-0.08604 -0.14458,-0.11087c0,-0.02484 -0.09136,-0.07539 -0.20311,-0.11176c-0.11176,-0.03725 -0.23328,-0.10378 -0.27053,-0.14901c-0.03725,-0.04524 -0.15344,-0.10112 -0.25633,-0.12329c-0.10378,-0.02129 -0.26875,-0.0816 -0.36632,-0.13216c-0.09845,-0.04967 -0.32463,-0.12417 -0.50291,-0.16497c-0.18005,-0.04169 -0.43373,-0.1162 -0.56411,-0.16587c-0.13039,-0.04967 -0.35745,-0.09313 -0.50291,-0.09579c-0.90027,-0.01774 -0.94817,-0.07628 -0.94994,-1.18144c-0.00266,-1.11492 0.03193,-1.06968 -0.81601,-1.06968c-0.61112,0 -0.66346,0.00887 -0.7486,0.13127m28.34392,3.33766c-0.14635,0.04612 -0.33261,0.08515 -0.41421,0.08515c-0.63418,0.00354 -2.48795,1.51582 -2.48795,2.03026c0,0.02927 -0.05321,0.12241 -0.11796,0.20489c-0.06564,0.08338 -0.11886,0.20844 -0.11886,0.27851c0,0.07007 -0.05321,0.27851 -0.11885,0.46389c-0.10644,0.30245 -0.11797,0.4896 -0.11797,1.79344c0,0.89229 -0.02394,1.50253 -0.0612,1.57171c-0.06031,0.11264 -0.1765,0.1153 -4.85526,0.1153l-4.79317,0l-0.09224,0.13216c-0.13571,0.19425 -0.13482,1.4972 0.00089,1.55042c0.05233,0.01863 2.24846,0.03548 4.88098,0.03548c3.78203,0 4.80026,0.01597 4.84905,0.07451c0.03902,0.047 0.06918,0.67675 0.08071,1.67902c0.01419,1.14064 0.0408,1.63025 0.09047,1.69145c0.03991,0.04701 0.09136,0.204 0.11265,0.34947c0.02394,0.14546 0.10555,0.35567 0.18182,0.4692c0.0754,0.11353 0.13837,0.23682 0.13837,0.27319c0,0.03636 0.05322,0.11442 0.11797,0.17296c0.06563,0.05854 0.11974,0.13748 0.11974,0.17207c0.00177,0.16143 0.96679,1.01291 1.39254,1.22756c0.09668,0.04967 0.22972,0.11708 0.29536,0.15256c0.06475,0.03548 0.31842,0.12684 0.56145,0.20311l0.44525,0.14103l3.9816,0.01685c4.27164,0.01863 4.08803,0.03016 4.43661,-0.26963c0.24303,-0.21021 0.26166,-0.31665 0.26166,-1.60541c0,-1.05195 0.0133,-1.25861 0.09313,-1.33666c0.08071,-0.0816 0.38317,-0.09402 2.42585,-0.09402c2.75138,0 2.46843,0.11176 2.4436,-0.96147l-0.01685,-0.72643l-2.42586,-0.01597c-1.85021,-0.01153 -2.4365,-0.03281 -2.47286,-0.08869c-0.02484,-0.03992 -0.04613,-1.13355 -0.04701,-2.42941l0,-2.35756l0.15167,-0.05676c0.08869,-0.03371 1.10072,-0.05765 2.45246,-0.05765c2.04269,0 2.30434,-0.01153 2.33627,-0.09402c0.0683,-0.17917 0.03903,-1.41915 -0.03547,-1.49454c-0.05234,-0.05233 -0.67942,-0.07096 -2.45158,-0.07096c-2.11808,0 -2.38506,-0.00976 -2.41787,-0.09313c-0.01952,-0.05145 -0.03548,-0.6537 -0.03548,-1.33666c0,-1.43423 -0.03105,-1.53889 -0.52775,-1.79522c-0.25456,-0.13127 -7.82305,-0.13127 -8.2417,0m-28.46544,2.09945l0,1.68878l-0.5038,-0.0133c-0.34769,-0.01064 -0.58983,-0.05144 -0.78141,-0.13393c-0.15256,-0.06652 -0.34326,-0.11886 -0.42397,-0.11886c-0.12595,0 -0.58363,-0.19069 -0.86923,-0.36277c-0.04879,-0.02838 -0.15433,-0.08071 -0.23505,-0.1153c-0.19336,-0.08249 -0.70691,-0.63773 -0.74949,-0.8098c-0.09934,-0.39115 0.37076,-0.90116 1.16282,-1.26127c0.0816,-0.03725 0.22795,-0.1091 0.32552,-0.15965c0.09845,-0.04967 0.32463,-0.12595 0.50379,-0.16853c0.17917,-0.04257 0.45945,-0.11885 0.62177,-0.16763c0.1632,-0.04967 0.44348,-0.08427 0.62265,-0.07717l0.3264,0.01064l0,1.68879m35.4237,-0.41599l0.15344,0.05854l-0.01596,5.65442c-0.00798,3.1097 -0.03725,5.67659 -0.06475,5.7032c-0.10732,0.10732 -6.18748,0.0949 -6.73385,-0.01419c-0.71934,-0.14458 -1.17435,-0.45236 -1.6134,-1.09186c-0.29891,-0.43462 -0.30334,-0.49848 -0.3264,-4.44282c-0.02218,-3.74921 -0.00532,-4.14657 0.19424,-4.50313c0.04524,-0.0816 0.11708,-0.21376 0.15877,-0.29359c0.25722,-0.49049 0.97833,-0.98365 1.55663,-1.06347c0.51887,-0.07185 6.50502,-0.07717 6.69128,-0.0071m-32.75215,4.0969c0.03548,0.02839 0.20843,0.07894 0.38494,0.11087c0.17562,0.03282 0.42663,0.11176 0.55613,0.17385c0.13127,0.0612 0.30423,0.1428 0.38583,0.18005c1.1025,0.50114 1.45463,1.31449 0.77876,1.80321c-0.41688,0.30157 -0.66523,0.4488 -0.82488,0.48872c-0.0887,0.02217 -0.24126,0.08869 -0.33971,0.14901c-0.09668,0.05942 -0.25722,0.10821 -0.35479,0.10821c-0.09756,0.00088 -0.25811,0.04346 -0.35478,0.0949c-0.24569,0.1295 -0.87633,0.21376 -1.06437,0.1428l-0.15078,-0.05765l0,-1.59831c0,-1.45906 0.00887,-1.60187 0.10378,-1.65863c0.11441,-0.06741 0.77343,-0.0204 0.87987,0.06297m-12.40424,11.03476c-0.09491,0.102 -0.25545,0.31754 -0.35656,0.48074c-0.10378,0.16231 -0.21642,0.32995 -0.25101,0.37075c-0.03548,0.04258 -0.09313,0.16232 -0.12861,0.26787c-0.03548,0.10466 -0.09846,0.23061 -0.14014,0.28028c-0.04169,0.04789 -0.09402,0.16852 -0.11531,0.2652c-0.02129,0.09934 -0.08781,0.31221 -0.14812,0.47541c-0.27674,0.7486 -0.27496,3.12834 0.00266,3.90976c0.05854,0.16231 0.12329,0.40002 0.14457,0.52685c0.02129,0.12595 0.09136,0.32552 0.15434,0.4426c0.06208,0.11708 0.11353,0.25811 0.11353,0.31221c0,0.08338 0.17917,0.49759 0.35656,0.82134c0.02749,0.04967 0.13659,0.26165 0.24391,0.47452c0.10733,0.2111 0.25545,0.45945 0.32996,0.5517c0.0745,0.09224 0.1357,0.19247 0.1357,0.22263c0,0.06031 0.71579,1.07589 0.89495,1.26925c0.06032,0.06474 0.1836,0.20134 0.27319,0.30245c0.89938,1.00848 2.25467,2.21476 2.98464,2.65913c0.05322,0.03282 0.20134,0.12063 0.32729,0.19513c0.12684,0.07362 0.35036,0.21376 0.49671,0.30955c0.14723,0.09668 0.30777,0.1907 0.35478,0.21021c0.04967,0.01863 0.1428,0.06387 0.20844,0.10023c0.13127,0.07362 0.34148,0.17385 0.73973,0.3539c0.14724,0.06564 0.36543,0.1703 0.48606,0.2315c0.12063,0.06031 0.26698,0.11087 0.32552,0.11087c0.05942,0 0.24036,0.06652 0.40268,0.14635c0.1632,0.07983 0.32463,0.14724 0.35922,0.14812c0.14635,0.00444 0.19957,0.13394 0.12063,0.29182c-0.04258,0.08426 -0.09491,0.2927 -0.11619,0.46122c-0.02307,0.16941 -0.08515,0.40889 -0.14192,0.53307c-0.14901,0.33527 -0.1499,2.32562 0,2.61655c0.05588,0.1091 0.11974,0.29536 0.1428,0.41421c0.02218,0.11886 0.10289,0.33262 0.17828,0.47719c0.07628,0.14369 0.13837,0.2927 0.13837,0.33261c0,0.03814 0.0541,0.11797 0.11974,0.1774c0.06475,0.05854 0.11885,0.13127 0.11885,0.16054c0,0.02927 0.08515,0.1632 0.19159,0.29625c0.70957,0.89583 1.64444,1.47857 1.64444,1.02267c0,-0.03459 0.04967,-0.11885 0.11087,-0.18449c0.0612,-0.06652 0.13127,-0.1836 0.15522,-0.26343c0.02394,-0.07894 0.08869,-0.19691 0.14457,-0.26165c0.3202,-0.37874 0.2998,-0.43373 -0.36188,-0.99696c-0.69538,-0.59072 -1.14951,-1.8777 -1.00227,-2.84273c0.12062,-0.79028 0.22351,-1.25417 0.31487,-1.43333c0.04967,-0.09757 0.11176,-0.27053 0.13571,-0.38406c0.02483,-0.11353 0.07982,-0.26077 0.1224,-0.32552c0.22529,-0.34414 0.26165,-0.76545 0.26165,-3.0015c0,-2.25378 0.05145,-2.83208 0.27141,-3.076c0.04524,-0.05055 0.09934,-0.1765 0.12063,-0.27851c0.01952,-0.10111 0.08692,-0.23061 0.14901,-0.28649c0.06032,-0.05587 0.11087,-0.14812 0.11087,-0.20577c0,-0.05766 0.06653,-0.1836 0.14901,-0.28117c0.08072,-0.09668 0.14724,-0.19336 0.14724,-0.21465c0,-0.18892 1.83336,-2.2254 2.00189,-2.2254c0.03636,0 0.08692,-0.03548 0.11353,-0.07982c0.05144,-0.08781 0.70248,-0.55259 0.95437,-0.68297c0.08781,-0.04435 0.21288,-0.12684 0.27762,-0.18094c0.06475,-0.05499 0.29182,-0.18715 0.5038,-0.29359c0.2111,-0.10643 0.42486,-0.21553 0.47364,-0.24303c0.04879,-0.02749 0.24835,-0.12062 0.44349,-0.20666c0.19602,-0.0887 0.46299,-0.21021 0.59338,-0.27141c0.13038,-0.06209 0.32995,-0.13127 0.44348,-0.15256c0.11442,-0.02217 0.26166,-0.07451 0.3264,-0.11708c0.06564,-0.04169 0.2519,-0.10377 0.41511,-0.14014c0.1632,-0.03548 0.37607,-0.10111 0.47364,-0.14546c0.09845,-0.04346 0.29713,-0.09846 0.44437,-0.12063c0.14723,-0.02217 0.40091,-0.08781 0.56322,-0.14724c0.45413,-0.16409 1.0209,-0.29979 1.51051,-0.36188c0.24391,-0.03104 0.58185,-0.09668 0.75126,-0.14458c0.16852,-0.04967 0.47541,-0.10466 0.68119,-0.1224c0.20577,-0.01862 0.53484,-0.07362 0.72997,-0.12151c0.76191,-0.1907 1.82361,-0.259 1.9398,-0.12684c0.14812,0.16764 0.16054,5.74755 0.0133,6.03227l-0.08958,0.17384l-4.51998,0c-3.43434,0 -4.53596,0.01685 -4.58829,0.07185c-0.11885,0.11708 -0.09845,1.50518 0.02129,1.5513c0.05145,0.0204 6.25755,0.03637 13.79057,0.03637c13.58301,0 13.69743,0.00088 13.9174,0.11885c0.12063,0.06386 0.25722,0.11797 0.30068,0.11797c0.04435,0 0.20578,0.06652 0.35922,0.14812c0.15256,0.0816 0.31931,0.14813 0.37076,0.14813c0.04878,0 0.16142,0.04967 0.24835,0.10998c0.08603,0.06031 0.23504,0.12861 0.32995,0.15167c0.0949,0.02306 0.23859,0.09313 0.31931,0.15611c0.07982,0.06386 0.18183,0.1153 0.22706,0.1153c0.06741,0 0.259,0.08781 0.79029,0.36366c0.04967,0.02572 0.40978,0.21021 0.80093,0.41155c0.39027,0.20046 0.8169,0.42752 0.94817,0.5038c0.13038,0.07539 0.34148,0.19602 0.4692,0.26609c0.12861,0.07007 0.27053,0.16409 0.31576,0.21021c0.04435,0.04435 0.1162,0.0816 0.157,0.0816c0.04168,0 0.12329,0.05233 0.1836,0.11797c0.05943,0.06563 0.14103,0.11974 0.18183,0.11974c0.04169,0 0.11087,0.03193 0.15433,0.07273c0.1091,0.10466 0.5242,0.41776 0.64571,0.48872c0.5313,0.31221 1.77216,1.64355 1.77216,1.90343c0,0.03637 0.05943,0.19691 0.13216,0.35567c0.55879,1.232 -0.20578,3.82372 -1.28255,4.34437c-0.39204,0.1907 -0.42486,0.25101 -0.33794,0.61378c0.0408,0.16853 0.10555,0.48074 0.14458,0.69184c0.09756,0.53129 0.29979,0.6466 0.64926,0.36986c0.0408,-0.03193 0.1703,-0.08958 0.29004,-0.12772c0.11885,-0.03814 0.23149,-0.10821 0.24923,-0.15611c0.01863,-0.04701 0.06387,-0.08603 0.10023,-0.08603c0.15256,0 1.12201,-1.01026 1.12201,-1.16903c0,-0.03104 0.05056,-0.102 0.11354,-0.15788c0.0612,-0.05676 0.12949,-0.17296 0.15078,-0.25899c0.02217,-0.08426 0.08692,-0.22174 0.14546,-0.30601c0.05943,-0.08337 0.12418,-0.24835 0.14635,-0.3672c0.02129,-0.11974 0.08249,-0.30423 0.13482,-0.41067c0.39027,-0.78053 0.18981,-3.39708 -0.32906,-4.29469c-0.17651,-0.30689 -0.19425,-0.33527 -0.32995,-0.53573c-0.12773,-0.18804 -1.43157,-1.50518 -1.49011,-1.50518c-0.0204,0 -0.16054,-0.10023 -0.31133,-0.22352c-0.15078,-0.12417 -0.33172,-0.26343 -0.40179,-0.31132c-0.81512,-0.55525 -1.13798,-0.76013 -1.24974,-0.79473c-0.07362,-0.02217 -0.13393,-0.0612 -0.13393,-0.08603c0,-0.02572 -0.10644,-0.09491 -0.23682,-0.15345c-0.13127,-0.05942 -0.23682,-0.12772 -0.23682,-0.15256c0,-0.02483 -0.07805,-0.06297 -0.17207,-0.08337c-0.09402,-0.0204 -0.2182,-0.0887 -0.27496,-0.15256c-0.05766,-0.06386 -0.14901,-0.1153 -0.20223,-0.1153c-0.05499,0 -0.18804,-0.06653 -0.29891,-0.14813c-0.11087,-0.0816 -0.24569,-0.14812 -0.30068,-0.14812c-0.05499,0 -0.13216,-0.03992 -0.17296,-0.0887c-0.03991,-0.04878 -0.17739,-0.11974 -0.30423,-0.15699c-0.12684,-0.03814 -0.26077,-0.10555 -0.29625,-0.14901c-0.03725,-0.04346 -0.0949,-0.07894 -0.13215,-0.07894c-0.03637,0 -0.21288,-0.06919 -0.39204,-0.15522c-0.18006,-0.08426 -0.47364,-0.22174 -0.6537,-0.30334c-0.17917,-0.08249 -0.41865,-0.19602 -0.53218,-0.25279c-0.11442,-0.05677 -0.2927,-0.12151 -0.39559,-0.14458c-0.10466,-0.02306 -0.22085,-0.07982 -0.25988,-0.12506c-0.03902,-0.04701 -0.11353,-0.08603 -0.16675,-0.08603c-0.05322,0 -0.22972,-0.06564 -0.39204,-0.14635c-0.16231,-0.08072 -0.34769,-0.14635 -0.408,-0.14724c-0.06209,-0.00089 -0.19425,-0.05233 -0.29714,-0.11442c-0.10022,-0.06209 -0.27496,-0.13127 -0.38671,-0.15433c-0.11087,-0.02395 -0.28472,-0.09402 -0.38495,-0.15522c-0.10022,-0.06031 -0.24303,-0.11087 -0.31753,-0.11176c-0.20578,0 -0.72022,-0.28205 -0.89584,-0.49049c-0.08337,-0.10112 -0.19691,-0.22529 -0.24924,-0.27673c-0.08692,-0.08338 -0.76722,-0.87367 -0.9118,-1.05727c-0.03282,-0.04346 -0.12595,-0.15167 -0.20755,-0.24214c-0.0816,-0.09047 -0.30866,-0.34592 -0.5038,-0.56677c-0.19513,-0.22175 -0.38139,-0.43284 -0.4151,-0.46921c-0.03281,-0.03637 -0.17916,-0.21198 -0.32551,-0.39115c-0.14635,-0.1774 -0.30601,-0.36721 -0.35568,-0.41954c-0.04878,-0.05322 -0.26165,-0.29092 -0.47364,-0.53129c-0.21198,-0.23948 -0.45235,-0.50646 -0.53307,-0.59427c-0.0816,-0.08692 -0.18803,-0.20844 -0.2377,-0.27052c-0.8648,-1.07057 -1.28699,-1.49543 -1.53357,-1.53978c-0.11797,-0.02129 -0.30689,-0.08426 -0.42042,-0.14103c-0.11442,-0.05588 -0.36543,-0.11974 -0.55879,-0.1428c-0.19425,-0.02129 -0.38317,-0.06563 -0.42131,-0.09668c-0.03903,-0.03193 -0.34769,-0.09845 -0.68563,-0.14812c-0.33793,-0.04879 -0.68207,-0.11442 -0.76456,-0.14635c-0.08072,-0.03193 -0.50646,-0.08426 -0.9464,-0.11886c-0.44082,-0.0337 -1.08032,-0.08692 -1.42269,-0.11974c-0.78674,-0.07273 -2.77532,-0.07273 -3.43523,-0.00177c-0.2785,0.03104 -0.99429,0.08604 -1.5921,0.12329c-0.59782,0.03636 -1.15838,0.09313 -1.24442,0.12595c-0.08692,0.03282 -0.50912,0.09756 -0.94196,0.1428c-0.43195,0.04435 -0.83818,0.10998 -0.90204,0.14458c-0.06386,0.03459 -0.36366,0.08603 -0.66611,0.11619c-0.30157,0.02838 -0.65636,0.09136 -0.78763,0.13925c-0.13039,0.04701 -0.40889,0.10555 -0.61822,0.1295c-0.20932,0.02483 -0.52597,0.0949 -0.70425,0.15522c-0.17828,0.06209 -0.37873,0.11264 -0.44703,0.11264c-0.06918,0 -0.31133,0.06564 -0.54016,0.14635c-0.22707,0.08072 -0.48074,0.14724 -0.56145,0.14813c-0.08161,0.00177 -0.22086,0.03902 -0.30956,0.08603c-0.08781,0.04524 -0.30423,0.11353 -0.48073,0.1499c-0.17562,0.03725 -0.36987,0.10378 -0.43196,0.15078c-0.0612,0.04701 -0.18094,0.08515 -0.2652,0.08693c-0.08515,0 -0.28028,0.06741 -0.43284,0.14901c-0.15344,0.0816 -0.30157,0.14812 -0.33084,0.14812c-0.08958,0 -1.41382,0.65015 -1.45285,0.71135c-0.01863,0.03282 -0.07805,0.05943 -0.13038,0.05943c-0.05145,0 -0.2386,0.10022 -0.41599,0.22262c-0.17828,0.12152 -0.39559,0.26166 -0.4834,0.31044c-0.71223,0.39736 -2.31055,1.85288 -2.96247,2.69904c-0.09845,0.12773 -0.57032,0.80981 -0.6262,0.9056c-0.03104,0.05322 -0.11885,0.19779 -0.19247,0.31931c-0.0745,0.12151 -0.13571,0.2581 -0.13571,0.30423c0,0.04523 -0.03902,0.1153 -0.08781,0.15522c-0.04967,0.0408 -0.11974,0.1836 -0.15876,0.3193c-0.03814,0.13394 -0.102,0.28472 -0.14014,0.33262c-0.03814,0.04878 -0.102,0.22174 -0.14281,0.38494c-0.03902,0.16231 -0.10288,0.33261 -0.14102,0.37873c-0.04879,0.05854 -0.07806,0.67765 -0.09846,2.08438c-0.0337,2.17662 -0.02572,2.13581 -0.32906,1.99213c-0.11531,-0.055 -0.24392,-0.10023 -0.28649,-0.10023c-0.04346,0 -0.20312,-0.06741 -0.35656,-0.14901c-0.15345,-0.08072 -0.32818,-0.14635 -0.38672,-0.14635c-0.05943,0 -0.14014,-0.03991 -0.17917,-0.08604c-0.03991,-0.04789 -0.16941,-0.11796 -0.29004,-0.15699c-0.11885,-0.03991 -0.27939,-0.12151 -0.35744,-0.18094c-0.07806,-0.0612 -0.17208,-0.11087 -0.2111,-0.11087c-0.03725,0 -0.12063,-0.03992 -0.1836,-0.08959c-0.10644,-0.08248 -0.73885,-0.50734 -0.96769,-0.65014c-0.49758,-0.30955 -0.91978,-0.6741 -1.82183,-1.56994c-0.71844,-0.71489 -1.74023,-2.02405 -1.74023,-2.23249c0,-0.03459 -0.03547,-0.09313 -0.07982,-0.1295c-0.04346,-0.03636 -0.16143,-0.23416 -0.259,-0.43816c-0.42308,-0.87632 -0.49138,-1.02622 -0.49138,-1.09097c0,-0.03814 -0.03725,-0.14458 -0.08426,-0.23682c-0.0479,-0.09225 -0.12861,-0.3406 -0.17917,-0.55258c-0.05144,-0.21199 -0.11974,-0.47896 -0.15078,-0.5925c-0.19513,-0.71844 -0.01331,-2.61566 0.30068,-3.13986c0.02927,-0.0479 0.09225,-0.17473 0.13926,-0.28028c0.04789,-0.10555 0.11441,-0.2244 0.14901,-0.26609c0.52242,-0.63684 0.52331,-0.61733 -0.06298,-1.17168c-0.5783,-0.54726 -0.69095,-0.58718 -0.92688,-0.33262m30.9117,2.02584c0.50645,0.01773 1.03863,0.05942 1.18498,0.09047c0.14724,0.03104 0.54638,0.0949 0.88786,0.14191c0.34237,0.0479 0.72908,0.12506 0.85947,0.1703c0.13127,0.04701 0.36277,0.10023 0.51621,0.11885c0.49671,0.06032 0.96502,0.3406 1.2524,0.75304c0.03992,0.05676 0.22086,0.27141 0.40357,0.47807c0.18183,0.20667 0.40712,0.46743 0.50114,0.58008c0.09402,0.11176 0.2244,0.25988 0.28915,0.32729c0.06564,0.06741 0.2519,0.2794 0.4151,0.47009c0.1632,0.1907 0.32729,0.37874 0.36454,0.41776c0.03726,0.03903 0.20933,0.24215 0.3814,0.45147c0.17207,0.20933 0.36809,0.43639 0.4355,0.50469c0.22706,0.23238 0.53928,0.58451 0.85859,0.97122c0.1765,0.21199 0.37075,0.43018 0.43195,0.48695c0.18981,0.1703 0.23771,0.44348 0.08515,0.48517c-0.07096,0.01774 -2.97489,0.03371 -6.45446,0.03371l-6.32585,0.00088l-0.05677,-0.15167c-0.09668,-0.25101 -0.07717,-6.21587 0.01951,-6.29658c0.13216,-0.1091 1.6471,-0.1224 3.95056,-0.0337m-13.53779,15.15915c-0.61023,0.12329 -0.91712,0.22529 -1.27279,0.4222c-0.08249,0.04523 -0.2315,0.12063 -0.3335,0.16941c-0.102,0.04878 -0.20134,0.1295 -0.22086,0.17828c-0.01862,0.05056 -0.07096,0.09136 -0.11442,0.09136c-0.09756,0 -1.06968,1.00937 -1.18587,1.232c-0.45058,0.8639 -0.51533,1.03509 -0.69361,1.81917c-0.08426,0.37163 -0.06741,1.27368 0.03016,1.63201c0.04878,0.1774 0.11796,0.45591 0.15522,0.62c0.03547,0.16231 0.102,0.33793 0.14723,0.38849c0.04524,0.05233 0.08249,0.13304 0.08249,0.17916c0,0.04701 0.06652,0.18361 0.14901,0.30423c0.08071,0.11886 0.14724,0.24126 0.14724,0.26964c0,0.157 1.22224,1.28522 1.6125,1.48833c0.10733,0.05499 0.24747,0.13039 0.31222,0.16587c0.92333,0.50734 2.96424,0.61555 3.74211,0.19868c0.12418,-0.06741 0.26698,-0.12152 0.31665,-0.12329c0.04878,0 0.19868,-0.07273 0.33261,-0.16232c0.13305,-0.08869 0.35035,-0.23327 0.48162,-0.32019c0.32641,-0.2182 0.91269,-0.80182 1.11936,-1.11581c0.32019,-0.48517 0.54903,-0.91801 0.55169,-1.03952c0.00177,-0.06741 0.07805,-0.19425 0.16941,-0.28206l0.16675,-0.15877l7.79556,0l7.79555,0l0.18449,0.17119c0.102,0.09757 0.18449,0.23416 0.18449,0.31132c0.00089,0.07717 0.05322,0.20667 0.11708,0.28738c0.06475,0.0816 0.11797,0.1774 0.11797,0.21287c0.00443,0.23682 0.95526,1.28167 1.50518,1.65597c0.40623,0.27585 0.63507,0.39914 0.95438,0.51799c2.16863,0.79561 4.64682,-0.00177 5.77327,-1.86086c0.2581,-0.42663 0.47275,-0.88342 0.51089,-1.09008c0.02395,-0.1295 0.08337,-0.32906 0.13216,-0.4426c0.12329,-0.29447 0.12506,-1.78369 0.00088,-2.07372c-0.04967,-0.11354 -0.10821,-0.31399 -0.13127,-0.44438c-0.02395,-0.12949 -0.09579,-0.32551 -0.15788,-0.43284c-0.06297,-0.10732 -0.1153,-0.22085 -0.1153,-0.25101c0,-0.14457 -0.4834,-0.78408 -0.89407,-1.18144c-0.64216,-0.62265 -0.71844,-0.68119 -1.20805,-0.92865c-0.06563,-0.03282 -0.21198,-0.10644 -0.32551,-0.16498c-0.11442,-0.05854 -0.40801,-0.14191 -0.65281,-0.18715c-1.30828,-0.23948 -1.16991,-0.23416 -1.96108,-0.08337c-0.40357,0.07628 -0.82666,0.18803 -0.94108,0.24746c-0.11353,0.05943 -0.2448,0.10821 -0.29181,0.10821c-0.09579,0 -0.8169,0.46743 -1.12645,0.73175c-0.77343,0.65724 -1.45462,1.88569 -1.58235,2.85249c-0.02217,0.1632 -0.06918,0.31664 -0.10466,0.34059c-0.11885,0.07894 -15.52459,0.05411 -15.60441,-0.02572c-0.03903,-0.03991 -0.07185,-0.20666 -0.07185,-0.37075c-0.00089,-0.16941 -0.05322,-0.41067 -0.11885,-0.55702c-0.06475,-0.1428 -0.11886,-0.30245 -0.12063,-0.35567c-0.00089,-0.05322 -0.08781,-0.24569 -0.19247,-0.42663c-0.54992,-0.95793 -1.21692,-1.64444 -1.96641,-2.02761c-0.58274,-0.29714 -0.83463,-0.39293 -1.21514,-0.45502c-0.2111,-0.03547 -0.49138,-0.08869 -0.62265,-0.11974c-0.33883,-0.08248 -0.62265,-0.06386 -1.36239,0.08515m1.63202,1.69145c0.62886,0.11885 1.83514,0.98365 1.83514,1.31448c0,0.04879 0.05056,0.13571 0.11442,0.19248c0.06297,0.05765 0.14103,0.21553 0.17296,0.35035c0.03281,0.13482 0.09934,0.35212 0.14901,0.48251c0.05055,0.13127 0.09135,0.42131 0.09135,0.65192c0,0.22972 -0.0408,0.52065 -0.09135,0.65192c-0.04967,0.13038 -0.1162,0.3468 -0.14901,0.48251c-0.03193,0.13482 -0.10999,0.2927 -0.17296,0.34947c-0.06386,0.05765 -0.11619,0.13393 -0.11708,0.16941c-0.00887,0.2244 -0.87278,0.95437 -1.42004,1.19652c-0.52774,0.23504 -1.70563,0.25544 -2.11541,0.03725c-0.13748,-0.07185 -0.28738,-0.13305 -0.33528,-0.13305c-0.23061,0 -1.2994,-1.01469 -1.37125,-1.30118c-0.02129,-0.0816 -0.07716,-0.19247 -0.12595,-0.24746c-0.32019,-0.35568 -0.28294,-1.89102 0.0612,-2.56777c0.20312,-0.39914 1.1504,-1.39254 1.32602,-1.39254c0.05854,0 0.16498,-0.0408 0.23682,-0.09225c0.26786,-0.18715 1.28167,-0.26342 1.91141,-0.14457m25.236,0.00355c1.70297,0.39026 2.84893,2.71589 2.05687,4.17318c-0.03636,0.06475 -0.11353,0.21908 -0.17384,0.34148c-0.15966,0.3264 -1.10605,1.22756 -1.28699,1.22756c-0.03725,0 -0.17917,0.06032 -0.31665,0.13216c-0.37607,0.19868 -1.67637,0.19957 -2.02583,0.00178c-0.1295,-0.07274 -0.27762,-0.13394 -0.32907,-0.13394c-0.05144,0 -0.15344,-0.04612 -0.22795,-0.10289c-0.56943,-0.43461 -0.78674,-0.63861 -0.94639,-0.88608c-0.102,-0.1561 -0.22529,-0.33616 -0.27407,-0.39913c-0.04967,-0.06475 -0.09048,-0.17119 -0.09136,-0.23771c-0.00089,-0.06652 -0.05322,-0.23859 -0.11797,-0.37873c-0.16409,-0.36189 -0.16409,-1.13532 0,-1.52026c0.06564,-0.15168 0.11974,-0.33705 0.11974,-0.41156c0,-0.07539 0.04169,-0.17118 0.09313,-0.21376c0.05056,-0.04257 0.14192,-0.17384 0.20134,-0.29092c0.5109,-1.00139 2.0285,-1.59566 3.31904,-1.30118" fill="#089344" fill-rule="evenodd" id="path0"/>
 </g>
 <g class="layer">
  <title>Layer 2</title>
 </g>
</svg>