<?xml version="1.0"?>
<svg width="32" height="32" xmlns="http://www.w3.org/2000/svg" xmlns:svg="http://www.w3.org/2000/svg">
 <g class="currentLayer layer">
  <title>Layer 1</title>
  <g fill="#0078d3" id="svg_1">
   <path d="m30.40536,4.24686c0,-0.46615 -0.37791,-0.84407 -0.84406,-0.84407l-2.89233,0l0,1.68813l2.89233,0c0.46615,0 0.84406,-0.37791 0.84406,-0.84406z" fill="#0078d3" id="svg_2"/>
   <path d="m29.5613,8.82731l-2.89233,0l0,1.68813l2.89233,0c0.46615,0 0.84406,-0.37791 0.84406,-0.84406s-0.37791,-0.84407 -0.84406,-0.84407z" fill="#0078d3" id="svg_3"/>
   <path d="m21.42452,12.32365l2.71226,0c0.46615,0 0.84406,-0.37791 0.84406,-0.84406l0,-9.04089c0,-0.46615 -0.37791,-0.84406 -0.84406,-0.84406l-2.71226,0c-2.96762,0 -5.36453,2.40209 -5.36453,5.36448c0,2.96767 2.40209,5.36453 5.36453,5.36453z" fill="#0078d3" id="svg_4"/>
   <path d="m11.47959,24.98084c-1.49557,0 -2.71226,1.21669 -2.71226,2.71226s1.21674,2.71226 2.71226,2.71226c1.49545,0 2.7122,-1.21674 2.7122,-2.71226c0,-1.49557 -1.21669,-2.71226 -2.7122,-2.71226z" fill="#0078d3" id="svg_5"/>
   <path d="m25.49291,19.67635l-20.28191,0l0,1.80815l-0.96409,0c-0.52579,0 -0.96414,-0.42507 -0.96414,-0.96409l0,-11.75308c0,-0.52479 0.42417,-0.96409 0.96414,-0.96409l10.1757,0c-0.03314,-0.27686 -0.0507,-0.55844 -0.0507,-0.84407s0.01756,-0.56721 0.0507,-0.84406l-10.1757,0c-1.48206,-0.00006 -2.65227,1.20358 -2.65227,2.65222l0,11.75314c0,1.48218 1.20375,2.65222 2.65227,2.65222l0.96409,0l0,3.67635c0,0.46615 0.37792,0.84406 0.84407,0.84406l1.02413,0c0,-2.4264 1.97398,-4.40038 4.40039,-4.40038c2.42634,0 4.40033,1.97398 4.40033,4.40038l2.95237,0c0,-2.4264 1.97398,-4.40038 4.40038,-4.40038s4.40039,1.97398 4.40039,4.40038l1.92824,0c0.46615,0 0.84406,-0.37791 0.84406,-0.84406l0,-2.26024c0,-2.71304 -2.19935,-4.91245 -4.91245,-4.91245z" fill="#0078d3" id="svg_6"/>
   <path d="m22.17658,16.46244c-0.83658,-0.83653 -1.97117,-1.3065 -3.15421,-1.3065l-2.23829,0l-0.84406,0l0,2.83228l7.76235,0l-1.52579,-1.52578z" fill="#0078d3" id="svg_7"/>
   <path d="m5.211,17.80816l0,0.18006l9.04089,0l0,-2.83228l-0.84407,0l-5.5446,0c-1.48201,0 -2.65222,1.20363 -2.65222,2.65222z" fill="#0078d3" id="svg_8"/>
   <circle cx="23.232673" cy="27.693103" fill="#0078d3" id="svg_9" r="2.71226"/>
  </g>
 </g>
</svg>