<?xml version="1.0"?>
<svg width="64" height="58.381" xmlns="http://www.w3.org/2000/svg" xmlns:svg="http://www.w3.org/2000/svg">
 <g class="currentLayer layer">
  <title>Layer 1</title>
  <path d="m15.50376,3.61366c-0.35528,0.02456 -0.80355,0.08509 -0.99654,0.13597c-0.19299,0.05 -0.47897,0.10878 -0.63512,0.13071c-0.15614,0.02105 -0.39387,0.08597 -0.52721,0.14299c-0.13422,0.05702 -0.33774,0.12105 -0.45178,0.14298c-0.11491,0.02106 -0.31141,0.09124 -0.43774,0.15527c-0.12544,0.06404 -0.26492,0.11668 -0.30966,0.11668c-0.04474,0 -0.15088,0.03772 -0.23685,0.08421c-0.08509,0.04562 -0.37984,0.19124 -0.65354,0.32282c-0.61845,0.29738 -1.30269,0.686 -1.77903,1.01233c-0.14562,0.09913 -0.81494,0.63511 -1.17636,0.94215c-0.42809,0.36229 -0.87022,0.82372 -1.35971,1.4176c-0.23861,0.29037 -0.46757,0.56669 -0.50792,0.61494c-0.15527,0.18334 -0.62635,0.91934 -0.62635,0.97899c0,0.03334 -0.03772,0.09299 -0.08509,0.13247c-0.04649,0.03859 -0.23246,0.37808 -0.41317,0.75354c-0.18071,0.37633 -0.37984,0.78161 -0.44301,0.90092c-0.06228,0.1193 -0.11316,0.26492 -0.11316,0.32457c0,0.05878 -0.05263,0.21141 -0.11755,0.33774c-0.06404,0.12632 -0.11667,0.26404 -0.11667,0.30703c0,0.0421 -0.06404,0.28071 -0.14123,0.52897c-0.42458,1.36059 -0.59038,4.37739 -0.30616,5.58007c0.05702,0.24124 0.12632,0.58424 0.15352,0.76144c0.05965,0.38598 0.27106,1.1097 0.42019,1.43954c0.05965,0.13071 0.1079,0.27282 0.1079,0.3158c0,0.08334 0.15527,0.44388 0.38511,0.89566c0.07807,0.15351 0.14211,0.31404 0.14211,0.35791c0,0.04298 0.05088,0.12456 0.11404,0.18158c0.06228,0.05615 0.12983,0.17633 0.15001,0.26668c0.01929,0.08948 0.08684,0.20966 0.14912,0.26668c0.06317,0.05614 0.11404,0.13685 0.11404,0.1772c0,0.04123 0.03597,0.11053 0.07896,0.15352c0.04298,0.04298 0.11316,0.14386 0.15527,0.22369c0.36931,0.69828 2.22466,2.69749 2.96241,3.19137c0.19124,0.12896 0.36931,0.26756 0.39563,0.30879c0.02632,0.04035 0.13159,0.11404 0.23422,0.16229c0.3044,0.14386 0.53599,0.28685 0.58336,0.36054c0.02456,0.03772 0.13685,0.09913 0.24913,0.13685c0.11229,0.03684 0.2044,0.08947 0.2044,0.11667c0,0.02719 0.09913,0.08158 0.22019,0.12018c0.12018,0.0386 0.25878,0.10351 0.30703,0.14387c0.04824,0.03947 0.18509,0.10351 0.30352,0.14123c0.11755,0.0386 0.2465,0.1079 0.2851,0.15439c0.0386,0.0465 0.12632,0.08509 0.19474,0.08509c0.06931,0.00088 0.26581,0.06667 0.43862,0.1465c0.17194,0.08071 0.36405,0.1465 0.42634,0.1465c0.06316,0 0.17193,0.03772 0.24387,0.08421c0.07105,0.04562 0.31405,0.11492 0.53949,0.15352c0.22545,0.03772 0.4395,0.09299 0.47546,0.12106c0.03597,0.02895 0.39213,0.09211 0.79127,0.14035c0.39914,0.04825 0.91056,0.11317 1.13601,0.14387c0.80004,0.10878 2.90013,-0.04298 3.60367,-0.26054c0.14475,-0.04474 0.43511,-0.11141 0.64389,-0.14825c0.20966,-0.03684 0.43423,-0.10088 0.49827,-0.14123c0.06491,-0.04123 0.20264,-0.09124 0.30791,-0.11141c0.10439,-0.02106 0.30703,-0.09123 0.4509,-0.15615c0.14298,-0.06491 0.29124,-0.11843 0.32896,-0.11843c0.03772,0 0.16404,-0.05175 0.28159,-0.11491c0.11667,-0.06316 0.41054,-0.20878 0.65178,-0.32458c0.24212,-0.11579 0.54564,-0.27545 0.67459,-0.35528c0.12896,-0.07983 0.30002,-0.17808 0.38072,-0.21667c0.08071,-0.03948 0.18159,-0.10527 0.2237,-0.14563c0.04298,-0.04123 0.13509,-0.10526 0.20527,-0.14211c0.48686,-0.2579 2.26677,-1.88429 2.73521,-2.49835c0.07983,-0.10615 0.19913,-0.25616 0.26317,-0.33511c0.06491,-0.07807 0.18334,-0.23685 0.26405,-0.35264c0.0807,-0.1158 0.20176,-0.2816 0.27018,-0.36756c0.06843,-0.08685 0.14211,-0.21668 0.16492,-0.28949c0.02281,-0.07193 0.06316,-0.13159 0.08948,-0.13159c0.02632,0 0.09036,-0.10526 0.14211,-0.23422c0.05176,-0.12895 0.1158,-0.23422 0.14387,-0.23422c0.02719,0 0.0807,-0.10263 0.11755,-0.2272c0.03772,-0.12545 0.1079,-0.26054 0.15614,-0.30089c0.04825,-0.03948 0.08773,-0.10966 0.08773,-0.15527c0,-0.0465 0.06579,-0.20791 0.1465,-0.35879c0.07982,-0.15176 0.14649,-0.30966 0.14649,-0.35177c0,-0.04123 0.05264,-0.17896 0.11668,-0.30528c0.06491,-0.12632 0.11754,-0.2772 0.11754,-0.33598c0,-0.05789 0.04913,-0.19737 0.10878,-0.30966c0.05965,-0.11229 0.1272,-0.32721 0.14913,-0.47809c0.02281,-0.15089 0.09211,-0.4202 0.15527,-0.59915c0.06228,-0.17896 0.11404,-0.46406 0.11492,-0.63424c0,-0.17018 0.04474,-0.48072 0.09825,-0.6895c0.13948,-0.5474 0.13948,-2.54222 0,-3.17646c-0.05439,-0.24826 -0.09913,-0.57108 -0.09913,-0.71758c0,-0.1465 -0.05439,-0.42195 -0.12018,-0.61231c-0.06579,-0.19036 -0.14299,-0.4737 -0.17194,-0.62985c-0.06053,-0.32896 -0.2579,-0.91758 -0.38335,-1.14303c-0.04737,-0.08509 -0.08597,-0.18861 -0.08597,-0.22984c0,-0.08158 -0.56669,-1.23075 -0.79301,-1.60621c-0.0772,-0.12895 -0.18247,-0.31405 -0.23335,-0.41054c-0.05,-0.0965 -0.17106,-0.2816 -0.26755,-0.41055c-0.09562,-0.12895 -0.21843,-0.30001 -0.27195,-0.38072c-0.38335,-0.57634 -2.19395,-2.42116 -2.5545,-2.60362c-0.03772,-0.0193 -0.17457,-0.11404 -0.30352,-0.21054c-0.42458,-0.31668 -0.73775,-0.52546 -0.78951,-0.52546c-0.02807,0 -0.12544,-0.06053 -0.21667,-0.13509c-0.14562,-0.11755 -1.12812,-0.61933 -1.63078,-0.83162c-0.55265,-0.23334 -0.8474,-0.34037 -1.06847,-0.38511c-0.13685,-0.02807 -0.32194,-0.0886 -0.41142,-0.13509c-0.08948,-0.04561 -0.29387,-0.10263 -0.45441,-0.12544c-0.16053,-0.02281 -0.50353,-0.09036 -0.76143,-0.14913c-0.54301,-0.12369 -2.6703,-0.19036 -3.74929,-0.11755m3.22119,1.73253c0.38599,0.08071 0.75881,0.1465 0.82811,0.1465c0.07018,0 0.24212,0.05176 0.38247,0.11579c0.14036,0.06404 0.32195,0.11668 0.40265,0.11755c0.08071,0 0.23949,0.05001 0.35177,0.11053c0.11229,0.05966 0.29651,0.12896 0.40879,0.15264c0.11317,0.02457 0.24475,0.0772 0.293,0.11755c0.04825,0.04123 0.1851,0.10527 0.30352,0.14299c0.11755,0.0386 0.2465,0.1079 0.2851,0.15439c0.0386,0.0465 0.11229,0.08422 0.16317,0.08422c0.05,0 0.18597,0.06053 0.30001,0.13334c0.27194,0.17457 0.40528,0.25527 0.61406,0.37107c0.96057,0.53511 3.31506,2.87381 3.31506,3.29313c0,0.0307 0.0386,0.08772 0.08597,0.1272c0.15703,0.1307 0.96408,1.64568 0.96759,1.81762c0.00088,0.04825 0.05439,0.16755 0.11843,0.26405c0.06403,0.09649 0.11667,0.23597 0.11667,0.31054c0,0.07368 0.0421,0.21492 0.09211,0.31317c0.05088,0.09737 0.12983,0.35879 0.17632,0.57897c0.04562,0.22019 0.11053,0.47283 0.14387,0.55968c0.25264,0.66582 0.23159,4.11509 -0.02895,4.73354c-0.04299,0.10088 -0.10966,0.35528 -0.14738,0.56406c-0.0386,0.20966 -0.09562,0.39651 -0.12544,0.41493c-0.0307,0.0193 -0.07106,0.13773 -0.09036,0.26405c-0.0193,0.12632 -0.0807,0.30879 -0.13684,0.40528c-0.05615,0.0965 -0.12019,0.25264 -0.14299,0.34738c-0.02193,0.09387 -0.09124,0.23598 -0.15352,0.31493c-0.06316,0.07983 -0.11404,0.18773 -0.11404,0.24124c0,0.05263 -0.04562,0.16141 -0.10176,0.24124c-0.11842,0.16667 -0.26229,0.42019 -0.38159,0.67196c-0.0465,0.09649 -0.12808,0.21229 -0.18159,0.25615c-0.05263,0.04386 -0.0965,0.11141 -0.0965,0.14825c0,0.03772 -0.05175,0.13334 -0.11404,0.21229c-0.56493,0.71758 -0.76582,0.95706 -1.07812,1.28778c-0.38422,0.4044 -1.15619,1.10619 -1.31848,1.19654c-0.05351,0.02983 -0.12368,0.08422 -0.15527,0.12106c-0.05175,0.0579 -0.6588,0.45879 -0.99653,0.65793c-0.32896,0.19386 -1.39305,0.71933 -1.45621,0.71933c-0.03947,0 -0.17457,0.05263 -0.30001,0.11667c-0.12632,0.06404 -0.32282,0.13422 -0.43686,0.15615c-0.11404,0.02105 -0.31405,0.08684 -0.443,0.14562c-0.12896,0.05877 -0.31405,0.1079 -0.41055,0.10877c-0.09649,0.00088 -0.34738,0.0579 -0.55704,0.12545c-0.53336,0.17457 -3.16418,0.22896 -3.89579,0.08158c-0.25791,-0.05176 -0.65968,-0.13246 -0.89302,-0.17808c-0.23335,-0.04561 -0.49651,-0.12018 -0.58599,-0.16492c-0.0886,-0.04561 -0.26317,-0.10088 -0.38598,-0.12281c-0.12282,-0.02281 -0.30791,-0.09211 -0.41055,-0.15439c-0.10176,-0.06229 -0.25527,-0.11317 -0.33949,-0.11404c-0.08509,0 -0.18597,-0.03772 -0.22457,-0.08509c-0.0386,-0.0465 -0.16755,-0.1158 -0.28598,-0.15352c-0.11755,-0.03772 -0.25439,-0.10351 -0.30264,-0.14474c-0.04825,-0.04211 -0.15878,-0.09387 -0.24475,-0.11492c-0.08597,-0.02193 -0.20264,-0.08948 -0.25791,-0.15176c-0.05614,-0.06141 -0.1272,-0.11141 -0.15965,-0.11141c-0.05527,0 -0.29914,-0.15966 -0.94917,-0.6202c-0.66319,-0.4702 -1.94482,-1.73341 -2.30712,-2.27467c-0.08421,-0.12632 -0.19299,-0.2851 -0.24124,-0.35352c-0.04825,-0.06843 -0.14123,-0.21141 -0.20527,-0.31756c-0.06491,-0.10527 -0.21492,-0.34212 -0.3351,-0.52546c-0.12018,-0.18247 -0.21931,-0.37195 -0.22106,-0.4202c-0.00176,-0.04824 -0.05439,-0.15439 -0.11755,-0.23422c-0.06316,-0.0807 -0.1158,-0.17281 -0.11755,-0.20527c-0.00176,-0.03246 -0.06843,-0.19036 -0.14738,-0.35177c-0.07983,-0.16141 -0.14474,-0.33335 -0.14474,-0.3816c0,-0.04912 -0.05,-0.1807 -0.11053,-0.29299c-0.05965,-0.11316 -0.12896,-0.3237 -0.15352,-0.46844c-0.02368,-0.14475 -0.07895,-0.33335 -0.12281,-0.41932c-0.04386,-0.08509 -0.10615,-0.37545 -0.1386,-0.64389c-0.03158,-0.26931 -0.09825,-0.63424 -0.1465,-0.81144c-0.1386,-0.50177 -0.12545,-2.36151 0.02017,-2.90188c0.06053,-0.22457 0.12545,-0.58599 0.14387,-0.80267c0.01842,-0.21668 0.07369,-0.47107 0.12194,-0.56494c0.04912,-0.09386 0.10702,-0.28597 0.12895,-0.42633c0.02193,-0.14036 0.0886,-0.34739 0.14825,-0.45967c0.05965,-0.11229 0.1079,-0.24124 0.1079,-0.28686c0,-0.15965 0.61406,-1.40883 0.9825,-1.99921c0.19562,-0.31229 0.2237,-0.35265 0.64301,-0.90881c0.51494,-0.68336 1.92026,-2.07904 2.09308,-2.07904c0.02193,0 0.16492,-0.10527 0.31756,-0.23422c0.15351,-0.12896 0.30791,-0.2351 0.34299,-0.2351c0.03597,0 0.13948,-0.05965 0.23072,-0.13422c0.09123,-0.07368 0.23159,-0.16667 0.31229,-0.20702c0.08071,-0.04123 0.22545,-0.11404 0.32195,-0.16229c0.09737,-0.04825 0.21579,-0.11316 0.26404,-0.14387c0.04825,-0.0307 0.15352,-0.08597 0.23422,-0.12193c0.08071,-0.03509 0.27896,-0.1272 0.44037,-0.2044c0.16141,-0.07632 0.33335,-0.13948 0.38248,-0.13948c0.04912,0 0.14035,-0.03596 0.20439,-0.07983c0.06316,-0.04474 0.20791,-0.1 0.32019,-0.12369c0.11316,-0.02456 0.36318,-0.09123 0.55704,-0.14913c0.193,-0.05877 0.64126,-0.16053 0.99566,-0.22632c0.35528,-0.06667 0.6974,-0.13159 0.76232,-0.14474c0.46932,-0.0965 2.32203,-0.02895 2.98697,0.10877m-2.45625,3.20629c-0.07281,0.10351 -0.09123,0.30703 -0.09123,0.99478c0,1.04303 0.0193,1.01671 -0.82021,1.07724c-0.30616,0.02193 -0.68863,0.08772 -0.85004,0.1465c-0.16141,0.05789 -0.39826,0.12369 -0.52722,0.14649c-0.12895,0.02193 -0.32633,0.08773 -0.43949,0.14475c-0.11316,0.05702 -0.36317,0.18071 -0.55704,0.27545c-0.63863,0.31317 -0.75267,0.39124 -1.17462,0.80968c-1.48427,1.46937 -0.99302,3.35103 1.14567,4.38704c0.1772,0.08597 0.42019,0.20791 0.53862,0.27019c0.1193,0.06228 0.27019,0.11404 0.3351,0.11404c0.06492,0 0.25177,0.05263 0.41406,0.11667c0.16316,0.06404 0.44739,0.13246 0.63248,0.15088c0.73424,0.07369 1.24392,0.21054 1.27637,0.34125c0.01579,0.06842 0.02193,0.83512 0.01316,1.70534l-0.01666,1.58252l-0.48161,-0.00965c-0.3079,-0.00614 -0.5509,-0.04386 -0.67108,-0.10439c-0.10351,-0.05088 -0.29475,-0.10965 -0.42546,-0.12807c-0.21229,-0.03158 -0.67196,-0.21054 -1.00004,-0.38862c-0.06404,-0.03508 -0.17457,-0.09386 -0.24475,-0.13158c-0.07018,-0.03597 -0.24387,-0.18948 -0.38686,-0.34037c-0.17194,-0.18246 -0.30615,-0.27369 -0.39914,-0.27194c-0.1658,0.00263 -0.63687,0.12457 -0.74038,0.19124c-0.03948,0.02544 -0.2044,0.08509 -0.36669,0.13334c-0.32808,0.09737 -0.34212,0.13597 -0.18421,0.50441c0.22544,0.52634 1.58954,1.62989 2.01324,1.62902c0.04123,0 0.17984,0.05 0.30879,0.1114c0.4044,0.19124 1.03162,0.35704 1.67025,0.44125c0.33861,0.04474 0.68775,0.10966 0.77635,0.14387l0.16141,0.06228l0,0.91408c0,1.1983 -0.04035,1.13952 0.78776,1.13952c0.93249,0 0.85267,0.0965 0.85267,-1.02373c0,-0.71933 0.01929,-0.96934 0.07719,-1.01759c0.10527,-0.08772 0.68775,-0.22632 1.15356,-0.27545c0.20878,-0.02193 0.44651,-0.07369 0.52722,-0.11404c0.0807,-0.04123 0.23861,-0.09298 0.35177,-0.11579c0.32545,-0.06579 1.24216,-0.48774 1.5334,-0.7053c0.08597,-0.06404 0.26668,-0.19562 0.4009,-0.29299c0.21141,-0.15089 0.38159,-0.34037 0.78424,-0.86846c0.04562,-0.05965 0.10001,-0.2044 0.12281,-0.32282c0.02193,-0.11843 0.0658,-0.24563 0.09738,-0.28335c0.20001,-0.24299 0,-1.49129 -0.27633,-1.72113c-0.0465,-0.0386 -0.08509,-0.10176 -0.08509,-0.14036c0,-0.03859 -0.05878,-0.12632 -0.13159,-0.19562c-0.07193,-0.0693 -0.18422,-0.18246 -0.24913,-0.25177c-0.25615,-0.27369 -0.78863,-0.63774 -1.23164,-0.84126c-0.25703,-0.11843 -0.54213,-0.25352 -0.63336,-0.30001c-0.09123,-0.0465 -0.2158,-0.08422 -0.27633,-0.08422c-0.06052,0 -0.31229,-0.06667 -0.55967,-0.1465c-0.2465,-0.0807 -0.5781,-0.14649 -0.73775,-0.14649c-0.90004,0 -0.87811,0.04912 -0.8553,-2.01939l0.01666,-1.52112l0.19387,-0.05615c0.48073,-0.13772 2.30361,0.54301 2.85978,1.06847c0.3044,0.28773 0.52283,0.30616 0.82284,0.07018c0.08422,-0.06579 0.19913,-0.12018 0.2544,-0.12018c0.05614,0 0.16843,-0.05263 0.24913,-0.11667c0.08159,-0.06316 0.21668,-0.14211 0.30089,-0.17369c0.17457,-0.06667 0.19212,-0.13159 0.0658,-0.23773c-0.04825,-0.03948 -0.0886,-0.10527 -0.0886,-0.14562c0,-0.09299 -0.78074,-0.83425 -0.96934,-0.9211c-0.07896,-0.03596 -0.14387,-0.08509 -0.14387,-0.10965c0,-0.02456 -0.08948,-0.07457 -0.20001,-0.11053c-0.11053,-0.03685 -0.23071,-0.10264 -0.26756,-0.14738c-0.03684,-0.04474 -0.15176,-0.09913 -0.25439,-0.12106c-0.10176,-0.02193 -0.26493,-0.08158 -0.36142,-0.1307c-0.09738,-0.05001 -0.32107,-0.12369 -0.49827,-0.16492c-0.1772,-0.04036 -0.42809,-0.11404 -0.55704,-0.16317c-0.12896,-0.04912 -0.35265,-0.09211 -0.49739,-0.09474c-0.89039,-0.01754 -0.93689,-0.07544 -0.93952,-1.16847c-0.00263,-1.10268 0.0307,-1.05794 -0.80705,-1.05794c-0.60442,0 -0.65617,0.00877 -0.74039,0.12983m28.03371,3.30102c-0.14474,0.04562 -0.32984,0.08334 -0.41142,0.08334c-0.62634,0.00438 -2.45976,1.50094 -2.45976,2.00886c0,0.02983 -0.05263,0.12106 -0.11755,0.20264c-0.06404,0.08246 -0.11667,0.20615 -0.11667,0.27545c0,0.0693 -0.05263,0.27545 -0.11755,0.45879c-0.10527,0.29914 -0.11667,0.48424 -0.11667,1.77464c0,0.88162 -0.02369,1.48516 -0.06141,1.55446c-0.05877,0.11053 -0.17369,0.11316 -4.80109,0.11316l-4.74056,0l-0.09123,0.12983c-0.13422,0.19212 -0.13334,1.48253 0.00175,1.5334c0.05088,0.02018 2.22291,0.03597 4.82653,0.03597c3.7414,0 4.74671,0.01579 4.79583,0.07369c0.03772,0.04649 0.06842,0.66933 0.07983,1.66148c0.01403,1.12812 0.03947,1.61147 0.09035,1.672c0.0386,0.04649 0.0886,0.20264 0.11141,0.34563c0.02193,0.14387 0.10264,0.35265 0.17808,0.46493c0.07544,0.11229 0.13773,0.23335 0.13773,0.26931c0,0.03597 0.05263,0.11317 0.11667,0.17106c0.06491,0.05878 0.11755,0.1351 0.11842,0.17019c0.00176,0.16053 0.95619,1.0018 1.37638,1.21409c0.0965,0.04824 0.22808,0.11667 0.293,0.15088c0.06403,0.03421 0.31492,0.12457 0.55616,0.20089l0.4395,0.1386l3.93789,0.01754c4.22475,0.01843 4.04316,0.02983 4.38879,-0.26755c0.24037,-0.20703 0.25703,-0.31317 0.25703,-1.58692c0,-1.04039 0.01492,-1.24479 0.09211,-1.32286c0.08071,-0.08071 0.38072,-0.09211 2.40099,-0.09211c2.72029,0 2.44046,0.11053 2.41589,-0.9518l-0.01579,-0.71757l-2.39923,-0.01579c-1.8299,-0.01141 -2.41063,-0.03246 -2.44572,-0.08773c-0.02544,-0.03947 -0.04649,-1.1211 -0.04737,-2.40274l-0.00088,-2.3308l0.15089,-0.05702c0.08772,-0.03334 1.08864,-0.05702 2.42554,-0.05702c2.02027,0 2.27905,-0.01053 2.31063,-0.09299c0.06755,-0.1772 0.0386,-1.40357 -0.03509,-1.47726c-0.05263,-0.05263 -0.67196,-0.07105 -2.42554,-0.07105c-2.09308,0 -2.35888,-0.00965 -2.39046,-0.09211c-0.0193,-0.05088 -0.03597,-0.64652 -0.03597,-1.32199c0,-1.41849 -0.02982,-1.522 -0.52107,-1.77552c-0.25177,-0.13071 -7.73719,-0.13071 -8.15037,0m-28.15476,2.07641l0,1.67025l-0.4974,-0.01404c-0.34475,-0.00965 -0.58336,-0.05 -0.77284,-0.13158c-0.15088,-0.06492 -0.33949,-0.11843 -0.41931,-0.11843c-0.12457,0 -0.57722,-0.18773 -0.85881,-0.35703c-0.04825,-0.02895 -0.15352,-0.08071 -0.23247,-0.11492c-0.19124,-0.08158 -0.70003,-0.62985 -0.74302,-0.80003c-0.09737,-0.38862 0.36756,-0.89303 1.15093,-1.24918c0.08071,-0.03685 0.22545,-0.10703 0.32282,-0.15703c0.0965,-0.04912 0.32019,-0.12456 0.49739,-0.16667c0.1772,-0.04211 0.45441,-0.11667 0.61582,-0.1658c0.16053,-0.04912 0.43774,-0.08421 0.61494,-0.0772l0.32195,0.01229l0,1.66937m35.03665,-0.41142l0.15088,0.05789l-0.01579,5.59236c-0.00789,3.07558 -0.03684,5.61341 -0.06404,5.6406c-0.10614,0.10615 -6.11957,0.09387 -6.65994,-0.01403c-0.71144,-0.14211 -1.16146,-0.44651 -1.59569,-1.07988c-0.29562,-0.42984 -0.30001,-0.49388 -0.32282,-4.39493c-0.02281,-3.70718 -0.00526,-4.09931 0.19211,-4.45283c0.04562,-0.08071 0.1158,-0.21141 0.15703,-0.29036c0.2544,-0.48599 0.96759,-0.97373 1.53954,-1.05268c0.51231,-0.07018 6.4345,-0.07544 6.61872,-0.00614m-32.39355,4.05193c0.03508,0.02807 0.20615,0.0772 0.38071,0.11053c0.1737,0.03246 0.42195,0.10878 0.55091,0.17106c0.12895,0.06141 0.30001,0.14124 0.38071,0.17808c1.0904,0.49564 1.43867,1.30006 0.77021,1.78342c-0.41317,0.29913 -0.65792,0.44387 -0.81582,0.48335c-0.08772,0.02193 -0.23861,0.08772 -0.3351,0.14738c-0.0965,0.05877 -0.25528,0.10702 -0.35177,0.10702c-0.0965,0.00087 -0.25528,0.04298 -0.35177,0.09386c-0.243,0.12808 -0.86583,0.21229 -1.05181,0.14124l-0.14912,-0.05615l0,-1.58077c0,-1.44305 0.00877,-1.58604 0.10263,-1.6413c0.11316,-0.06667 0.76582,-0.02018 0.87022,0.06228m-12.26897,10.91453c-0.09299,0.1 -0.25177,0.31317 -0.35265,0.47458c-0.10088,0.16141 -0.21317,0.32633 -0.24738,0.36756c-0.03509,0.04123 -0.09211,0.15965 -0.1272,0.26405c-0.03509,0.10351 -0.09737,0.22808 -0.1386,0.27632c-0.04123,0.04825 -0.09299,0.16755 -0.11404,0.26405c-0.02106,0.0965 -0.08685,0.30791 -0.1465,0.46844c-0.2737,0.74126 -0.27194,3.09488 0.00263,3.86772c0.05702,0.16053 0.12194,0.39475 0.14299,0.5202c0.02105,0.12544 0.08948,0.32282 0.15176,0.43861c0.06229,0.1158 0.11316,0.25528 0.11316,0.30879c0,0.08334 0.17721,0.49125 0.35265,0.81232c0.02632,0.04824 0.1351,0.25878 0.24124,0.46844c0.10615,0.20966 0.25264,0.45528 0.32633,0.54651c0.07457,0.09124 0.13422,0.19036 0.13422,0.22019c0,0.05965 0.70792,1.06408 0.88513,1.25532c0.05877,0.06404 0.18158,0.19913 0.27106,0.29914c0.88864,0.99653 2.22817,2.19132 2.95101,2.62994c0.05263,0.03245 0.19825,0.1193 0.3237,0.19299c0.12544,0.07369 0.3465,0.21141 0.49125,0.30615c0.14474,0.09562 0.30352,0.18861 0.35177,0.20791c0.04825,0.01842 0.14035,0.06316 0.20527,0.09912c0.12983,0.07281 0.33773,0.17194 0.73249,0.35002c0.14474,0.06579 0.36054,0.16843 0.47984,0.22896c0.11931,0.05965 0.26405,0.10965 0.32283,0.10965c0.05789,0.00088 0.23685,0.06579 0.39826,0.14474c0.16141,0.07896 0.32019,0.14475 0.3544,0.14562c0.14387,0.00439 0.19738,0.13422 0.11931,0.28949c-0.04211,0.08334 -0.09475,0.28949 -0.1158,0.45616c-0.02105,0.16755 -0.08421,0.40528 -0.1386,0.52722c-0.14825,0.33159 -0.14913,2.3001 -0.00088,2.58783c0.05527,0.1079 0.11843,0.29212 0.14036,0.40967c0.02193,0.11755 0.10176,0.32984 0.17808,0.47195c0.07544,0.14211 0.13684,0.28949 0.13684,0.32809c0,0.03859 0.05264,0.11755 0.11755,0.17632c0.06404,0.0579 0.11668,0.12983 0.11668,0.15878c0,0.02895 0.08596,0.16141 0.19035,0.29387c0.70091,0.88513 1.62639,1.46059 1.62639,1.01145c0,-0.03597 0.04913,-0.11843 0.10966,-0.18334c0.06053,-0.06492 0.12983,-0.18246 0.15351,-0.26054c0.02369,-0.07807 0.08773,-0.19474 0.14211,-0.25878c0.31756,-0.37458 0.29826,-0.42897 -0.35791,-0.98689c-0.68687,-0.58336 -1.13513,-1.85622 -0.98951,-2.81065c0.1193,-0.78161 0.2193,-1.24041 0.31054,-1.41761c0.04912,-0.09649 0.10965,-0.26755 0.13421,-0.37984c0.02369,-0.11228 0.07895,-0.25703 0.12106,-0.32194c0.22282,-0.34037 0.25878,-0.75705 0.25878,-2.96856c0,-2.22817 0.05088,-2.80188 0.26756,-3.04224c0.04562,-0.05088 0.09913,-0.17457 0.1193,-0.27545c0.02018,-0.10088 0.08685,-0.22808 0.14738,-0.28335c0.06053,-0.05526 0.11053,-0.14649 0.11053,-0.20351c0,-0.05702 0.06579,-0.18247 0.1465,-0.27809c0.0807,-0.09561 0.1465,-0.19123 0.1465,-0.21229c0,-0.18597 1.81323,-2.20097 1.98079,-2.20097c0.03508,0 0.08509,-0.03509 0.11053,-0.07895c0.05175,-0.08685 0.69564,-0.5474 0.94478,-0.67547c0.08684,-0.04386 0.20965,-0.12457 0.27457,-0.17896c0.06404,-0.05438 0.28861,-0.18509 0.49827,-0.29036c0.20878,-0.10527 0.42019,-0.21317 0.46844,-0.24036c0.04825,-0.02632 0.24562,-0.11931 0.43949,-0.20527c0.19299,-0.08597 0.45704,-0.20703 0.58599,-0.26844c0.12896,-0.0614 0.32633,-0.12895 0.4395,-0.15088c0.11228,-0.02105 0.2579,-0.07281 0.32194,-0.11404c0.06492,-0.04211 0.24914,-0.10439 0.41055,-0.13948c0.16053,-0.03509 0.37194,-0.10001 0.46844,-0.14387c0.09649,-0.04386 0.29475,-0.09737 0.43949,-0.1193c0.14474,-0.02193 0.39563,-0.08772 0.55704,-0.14562c0.44827,-0.16317 1.00882,-0.29738 1.49393,-0.35879c0.24124,-0.0307 0.57634,-0.09474 0.74302,-0.14299c0.16667,-0.04825 0.47019,-0.10263 0.67371,-0.12018c0.20352,-0.01842 0.52809,-0.07193 0.72196,-0.12018c0.75354,-0.18773 1.80359,-0.25615 1.91851,-0.12544c0.1465,0.16579 0.15878,5.68446 0.01316,5.96605l-0.08948,0.17282l-4.46862,0c-3.3984,0 -4.48617,0.01666 -4.53968,0.07018c-0.11667,0.11579 -0.09649,1.48866 0.02193,1.53427c0.05176,0.02018 6.18888,0.03597 13.63921,0.03597c13.43393,0 13.5471,0.00088 13.76465,0.11667c0.12018,0.06492 0.2544,0.11755 0.29738,0.11755c0.04386,0 0.20352,0.06579 0.35528,0.1465c0.15176,0.08071 0.3158,0.1465 0.36581,0.1465c0.05,0 0.16053,0.04912 0.24562,0.10877c0.08597,0.05966 0.23247,0.1272 0.32721,0.15001c0.09386,0.02281 0.23597,0.09211 0.31493,0.15527c0.07982,0.06228 0.18071,0.11316 0.22457,0.11316c0.06754,0 0.25615,0.08685 0.78337,0.35967c0.04824,0.02544 0.4044,0.2079 0.79126,0.40703c0.38598,0.19826 0.80793,0.42195 0.93688,0.49827c0.12896,0.07544 0.33861,0.19387 0.46494,0.26317c0.12719,0.0693 0.26755,0.16317 0.31229,0.20703c0.04474,0.04474 0.11492,0.08158 0.15527,0.08158c0.04123,0 0.12281,0.05264 0.18071,0.11667c0.05877,0.06492 0.14036,0.11755 0.18071,0.11755c0.04123,0 0.10965,0.03334 0.15264,0.07281c0.1079,0.10264 0.51844,0.41318 0.63862,0.48424c0.52634,0.3079 1.75271,1.62463 1.75271,1.88078c0,0.03684 0.05878,0.19562 0.12983,0.35265c0.55354,1.21847 -0.20264,3.78175 -1.2676,4.29756c-0.38773,0.18685 -0.42019,0.2465 -0.33422,0.60704c0.03947,0.16668 0.10439,0.47459 0.14211,0.68424c0.09649,0.52459 0.29738,0.63863 0.64301,0.36493c0.03948,-0.03158 0.16843,-0.0886 0.28686,-0.12632c0.11754,-0.03772 0.22895,-0.10702 0.2465,-0.15351c0.01842,-0.04737 0.06228,-0.0851 0.09912,-0.0851c0.15089,0 1.1097,-1.00004 1.1097,-1.15706c0,-0.03071 0.05001,-0.10089 0.11141,-0.15703c0.06141,-0.05526 0.12896,-0.17018 0.15089,-0.2544c0.02105,-0.08421 0.08509,-0.22106 0.14298,-0.30352c0.0579,-0.08246 0.12282,-0.2465 0.14475,-0.36405c0.02105,-0.11755 0.08158,-0.30001 0.13421,-0.40528c0.38511,-0.77197 0.18686,-3.3598 -0.32545,-4.24756c-0.17632,-0.3044 -0.19299,-0.33159 -0.32721,-0.52985c-0.12632,-0.18597 -1.41585,-1.48778 -1.47375,-1.48778c-0.02017,0 -0.15878,-0.10001 -0.3079,-0.22194c-0.14913,-0.12282 -0.32809,-0.26054 -0.39739,-0.30791c-0.80618,-0.54915 -1.12637,-0.75179 -1.2369,-0.786c-0.07193,-0.02193 -0.13158,-0.06053 -0.13158,-0.08597c0,-0.02456 -0.10527,-0.09299 -0.23422,-0.15088c-0.12896,-0.05878 -0.23422,-0.12633 -0.23422,-0.15089c0,-0.02456 -0.07632,-0.06228 -0.17019,-0.08246c-0.09298,-0.02017 -0.2158,-0.0886 -0.27282,-0.15088c-0.05614,-0.06316 -0.14649,-0.11404 -0.19913,-0.11404c-0.05351,0 -0.18685,-0.06579 -0.29563,-0.1465c-0.10965,-0.08071 -0.24299,-0.1465 -0.29738,-0.1465c-0.05439,0 -0.13158,-0.03947 -0.17106,-0.08772c-0.04035,-0.04825 -0.17544,-0.11843 -0.30089,-0.15615c-0.12544,-0.03772 -0.25703,-0.10351 -0.29299,-0.1465c-0.03597,-0.04298 -0.09475,-0.07807 -0.13071,-0.07807c-0.03597,0 -0.21054,-0.0693 -0.38862,-0.15264c-0.1772,-0.08421 -0.46756,-0.22018 -0.64476,-0.30177c-0.1772,-0.08158 -0.41493,-0.19386 -0.52722,-0.25001c-0.11316,-0.05526 -0.28948,-0.1193 -0.39212,-0.14211c-0.10176,-0.02193 -0.21755,-0.07807 -0.25615,-0.12457c-0.03772,-0.04649 -0.11229,-0.08421 -0.16492,-0.08421c-0.05264,-0.00088 -0.22721,-0.06579 -0.38862,-0.14474c-0.16053,-0.07895 -0.34212,-0.14475 -0.40265,-0.14562c-0.0614,-0.00176 -0.19299,-0.05264 -0.29299,-0.11317c-0.10088,-0.06053 -0.27282,-0.12983 -0.38335,-0.15351c-0.10966,-0.02281 -0.28159,-0.09211 -0.38072,-0.15264c-0.09913,-0.06053 -0.24124,-0.10966 -0.31405,-0.11053c-0.20264,0 -0.71231,-0.27984 -0.88513,-0.48511c-0.08421,-0.10001 -0.19562,-0.22282 -0.24738,-0.27282c-0.08597,-0.08334 -0.75792,-0.86407 -0.90091,-1.04654c-0.03246,-0.04211 -0.12545,-0.15001 -0.20615,-0.23948c-0.08071,-0.08948 -0.3044,-0.34212 -0.49827,-0.56055c-0.19299,-0.21931 -0.37809,-0.42809 -0.41055,-0.46406c-0.03245,-0.03597 -0.1772,-0.21054 -0.32194,-0.38686c-0.14474,-0.17632 -0.30265,-0.36317 -0.35177,-0.41493c-0.04825,-0.05176 -0.25878,-0.28861 -0.46844,-0.52546c-0.20966,-0.23686 -0.44651,-0.5009 -0.52722,-0.58775c-0.0807,-0.08597 -0.18685,-0.20615 -0.23597,-0.26755c-0.85443,-1.05882 -1.27199,-1.47902 -1.51586,-1.52288c-0.1158,-0.02105 -0.30352,-0.08421 -0.41581,-0.13948c-0.11316,-0.05527 -0.3623,-0.11843 -0.55353,-0.14036c-0.19124,-0.02193 -0.37809,-0.06491 -0.41581,-0.09649c-0.0386,-0.03158 -0.343,-0.09737 -0.6781,-0.14562c-0.3351,-0.04913 -0.67459,-0.11492 -0.7553,-0.14562c-0.0807,-0.03071 -0.50265,-0.08334 -0.93776,-0.11755c-0.43511,-0.03334 -1.06759,-0.08685 -1.4062,-0.11755c-0.77811,-0.07281 -2.74486,-0.07369 -3.3984,-0.00176c-0.2737,0.02983 -0.98162,0.08422 -1.57376,0.12018c-0.59213,0.03685 -1.14566,0.09299 -1.23075,0.12545c-0.08509,0.03246 -0.50441,0.09562 -0.93162,0.14036c-0.42721,0.04561 -0.82899,0.10965 -0.89215,0.14386c-0.06316,0.03421 -0.35966,0.08597 -0.65792,0.11492c-0.29914,0.02895 -0.65003,0.09123 -0.77986,0.13773c-0.12895,0.04649 -0.40441,0.10439 -0.61143,0.12807c-0.20703,0.02456 -0.5202,0.09387 -0.69652,0.15439c-0.17633,0.06053 -0.37546,0.10966 -0.44301,0.10966c-0.06667,0.00088 -0.30703,0.06579 -0.53248,0.14562c-0.22545,0.07983 -0.47633,0.14562 -0.55704,0.1465c-0.07983,0.00087 -0.21755,0.03947 -0.30528,0.08421c-0.08684,0.04562 -0.30089,0.11316 -0.47546,0.14913c-0.17456,0.03597 -0.36668,0.10351 -0.42721,0.14913c-0.06053,0.04562 -0.17895,0.08421 -0.26229,0.08509c-0.08421,0.00088 -0.27633,0.06843 -0.42809,0.14825c-0.15176,0.08071 -0.29914,0.1465 -0.32721,0.1465c-0.0886,0 -1.39831,0.64214 -1.4369,0.70442c-0.0193,0.03158 -0.0772,0.0579 -0.12808,0.0579c-0.05176,0 -0.23685,0.09825 -0.41318,0.2193c-0.17544,0.12106 -0.39036,0.25966 -0.47633,0.30791c-0.7053,0.39388 -2.28607,1.83342 -2.93171,2.66942c-0.09738,0.12632 -0.56319,0.80091 -0.61845,0.89565c-0.03158,0.05352 -0.11755,0.19563 -0.19036,0.31581c-0.07369,0.12018 -0.13334,0.25527 -0.13334,0.30001c0,0.04474 -0.03948,0.11492 -0.08772,0.15439c-0.04825,0.04036 -0.11931,0.18247 -0.15703,0.31493c-0.03772,0.13334 -0.1,0.28159 -0.1386,0.32984c-0.03772,0.04912 -0.10176,0.22018 -0.14036,0.38072c-0.03947,0.16053 -0.10263,0.32896 -0.14035,0.37458c-0.04825,0.05877 -0.0772,0.6702 -0.09825,2.06149c-0.03159,2.15273 -0.02544,2.11238 -0.32458,1.96939c-0.11404,-0.05439 -0.24124,-0.09825 -0.28335,-0.09825c-0.04298,0 -0.20176,-0.06579 -0.35352,-0.1465c-0.15089,-0.0807 -0.32282,-0.1465 -0.3816,-0.1465c-0.05965,0 -0.1386,-0.0386 -0.17808,-0.08509c-0.03859,-0.04649 -0.16667,-0.11579 -0.2851,-0.15527c-0.11842,-0.03772 -0.27808,-0.11843 -0.35527,-0.17808c-0.07632,-0.05965 -0.17019,-0.10877 -0.20703,-0.10877c-0.03772,0 -0.12018,-0.04036 -0.18334,-0.08948c-0.10352,-0.08158 -0.72986,-0.50178 -0.95619,-0.64301c-0.49125,-0.30616 -0.90969,-0.6667 -1.80183,-1.5527c-0.71056,-0.70705 -1.72113,-2.00185 -1.72113,-2.20712c0,-0.03509 -0.03597,-0.09299 -0.07895,-0.12983c-0.04386,-0.03597 -0.15878,-0.22983 -0.25615,-0.4316c-0.41844,-0.86758 -0.48511,-1.01583 -0.48511,-1.07987c0,-0.03772 -0.0386,-0.14299 -0.08509,-0.23422c-0.0465,-0.09123 -0.12633,-0.33686 -0.17721,-0.54652c-0.05087,-0.20966 -0.11754,-0.47283 -0.14825,-0.58599c-0.19299,-0.71056 -0.01316,-2.58696 0.29738,-3.1054c0.02895,-0.04825 0.09124,-0.17282 0.13773,-0.27721c0.04737,-0.10351 0.11316,-0.22281 0.1465,-0.26317c0.51756,-0.62985 0.51844,-0.61055 -0.06141,-1.15882c-0.57283,-0.54125 -0.68249,-0.58073 -0.91758,-0.32808m30.57329,2.00184c0.50002,0.0193 1.02724,0.05965 1.17198,0.09035c0.14475,0.02983 0.54038,0.09387 0.87899,0.14036c0.33861,0.04737 0.72109,0.12369 0.85004,0.16931c0.12808,0.04561 0.35791,0.09825 0.50967,0.11667c0.49125,0.05965 0.95355,0.33773 1.23865,0.74477c0.03948,0.05614 0.21843,0.26843 0.39914,0.47283c0.17984,0.20439 0.40265,0.4623 0.49564,0.57371c0.09299,0.11053 0.22194,0.25615 0.28598,0.3237c0.06491,0.06667 0.24913,0.27632 0.41054,0.46493c0.16054,0.1886 0.32282,0.37458 0.36054,0.41318c0.03685,0.03859 0.20703,0.23948 0.37721,0.44651c0.17019,0.20702 0.36406,0.43159 0.43073,0.49914c0.22457,0.22984 0.53248,0.5781 0.85003,0.96057c0.17282,0.20966 0.36493,0.42634 0.42634,0.48072c0.18773,0.17019 0.2351,0.4395 0.08334,0.47985c-0.06931,0.01842 -2.94136,0.03421 -6.38275,0.03509l-6.25642,0.00088l-0.05702,-0.15089c-0.09386,-0.24825 -0.07544,-6.14764 0.02018,-6.22747c0.13071,-0.1079 1.62902,-0.12106 3.90719,-0.03421m-13.38832,14.99365c-0.60353,0.12194 -0.90705,0.22282 -1.2597,0.41756c-0.08071,0.04474 -0.22896,0.12019 -0.32984,0.16756c-0.10088,0.04824 -0.19913,0.12719 -0.21843,0.1772c-0.01842,0.04912 -0.07018,0.09035 -0.11316,0.09035c-0.09738,0 -1.05882,0.99829 -1.17286,1.2176c-0.44476,0.85442 -0.5088,1.02373 -0.686,1.7992c-0.08334,0.36756 -0.06755,1.25971 0.02895,1.61323c0.04825,0.17633 0.11755,0.45266 0.15352,0.61407c0.03596,0.16053 0.10175,0.33422 0.14649,0.3851c0.04474,0.05088 0.08159,0.13071 0.08159,0.1772c0,0.04562 0.06579,0.18071 0.14649,0.29914c0.08071,0.1193 0.1465,0.23861 0.1465,0.26755c0,0.15527 1.20883,1.27024 1.59393,1.47112c0.10615,0.05527 0.24563,0.12983 0.31054,0.16492c0.91232,0.50178 2.93084,0.6088 3.70017,0.1965c0.12281,-0.06579 0.26404,-0.12018 0.31229,-0.12106c0.04913,-0.00087 0.19738,-0.07368 0.32984,-0.16141c0.13246,-0.08772 0.34651,-0.23071 0.47634,-0.31756c0.32282,-0.21579 0.90267,-0.79301 1.10619,-1.10268c0.31668,-0.47984 0.54388,-0.90705 0.54651,-1.02811c0.00176,-0.06667 0.0772,-0.19212 0.16756,-0.27896l0.16404,-0.15703l7.71087,0l7.70999,0l0.18247,0.17019c0.10176,0.09474 0.18246,0.22983 0.18334,0.30703c0,0.07632 0.05263,0.20352 0.11579,0.28422c0.06229,0.08071 0.11492,0.17545 0.1158,0.21141c0.00438,0.23335 0.94478,1.26673 1.48866,1.63604c0.40177,0.2737 0.62722,0.39563 0.9439,0.51231c2.14571,0.78863 4.59582,-0.00088 5.70991,-1.83956c0.25527,-0.42107 0.46668,-0.87372 0.50528,-1.079c0.02369,-0.12719 0.08246,-0.32457 0.13071,-0.43686c0.12281,-0.29124 0.12369,-1.76411 0.00088,-2.05097c-0.04825,-0.11316 -0.10702,-0.31054 -0.13071,-0.43949c-0.02368,-0.12895 -0.09386,-0.32194 -0.15615,-0.42809c-0.0614,-0.10702 -0.11228,-0.21843 -0.11228,-0.24826c0,-0.14298 -0.47897,-0.77635 -0.88513,-1.16935c-0.63512,-0.61494 -0.71056,-0.67283 -1.19479,-0.91758c-0.06492,-0.03246 -0.20966,-0.10615 -0.32282,-0.16317c-0.11229,-0.05789 -0.40265,-0.14035 -0.64477,-0.18509c-1.29391,-0.23685 -1.15707,-0.23159 -1.94043,-0.08246c-0.39827,0.07544 -0.81671,0.18597 -0.92899,0.24475c-0.11317,0.05877 -0.243,0.10702 -0.28949,0.10702c-0.09474,0 -0.80793,0.46318 -1.11409,0.72284c-0.76406,0.6509 -1.43866,1.86587 -1.56498,2.82205c-0.02193,0.16141 -0.06754,0.3123 -0.10351,0.33598c-0.11755,0.07895 -15.3542,0.05439 -15.43315,-0.02544c-0.0386,-0.03859 -0.07105,-0.20351 -0.07193,-0.3658c-0.00088,-0.16668 -0.05176,-0.40704 -0.11667,-0.55178c-0.06404,-0.14036 -0.11755,-0.29826 -0.11931,-0.35089c-0.00087,-0.05352 -0.08684,-0.243 -0.19035,-0.42283c-0.54389,-0.94653 -1.20269,-1.62551 -1.94483,-2.00448c-0.57546,-0.29387 -0.82547,-0.38773 -1.20181,-0.45002c-0.20878,-0.03421 -0.48598,-0.08772 -0.61494,-0.1193c-0.3351,-0.0807 -0.61669,-0.06228 -1.34743,0.08509m1.61236,1.67288c0.62283,0.11843 1.81499,0.97198 1.81499,1.30006c0,0.04825 0.05088,0.13422 0.11404,0.19036c0.06228,0.05702 0.13948,0.21229 0.17106,0.34651c0.03158,0.13334 0.09825,0.34826 0.14738,0.47721c0.05,0.12983 0.09035,0.41756 0.09035,0.64477c0,0.2272 -0.04035,0.51493 -0.09035,0.64389c-0.04913,0.12895 -0.1158,0.34387 -0.14738,0.47809c-0.03158,0.13334 -0.10878,0.28948 -0.17106,0.34563c-0.06316,0.05702 -0.11492,0.13158 -0.11579,0.16755c-0.0079,0.22194 -0.86408,0.9439 -1.40445,1.18426c-0.52196,0.23159 -1.68692,0.25177 -2.0922,0.03597c-0.13597,-0.07193 -0.2851,-0.13071 -0.33159,-0.13071c-0.22809,0 -1.28603,-1.00443 -1.35708,-1.28778c-0.02018,-0.08158 -0.07544,-0.19123 -0.12369,-0.24474c-0.31668,-0.35177 -0.27984,-1.87114 0.0614,-2.54047c0.20089,-0.39388 1.13602,-1.37638 1.31059,-1.37638c0.05702,0 0.16229,-0.04123 0.23422,-0.09123c0.26405,-0.18509 1.26672,-0.26141 1.88956,-0.14299m24.95989,0.00439c1.68428,0.3851 2.81767,2.68521 2.03342,4.1265c-0.03509,0.06404 -0.11229,0.21668 -0.17194,0.33773c-0.15702,0.32283 -1.09215,1.21497 -1.27286,1.21497c-0.03597,0 -0.1772,0.05878 -0.31317,0.12983c-0.3702,0.1965 -1.6571,0.19738 -2.0036,0.00176c-0.12808,-0.07281 -0.27458,-0.13159 -0.32458,-0.13159c-0.05,0 -0.15176,-0.04649 -0.22545,-0.10263c-0.5623,-0.43073 -0.7781,-0.63161 -0.93688,-0.87636c-0.10001,-0.15439 -0.22194,-0.33247 -0.27107,-0.39563c-0.04824,-0.06316 -0.0886,-0.16843 -0.08947,-0.23422c-0.00088,-0.06579 -0.05351,-0.2351 -0.11755,-0.37546c-0.16141,-0.35703 -0.16141,-1.12286 0.00175,-1.5027c0.06404,-0.15 0.11667,-0.33334 0.11667,-0.40703c0,-0.07457 0.04211,-0.16931 0.09211,-0.21142c0.05088,-0.0421 0.14124,-0.17193 0.20001,-0.28773c0.50529,-0.99039 2.00623,-1.57814 3.28261,-1.28602" fill="#0078d3" fill-rule="evenodd" id="path0" stroke="#0078d3"/>
 </g>
 <g class="layer">
  <title>Layer 2</title>
 </g>
</svg>