<?xml version="1.0" encoding="UTF-8" standalone="no"?>
<svg
   xmlns:dc="http://purl.org/dc/elements/1.1/"
   xmlns:cc="http://creativecommons.org/ns#"
   xmlns:rdf="http://www.w3.org/1999/02/22-rdf-syntax-ns#"
   xmlns:svg="http://www.w3.org/2000/svg"
   xmlns="http://www.w3.org/2000/svg"
   xmlns:sodipodi="http://sodipodi.sourceforge.net/DTD/sodipodi-0.dtd"
   xmlns:inkscape="http://www.inkscape.org/namespaces/inkscape"
   width="32"
   height="32"
   version="1.1"
   id="svg44"
   sodipodi:docname="ev-charge-icon-new.svg"
   inkscape:version="1.0.2 (e86c870, 2021-01-15)">
  <metadata
     id="metadata50">
    <rdf:RDF>
      <cc:Work
         rdf:about="">
        <dc:format>image/svg+xml</dc:format>
        <dc:type
           rdf:resource="http://purl.org/dc/dcmitype/StillImage" />
        <dc:title></dc:title>
      </cc:Work>
    </rdf:RDF>
  </metadata>
  <defs
     id="defs48" />
  <sodipodi:namedview
     pagecolor="#ffffff"
     bordercolor="#666666"
     borderopacity="1"
     objecttolerance="10"
     gridtolerance="10"
     guidetolerance="10"
     inkscape:pageopacity="0"
     inkscape:pageshadow="2"
     inkscape:window-width="1920"
     inkscape:window-height="1057"
     id="namedview46"
     showgrid="false"
     inkscape:zoom="26.59375"
     inkscape:cx="16.105288"
     inkscape:cy="16"
     inkscape:window-x="-8"
     inkscape:window-y="-8"
     inkscape:window-maximized="1"
     inkscape:current-layer="svg44" />
  <g
     class="currentLayer layer"
     id="g42">
    <title
       id="title31">Layer 1</title>
    <g
       fill="#0078d3"
       id="svg_1">
      <path
         d="m30.40536,4.24686c0,-0.46615 -0.37791,-0.84407 -0.84406,-0.84407l-2.89233,0l0,1.68813l2.89233,0c0.46615,0 0.84406,-0.37791 0.84406,-0.84406z"
         fill="#0078d3"
         id="svg_2" />
      <path
         d="m29.5613,8.82731l-2.89233,0l0,1.68813l2.89233,0c0.46615,0 0.84406,-0.37791 0.84406,-0.84406s-0.37791,-0.84407 -0.84406,-0.84407z"
         fill="#0078d3"
         id="svg_3" />
      <path
         d="m21.42452,12.32365l2.71226,0c0.46615,0 0.84406,-0.37791 0.84406,-0.84406l0,-9.04089c0,-0.46615 -0.37791,-0.84406 -0.84406,-0.84406l-2.71226,0c-2.96762,0 -5.36453,2.40209 -5.36453,5.36448c0,2.96767 2.40209,5.36453 5.36453,5.36453z"
         fill="#0078d3"
         id="svg_4" />
      <path
         d="m11.47959,24.98084c-1.49557,0 -2.71226,1.21669 -2.71226,2.71226s1.21674,2.71226 2.71226,2.71226c1.49545,0 2.7122,-1.21674 2.7122,-2.71226c0,-1.49557 -1.21669,-2.71226 -2.7122,-2.71226z"
         fill="#0078d3"
         id="svg_5" />
      <path
         d="m25.49291,19.67635l-20.28191,0l0,1.80815l-0.96409,0c-0.52579,0 -0.96414,-0.42507 -0.96414,-0.96409l0,-11.75308c0,-0.52479 0.42417,-0.96409 0.96414,-0.96409l10.1757,0c-0.03314,-0.27686 -0.0507,-0.55844 -0.0507,-0.84407s0.01756,-0.56721 0.0507,-0.84406l-10.1757,0c-1.48206,-0.00006 -2.65227,1.20358 -2.65227,2.65222l0,11.75314c0,1.48218 1.20375,2.65222 2.65227,2.65222l0.96409,0l0,3.67635c0,0.46615 0.37792,0.84406 0.84407,0.84406l1.02413,0c0,-2.4264 1.97398,-4.40038 4.40039,-4.40038c2.42634,0 4.40033,1.97398 4.40033,4.40038l2.95237,0c0,-2.4264 1.97398,-4.40038 4.40038,-4.40038s4.40039,1.97398 4.40039,4.40038l1.92824,0c0.46615,0 0.84406,-0.37791 0.84406,-0.84406l0,-2.26024c0,-2.71304 -2.19935,-4.91245 -4.91245,-4.91245z"
         fill="#0078d3"
         id="svg_6" />
      <path
         d="m22.17658,16.46244c-0.83658,-0.83653 -1.97117,-1.3065 -3.15421,-1.3065l-2.23829,0l-0.84406,0l0,2.83228l7.76235,0l-1.52579,-1.52578z"
         fill="#0078d3"
         id="svg_7" />
      <path
         d="m5.211,17.80816l0,0.18006l9.04089,0l0,-2.83228l-0.84407,0l-5.5446,0c-1.48201,0 -2.65222,1.20363 -2.65222,2.65222z"
         fill="#0078d3"
         id="svg_8" />
      <circle
         cx="23.232673"
         cy="27.693103"
         fill="#0078d3"
         id="svg_9"
         r="2.71226" />
    </g>
  </g>
  <path
     d="m 22.496817,5.4772069 c 0,0.2718697 0.22041,0.4922801 0.49228,0.4922801 0.27187,0 0.492279,-0.2204104 0.492279,-0.4922801 0,-0.5451837 -0.281977,-1.0693571 -0.773667,-1.4381142 C 22.371877,3.7872161 21.958656,3.6189483 21.512257,3.5473706 V 3.0157738 c 0,-0.2718698 -0.22041,-0.49228 -0.49228,-0.49228 -0.27187,0 -0.49228,0.2204102 -0.49228,0.49228 v 0.5315968 c -0.446433,0.071577 -0.859652,0.2398389 -1.195452,0.4917221 -0.49169,0.3687571 -0.773668,0.8929305 -0.773668,1.4381142 0,0.5451902 0.281978,1.0693307 0.773668,1.4381205 0.335832,0.2518833 0.749052,0.4201446 1.195452,0.4917156 v 1.9497308 c -0.567107,-0.1385997 -0.98456,-0.5066283 -0.98456,-0.9258867 0,-0.2718699 -0.22041,-0.49228 -0.492281,-0.49228 -0.271869,0 -0.492279,0.2204101 -0.492279,0.49228 0,0.5451837 0.281978,1.0693372 0.773668,1.4381207 0.335832,0.2518832 0.749052,0.4201452 1.195452,0.4917152 v 0.536553 c 0,0.271871 0.22041,0.492281 0.49228,0.492281 0.27187,0 0.492281,-0.22041 0.492281,-0.492281 v -0.536553 c 0.446432,-0.07158 0.859652,-0.239832 1.195451,-0.4917152 0.49169,-0.3687572 0.773669,-0.892937 0.773669,-1.4381207 0,-0.5451773 -0.281979,-1.0693571 -0.773669,-1.4381141 C 22.371877,6.7408965 21.958656,6.5726349 21.512257,6.5010508 V 4.5513266 c 0.567107,0.1386326 0.98456,0.5066217 0.98456,0.9258803 z m -2.953681,0 c 0,-0.4192586 0.417454,-0.7872871 0.98456,-0.9258803 V 6.4030608 C 19.96059,6.2644939 19.543136,5.8964652 19.543136,5.4772069 Z m 2.953681,2.9536802 c 0,0.4192584 -0.417453,0.787287 -0.98456,0.9258867 V 7.5050395 c 0.567107,0.1385998 0.98456,0.5065956 0.98456,0.9258476 z"
     id="path71"
     style="fill:#ffffff;fill-opacity:1;stroke-width:0.0328187" />
  <path
     d="m 22.496817,5.4772069 c 0,0.2718697 0.22041,0.4922801 0.49228,0.4922801 0.27187,0 0.492279,-0.2204104 0.492279,-0.4922801 0,-0.5451837 -0.281977,-1.0693571 -0.773667,-1.4381142 C 22.371877,3.7872161 21.958656,3.6189483 21.512257,3.5473706 V 3.0157738 c 0,-0.2718698 -0.22041,-0.49228 -0.49228,-0.49228 -0.27187,0 -0.49228,0.2204102 -0.49228,0.49228 v 0.5315968 c -0.446433,0.071577 -0.859652,0.2398389 -1.195452,0.4917221 -0.49169,0.3687571 -0.773668,0.8929305 -0.773668,1.4381142 0,0.5451902 0.281978,1.0693307 0.773668,1.4381205 0.335832,0.2518833 0.749052,0.4201446 1.195452,0.4917156 v 1.9497308 c -0.567107,-0.1385997 -0.98456,-0.5066283 -0.98456,-0.9258867 0,-0.2718699 -0.22041,-0.49228 -0.492281,-0.49228 -0.271869,0 -0.492279,0.2204101 -0.492279,0.49228 0,0.5451837 0.281978,1.0693372 0.773668,1.4381207 0.335832,0.2518832 0.749052,0.4201452 1.195452,0.4917152 v 0.536553 c 0,0.271871 0.22041,0.492281 0.49228,0.492281 0.27187,0 0.492281,-0.22041 0.492281,-0.492281 v -0.536553 c 0.446432,-0.07158 0.859652,-0.239832 1.195451,-0.4917152 0.49169,-0.3687572 0.773669,-0.892937 0.773669,-1.4381207 0,-0.5451773 -0.281979,-1.0693571 -0.773669,-1.4381141 C 22.371877,6.7408965 21.958656,6.5726349 21.512257,6.5010508 V 4.5513266 c 0.567107,0.1386326 0.98456,0.5066217 0.98456,0.9258803 z m -2.953681,0 c 0,-0.4192586 0.417454,-0.7872871 0.98456,-0.9258803 V 6.4030608 C 19.96059,6.2644939 19.543136,5.8964652 19.543136,5.4772069 Z m 2.953681,2.9536802 c 0,0.4192584 -0.417453,0.787287 -0.98456,0.9258867 V 7.5050395 c 0.567107,0.1385998 0.98456,0.5065956 0.98456,0.9258476 z"
     id="path125"
     style="fill:#ffffff;fill-opacity:1;stroke-width:0.0328187" />
</svg>
