<?xml version="1.0"?>
<svg width="24" height="24" xmlns="http://www.w3.org/2000/svg" xmlns:svg="http://www.w3.org/2000/svg">
 <g class="currentLayer layer">
  <title>Layer 1</title>
  <path d="m5.70815,2.24471c-0.13551,0.00937 -0.30648,0.03246 -0.38009,0.05186c-0.07361,0.01907 -0.18268,0.04149 -0.24224,0.04985c-0.05955,0.00803 -0.15023,0.03279 -0.20108,0.05454c-0.0512,0.02175 -0.12882,0.04618 -0.17232,0.05454c-0.04383,0.00803 -0.11877,0.0348 -0.16695,0.05922c-0.04785,0.02443 -0.10105,0.0445 -0.11811,0.0445c-0.01707,0 -0.05755,0.01439 -0.09034,0.03212c-0.03246,0.0174 -0.14488,0.07294 -0.24927,0.12313c-0.23588,0.11342 -0.49686,0.26165 -0.67854,0.38611c-0.05554,0.03781 -0.31083,0.24224 -0.44868,0.35935c-0.16328,0.13818 -0.33191,0.31417 -0.51861,0.54069c-0.091,0.11075 -0.17833,0.21614 -0.19372,0.23454c-0.05922,0.06993 -0.2389,0.35065 -0.2389,0.3734c0,0.01272 -0.01438,0.03547 -0.03245,0.05052c-0.01773,0.01473 -0.08867,0.14421 -0.15759,0.28741c-0.06893,0.14354 -0.14488,0.29812 -0.16897,0.34362c-0.02375,0.04551 -0.04316,0.10105 -0.04316,0.1238c0,0.02242 -0.02007,0.08063 -0.04483,0.12881c-0.02443,0.04819 -0.0445,0.10072 -0.0445,0.11711c0,0.01606 -0.02443,0.10707 -0.05387,0.20176c-0.16194,0.51894 -0.22518,1.66958 -0.11677,2.1283c0.02175,0.09201 0.04818,0.22283 0.05855,0.29042c0.02275,0.14722 0.10339,0.42325 0.16027,0.54905c0.02275,0.04986 0.04115,0.10406 0.04115,0.12045c0,0.03179 0.05922,0.16931 0.14688,0.34162c0.02978,0.05855 0.05421,0.11978 0.05421,0.13651c0,0.01639 0.0194,0.04751 0.04349,0.06926c0.02376,0.02141 0.04952,0.06725 0.05722,0.10171c0.00736,0.03413 0.03312,0.07997 0.05688,0.10172c0.02409,0.02141 0.04349,0.05219 0.04349,0.06758c0,0.01573 0.01372,0.04216 0.03012,0.05855c0.01639,0.0164 0.04316,0.05488 0.05922,0.08532c0.14086,0.26633 0.84851,1.02886 1.12989,1.21723c0.07294,0.04918 0.14087,0.10205 0.1509,0.11777c0.01004,0.01539 0.05019,0.0435 0.08934,0.0619c0.1161,0.05487 0.20443,0.10941 0.2225,0.13752c0.00937,0.01438 0.05219,0.0378 0.09502,0.05219c0.04283,0.01405 0.07796,0.03413 0.07796,0.0445c0,0.01037 0.03781,0.03112 0.08398,0.04584c0.04584,0.01472 0.0987,0.03948 0.1171,0.05487c0.01841,0.01506 0.0706,0.03948 0.11577,0.05387c0.04484,0.01472 0.09402,0.04115 0.10874,0.05889c0.01472,0.01773 0.04818,0.03245 0.07428,0.03245c0.02643,0.00034 0.10138,0.02543 0.16729,0.05588c0.06558,0.03078 0.13886,0.05587 0.16261,0.05587c0.02409,0 0.06558,0.01439 0.09302,0.03212c0.0271,0.0174 0.11978,0.04383 0.20577,0.05856c0.08599,0.01438 0.16762,0.03546 0.18134,0.04617c0.01372,0.01104 0.14956,0.03513 0.3018,0.05353c0.15224,0.0184 0.3473,0.04316 0.43329,0.05487c0.30514,0.04149 1.10614,-0.01639 1.37448,-0.09937c0.0552,-0.01706 0.16595,-0.04249 0.24558,-0.05654c0.07997,-0.01405 0.16562,-0.03848 0.19005,-0.05387c0.02476,-0.01573 0.07729,-0.0348 0.11744,-0.04249c0.03981,-0.00803 0.1171,-0.0348 0.17198,-0.05956c0.05453,-0.02476 0.11108,-0.04517 0.12547,-0.04517c0.01438,0 0.06256,-0.01974 0.1074,-0.04383c0.0445,-0.02409 0.15658,-0.07963 0.24859,-0.1238c0.09235,-0.04416 0.20812,-0.10506 0.2573,-0.1355c0.04919,-0.03045 0.11443,-0.06792 0.14521,-0.08265c0.03078,-0.01505 0.06926,-0.04015 0.08532,-0.05554c0.0164,-0.01572 0.05153,-0.04015 0.07829,-0.0542c0.1857,-0.09837 0.86457,-0.71869 1.04324,-0.9529c0.03045,-0.04049 0.07595,-0.0977 0.10038,-0.12781c0.02476,-0.02978 0.06993,-0.09034 0.10071,-0.13451c0.03078,-0.04416 0.07695,-0.1074 0.10305,-0.14019c0.0261,-0.03312 0.05421,-0.08264 0.0629,-0.11041c0.0087,-0.02744 0.02409,-0.05019 0.03413,-0.05019c0.01004,0 0.03446,-0.04015 0.05421,-0.08933c0.01974,-0.04919 0.04416,-0.08934 0.05487,-0.08934c0.01037,0 0.03078,-0.03915 0.04483,-0.08666c0.01439,-0.04784 0.04116,-0.09937 0.05956,-0.11476c0.0184,-0.01506 0.03346,-0.04182 0.03346,-0.05922c0,-0.01773 0.02509,-0.0793 0.05587,-0.13685c0.03045,-0.05788 0.05588,-0.11811 0.05588,-0.13417c0,-0.01572 0.02007,-0.06825 0.0445,-0.11643c0.02476,-0.04818 0.04483,-0.10573 0.04483,-0.12815c0,-0.02208 0.01874,-0.07528 0.04149,-0.11811c0.02275,-0.04282 0.04852,-0.1248 0.05688,-0.18235c0.0087,-0.05755 0.03513,-0.16026 0.05922,-0.22852c0.02376,-0.06825 0.0435,-0.17699 0.04383,-0.2419c0,-0.06491 0.01707,-0.18336 0.03748,-0.26299c0.0532,-0.20878 0.0532,-0.96963 0,-1.21154c-0.02075,-0.09468 -0.03781,-0.21781 -0.03781,-0.27369c0,-0.05587 -0.02075,-0.16093 -0.04584,-0.23354c-0.02509,-0.0726 -0.05454,-0.18067 -0.06558,-0.24023c-0.02308,-0.12547 -0.09837,-0.34998 -0.14621,-0.43597c-0.01807,-0.03245 -0.03279,-0.07193 -0.03279,-0.08766c0,-0.03111 -0.21614,-0.46942 -0.30247,-0.61262c-0.02944,-0.04919 -0.06959,-0.11979 -0.089,-0.15659c-0.01907,-0.03681 -0.06524,-0.1074 -0.10205,-0.15659c-0.03647,-0.04918 -0.08331,-0.11443 -0.10372,-0.14521c-0.14621,-0.21982 -0.8368,-0.92345 -0.97431,-0.99305c-0.01439,-0.00736 -0.06658,-0.04349 -0.11577,-0.0803c-0.16194,-0.12078 -0.28139,-0.20042 -0.30113,-0.20042c-0.0107,0 -0.04784,-0.02308 -0.08264,-0.05152c-0.05554,-0.04484 -0.43028,-0.23622 -0.62199,-0.31719c-0.21079,-0.089 -0.32321,-0.12982 -0.40753,-0.14688c-0.0522,-0.01071 -0.12279,-0.0338 -0.15692,-0.05153c-0.03413,-0.0174 -0.11209,-0.03915 -0.17332,-0.04785c-0.06123,-0.00869 -0.19205,-0.03446 -0.29042,-0.05687c-0.20711,-0.04718 -1.01848,-0.07261 -1.43002,-0.04484m1.2286,0.66081c0.14722,0.03078 0.28942,0.05587 0.31585,0.05587c0.02677,0 0.09235,0.01974 0.14588,0.04417c0.05353,0.02442 0.12279,0.0445 0.15358,0.04483c0.03078,0 0.09134,0.01908 0.13416,0.04216c0.04283,0.02275 0.11309,0.04919 0.15592,0.05822c0.04316,0.00937 0.09335,0.02944 0.11175,0.04483c0.01841,0.01573 0.0706,0.04015 0.11577,0.05454c0.04483,0.01472 0.09402,0.04116 0.10874,0.05889c0.01472,0.01773 0.04283,0.03212 0.06223,0.03212c0.01907,0 0.07094,0.02309 0.11443,0.05086c0.10372,0.06658 0.15458,0.09736 0.23421,0.14153c0.36637,0.20409 1.2644,1.0961 1.2644,1.25603c0,0.01171 0.01472,0.03346 0.03279,0.04852c0.05989,0.04985 0.36771,0.62768 0.36905,0.69326c0.00034,0.0184 0.02074,0.0639 0.04517,0.10071c0.02442,0.0368 0.0445,0.09 0.0445,0.11844c0,0.02811 0.01606,0.08198 0.03513,0.11945c0.01941,0.03714 0.04952,0.13685 0.06725,0.22083c0.0174,0.08398 0.04216,0.18034 0.05488,0.21346c0.09636,0.25395 0.08833,1.56955 -0.01105,1.80543c-0.01639,0.03848 -0.04182,0.13551 -0.05621,0.21514c-0.01472,0.07996 -0.03647,0.15123 -0.04784,0.15826c-0.01171,0.00736 -0.0271,0.05253 -0.03446,0.10071c-0.00737,0.04818 -0.03079,0.11777 -0.0522,0.15458c-0.02141,0.0368 -0.04584,0.09636 -0.05454,0.13249c-0.00836,0.0358 -0.03479,0.09001 -0.05855,0.12012c-0.02409,0.03045 -0.0435,0.0716 -0.0435,0.09201c0,0.02007 -0.0174,0.06156 -0.03881,0.09201c-0.04517,0.06357 -0.10004,0.16027 -0.14554,0.25629c-0.01774,0.03681 -0.04885,0.08097 -0.06926,0.0977c-0.02008,0.01673 -0.03681,0.0425 -0.03681,0.05655c0,0.01439 -0.01974,0.05086 -0.04349,0.08097c-0.21548,0.27369 -0.2921,0.36503 -0.41121,0.49117c-0.14655,0.15424 -0.44098,0.42191 -0.50288,0.45638c-0.02041,0.01137 -0.04718,0.03212 -0.05922,0.04617c-0.01974,0.02208 -0.25128,0.17499 -0.38009,0.25094c-0.12547,0.07394 -0.53133,0.27436 -0.55542,0.27436c-0.01505,0 -0.06658,0.02007 -0.11443,0.0445c-0.04818,0.02442 -0.12312,0.05119 -0.16662,0.05955c-0.0435,0.00803 -0.11978,0.03313 -0.16896,0.05555c-0.04919,0.02241 -0.11979,0.04115 -0.15659,0.04148c-0.03681,0.00034 -0.1325,0.02209 -0.21246,0.04785c-0.20343,0.06658 -1.20686,0.08733 -1.4859,0.03112c-0.09837,-0.01974 -0.25161,-0.05053 -0.34061,-0.06792c-0.089,-0.0174 -0.18937,-0.04584 -0.2235,-0.06291c-0.0338,-0.01739 -0.10038,-0.03847 -0.14722,-0.04684c-0.04684,-0.0087 -0.11744,-0.03513 -0.15659,-0.05889c-0.03881,-0.02375 -0.09736,-0.04316 -0.12948,-0.04349c-0.03246,0 -0.07093,-0.01439 -0.08565,-0.03246c-0.01473,-0.01773 -0.06391,-0.04416 -0.10908,-0.05855c-0.04483,-0.01439 -0.09703,-0.03948 -0.11543,-0.05521c-0.0184,-0.01606 -0.06056,-0.0358 -0.09335,-0.04383c-0.03279,-0.00836 -0.07729,-0.03412 -0.09837,-0.05788c-0.02141,-0.02342 -0.04851,-0.04249 -0.06089,-0.04249c-0.02108,0 -0.1141,-0.0609 -0.36203,-0.23655c-0.25294,-0.17934 -0.74177,-0.66115 -0.87996,-0.86759c-0.03212,-0.04818 -0.07361,-0.10874 -0.09201,-0.13483c-0.0184,-0.0261 -0.05387,-0.08064 -0.07829,-0.12112c-0.02476,-0.04015 -0.08198,-0.13049 -0.12781,-0.20042c-0.04584,-0.0696 -0.08365,-0.14187 -0.08432,-0.16027c-0.00067,-0.0184 -0.02074,-0.05889 -0.04483,-0.08933c-0.02409,-0.03078 -0.04417,-0.06592 -0.04484,-0.0783c-0.00067,-0.01238 -0.0261,-0.0726 -0.05621,-0.13416c-0.03045,-0.06157 -0.05521,-0.12715 -0.05521,-0.14555c0,-0.01874 -0.01907,-0.06892 -0.04215,-0.11175c-0.02276,-0.04316 -0.04919,-0.12346 -0.05856,-0.17867c-0.00903,-0.05521 -0.03011,-0.12714 -0.04684,-0.15993c-0.01673,-0.03246 -0.04048,-0.14321 -0.05286,-0.24559c-0.01205,-0.10272 -0.03748,-0.2419 -0.05588,-0.30949c-0.05286,-0.19138 -0.04784,-0.90071 0.0077,-1.10681c0.02308,-0.08566 0.04784,-0.2235 0.05487,-0.30615c0.00703,-0.08264 0.0281,-0.17967 0.04651,-0.21547c0.01873,-0.0358 0.04082,-0.10908 0.04918,-0.16261c0.00837,-0.05353 0.03379,-0.1325 0.05655,-0.17532c0.02275,-0.04283 0.04115,-0.09201 0.04115,-0.10941c0,-0.0609 0.23421,-0.53735 0.37474,-0.76252c0.07461,-0.11912 0.08532,-0.13451 0.24525,-0.34664c0.1964,-0.26064 0.73241,-0.79296 0.79832,-0.79296c0.00836,0 0.0629,-0.04015 0.12112,-0.08934c0.05855,-0.04918 0.11744,-0.08967 0.13082,-0.08967c0.01372,0 0.0532,-0.02275 0.088,-0.05119c0.0348,-0.0281 0.08833,-0.06357 0.11911,-0.07896c0.03078,-0.01573 0.08599,-0.0435 0.12279,-0.0619c0.03714,-0.0184 0.08231,-0.04316 0.10072,-0.05487c0.0184,-0.01171 0.05855,-0.03279 0.08933,-0.04651c0.03078,-0.01338 0.1064,-0.04851 0.16796,-0.07796c0.06157,-0.02911 0.12714,-0.0532 0.14588,-0.0532c0.01874,0 0.05354,-0.01372 0.07796,-0.03044c0.02409,-0.01707 0.0793,-0.03815 0.12212,-0.04718c0.04317,-0.00937 0.13852,-0.0348 0.21247,-0.05688c0.0736,-0.02242 0.24458,-0.06123 0.37975,-0.08632c0.13551,-0.02543 0.266,-0.05019 0.29076,-0.05521c0.179,-0.03681 0.88565,-0.01104 1.13926,0.04149m-0.93684,1.22291c-0.02777,0.03948 -0.0348,0.1171 -0.0348,0.37942c0,0.39782 0.00736,0.38779 -0.31283,0.41087c-0.11677,0.00837 -0.26265,0.03346 -0.32422,0.05588c-0.06156,0.02208 -0.1519,0.04717 -0.20108,0.05587c-0.04919,0.00837 -0.12447,0.03346 -0.16763,0.05521c-0.04316,0.02175 -0.13852,0.06893 -0.21246,0.10506c-0.24358,0.11945 -0.28708,0.14923 -0.44801,0.30882c-0.56612,0.56043 -0.37876,1.27812 0.43696,1.67327c0.06759,0.03279 0.16027,0.07929 0.20544,0.10305c0.0455,0.02376 0.10305,0.0435 0.12781,0.0435c0.02476,0 0.09603,0.02007 0.15793,0.0445c0.06223,0.02442 0.17064,0.05052 0.24123,0.05755c0.28005,0.0281 0.47445,0.0803 0.48683,0.13015c0.00602,0.0261 0.00836,0.31853 0.00502,0.65043l-0.00636,0.6036l-0.18369,-0.00368c-0.11744,-0.00234 -0.21012,-0.01673 -0.25596,-0.03982c-0.03948,-0.0194 -0.11242,-0.04182 -0.16227,-0.04885c-0.08097,-0.01204 -0.2563,-0.0803 -0.38143,-0.14822c-0.02443,-0.01338 -0.06658,-0.0358 -0.09335,-0.05019c-0.02677,-0.01372 -0.09301,-0.07227 -0.14755,-0.12982c-0.06558,-0.06959 -0.11677,-0.10439 -0.15224,-0.10372c-0.06324,0.00101 -0.24291,0.04751 -0.28239,0.07294c-0.01506,0.0097 -0.07796,0.03246 -0.13986,0.05086c-0.12513,0.03714 -0.13048,0.05186 -0.07026,0.19239c0.08599,0.20075 0.60627,0.62166 0.76788,0.62132c0.01572,0 0.06859,0.01907 0.11777,0.04249c0.15424,0.07294 0.39347,0.13618 0.63705,0.1683c0.12915,0.01706 0.26232,0.04182 0.29611,0.05487l0.06156,0.02376l0,0.34864c0,0.45704 -0.01539,0.43462 0.30046,0.43462c0.35567,0 0.32522,0.03681 0.32522,-0.39046c0,-0.27436 0.00736,-0.36972 0.02944,-0.38812c0.04015,-0.03346 0.26232,-0.08632 0.43998,-0.10506c0.07964,-0.00836 0.17031,-0.0281 0.20109,-0.04349c0.03078,-0.01573 0.09101,-0.03547 0.13417,-0.04417c0.12413,-0.02509 0.47377,-0.18603 0.58486,-0.26901c0.03279,-0.02442 0.10171,-0.07461 0.1529,-0.11175c0.08064,-0.05755 0.14555,-0.12982 0.29912,-0.33124c0.0174,-0.02275 0.03814,-0.07796 0.04684,-0.12313c0.00837,-0.04516 0.0251,-0.09368 0.03714,-0.10807c0.07629,-0.09268 0,-0.56879 -0.10539,-0.65645c-0.01774,-0.01473 -0.03246,-0.03882 -0.03246,-0.05354c0,-0.01472 -0.02241,-0.04818 -0.05018,-0.07461c-0.02744,-0.02643 -0.07027,-0.06959 -0.09503,-0.09603c-0.0977,-0.10439 -0.30079,-0.24324 -0.46976,-0.32087c-0.09803,-0.04516 -0.20677,-0.09669 -0.24157,-0.11442c-0.03479,-0.01774 -0.08231,-0.03212 -0.10539,-0.03212c-0.02309,0 -0.11911,-0.02543 -0.21347,-0.05588c-0.09402,-0.03078 -0.22049,-0.05588 -0.28138,-0.05588c-0.34329,0 -0.33493,0.01874 -0.32623,-0.77021l0.00636,-0.58017l0.07394,-0.02142c0.18336,-0.05253 0.87863,0.20711 1.09076,0.40753c0.1161,0.10974 0.19941,0.11677 0.31384,0.02676c0.03212,-0.02509 0.07595,-0.04583 0.09703,-0.04583c0.02141,0 0.06424,-0.02008 0.09502,-0.0445c0.03112,-0.02409 0.08264,-0.05421 0.11476,-0.06625c0.06658,-0.02543 0.07328,-0.05019 0.0251,-0.09067c-0.01841,-0.01506 -0.0338,-0.04016 -0.0338,-0.05555c0,-0.03546 -0.29778,-0.31819 -0.36971,-0.35131c-0.03012,-0.01372 -0.05488,-0.03246 -0.05488,-0.04182c0,-0.00937 -0.03412,-0.02844 -0.07628,-0.04216c-0.04216,-0.01406 -0.088,-0.03915 -0.10205,-0.05621c-0.01405,-0.01707 -0.05788,-0.03781 -0.09703,-0.04618c-0.03881,-0.00836 -0.10105,-0.03111 -0.13785,-0.04985c-0.03714,-0.01907 -0.12246,-0.04718 -0.19005,-0.0629c-0.06758,-0.01539 -0.16327,-0.0435 -0.21246,-0.06223c-0.04918,-0.01874 -0.1345,-0.03514 -0.18971,-0.03614c-0.3396,-0.00669 -0.35734,-0.02877 -0.35834,-0.44567c-0.001,-0.42057 0.01171,-0.40351 -0.30782,-0.40351c-0.23053,0 -0.25027,0.00335 -0.28239,0.04952m10.69237,1.25905c-0.05521,0.0174 -0.12581,0.03178 -0.15692,0.03178c-0.2389,0.00168 -0.93818,0.57248 -0.93818,0.7662c0,0.01138 -0.02008,0.04618 -0.04484,0.07729c-0.02442,0.03146 -0.0445,0.07863 -0.0445,0.10506c0,0.02644 -0.02007,0.10506 -0.04483,0.17499c-0.04015,0.1141 -0.0445,0.18469 -0.0445,0.67687c0,0.33626 -0.00904,0.56645 -0.02342,0.59289c-0.02242,0.04215 -0.06625,0.04316 -1.83119,0.04316l-1.80811,0l-0.03479,0.04952c-0.05119,0.07327 -0.05086,0.56545 0.00067,0.58485c0.0194,0.0077 0.84784,0.01372 1.84089,0.01372c1.42701,0 1.81044,0.00602 1.82918,0.02811c0.01439,0.01773 0.0261,0.25529 0.03045,0.6337c0.00535,0.43028 0.01505,0.61464 0.03446,0.63772c0.01472,0.01774 0.03379,0.07729 0.04249,0.13183c0.00837,0.05487 0.03915,0.1345 0.06792,0.17733c0.02878,0.04283 0.05253,0.089 0.05253,0.10272c0,0.01372 0.02008,0.04316 0.0445,0.06524c0.02476,0.02242 0.04484,0.05153 0.04517,0.06491c0.00067,0.06123 0.3647,0.3821 0.52497,0.46307c0.0368,0.0184 0.08699,0.0445 0.11175,0.05755c0.02442,0.01305 0.12012,0.04751 0.21213,0.07662l0.16763,0.05286l1.50195,0.0067c1.61137,0.00702 1.54211,0.01137 1.67394,-0.10205c0.09167,-0.07897 0.09803,-0.11945 0.09803,-0.60527c0,-0.39682 0.00569,-0.47478 0.03513,-0.50456c0.03078,-0.03078 0.14521,-0.03513 0.91576,-0.03513c1.03755,0 0.93082,0.04216 0.92145,-0.36302l-0.00602,-0.27369l-0.91509,-0.00603c-0.69795,-0.00435 -0.91944,-0.01238 -0.93283,-0.03346c-0.0097,-0.01505 -0.01773,-0.4276 -0.01807,-0.91643l-0.00033,-0.88899l0.05755,-0.02175c0.03346,-0.01271 0.41522,-0.02175 0.92513,-0.02175c0.77055,0 0.86925,-0.00401 0.8813,-0.03546c0.02576,-0.06759 0.01472,-0.53534 -0.01339,-0.56345c-0.02007,-0.02007 -0.25629,-0.0271 -0.92513,-0.0271c-0.79832,0 -0.8997,-0.00368 -0.91174,-0.03513c-0.00736,-0.01941 -0.01372,-0.24659 -0.01372,-0.50422c0,-0.54103 -0.01138,-0.58051 -0.19874,-0.6772c-0.09603,-0.04986 -2.95105,-0.04986 -3.10864,0m-10.73854,0.79196l0,0.63705l-0.18971,-0.00535c-0.13149,-0.00368 -0.2225,-0.01907 -0.29477,-0.05019c-0.05755,-0.02476 -0.12949,-0.04517 -0.15993,-0.04517c-0.04752,0 -0.22016,-0.0716 -0.32756,-0.13617c-0.01841,-0.01104 -0.05856,-0.03078 -0.08867,-0.04383c-0.07294,-0.03112 -0.267,-0.24024 -0.28339,-0.30515c-0.03714,-0.14822 0.14019,-0.3406 0.43897,-0.47645c0.03078,-0.01405 0.08599,-0.04082 0.12313,-0.05989c0.0368,-0.01873 0.12212,-0.04751 0.18971,-0.06357c0.06759,-0.01606 0.17332,-0.0445 0.23488,-0.06324c0.06123,-0.01873 0.16696,-0.03212 0.23455,-0.02944l0.12279,0.00468l0,0.63672m13.36336,-0.15692l0.05755,0.02208l-0.00602,2.13299c-0.00301,1.17306 -0.01405,2.14102 -0.02442,2.15139c-0.04049,0.04048 -2.33408,0.0358 -2.54018,-0.00536c-0.27135,-0.0542 -0.44299,-0.1703 -0.60861,-0.41187c-0.11276,-0.16395 -0.11443,-0.18837 -0.12313,-1.67628c-0.0087,-1.41396 -0.00201,-1.56352 0.07327,-1.69836c0.0174,-0.03078 0.04417,-0.08063 0.05989,-0.11074c0.09703,-0.18536 0.36905,-0.37139 0.5872,-0.40151c0.1954,-0.02676 2.45419,-0.02877 2.52445,-0.00234m-12.35525,1.54545c0.01338,0.01071 0.07862,0.02945 0.14521,0.04216c0.06624,0.01238 0.16093,0.04149 0.21012,0.06525c0.04918,0.02342 0.11442,0.05386 0.14521,0.06792c0.41589,0.18904 0.54872,0.49585 0.29376,0.68021c-0.15759,0.11409 -0.25094,0.1693 -0.31116,0.18436c-0.03346,0.00836 -0.09101,0.03346 -0.12781,0.05621c-0.03681,0.02242 -0.09737,0.04082 -0.13417,0.04082c-0.03681,0.00033 -0.09737,0.01639 -0.13417,0.0358c-0.09268,0.04885 -0.33024,0.08097 -0.40117,0.05387l-0.05688,-0.02142l0,-0.60292c0,-0.55039 0.00335,-0.60493 0.03915,-0.62601c0.04316,-0.02543 0.29209,-0.0077 0.33191,0.02375m-4.67952,4.16292c-0.03547,0.03815 -0.09603,0.11945 -0.13451,0.18101c-0.03848,0.06157 -0.0813,0.12447 -0.09435,0.1402c-0.01338,0.01572 -0.03513,0.06089 -0.04852,0.10071c-0.01338,0.03948 -0.03714,0.08699 -0.05286,0.10539c-0.01573,0.0184 -0.03547,0.06391 -0.0435,0.10071c-0.00803,0.03681 -0.03312,0.11744 -0.05587,0.17867c-0.10439,0.28273 -0.10372,1.18042 0.001,1.47519c0.02175,0.06123 0.04651,0.15056 0.05454,0.19841c0.00803,0.04785 0.03413,0.12313 0.05788,0.16729c0.02376,0.04417 0.04316,0.09737 0.04316,0.11778c0,0.03178 0.06759,0.18737 0.13451,0.30982c0.01003,0.01841 0.05152,0.09871 0.09201,0.17867c0.04048,0.07997 0.09636,0.17365 0.12446,0.20845c0.02844,0.0348 0.0512,0.0726 0.0512,0.08398c0,0.02275 0.27001,0.40585 0.33759,0.47879c0.02242,0.02443 0.06926,0.07595 0.10339,0.1141c0.33894,0.38009 0.84985,0.83579 1.12555,1.00309c0.02007,0.01238 0.07561,0.0455 0.12346,0.07361c0.04785,0.0281 0.13216,0.08063 0.18737,0.11677c0.0552,0.03647 0.11576,0.07193 0.13417,0.07929c0.0184,0.00703 0.05353,0.02409 0.07829,0.03781c0.04952,0.02777 0.12882,0.06558 0.27938,0.1335c0.05521,0.02509 0.13751,0.06424 0.18302,0.08733c0.0455,0.02275 0.10071,0.04182 0.12313,0.04182c0.02208,0.00034 0.09033,0.02509 0.1519,0.05521c0.06156,0.03011 0.12212,0.0552 0.13517,0.05554c0.05487,0.00167 0.07528,0.05119 0.0455,0.11041c-0.01606,0.03179 -0.03613,0.11042 -0.04416,0.17399c-0.00803,0.0639 -0.03212,0.15458 -0.05287,0.20108c-0.05654,0.12648 -0.05688,0.87729 -0.00033,0.98703c0.02108,0.04116 0.04517,0.11142 0.05353,0.15625c0.00837,0.04484 0.03882,0.12581 0.06792,0.18001c0.02878,0.0542 0.0522,0.11041 0.0522,0.12514c0,0.01472 0.02007,0.04483 0.04483,0.06725c0.02443,0.02208 0.0445,0.04952 0.0445,0.06056c0,0.01104 0.03279,0.06156 0.07261,0.11208c0.26733,0.3376 0.62032,0.55709 0.62032,0.38578c0,-0.01372 0.01874,-0.04517 0.04183,-0.06993c0.02308,-0.02476 0.04951,-0.06959 0.05855,-0.09937c0.00903,-0.02978 0.03346,-0.07428 0.0542,-0.0987c0.12112,-0.14287 0.11376,-0.16361 -0.13651,-0.37641c-0.26198,-0.2225 -0.43295,-0.70798 -0.37741,-1.07201c0.0455,-0.29812 0.08364,-0.47311 0.11844,-0.5407c0.01874,-0.0368 0.04182,-0.10204 0.05119,-0.14487c0.00904,-0.04283 0.03011,-0.09803 0.04617,-0.12279c0.08499,-0.12982 0.09871,-0.28875 0.09871,-1.13224c0,-0.84985 0.0194,-1.06867 0.10205,-1.16035c0.01739,-0.0194 0.0378,-0.06658 0.0455,-0.10506c0.0077,-0.03848 0.03312,-0.08699 0.05621,-0.10807c0.02309,-0.02108 0.04216,-0.05587 0.04216,-0.07762c0,-0.02175 0.02509,-0.0696 0.05587,-0.10607c0.03079,-0.03647 0.05588,-0.07294 0.05588,-0.08097c0,-0.07093 0.69159,-0.83947 0.7555,-0.83947c0.01338,0 0.03245,-0.01339 0.04215,-0.03012c0.01974,-0.03312 0.26533,-0.20878 0.36035,-0.25763c0.03313,-0.01673 0.07997,-0.04751 0.10473,-0.06825c0.02442,-0.02075 0.11008,-0.0706 0.19004,-0.11075c0.07963,-0.04015 0.16027,-0.0813 0.17867,-0.09168c0.0184,-0.01003 0.09369,-0.0455 0.16763,-0.07829c0.07361,-0.03279 0.17432,-0.07896 0.2235,-0.10238c0.04919,-0.02342 0.12447,-0.04919 0.16763,-0.05755c0.04283,-0.00803 0.09837,-0.02777 0.12279,-0.0435c0.02476,-0.01606 0.09503,-0.03981 0.15659,-0.0532c0.06123,-0.01338 0.14186,-0.03814 0.17867,-0.05487c0.0368,-0.01673 0.11242,-0.03714 0.16763,-0.0455c0.0552,-0.00837 0.15089,-0.03346 0.21246,-0.05554c0.17097,-0.06224 0.38477,-0.11343 0.5698,-0.13685c0.09201,-0.01171 0.21982,-0.03614 0.28339,-0.05454c0.06357,-0.0184 0.17934,-0.03914 0.25696,-0.04584c0.07763,-0.00702 0.20143,-0.02743 0.27537,-0.04583c0.28741,-0.07161 0.68791,-0.0977 0.73174,-0.04785c0.05587,0.06324 0.06056,2.16812 0.00502,2.27552l-0.03413,0.06591l-1.70438,0c-1.29619,0 -1.71107,0.00636 -1.73148,0.02677c-0.0445,0.04416 -0.03681,0.56779 0.00836,0.58519c0.01974,0.0077 2.3605,0.01372 5.20214,0.01372c5.12385,0 5.16702,0.00033 5.24999,0.0445c0.04584,0.02476 0.09703,0.04483 0.11343,0.04483c0.01673,0 0.07762,0.0251 0.1355,0.05588c0.05789,0.03078 0.12046,0.05587 0.13953,0.05587c0.01907,0 0.06123,0.01874 0.09368,0.04149c0.03279,0.02276 0.08867,0.04852 0.1248,0.05722c0.0358,0.0087 0.09001,0.03513 0.12012,0.05922c0.03045,0.02375 0.06892,0.04316 0.08565,0.04316c0.02577,0 0.0977,0.03312 0.29879,0.13718c0.0184,0.0097 0.15424,0.0793 0.30179,0.15525c0.14722,0.07562 0.30816,0.16094 0.35734,0.19004c0.04919,0.02878 0.12915,0.07395 0.17733,0.10038c0.04852,0.02643 0.10205,0.06223 0.11912,0.07896c0.01706,0.01707 0.04383,0.03112 0.05922,0.03112c0.01572,0 0.04684,0.02007 0.06892,0.0445c0.02242,0.02476 0.05354,0.04483 0.06893,0.04483c0.01572,0 0.04182,0.01272 0.05821,0.02777c0.04116,0.03915 0.19774,0.15759 0.24358,0.1847c0.20075,0.11743 0.66851,0.61965 0.66851,0.71735c0,0.01405 0.02241,0.07461 0.04951,0.1345c0.21113,0.46474 -0.07728,1.4424 -0.48347,1.63914c-0.14789,0.07126 -0.16027,0.09402 -0.12748,0.23153c0.01506,0.06357 0.03982,0.18101 0.0542,0.26098c0.03681,0.20008 0.11343,0.24358 0.24526,0.13919c0.01505,-0.01205 0.06424,-0.0338 0.1094,-0.04818c0.04484,-0.01439 0.08733,-0.04082 0.09402,-0.05856c0.00703,-0.01806 0.02376,-0.03245 0.03781,-0.03245c0.05755,0 0.42325,-0.38143 0.42325,-0.44132c0,-0.01171 0.01907,-0.03848 0.0425,-0.05989c0.02342,-0.02108 0.04918,-0.06491 0.05754,-0.09703c0.00803,-0.03212 0.03246,-0.08432 0.05454,-0.11577c0.02208,-0.03145 0.04684,-0.09402 0.05521,-0.13885c0.00803,-0.04484 0.03111,-0.11443 0.05119,-0.15458c0.14688,-0.29444 0.07127,-1.28146 -0.12413,-1.62007c-0.06725,-0.1161 -0.07361,-0.12647 -0.1248,-0.20209c-0.04818,-0.07093 -0.54002,-0.56745 -0.56211,-0.56745c-0.00769,0 -0.06056,-0.03815 -0.11744,-0.08465c-0.05688,-0.04685 -0.12513,-0.09938 -0.15156,-0.11744c-0.30749,-0.20945 -0.42961,-0.28674 -0.47177,-0.29979c-0.02744,-0.00837 -0.05019,-0.02309 -0.05019,-0.03279c0,-0.00937 -0.04015,-0.03547 -0.08933,-0.05755c-0.04919,-0.02242 -0.08934,-0.04818 -0.08934,-0.05755c0,-0.00937 -0.02911,-0.02375 -0.06491,-0.03145c-0.03546,-0.0077 -0.0823,-0.03379 -0.10405,-0.05755c-0.02142,-0.02409 -0.05588,-0.0435 -0.07595,-0.0435c-0.02041,0 -0.07127,-0.02509 -0.11276,-0.05587c-0.04182,-0.03078 -0.09268,-0.05588 -0.11342,-0.05588c-0.02075,0 -0.05019,-0.01505 -0.06525,-0.03346c-0.01539,-0.0184 -0.06692,-0.04516 -0.11476,-0.05955c-0.04785,-0.01439 -0.09803,-0.03948 -0.11175,-0.05588c-0.01372,-0.01639 -0.03614,-0.02978 -0.04986,-0.02978c-0.01371,0 -0.0803,-0.02643 -0.14822,-0.05821c-0.06758,-0.03212 -0.17833,-0.08398 -0.24592,-0.1151c-0.06758,-0.03112 -0.15826,-0.07395 -0.20108,-0.09536c-0.04317,-0.02108 -0.11042,-0.0455 -0.14956,-0.0542c-0.03882,-0.00837 -0.08298,-0.02978 -0.0977,-0.04751c-0.01439,-0.01774 -0.04283,-0.03212 -0.06291,-0.03212c-0.02007,-0.00034 -0.08665,-0.0251 -0.14822,-0.05521c-0.06123,-0.03011 -0.13049,-0.05521 -0.15357,-0.05554c-0.02342,-0.00067 -0.07361,-0.02008 -0.11175,-0.04316c-0.03848,-0.02309 -0.10406,-0.04952 -0.14622,-0.05856c-0.04182,-0.00869 -0.1074,-0.03513 -0.14521,-0.05821c-0.03781,-0.02309 -0.09201,-0.04183 -0.11978,-0.04216c-0.07729,0 -0.27168,-0.10673 -0.3376,-0.18503c-0.03212,-0.03814 -0.07461,-0.08498 -0.09435,-0.10405c-0.03279,-0.03179 -0.28908,-0.32957 -0.34362,-0.39916c-0.01238,-0.01606 -0.04785,-0.05722 -0.07863,-0.09135c-0.03078,-0.03412 -0.1161,-0.13048 -0.19004,-0.2138c-0.07361,-0.08364 -0.14421,-0.16327 -0.15659,-0.17699c-0.01238,-0.01372 -0.06759,-0.0803 -0.12279,-0.14756c-0.05521,-0.06725 -0.11543,-0.13851 -0.13417,-0.15825c-0.0184,-0.01974 -0.0987,-0.11008 -0.17867,-0.20042c-0.07997,-0.09034 -0.17031,-0.19105 -0.20109,-0.22417c-0.03078,-0.03279 -0.07126,-0.07863 -0.09,-0.10205c-0.32589,-0.40385 -0.48515,-0.56411 -0.57817,-0.58084c-0.04416,-0.00803 -0.11576,-0.03212 -0.15859,-0.0532c-0.04316,-0.02108 -0.13818,-0.04517 -0.21112,-0.05354c-0.07294,-0.00836 -0.14421,-0.02476 -0.1586,-0.0368c-0.01472,-0.01205 -0.13082,-0.03714 -0.25863,-0.05554c-0.12781,-0.01874 -0.2573,-0.04383 -0.28808,-0.05554c-0.03078,-0.01171 -0.19172,-0.03179 -0.35767,-0.04484c-0.16596,-0.01271 -0.40719,-0.03312 -0.53634,-0.04483c-0.29678,-0.02777 -1.04692,-0.02811 -1.29619,-0.00067c-0.10439,0.01137 -0.3744,0.03212 -0.60025,0.04584c-0.22584,0.01405 -0.43697,0.03546 -0.46942,0.04784c-0.03246,0.01238 -0.19239,0.03647 -0.35533,0.05354c-0.16295,0.01739 -0.31619,0.04182 -0.34028,0.05487c-0.02409,0.01305 -0.13718,0.03279 -0.25094,0.04383c-0.11409,0.01104 -0.24792,0.0348 -0.29744,0.05253c-0.04919,0.01773 -0.15425,0.03981 -0.23321,0.04885c-0.07896,0.00937 -0.19841,0.0358 -0.26566,0.05889c-0.06725,0.02308 -0.1432,0.04182 -0.16897,0.04182c-0.02542,0.00033 -0.1171,0.02509 -0.20309,0.05554c-0.08599,0.03045 -0.18168,0.05554 -0.21246,0.05588c-0.03045,0.00033 -0.08298,0.01505 -0.11644,0.03212c-0.03312,0.01739 -0.11476,0.04316 -0.18134,0.05688c-0.06659,0.01371 -0.13986,0.03948 -0.16295,0.05688c-0.02308,0.01739 -0.06825,0.03212 -0.10004,0.03245c-0.03212,0.00033 -0.10539,0.0261 -0.16328,0.05654c-0.05788,0.03079 -0.11409,0.05588 -0.1248,0.05588c-0.03379,0 -0.53333,0.24492 -0.54805,0.26867c-0.00736,0.01205 -0.02944,0.02209 -0.04885,0.02209c-0.01974,0 -0.09034,0.03747 -0.15759,0.08364c-0.06692,0.04618 -0.14889,0.09904 -0.18168,0.11744c-0.26901,0.15023 -0.87193,0.69929 -1.11819,1.01815c-0.03713,0.04818 -0.2148,0.30547 -0.23588,0.34161c-0.01204,0.02041 -0.04483,0.07461 -0.0726,0.12045c-0.02811,0.04584 -0.05086,0.09737 -0.05086,0.11443c0,0.01706 -0.01506,0.04383 -0.03346,0.05889c-0.0184,0.01539 -0.0455,0.06959 -0.05989,0.12011c-0.01439,0.05086 -0.03814,0.1074 -0.05286,0.12581c-0.01439,0.01873 -0.03882,0.08398 -0.05354,0.14521c-0.01505,0.06123 -0.03914,0.12547 -0.05353,0.14287c-0.0184,0.02241 -0.02945,0.25562 -0.03748,0.78627c-0.01204,0.82108 -0.0097,0.80569 -0.12379,0.75115c-0.0435,-0.02075 -0.09201,-0.03748 -0.10807,-0.03748c-0.0164,0 -0.07696,-0.02509 -0.13484,-0.05587c-0.05755,-0.03078 -0.12313,-0.05588 -0.14555,-0.05588c-0.02275,0 -0.05286,-0.01472 -0.06792,-0.03245c-0.01472,-0.01773 -0.06357,-0.04417 -0.10874,-0.05922c-0.04517,-0.01439 -0.10606,-0.04517 -0.13551,-0.06792c-0.0291,-0.02276 -0.06491,-0.04149 -0.07896,-0.04149c-0.01439,0 -0.04584,-0.01539 -0.06993,-0.03413c-0.03948,-0.03112 -0.27837,-0.19138 -0.3647,-0.24525c-0.18736,-0.11677 -0.34696,-0.25429 -0.68723,-0.59222c-0.27102,-0.26968 -0.65646,-0.76353 -0.65646,-0.84182c0,-0.01338 -0.01372,-0.03546 -0.03012,-0.04952c-0.01672,-0.01371 -0.06056,-0.08766 -0.09769,-0.16461c-0.1596,-0.33091 -0.18503,-0.38745 -0.18503,-0.41188c0,-0.01439 -0.01472,-0.05454 -0.03246,-0.08933c-0.01773,-0.0348 -0.04818,-0.12848 -0.06758,-0.20845c-0.01941,-0.07997 -0.04484,-0.18034 -0.05655,-0.2235c-0.07361,-0.27102 -0.00502,-0.9867 0.11343,-1.18444c0.01104,-0.0184 0.03479,-0.06591 0.05253,-0.10573c0.01807,-0.03948 0.04316,-0.08498 0.05587,-0.10037c0.19741,-0.24024 0.19774,-0.23288 -0.02342,-0.44199c-0.21848,-0.20644 -0.26031,-0.2215 -0.34997,-0.12514m11.66099,0.76353c0.19071,0.00736 0.3918,0.02275 0.447,0.03446c0.05521,0.01138 0.20611,0.0358 0.33526,0.05353c0.12915,0.01807 0.27503,0.04718 0.32421,0.06458c0.04885,0.0174 0.13651,0.03747 0.1944,0.0445c0.18737,0.02275 0.36369,0.12882 0.47243,0.28406c0.01506,0.02142 0.08332,0.10239 0.15224,0.18035c0.06859,0.07795 0.15358,0.17632 0.18904,0.21881c0.03547,0.04216 0.08465,0.0977 0.10908,0.12347c0.02476,0.02543 0.09502,0.10539 0.15658,0.17733c0.06123,0.07193 0.12313,0.14287 0.13752,0.15759c0.01405,0.01472 0.07896,0.09134 0.14387,0.1703c0.06491,0.07896 0.13885,0.16462 0.16428,0.19038c0.08566,0.08766 0.2031,0.22049 0.32422,0.36637c0.06591,0.07997 0.13918,0.16261 0.1626,0.18336c0.07161,0.06491 0.08967,0.16762 0.03179,0.18301c-0.02643,0.00703 -1.12187,0.01305 -2.43445,0.01339l-2.38627,0.00033l-0.02174,-0.05755c-0.0358,-0.09468 -0.02878,-2.34477 0.00769,-2.37522c0.04985,-0.04116 0.62133,-0.04618 1.49025,-0.01305m-5.10645,5.71874c-0.2302,0.04651 -0.34597,0.08499 -0.48047,0.15927c-0.03078,0.01706 -0.08733,0.04583 -0.1258,0.0639c-0.03848,0.0184 -0.07596,0.04852 -0.08332,0.06759c-0.00702,0.01874 -0.02676,0.03446 -0.04316,0.03446c-0.03714,0 -0.40384,0.38076 -0.44734,0.46441c-0.16963,0.32588 -0.19406,0.39046 -0.26165,0.68623c-0.03178,0.14019 -0.02576,0.48047 0.01105,0.61531c0.0184,0.06725 0.04483,0.17264 0.05855,0.23421c0.01372,0.06123 0.03881,0.12747 0.05587,0.14688c0.01707,0.01941 0.03112,0.04985 0.03112,0.06759c0,0.01739 0.02509,0.06892 0.05588,0.11409c0.03078,0.0455 0.05587,0.09101 0.05587,0.10205c0,0.05922 0.46106,0.48448 0.60795,0.5611c0.04048,0.02108 0.09368,0.04952 0.11844,0.0629c0.34797,0.19138 1.11785,0.2322 1.41128,0.07495c0.04684,-0.0251 0.10071,-0.04584 0.11912,-0.04617c0.01873,-0.00034 0.07528,-0.02811 0.1258,-0.06157c0.05052,-0.03346 0.13216,-0.08799 0.18168,-0.12112c0.12313,-0.08231 0.34429,-0.30246 0.42191,-0.42057c0.12079,-0.18302 0.20745,-0.34596 0.20845,-0.39214c0.00067,-0.02543 0.02944,-0.07327 0.06391,-0.1064l0.06256,-0.05989l2.94101,0l2.94068,0l0.0696,0.06491c0.03881,0.03614 0.06959,0.08766 0.06992,0.11711c0,0.02911 0.02008,0.07762 0.04417,0.1084c0.02375,0.03079 0.04383,0.06692 0.04416,0.08064c0.00168,0.089 0.36035,0.48314 0.5678,0.624c0.15324,0.10439 0.23923,0.1509 0.36001,0.1954c0.8184,0.30079 1.7529,-0.00033 2.17782,-0.70163c0.09737,-0.1606 0.178,-0.33324 0.19272,-0.41154c0.00904,-0.04851 0.03145,-0.12379 0.04986,-0.16662c0.04684,-0.11108 0.04717,-0.67285 0.00033,-0.78226c-0.0184,-0.04317 -0.04082,-0.11845 -0.04985,-0.16763c-0.00904,-0.04919 -0.0358,-0.12279 -0.05956,-0.16328c-0.02342,-0.04082 -0.04283,-0.08331 -0.04283,-0.09469c0,-0.05453 -0.18268,-0.29611 -0.33759,-0.446c-0.24224,-0.23455 -0.27102,-0.25663 -0.45571,-0.34998c-0.02476,-0.01238 -0.07996,-0.04048 -0.12313,-0.06223c-0.04282,-0.02208 -0.15357,-0.05353 -0.24592,-0.0706c-0.49351,-0.09034 -0.44132,-0.08833 -0.7401,-0.03145c-0.1519,0.02878 -0.3115,0.07093 -0.35433,0.09335c-0.04316,0.02242 -0.09268,0.04082 -0.11041,0.04082c-0.03614,0 -0.30816,0.17666 -0.42493,0.2757c-0.29142,0.24826 -0.54872,0.71166 -0.5969,1.07636c-0.00836,0.06157 -0.02576,0.11911 -0.03948,0.12815c-0.04483,0.03011 -5.85626,0.02074 -5.88637,-0.0097c-0.01472,-0.01473 -0.0271,-0.07763 -0.02744,-0.13953c-0.00033,-0.06357 -0.01974,-0.15524 -0.0445,-0.21045c-0.02442,-0.05354 -0.04483,-0.11376 -0.0455,-0.13384c-0.00033,-0.02041 -0.03312,-0.09268 -0.07261,-0.16127c-0.20744,-0.36101 -0.45871,-0.61998 -0.74177,-0.76453c-0.21949,-0.11208 -0.31485,-0.14788 -0.45839,-0.17164c-0.07963,-0.01305 -0.18536,-0.03346 -0.23454,-0.0455c-0.12781,-0.03078 -0.23521,-0.02376 -0.51392,0.03245m0.61496,0.63806c0.23756,0.04517 0.69226,0.37072 0.69226,0.49586c0,0.0184 0.01941,0.05119 0.0435,0.0726c0.02376,0.02175 0.0532,0.08097 0.06524,0.13216c0.01205,0.05086 0.03748,0.13283 0.05621,0.18202c0.01908,0.04952 0.03447,0.15926 0.03447,0.24592c0,0.08666 -0.01539,0.1964 -0.03447,0.24558c-0.01873,0.04919 -0.04416,0.13116 -0.05621,0.18235c-0.01204,0.05086 -0.04148,0.11042 -0.06524,0.13183c-0.02409,0.02175 -0.04383,0.05019 -0.04417,0.06391c-0.00301,0.08465 -0.32956,0.36001 -0.53567,0.45169c-0.19908,0.08833 -0.64341,0.09602 -0.79799,0.01371c-0.05186,-0.02743 -0.10874,-0.04985 -0.12647,-0.04985c-0.08699,0 -0.4905,-0.3831 -0.5176,-0.49117c-0.0077,-0.03112 -0.02878,-0.07294 -0.04718,-0.09335c-0.12079,-0.13417 -0.10673,-0.71367 0.02342,-0.96896c0.07662,-0.15023 0.43329,-0.52497 0.49987,-0.52497c0.02175,0 0.0619,-0.01572 0.08934,-0.03479c0.10071,-0.0706 0.48314,-0.09971 0.72069,-0.05454m9.51998,0.00167c0.64241,0.14688 1.07469,1.02417 0.77557,1.57389c-0.01338,0.02443 -0.04283,0.08265 -0.06558,0.12882c-0.05989,0.12313 -0.41656,0.4634 -0.48548,0.4634c-0.01372,0 -0.06759,0.02242 -0.11945,0.04952c-0.14119,0.07495 -0.63203,0.07528 -0.76419,0.00067c-0.04885,-0.02777 -0.10473,-0.05019 -0.1238,-0.05019c-0.01907,0 -0.05788,-0.01773 -0.08599,-0.03914c-0.21447,-0.16429 -0.29678,-0.24091 -0.35734,-0.33426c-0.03814,-0.05888 -0.08465,-0.1268 -0.10338,-0.15089c-0.01841,-0.02409 -0.0338,-0.06425 -0.03413,-0.08934c-0.00034,-0.02509 -0.02041,-0.08967 -0.04484,-0.1432c-0.06156,-0.13618 -0.06156,-0.42827 0.00067,-0.57315c0.02443,-0.05721 0.0445,-0.12714 0.0445,-0.15525c0,-0.02844 0.01606,-0.06457 0.03513,-0.08063c0.01941,-0.01606 0.05387,-0.06558 0.07629,-0.10975c0.19272,-0.37774 0.7652,-0.60192 1.25202,-0.4905" fill="#0078d3" fill-rule="evenodd" id="path0" stroke="#0078d3"/>
 </g>
</svg>