<?xml version="1.0" encoding="UTF-8" standalone="no"?>
<svg
   xmlns:dc="http://purl.org/dc/elements/1.1/"
   xmlns:cc="http://creativecommons.org/ns#"
   xmlns:rdf="http://www.w3.org/1999/02/22-rdf-syntax-ns#"
   xmlns:svg="http://www.w3.org/2000/svg"
   xmlns="http://www.w3.org/2000/svg"
   xmlns:sodipodi="http://sodipodi.sourceforge.net/DTD/sodipodi-0.dtd"
   xmlns:inkscape="http://www.inkscape.org/namespaces/inkscape"
   width="32"
   height="32"
   version="1.1"
   id="svg44"
   sodipodi:docname="ev-charge-icon-new.svg"
   inkscape:version="1.0.2 (e86c870, 2021-01-15)">
  <metadata
     id="metadata50">
    <rdf:RDF>
      <cc:Work
         rdf:about="">
        <dc:format>image/svg+xml</dc:format>
        <dc:type
           rdf:resource="http://purl.org/dc/dcmitype/StillImage" />
        <dc:title></dc:title>
      </cc:Work>
    </rdf:RDF>
  </metadata>
  <defs
     id="defs48" />
  <sodipodi:namedview
     pagecolor="#ffffff"
     bordercolor="#666666"
     borderopacity="1"
     objecttolerance="10"
     gridtolerance="10"
     guidetolerance="10"
     inkscape:pageopacity="0"
     inkscape:pageshadow="2"
     inkscape:window-width="1920"
     inkscape:window-height="1017"
     id="namedview46"
     showgrid="false"
     inkscape:zoom="26.59375"
     inkscape:cx="22.685782"
     inkscape:cy="16"
     inkscape:window-x="1912"
     inkscape:window-y="-8"
     inkscape:window-maximized="1"
     inkscape:current-layer="g182"
     inkscape:document-rotation="0" />
  <g
     id="g182">
    <g
       id="g208">
      <g
         class="currentLayer layer"
         id="g42">
        <title
           id="title31">Layer 1</title>
        <g
           fill="#0078d3"
           id="svg_1">
          <path
             id="svg_2"
             d="M 30.40536,4.24686 C 30.35469,3.2179492 29.215331,3.4088885 28.501943,3.40279 c -0.610991,0 -1.221982,0 -1.832973,0 0,0.56271 0,1.12542 0,1.68813 1.071448,-0.038781 2.163072,0.081004 3.220871,-0.066332 0.308342,-0.1253689 0.51963,-0.4480041 0.515519,-0.777728 z" />
          <path
             id="svg_3"
             d="m 29.5613,8.82731 c -0.96411,0 -1.92822,0 -2.89233,0 0,0.56271 0,1.12542 0,1.68813 1.071448,-0.03878 2.163072,0.081 3.220871,-0.06633 0.846574,-0.333335 0.573028,-1.6404147 -0.328541,-1.6218 z" />
          <path
             id="svg_4"
             d="m 21.42452,12.32365 c 1.011399,-0.03891 2.043065,0.08122 3.040801,-0.06633 0.819568,-0.459279 0.420401,-1.482853 0.515519,-2.244531 C 24.96952,7.4316739 25.00355,4.8482782 24.96369,2.2685978 24.659401,1.2751623 23.5213,1.6779321 22.751465,1.594642 21.0937,1.530896 19.307566,1.648308 18.010157,2.8197352 c -2.495765,1.9300112 -2.594432,6.066044 -0.192505,8.1120328 0.974292,0.891717 2.285986,1.398132 3.606867,1.391884 z" />
          <path
             id="svg_5"
             d="m 11.47959,24.98084 c -1.973221,-0.08841 -3.4057522,2.310409 -2.3844175,4.004034 0.8569347,1.762184 3.6106385,1.896307 4.6327685,0.223613 1.237787,-1.719069 -0.131105,-4.288426 -2.248351,-4.227647 z" />
          <path
             id="svg_6"
             d="m 25.49291,19.67635 c -6.760637,0 -13.521273,0 -20.28191,0 0,0.602717 0,1.205433 0,1.80815 C 4.5116395,21.48611 3.4877984,21.629621 3.3026323,20.716593 3.2564096,16.735505 3.29592,12.750088 3.28277,8.76733 3.2874143,7.755081 4.4045117,7.7540518 5.1432893,7.80324 c 3.0931069,0 6.1862137,0 9.2793207,0 C 14.285713,6.9548824 14.77738,5.765997 13.526231,6.11511 10.341895,6.1241628 7.1566411,6.0968814 3.9728878,6.1289706 2.3934798,6.2400537 1.3868961,7.8490333 1.59464,9.3377532 1.60383,13.156557 1.576226,16.976292 1.608512,20.794511 c 0.1111367,1.579392 1.7201202,2.585908 3.2088209,2.378179 0.6886945,-0.17719 0.288259,0.73475 0.3936668,1.140846 0.038895,0.952473 -0.081226,1.925243 0.066334,2.864045 0.2042178,0.564063 1.9560467,0.896853 1.8246275,0.06624 0.1864324,-2.672182 3.1521538,-4.636188 5.6847058,-3.75294 1.798865,0.534606 3.123312,2.323076 3.093253,4.202217 0.984123,0 1.968247,0 2.95237,0 -0.08969,-2.683416 2.67426,-4.940319 5.286101,-4.310821 1.994214,0.37521 3.553024,2.279788 3.514669,4.310821 0.750593,-0.0341 1.519619,0.07432 2.256781,-0.06633 0.819568,-0.459279 0.420401,-1.482853 0.515519,-2.244531 C 30.580417,23.445442 29.781001,21.3845 28.040207,20.387549 27.277722,19.922226 26.386001,19.674342 25.49291,19.67635 Z" />
          <path
             id="svg_7"
             d="m 22.17658,16.46244 c -1.09775,-1.19461 -2.765676,-1.389259 -4.295056,-1.3065 -0.647168,0 -1.294336,0 -1.941504,0 0,0.944093 0,1.888187 0,2.83228 2.58745,0 5.1749,0 7.76235,0 -0.508597,-0.508593 -1.017193,-1.017187 -1.52579,-1.52578 z" />
          <path
             id="svg_8"
             d="m 5.211,17.80816 c 0.085409,0.409219 0.9207445,0.06851 1.3038245,0.18006 2.5790218,0 5.1580435,0 7.7370655,0 0,-0.944093 0,-1.888187 0,-2.83228 -2.220784,0.009 -4.4424842,-0.01824 -6.6626834,0.01387 C 6.2702331,15.279127 5.1859517,16.48582 5.211,17.80816 Z" />
          <path
             id="svg_9"
             style="fill:#0078d3"
             d="m 25.944934,27.693104 c 0.07877,1.876425 -2.099412,3.305893 -3.789601,2.489115 -1.752944,-0.673118 -2.200995,-3.239671 -0.779055,-4.466524 1.314046,-1.341665 3.847273,-0.732643 4.4085,1.059194 0.105822,0.293784 0.160268,0.605961 0.160156,0.918215 z" />
        </g>
      </g>
      <path
         d="m 22.496817,5.4772069 c 0,0.2718697 0.22041,0.4922801 0.49228,0.4922801 0.27187,0 0.492279,-0.2204104 0.492279,-0.4922801 0,-0.5451837 -0.281977,-1.0693571 -0.773667,-1.4381142 C 22.371877,3.7872161 21.958656,3.6189483 21.512257,3.5473706 V 3.0157738 c 0,-0.2718698 -0.22041,-0.49228 -0.49228,-0.49228 -0.27187,0 -0.49228,0.2204102 -0.49228,0.49228 v 0.5315968 c -0.446433,0.071577 -0.859652,0.2398389 -1.195452,0.4917221 -0.49169,0.3687571 -0.773668,0.8929305 -0.773668,1.4381142 0,0.5451902 0.281978,1.0693307 0.773668,1.4381205 0.335832,0.2518833 0.749052,0.4201446 1.195452,0.4917156 v 1.9497308 c -0.567107,-0.1385997 -0.98456,-0.5066283 -0.98456,-0.9258867 0,-0.2718699 -0.22041,-0.49228 -0.492281,-0.49228 -0.271869,0 -0.492279,0.2204101 -0.492279,0.49228 0,0.5451837 0.281978,1.0693372 0.773668,1.4381207 0.335832,0.2518832 0.749052,0.4201452 1.195452,0.4917152 v 0.536553 c 0,0.271871 0.22041,0.492281 0.49228,0.492281 0.27187,0 0.492281,-0.22041 0.492281,-0.492281 v -0.536553 c 0.446432,-0.07158 0.859652,-0.239832 1.195451,-0.4917152 0.49169,-0.3687572 0.773669,-0.892937 0.773669,-1.4381207 0,-0.5451773 -0.281979,-1.0693571 -0.773669,-1.4381141 C 22.371877,6.7408965 21.958656,6.5726349 21.512257,6.5010508 V 4.5513266 c 0.567107,0.1386326 0.98456,0.5066217 0.98456,0.9258803 z m -2.953681,0 c 0,-0.4192586 0.417454,-0.7872871 0.98456,-0.9258803 V 6.4030608 C 19.96059,6.2644939 19.543136,5.8964652 19.543136,5.4772069 Z m 2.953681,2.9536802 c 0,0.4192584 -0.417453,0.787287 -0.98456,0.9258867 V 7.5050395 c 0.567107,0.1385998 0.98456,0.5065956 0.98456,0.9258476 z"
         id="path71"
         style="fill:#ffffff;fill-opacity:1;stroke-width:0.0328187" />
      <path
         id="path125"
         style="fill:#ffffff;fill-opacity:1;stroke-width:0.0328187"
         d="m 22.496817,5.4772069 c -0.02079,0.3998212 0.510117,0.6501949 0.805412,0.3798643 0.29968,-0.2596023 0.163904,-0.7079789 0.04438,-1.0248928 -0.31464,-0.7278531 -1.073758,-1.167012 -1.834352,-1.2848078 -0.02385,-0.2821737 0.07168,-0.6015286 -0.112416,-0.8447289 -0.23705,-0.3196132 -0.801904,-0.179347 -0.862142,0.2139231 -0.02059,0.2091645 -0.0053,0.4206369 -0.01,0.6308058 -0.873487,0.1280731 -1.760642,0.71636 -1.939856,1.6262724 -0.168808,0.8071875 0.369346,1.6079768 1.08057,1.9529275 0.26841,0.1400907 0.560627,0.2325791 0.859286,0.2804725 0,0.6499103 0,1.2998205 0,1.9497308 -0.465052,-0.1093561 -0.996481,-0.4388304 -0.987102,-0.976218 -0.0203,-0.3983601 -0.570693,-0.5940182 -0.837829,-0.2977599 -0.254659,0.2719597 -0.123062,0.6864005 -0.0094,0.9931143 0.314645,0.7278499 1.073749,1.1670368 1.834353,1.2848128 0.02124,0.270564 -0.05953,0.566415 0.08408,0.811788 0.205094,0.340272 0.779538,0.255901 0.878352,-0.128849 0.04302,-0.224052 0.01334,-0.455505 0.02213,-0.682939 0.873489,-0.12807 1.760644,-0.7163556 1.939856,-1.6262714 C 23.620919,7.9272674 23.082778,7.1264694 22.371543,6.781534 22.103132,6.6414442 21.810915,6.5489531 21.512257,6.5010508 c 0,-0.6499081 0,-1.2998161 0,-1.9497242 0.446227,0.1104094 0.965486,0.4101958 0.98456,0.9258803 z m -2.953681,0 c 0.02232,-0.5137038 0.535627,-0.8175504 0.98456,-0.9258803 0,0.6172447 0,1.2344895 0,1.8517342 C 20.08145,6.2927039 19.562208,5.9928847 19.543136,5.4772069 Z m 2.953681,2.9536802 c -0.02232,0.5137049 -0.535627,0.8175516 -0.98456,0.9258867 0,-0.6172448 0,-1.2344895 0,-1.8517343 0.44623,0.1103823 0.965486,0.4101697 0.98456,0.9258476 z" />
    </g>
  </g>
</svg>
