<?xml version="1.0"?>
<svg width="32" height="32" xmlns="http://www.w3.org/2000/svg" xmlns:svg="http://www.w3.org/2000/svg">
 <g class="currentLayer layer">
  <title>Layer 1</title>
  <path d="m7.35198,2.59155c-0.18626,0.01287 -0.42126,0.0446 -0.52243,0.07128c-0.10117,0.02621 -0.2511,0.05702 -0.33296,0.06852c-0.08185,0.01104 -0.20648,0.04507 -0.27638,0.07496c-0.07037,0.02989 -0.17706,0.06346 -0.23684,0.07496c-0.06025,0.01104 -0.16326,0.04783 -0.22948,0.0814c-0.06577,0.03357 -0.13889,0.06116 -0.16234,0.06116c-0.02346,0 -0.0791,0.01978 -0.12417,0.04415c-0.04461,0.02392 -0.19913,0.10026 -0.34261,0.16924c-0.32422,0.1559 -0.68293,0.35963 -0.93264,0.5307c-0.07634,0.05197 -0.42723,0.33296 -0.61671,0.49392c-0.22442,0.18993 -0.4562,0.43183 -0.71281,0.74317c-0.12509,0.15222 -0.24512,0.29708 -0.26627,0.32237c-0.0814,0.09612 -0.32836,0.48196 -0.32836,0.51323c0,0.01748 -0.01978,0.04875 -0.04461,0.06944c-0.02437,0.02024 -0.12187,0.19821 -0.2166,0.39504c-0.09474,0.19729 -0.19913,0.40976 -0.23224,0.4723c-0.03266,0.06255 -0.05933,0.13889 -0.05933,0.17016c0,0.03081 -0.02759,0.11083 -0.06162,0.17705c-0.03357,0.06623 -0.06117,0.13843 -0.06117,0.16096c0,0.02208 -0.03357,0.14716 -0.07404,0.27731c-0.22258,0.71328 -0.3095,2.29481 -0.1605,2.92531c0.0299,0.12647 0.06623,0.30628 0.08048,0.39918c0.03127,0.20234 0.14211,0.58175 0.22029,0.75466c0.03127,0.06853 0.05656,0.14303 0.05656,0.16556c0,0.04369 0.0814,0.2327 0.20189,0.46954c0.04093,0.08048 0.0745,0.16464 0.0745,0.18763c0,0.02254 0.02667,0.06531 0.05979,0.0952c0.03265,0.02943 0.06806,0.09243 0.07864,0.1398c0.01011,0.04691 0.04552,0.10991 0.07818,0.13981c0.03311,0.02943 0.05978,0.07174 0.05978,0.09289c0,0.02162 0.01886,0.05795 0.04139,0.08048c0.02253,0.02254 0.05932,0.07542 0.0814,0.11727c0.19361,0.36607 1.16626,1.41414 1.55302,1.67305c0.10025,0.0676 0.19361,0.14027 0.20741,0.16188c0.01379,0.02115 0.06898,0.05979 0.12279,0.08508c0.15957,0.07542 0.28098,0.15038 0.30582,0.18901c0.01287,0.01977 0.07174,0.05197 0.1306,0.07174c0.05887,0.01932 0.10716,0.04691 0.10716,0.06117c0,0.01425 0.05196,0.04276 0.11543,0.063c0.063,0.02023 0.13566,0.05427 0.16095,0.07542c0.0253,0.0207 0.09704,0.05427 0.15912,0.07404c0.06163,0.02024 0.12923,0.05657 0.14947,0.08094c0.02023,0.02437 0.06622,0.04461 0.10209,0.04461c0.03633,0.00046 0.13934,0.03495 0.22994,0.0768c0.09014,0.04231 0.19085,0.0768 0.2235,0.0768c0.03311,0 0.09014,0.01977 0.12785,0.04415c0.03725,0.02391 0.16464,0.06024 0.28283,0.08048c0.11819,0.01977 0.2304,0.04875 0.24925,0.06346c0.01886,0.01518 0.20557,0.04829 0.41482,0.07358c0.20924,0.0253 0.47735,0.05933 0.59554,0.07542c0.41942,0.05703 1.52037,-0.02253 1.8892,-0.13658c0.07588,-0.02346 0.2281,-0.05841 0.33755,-0.07772c0.10991,-0.01932 0.22764,-0.05289 0.26122,-0.07404c0.03403,-0.02162 0.10623,-0.04783 0.16141,-0.05841c0.05473,-0.01103 0.16096,-0.04783 0.23638,-0.08186c0.07496,-0.03403 0.15268,-0.06208 0.17246,-0.06208c0.01977,0 0.086,-0.02713 0.14762,-0.06025c0.06117,-0.03311 0.21523,-0.10945 0.34169,-0.17015c0.12693,-0.06071 0.28605,-0.1444 0.35365,-0.18625c0.06761,-0.04185 0.15728,-0.09336 0.19959,-0.11359c0.04231,-0.0207 0.0952,-0.05519 0.11727,-0.07635c0.02254,-0.02161 0.07082,-0.05518 0.10761,-0.0745c0.25524,-0.1352 1.18834,-0.98782 1.43392,-1.30974c0.04185,-0.05565 0.10439,-0.13429 0.13796,-0.17567c0.03403,-0.04093 0.09612,-0.12417 0.13843,-0.18488c0.0423,-0.0607 0.10577,-0.14762 0.14164,-0.19269c0.03587,-0.04553 0.0745,-0.11359 0.08646,-0.15176c0.01195,-0.03771 0.03311,-0.06898 0.04691,-0.06898c0.01379,0 0.04736,-0.05519 0.0745,-0.12279c0.02713,-0.0676 0.0607,-0.12279 0.07542,-0.12279c0.01425,0 0.04231,-0.0538 0.06162,-0.11911c0.01978,-0.06576 0.05657,-0.13658 0.08186,-0.15774c0.02529,-0.02069 0.04599,-0.05748 0.04599,-0.0814c0,-0.02437 0.03449,-0.10899 0.0768,-0.18809c0.04185,-0.07956 0.0768,-0.16234 0.0768,-0.18441c0,-0.02162 0.02759,-0.09382 0.06116,-0.16004c0.03403,-0.06622 0.06163,-0.14532 0.06163,-0.17613c0,-0.03036 0.02575,-0.10348 0.05702,-0.16234c0.03127,-0.05887 0.06669,-0.17154 0.07818,-0.25064c0.01196,-0.0791 0.04829,-0.22028 0.0814,-0.3141c0.03265,-0.09381 0.05979,-0.24328 0.06025,-0.33249c0,-0.08922 0.02345,-0.25202 0.0515,-0.36147c0.07312,-0.28697 0.07312,-1.33274 0,-1.66523c-0.02851,-0.13015 -0.05196,-0.29939 -0.05196,-0.37619c0,-0.0768 -0.02852,-0.2212 -0.06301,-0.32099c-0.03449,-0.0998 -0.07496,-0.24834 -0.09013,-0.3302c-0.03174,-0.17245 -0.13521,-0.48104 -0.20097,-0.59923c-0.02484,-0.0446 -0.04507,-0.09887 -0.04507,-0.12048c0,-0.04277 -0.29709,-0.64522 -0.41573,-0.84205c-0.04047,-0.0676 -0.09566,-0.16464 -0.12233,-0.21522c-0.02622,-0.05059 -0.08968,-0.14763 -0.14027,-0.21523c-0.05012,-0.0676 -0.11451,-0.15728 -0.14256,-0.19959c-0.20097,-0.30214 -1.15017,-1.26927 -1.33918,-1.36493c-0.01977,-0.01011 -0.09151,-0.05978 -0.15912,-0.11037c-0.22258,-0.16602 -0.38676,-0.27547 -0.41389,-0.27547c-0.01472,0 -0.06576,-0.03173 -0.11359,-0.07082c-0.07634,-0.06162 -0.59141,-0.32468 -0.85492,-0.43597c-0.28973,-0.12233 -0.44425,-0.17843 -0.56014,-0.20189c-0.07174,-0.01471 -0.16877,-0.04644 -0.21568,-0.07082c-0.04691,-0.02391 -0.15406,-0.0538 -0.23822,-0.06576c-0.08416,-0.01196 -0.26397,-0.04737 -0.39918,-0.07818c-0.28467,-0.06484 -1.39988,-0.09979 -1.96553,-0.06162m1.68868,0.90826c0.20235,0.04231 0.3978,0.0768 0.43413,0.0768c0.03679,0 0.12693,0.02714 0.20051,0.06071c0.07358,0.03357 0.16878,0.06116 0.21109,0.06162c0.0423,0 0.12554,0.02621 0.18441,0.05795c0.05886,0.03127 0.15544,0.0676 0.2143,0.08002c0.05933,0.01287 0.12831,0.04047 0.1536,0.06162c0.0253,0.02161 0.09704,0.05519 0.15912,0.07496c0.06163,0.02024 0.12923,0.05657 0.14946,0.08094c0.02024,0.02437 0.05887,0.04415 0.08554,0.04415c0.02622,0 0.0975,0.03173 0.15728,0.0699c0.14257,0.09152 0.21247,0.13383 0.32192,0.19453c0.50357,0.28053 1.73789,1.50657 1.73789,1.7264c0,0.01609 0.02024,0.04599 0.04507,0.06668c0.08232,0.06852 0.50541,0.86274 0.50725,0.95288c0.00046,0.02529 0.02851,0.08783 0.06209,0.13842c0.03357,0.05059 0.06116,0.12371 0.06116,0.1628c0,0.03863 0.02207,0.11267 0.04829,0.16418c0.02667,0.05104 0.06806,0.18809 0.09243,0.30352c0.02392,0.11543 0.05795,0.24788 0.07542,0.2934c0.13245,0.34905 0.12141,2.15731 -0.01517,2.48153c-0.02254,0.05288 -0.05749,0.18625 -0.07726,0.2957c-0.02024,0.10991 -0.05013,0.20787 -0.06576,0.21753c-0.0161,0.01011 -0.03726,0.0722 -0.04737,0.13842c-0.01012,0.06622 -0.04231,0.16188 -0.07174,0.21247c-0.02944,0.05058 -0.06301,0.13244 -0.07497,0.18211c-0.01149,0.04921 -0.04782,0.12371 -0.08047,0.1651c-0.03312,0.04185 -0.05979,0.09841 -0.05979,0.12646c0,0.0276 -0.02391,0.08462 -0.05335,0.12647c-0.06208,0.08738 -0.1375,0.22028 -0.20004,0.35227c-0.02438,0.05059 -0.06715,0.11129 -0.0952,0.13429c-0.02759,0.02299 -0.05059,0.0584 -0.05059,0.07772c0,0.01977 -0.02713,0.0699 -0.05978,0.11129c-0.29617,0.37618 -0.40148,0.50173 -0.5652,0.6751c-0.20142,0.21201 -0.60612,0.57992 -0.6912,0.62728c-0.02805,0.01564 -0.06484,0.04415 -0.0814,0.06347c-0.02713,0.03035 -0.34537,0.24052 -0.52242,0.34491c-0.17246,0.10163 -0.7303,0.3771 -0.76341,0.3771c-0.02069,0 -0.09151,0.0276 -0.15728,0.06117c-0.06622,0.03357 -0.16923,0.07036 -0.22902,0.08186c-0.05978,0.01103 -0.16464,0.04552 -0.23224,0.07634c-0.0676,0.03081 -0.16464,0.05656 -0.21522,0.05702c-0.05059,0.00046 -0.18212,0.03035 -0.29203,0.06576c-0.27961,0.09152 -1.65879,0.12003 -2.04234,0.04277c-0.1352,-0.02713 -0.34583,-0.06944 -0.46816,-0.09335c-0.12232,-0.02392 -0.26029,-0.06301 -0.3072,-0.08646c-0.04644,-0.02391 -0.13796,-0.05289 -0.20234,-0.06438c-0.06439,-0.01196 -0.16142,-0.04829 -0.21523,-0.08094c-0.05335,-0.03265 -0.13382,-0.05933 -0.17797,-0.05979c-0.04461,0 -0.0975,-0.01977 -0.11773,-0.04461c-0.02024,-0.02437 -0.08784,-0.0607 -0.14992,-0.08048c-0.06163,-0.01977 -0.13337,-0.05426 -0.15866,-0.07588c-0.0253,-0.02207 -0.08324,-0.0492 -0.12831,-0.06024c-0.04507,-0.0115 -0.10623,-0.04691 -0.13521,-0.07956c-0.02943,-0.03219 -0.06668,-0.05841 -0.08369,-0.05841c-0.02898,0 -0.15682,-0.08369 -0.4976,-0.32513c-0.34767,-0.2465 -1.01956,-0.90873 -1.20949,-1.19248c-0.04415,-0.06622 -0.10117,-0.14946 -0.12646,-0.18533c-0.0253,-0.03587 -0.07405,-0.11083 -0.10762,-0.16648c-0.03403,-0.05518 -0.11267,-0.17935 -0.17567,-0.27547c-0.06301,-0.09565 -0.11497,-0.19499 -0.11589,-0.22028c-0.00092,-0.02529 -0.02851,-0.08094 -0.06163,-0.12279c-0.03311,-0.04231 -0.0607,-0.09059 -0.06162,-0.10761c-0.00092,-0.01702 -0.03587,-0.09979 -0.07726,-0.18441c-0.04185,-0.08462 -0.07588,-0.17476 -0.07588,-0.20005c0,-0.02575 -0.02621,-0.09474 -0.05795,-0.1536c-0.03127,-0.05933 -0.0676,-0.1697 -0.08048,-0.24558c-0.01241,-0.07588 -0.04138,-0.17475 -0.06438,-0.21982c-0.02299,-0.04461 -0.05564,-0.19683 -0.07266,-0.33756c-0.01656,-0.14118 -0.05151,-0.33249 -0.0768,-0.42539c-0.07266,-0.26305 -0.06576,-1.238 0.01058,-1.52129c0.03173,-0.11773 0.06576,-0.3072 0.07542,-0.42079c0.00965,-0.11359 0.03863,-0.24695 0.06392,-0.29616c0.02575,-0.04921 0.05611,-0.14992 0.0676,-0.2235c0.0115,-0.07359 0.04645,-0.18212 0.07772,-0.24098c0.03128,-0.05887 0.05657,-0.12647 0.05657,-0.15038c0,-0.0837 0.32192,-0.73857 0.51507,-1.04808c0.10255,-0.16371 0.11727,-0.18487 0.33709,-0.47643c0.26995,-0.35825 1.00668,-1.08992 1.09728,-1.08992c0.0115,0 0.08646,-0.05519 0.16648,-0.12279c0.08048,-0.0676 0.16141,-0.12325 0.17981,-0.12325c0.01886,0 0.07312,-0.03127 0.12095,-0.07036c0.04783,-0.03863 0.12141,-0.08738 0.16372,-0.10853c0.04231,-0.02162 0.11819,-0.05979 0.16877,-0.08508c0.05105,-0.0253 0.11313,-0.05933 0.13843,-0.07542c0.02529,-0.0161 0.08048,-0.04507 0.12279,-0.06393c0.04231,-0.01839 0.14624,-0.06668 0.23086,-0.10715c0.08462,-0.04001 0.17475,-0.07312 0.20051,-0.07312c0.02575,0 0.07358,-0.01886 0.10715,-0.04185c0.03311,-0.02345 0.10899,-0.05243 0.16786,-0.06484c0.05932,-0.01288 0.19039,-0.04783 0.29202,-0.07818c0.10117,-0.03082 0.33617,-0.08416 0.52197,-0.11865c0.18625,-0.03495 0.3656,-0.06898 0.39963,-0.07588c0.24604,-0.05059 1.21731,-0.01518 1.5659,0.05702m-1.28767,1.68087c-0.03817,0.05427 -0.04783,0.16096 -0.04783,0.52151c0,0.5468 0.01012,0.533 -0.42998,0.56473c-0.1605,0.0115 -0.36101,0.04599 -0.44563,0.0768c-0.08462,0.03035 -0.20879,0.06485 -0.27639,0.0768c-0.0676,0.0115 -0.17108,0.04599 -0.2304,0.07588c-0.05933,0.0299 -0.19039,0.09474 -0.29203,0.14441c-0.33479,0.16417 -0.39457,0.2051 -0.61578,0.42447c-0.77812,0.7703 -0.52058,1.75675 0.60061,2.29987c0.09289,0.04507 0.22028,0.10899 0.28237,0.14164c0.06254,0.03265 0.14164,0.05979 0.17567,0.05979c0.03403,0 0.13199,0.02759 0.21707,0.06116c0.08553,0.03357 0.23453,0.06944 0.33157,0.0791c0.38492,0.03863 0.65211,0.11037 0.66913,0.17889c0.00828,0.03587 0.0115,0.43781 0.0069,0.89401l-0.00874,0.82963l-0.25248,-0.00506c-0.16142,-0.00322 -0.2888,-0.02299 -0.35181,-0.05472c-0.05426,-0.02668 -0.15452,-0.05749 -0.22304,-0.06715c-0.11129,-0.01655 -0.35227,-0.11037 -0.52426,-0.20372c-0.03358,-0.0184 -0.09152,-0.04921 -0.12831,-0.06899c-0.03679,-0.01885 -0.12785,-0.09933 -0.20281,-0.17843c-0.09014,-0.09566 -0.1605,-0.14348 -0.20925,-0.14256c-0.08691,0.00138 -0.33387,0.0653 -0.38814,0.10025c-0.02069,0.01334 -0.10715,0.04461 -0.19223,0.0699c-0.17199,0.05105 -0.17935,0.07128 -0.09657,0.26443c0.11819,0.27593 0.8333,0.85447 1.05543,0.85401c0.02161,0 0.09427,0.02621 0.16188,0.0584c0.212,0.10026 0.54082,0.18717 0.87561,0.23132c0.17752,0.02346 0.36055,0.05749 0.407,0.07542l0.08461,0.03265l0,0.4792c0,0.6282 -0.02115,0.59739 0.41298,0.59739c0.48885,0 0.447,0.05058 0.447,-0.53668c0,-0.37711 0.01012,-0.50817 0.04047,-0.53347c0.05519,-0.04599 0.36055,-0.11865 0.60475,-0.1444c0.10945,-0.0115 0.23408,-0.03863 0.27639,-0.05979c0.04231,-0.02161 0.12509,-0.04874 0.18441,-0.0607c0.17062,-0.03449 0.65119,-0.25569 0.80387,-0.36975c0.04507,-0.03357 0.13981,-0.10255 0.21017,-0.1536c0.11083,-0.0791 0.20005,-0.17843 0.41113,-0.45528c0.02392,-0.03127 0.05243,-0.10715 0.06439,-0.16924c0.0115,-0.06208 0.03449,-0.12876 0.05105,-0.14854c0.10485,-0.12738 0,-0.7818 -0.14487,-0.90229c-0.02437,-0.02023 -0.04461,-0.05334 -0.04461,-0.07358c0,-0.02023 -0.03081,-0.06622 -0.06898,-0.10255c-0.03771,-0.03633 -0.09657,-0.09566 -0.13061,-0.13199c-0.13428,-0.14348 -0.41343,-0.33433 -0.64567,-0.44102c-0.13474,-0.06209 -0.28421,-0.13291 -0.33203,-0.15728c-0.04783,-0.02438 -0.11314,-0.04415 -0.14487,-0.04415c-0.03173,0 -0.16372,-0.03495 -0.2934,-0.0768c-0.12923,-0.04231 -0.30306,-0.0768 -0.38676,-0.0768c-0.47184,0 -0.46034,0.02575 -0.44839,-1.05865l0.00874,-0.79744l0.10163,-0.02943c0.25202,-0.0722 1.20765,0.28467 1.49922,0.56014c0.15958,0.15084 0.27409,0.1605 0.43137,0.03679c0.04415,-0.03449 0.10439,-0.06301 0.13336,-0.06301c0.02944,0 0.0883,-0.02759 0.13061,-0.06116c0.04277,-0.03311 0.11359,-0.0745 0.15774,-0.09106c0.09152,-0.03495 0.10071,-0.06898 0.03449,-0.12462c-0.02529,-0.0207 -0.04645,-0.05519 -0.04645,-0.07635c0,-0.04874 -0.40929,-0.43734 -0.50817,-0.48287c-0.04139,-0.01886 -0.07542,-0.04461 -0.07542,-0.05749c0,-0.01287 -0.0469,-0.03909 -0.10485,-0.05794c-0.05794,-0.01932 -0.12095,-0.05381 -0.14026,-0.07726c-0.01932,-0.02346 -0.07956,-0.05197 -0.13337,-0.06347c-0.05335,-0.01149 -0.13888,-0.04276 -0.18947,-0.06852c-0.05105,-0.02621 -0.16832,-0.06484 -0.26121,-0.08646c-0.0929,-0.02115 -0.22443,-0.05978 -0.29203,-0.08553c-0.0676,-0.02576 -0.18487,-0.04829 -0.26075,-0.04967c-0.46678,-0.0092 -0.49116,-0.03955 -0.49254,-0.61256c-0.00138,-0.57808 0.0161,-0.55462 -0.42309,-0.55462c-0.31686,0 -0.34399,0.0046 -0.38814,0.06806m14.69645,1.73054c-0.07588,0.02391 -0.17291,0.04369 -0.21568,0.04369c-0.32836,0.0023 -1.28951,0.78685 -1.28951,1.05313c0,0.01563 -0.0276,0.06346 -0.06163,0.10623c-0.03357,0.04323 -0.06116,0.10807 -0.06116,0.1444c0,0.03633 -0.02759,0.1444 -0.06162,0.24052c-0.05519,0.15682 -0.06117,0.25385 -0.06117,0.93034c0,0.46218 -0.01242,0.77858 -0.03219,0.81491c-0.03081,0.05795 -0.09106,0.05933 -2.51694,0.05933l-2.4852,0l-0.04783,0.06806c-0.07036,0.10071 -0.0699,0.7772 0.00092,0.80387c0.02668,0.01058 1.16535,0.01886 2.53028,0.01886c1.96139,0 2.48842,0.00828 2.51417,0.03863c0.01978,0.02437 0.03587,0.35089 0.04185,0.87101c0.00736,0.59141 0.02069,0.84481 0.04737,0.87654c0.02023,0.02437 0.04645,0.10623 0.0584,0.18119c0.0115,0.07542 0.05381,0.18488 0.09336,0.24374c0.03955,0.05887 0.0722,0.12233 0.0722,0.14118c0,0.01886 0.02759,0.05933 0.06116,0.08968c0.03404,0.03081 0.06163,0.07082 0.06209,0.08922c0.00092,0.08416 0.50127,0.52518 0.72155,0.63648c0.05059,0.02529 0.11957,0.06116 0.1536,0.07909c0.03358,0.01794 0.1651,0.06531 0.29157,0.10532l0.2304,0.07266l2.06441,0.0092c2.21479,0.00965 2.1196,0.01563 2.30079,-0.14027c0.12601,-0.10853 0.13475,-0.16418 0.13475,-0.83192c0,-0.54542 0.00781,-0.65258 0.04828,-0.69351c0.04231,-0.0423 0.19959,-0.04828 1.2587,-0.04828c1.42609,0 1.27939,0.05794 1.26651,-0.49898l-0.00827,-0.37618l-1.25778,-0.00828c-0.95931,-0.00598 -1.26376,-0.01701 -1.28215,-0.04598c-0.01334,-0.0207 -0.02438,-0.58773 -0.02484,-1.25962l-0.00045,-1.22191l0.07909,-0.02989c0.04599,-0.01748 0.57072,-0.02989 1.27158,-0.02989c1.05911,0 1.19477,-0.00552 1.21133,-0.04875c0.03541,-0.0929 0.02023,-0.73581 -0.0184,-0.77444c-0.02759,-0.02759 -0.35227,-0.03725 -1.27157,-0.03725c-1.09728,0 -1.23662,-0.00506 -1.25318,-0.04829c-0.01012,-0.02667 -0.01885,-0.33893 -0.01885,-0.69304c0,-0.74363 -0.01564,-0.7979 -0.27317,-0.9308c-0.13199,-0.06853 -4.05616,-0.06853 -4.27277,0m-14.75991,1.08854l0,0.87561l-0.26075,-0.00736c-0.18074,-0.00505 -0.30583,-0.02621 -0.40516,-0.06898c-0.0791,-0.03403 -0.17797,-0.06208 -0.21982,-0.06208c-0.06531,0 -0.30261,-0.09842 -0.45023,-0.18717c-0.02529,-0.01518 -0.08048,-0.04231 -0.12187,-0.06025c-0.10025,-0.04277 -0.36698,-0.33019 -0.38952,-0.41941c-0.05104,-0.20373 0.19269,-0.46816 0.60337,-0.65487c0.04231,-0.01932 0.11819,-0.05611 0.16923,-0.08232c0.05059,-0.02575 0.16786,-0.0653 0.26076,-0.08738c0.09289,-0.02207 0.23822,-0.06116 0.32283,-0.08692c0.08416,-0.02575 0.22949,-0.04415 0.32238,-0.04047l0.16878,0.00644l0,0.87516m18.36769,-0.21569l0.0791,0.03036l-0.00828,2.93174c-0.00414,1.61235 -0.01932,2.94279 -0.03357,2.95704c-0.05565,0.05565 -3.20814,0.04921 -3.49143,-0.00735c-0.37296,-0.0745 -0.60888,-0.23408 -0.83652,-0.56612c-0.15498,-0.22534 -0.15728,-0.25891 -0.16924,-2.30401c-0.01196,-1.94346 -0.00276,-2.14903 0.10071,-2.33436c0.02392,-0.04231 0.06071,-0.11083 0.08232,-0.15222c0.13337,-0.25477 0.50725,-0.51047 0.8071,-0.55186c0.26857,-0.03679 3.37323,-0.03955 3.46981,-0.00322m-16.98207,2.1242c0.0184,0.01471 0.10808,0.04047 0.19959,0.05794c0.09106,0.01702 0.22121,0.05703 0.28881,0.08968c0.0676,0.03219 0.15728,0.07404 0.19959,0.09336c0.57163,0.25983 0.7542,0.68154 0.40377,0.93494c-0.2166,0.15682 -0.34491,0.2327 -0.42769,0.25339c-0.04599,0.0115 -0.12509,0.04599 -0.17567,0.07726c-0.05059,0.03081 -0.13383,0.05611 -0.18441,0.05611c-0.05059,0.00046 -0.13383,0.02253 -0.18442,0.0492c-0.12738,0.06715 -0.4539,0.1113 -0.5514,0.07405l-0.07818,-0.02944l0,-0.8287c0,-0.75651 0.0046,-0.83147 0.05381,-0.86044c0.05933,-0.03495 0.40148,-0.01058 0.4562,0.03265m-6.43191,5.72185c-0.04874,0.05243 -0.13198,0.16418 -0.18487,0.2488c-0.05289,0.08461 -0.11175,0.17107 -0.12969,0.19269c-0.01839,0.02161 -0.04828,0.0837 -0.06668,0.13842c-0.01839,0.05427 -0.05105,0.11957 -0.07266,0.14486c-0.02161,0.0253 -0.04875,0.08784 -0.05978,0.13843c-0.01104,0.05059 -0.04553,0.16142 -0.0768,0.24558c-0.14349,0.3886 -0.14257,1.62246 0.00137,2.02761c0.0299,0.08416 0.06393,0.20695 0.07497,0.27272c0.01103,0.06576 0.0469,0.16923 0.07956,0.22994c0.03265,0.0607 0.05932,0.13382 0.05932,0.16187c0,0.04369 0.0929,0.25754 0.18487,0.42586c0.0138,0.02529 0.07082,0.13566 0.12647,0.24557c0.05565,0.10991 0.13245,0.23868 0.17108,0.28651c0.03909,0.04783 0.07036,0.09979 0.07036,0.11543c0,0.03127 0.37112,0.55784 0.46402,0.65809c0.03081,0.03357 0.09519,0.10439 0.1421,0.15682c0.46586,0.52243 1.1681,1.14879 1.54705,1.37873c0.02759,0.01701 0.10393,0.06254 0.16969,0.10117c0.06577,0.03863 0.18166,0.11083 0.25754,0.1605c0.07588,0.05013 0.15912,0.09887 0.18441,0.10899c0.02529,0.00966 0.07358,0.03311 0.10761,0.05197c0.06806,0.03817 0.17706,0.09013 0.384,0.18349c0.07588,0.03449 0.18901,0.0883 0.25156,0.12003c0.06254,0.03127 0.13842,0.05749 0.16923,0.05749c0.03036,0.00046 0.12417,0.03449 0.20879,0.07588c0.08462,0.04139 0.16786,0.07588 0.18579,0.07634c0.07542,0.0023 0.10348,0.07036 0.06255,0.15176c-0.02208,0.04369 -0.04967,0.15176 -0.06071,0.23914c-0.01103,0.08783 -0.04415,0.21246 -0.07266,0.27638c-0.07772,0.17384 -0.07818,1.20582 -0.00046,1.35666c0.02897,0.05656 0.06209,0.15314 0.07358,0.21476c0.0115,0.06163 0.05335,0.17292 0.09336,0.24742c0.03955,0.0745 0.07174,0.15176 0.07174,0.17199c0,0.02024 0.02759,0.06163 0.06162,0.09244c0.03358,0.03035 0.06117,0.06806 0.06117,0.08324c0,0.01518 0.04507,0.08462 0.09979,0.15406c0.36745,0.46402 0.85262,0.7657 0.85262,0.53024c0,-0.01885 0.02576,-0.06208 0.05749,-0.09611c0.03173,-0.03403 0.06806,-0.09566 0.08048,-0.13659c0.01242,-0.04093 0.04599,-0.10209 0.0745,-0.13566c0.16648,-0.19637 0.15636,-0.22488 -0.18763,-0.51737c-0.36009,-0.30582 -0.59509,-0.97311 -0.51875,-1.47346c0.06255,-0.40976 0.11497,-0.65027 0.1628,-0.74317c0.02575,-0.05059 0.05748,-0.14026 0.07036,-0.19913c0.01242,-0.05886 0.04139,-0.13474 0.06347,-0.16878c0.11681,-0.17843 0.13566,-0.39687 0.13566,-1.55624c0,-1.1681 0.02667,-1.46886 0.14026,-1.59487c0.02392,-0.02667 0.05197,-0.09151 0.06255,-0.1444c0.01058,-0.05289 0.04553,-0.11957 0.07726,-0.14854c0.03173,-0.02898 0.05794,-0.0768 0.05794,-0.1067c0,-0.02989 0.03449,-0.09565 0.0768,-0.14578c0.04231,-0.05012 0.0768,-0.10025 0.0768,-0.11129c0,-0.09749 0.95058,-1.15384 1.03842,-1.15384c0.01839,0 0.04461,-0.0184 0.05794,-0.04139c0.02714,-0.04553 0.36469,-0.28697 0.4953,-0.35411c0.04552,-0.023 0.10991,-0.0653 0.14394,-0.09382c0.03357,-0.02851 0.1513,-0.09703 0.26121,-0.15222c0.10945,-0.05518 0.22029,-0.11175 0.24558,-0.12601c0.02529,-0.01379 0.12877,-0.06254 0.2304,-0.10761c0.10117,-0.04507 0.2396,-0.10853 0.3072,-0.14072c0.0676,-0.03219 0.17108,-0.06761 0.2304,-0.0791c0.05887,-0.01104 0.13521,-0.03817 0.16878,-0.05979c0.03403,-0.02207 0.1306,-0.05472 0.21522,-0.07312c0.08416,-0.01839 0.19499,-0.05242 0.24558,-0.07542c0.05059,-0.02299 0.15452,-0.05105 0.2304,-0.06254c0.07588,-0.0115 0.20741,-0.04599 0.29203,-0.07634c0.235,-0.08554 0.52886,-0.1559 0.78318,-0.18809c0.12646,-0.0161 0.30214,-0.04967 0.38952,-0.07497c0.08737,-0.02529 0.24649,-0.0538 0.35318,-0.063c0.1067,-0.00966 0.27685,-0.03771 0.37849,-0.063c0.39504,-0.09842 0.94551,-0.13429 1.00576,-0.06577c0.0768,0.08692 0.08324,2.98004 0.0069,3.12766l-0.04691,0.0906l-2.34264,0c-1.78158,0 -2.35184,0.00874 -2.37989,0.03679c-0.06116,0.0607 -0.05059,0.78042 0.0115,0.80433c0.02713,0.01058 3.24447,0.01886 7.15024,0.01886c7.04264,0 7.10196,0.00046 7.21601,0.06116c0.06301,0.03403 0.13337,0.06163 0.1559,0.06163c0.023,0 0.10669,0.03449 0.18625,0.0768c0.07956,0.04231 0.16556,0.0768 0.19178,0.0768c0.02621,0 0.08415,0.02575 0.12876,0.05702c0.04507,0.03127 0.12187,0.06668 0.17154,0.07864c0.04921,0.01196 0.12371,0.04829 0.1651,0.0814c0.04185,0.03265 0.09473,0.05933 0.11773,0.05933c0.03541,0 0.13428,0.04552 0.41067,0.18855c0.02529,0.01333 0.21201,0.10899 0.41481,0.21338c0.20235,0.10394 0.42356,0.22121 0.49116,0.26122c0.0676,0.03955 0.17751,0.10163 0.24374,0.13796c0.06668,0.03633 0.14026,0.08554 0.16371,0.10853c0.02346,0.02346 0.06025,0.04277 0.0814,0.04277c0.02162,0 0.06439,0.02759 0.09474,0.06117c0.03081,0.03403 0.07358,0.06162 0.09473,0.06162c0.02162,0 0.05749,0.01748 0.08002,0.03817c0.05657,0.05381 0.27179,0.2166 0.3348,0.25385c0.27593,0.16142 0.91884,0.85171 0.91884,0.98599c0,0.01932 0.03081,0.10256 0.06806,0.18487c0.29019,0.63878 -0.10623,1.98256 -0.66453,2.25297c-0.20326,0.09795 -0.22028,0.12922 -0.17521,0.31823c0.02069,0.08738 0.05473,0.2488 0.0745,0.35871c0.05059,0.27501 0.1559,0.3348 0.33709,0.19131c0.0207,-0.01655 0.0883,-0.04644 0.15039,-0.06622c0.06162,-0.01977 0.12002,-0.05611 0.12922,-0.08048c0.00966,-0.02483 0.03265,-0.04461 0.05197,-0.04461c0.0791,0 0.58175,-0.52426 0.58175,-0.60658c0,-0.0161 0.02621,-0.05289 0.0584,-0.08232c0.0322,-0.02897 0.06761,-0.08922 0.0791,-0.13337c0.01104,-0.04415 0.04461,-0.11589 0.07496,-0.15912c0.03036,-0.04322 0.06439,-0.12922 0.07589,-0.19085c0.01103,-0.06162 0.04276,-0.15728 0.07036,-0.21246c0.20189,-0.4047 0.09795,-1.76135 -0.17062,-2.22675c-0.09244,-0.15958 -0.10117,-0.17384 -0.17153,-0.27777c-0.06623,-0.09749 -0.74225,-0.77996 -0.77261,-0.77996c-0.01057,0 -0.08324,-0.05243 -0.16142,-0.11635c-0.07818,-0.06438 -0.17199,-0.13658 -0.20832,-0.16142c-0.42263,-0.28788 -0.59049,-0.39412 -0.64844,-0.41205c-0.03771,-0.0115 -0.06898,-0.03173 -0.06898,-0.04507c0,-0.01288 -0.05518,-0.04875 -0.12279,-0.0791c-0.0676,-0.03081 -0.12278,-0.06622 -0.12278,-0.0791c0,-0.01288 -0.04001,-0.03265 -0.08922,-0.04323c-0.04875,-0.01058 -0.11313,-0.04645 -0.14302,-0.0791c-0.02944,-0.03311 -0.07681,-0.05978 -0.1044,-0.05978c-0.02805,0 -0.09795,-0.03449 -0.15498,-0.0768c-0.05748,-0.04231 -0.12739,-0.0768 -0.1559,-0.0768c-0.02851,0 -0.06898,-0.0207 -0.08968,-0.04599c-0.02115,-0.0253 -0.09197,-0.06209 -0.15773,-0.08186c-0.06577,-0.01978 -0.13475,-0.05427 -0.15361,-0.0768c-0.01885,-0.02254 -0.04966,-0.04093 -0.06852,-0.04093c-0.01885,0 -0.11037,-0.03633 -0.20373,-0.08002c-0.09289,-0.04415 -0.24511,-0.11543 -0.33801,-0.1582c-0.0929,-0.04277 -0.21752,-0.10163 -0.27639,-0.13107c-0.05932,-0.02897 -0.15176,-0.06254 -0.20557,-0.0745c-0.05334,-0.01149 -0.11405,-0.04093 -0.13428,-0.0653c-0.01978,-0.02437 -0.05887,-0.04415 -0.08646,-0.04415c-0.02759,-0.00046 -0.11911,-0.03449 -0.20373,-0.07588c-0.08415,-0.04139 -0.17935,-0.07588 -0.21108,-0.07634c-0.03219,-0.00092 -0.10118,-0.02759 -0.1536,-0.05933c-0.05289,-0.03173 -0.14303,-0.06806 -0.20097,-0.08047c-0.05749,-0.01196 -0.14762,-0.04829 -0.19959,-0.08002c-0.05197,-0.03174 -0.12647,-0.05749 -0.16464,-0.05795c-0.10623,0 -0.37342,-0.1467 -0.46402,-0.25431c-0.04415,-0.05243 -0.10255,-0.11681 -0.12969,-0.14303c-0.04506,-0.04369 -0.39733,-0.45298 -0.47229,-0.54864c-0.01702,-0.02207 -0.06577,-0.07864 -0.10808,-0.12554c-0.04231,-0.04691 -0.15958,-0.17936 -0.26121,-0.29387c-0.10117,-0.11497 -0.19821,-0.22442 -0.21522,-0.24328c-0.01702,-0.01885 -0.0929,-0.11037 -0.16878,-0.2028c-0.07588,-0.09244 -0.15866,-0.1904 -0.18441,-0.21753c-0.0253,-0.02713 -0.13567,-0.1513 -0.24558,-0.27547c-0.10991,-0.12417 -0.23408,-0.26259 -0.27639,-0.30812c-0.04231,-0.04507 -0.09795,-0.10807 -0.12371,-0.14026c-0.44792,-0.55508 -0.66683,-0.77536 -0.79467,-0.79836c-0.06071,-0.01103 -0.15912,-0.04415 -0.21799,-0.07312c-0.05932,-0.02897 -0.18993,-0.06208 -0.29018,-0.07358c-0.10026,-0.0115 -0.19821,-0.03403 -0.21799,-0.05059c-0.02023,-0.01655 -0.17981,-0.05104 -0.35549,-0.07634c-0.17567,-0.02575 -0.35365,-0.06024 -0.39595,-0.07634c-0.04231,-0.01609 -0.26352,-0.04369 -0.49162,-0.06162c-0.2281,-0.01748 -0.55968,-0.04553 -0.73719,-0.06163c-0.40791,-0.03817 -1.43897,-0.03863 -1.78158,-0.00092c-0.14349,0.01564 -0.51461,0.04415 -0.82503,0.06301c-0.31042,0.01931 -0.60061,0.04875 -0.64522,0.06576c-0.0446,0.01702 -0.26443,0.05013 -0.48839,0.07358c-0.22396,0.02392 -0.43459,0.05749 -0.4677,0.07542c-0.03311,0.01794 -0.18855,0.04507 -0.34491,0.06025c-0.15682,0.01517 -0.34077,0.04782 -0.40884,0.0722c-0.0676,0.02437 -0.212,0.05472 -0.32053,0.06714c-0.10854,0.01288 -0.27271,0.04921 -0.36515,0.08094c-0.09244,0.03173 -0.19683,0.05749 -0.23224,0.05749c-0.03495,0.00046 -0.16096,0.03449 -0.27915,0.07634c-0.11819,0.04185 -0.24972,0.07634 -0.29202,0.0768c-0.04185,0.00046 -0.11406,0.02069 -0.16004,0.04415c-0.04553,0.02391 -0.15774,0.05932 -0.24926,0.07818c-0.09152,0.01885 -0.19223,0.05426 -0.22396,0.07818c-0.03173,0.02391 -0.09382,0.04414 -0.13751,0.0446c-0.04415,0.00046 -0.14486,0.03587 -0.22442,0.07772c-0.07956,0.04231 -0.15682,0.0768 -0.17153,0.0768c-0.04645,0 -0.73306,0.33664 -0.75329,0.36929c-0.01012,0.01656 -0.04047,0.03035 -0.06714,0.03035c-0.02714,0 -0.12417,0.05151 -0.21661,0.11497c-0.09198,0.06347 -0.20465,0.13613 -0.24971,0.16142c-0.36975,0.20649 -1.19846,0.96115 -1.53693,1.39942c-0.05105,0.06622 -0.29524,0.41987 -0.32422,0.46954c-0.01655,0.02805 -0.06162,0.10255 -0.09979,0.16556c-0.03863,0.063 -0.0699,0.13382 -0.0699,0.15728c0,0.02345 -0.0207,0.06024 -0.04599,0.08094c-0.0253,0.02115 -0.06255,0.09565 -0.08232,0.1651c-0.01978,0.0699 -0.05243,0.14762 -0.07266,0.17291c-0.01978,0.02575 -0.05335,0.11543 -0.07358,0.19959c-0.0207,0.08416 -0.05381,0.17246 -0.07358,0.19637c-0.0253,0.03081 -0.04047,0.35135 -0.05151,1.08072c-0.01656,1.12855 -0.01334,1.1074 -0.17016,1.03244c-0.05978,-0.02852 -0.12647,-0.05151 -0.14854,-0.05151c-0.02253,0 -0.10577,-0.03449 -0.18533,-0.0768c-0.0791,-0.04231 -0.16924,-0.0768 -0.20005,-0.0768c-0.03127,0 -0.07266,-0.02024 -0.09336,-0.04461c-0.02023,-0.02437 -0.08737,-0.0607 -0.14946,-0.0814c-0.06208,-0.01977 -0.14578,-0.06208 -0.18625,-0.09335c-0.04001,-0.03128 -0.08922,-0.05703 -0.10853,-0.05703c-0.01978,0 -0.06301,-0.02115 -0.09612,-0.04691c-0.05426,-0.04277 -0.38262,-0.26305 -0.50127,-0.33709c-0.25753,-0.1605 -0.4769,-0.34951 -0.9446,-0.81399c-0.3725,-0.37067 -0.90229,-1.04945 -0.90229,-1.15707c0,-0.01839 -0.01885,-0.04874 -0.04138,-0.06806c-0.023,-0.01885 -0.08324,-0.12049 -0.13429,-0.22626c-0.21936,-0.45482 -0.25432,-0.53254 -0.25432,-0.56611c0,-0.01978 -0.02023,-0.07497 -0.0446,-0.12279c-0.02438,-0.04783 -0.06623,-0.1766 -0.0929,-0.28651c-0.02667,-0.10991 -0.06162,-0.24788 -0.07772,-0.3072c-0.10117,-0.37251 -0.0069,-1.35619 0.1559,-1.62798c0.01518,-0.0253 0.04783,-0.0906 0.0722,-0.14533c0.02484,-0.05426 0.05933,-0.11681 0.0768,-0.13796c0.27133,-0.3302 0.27179,-0.32008 -0.03219,-0.6075c-0.3003,-0.28375 -0.35779,-0.30445 -0.48104,-0.172m16.02781,1.04945c0.26213,0.01012 0.53852,0.03127 0.6144,0.04737c0.07588,0.01563 0.28329,0.04921 0.46081,0.07358c0.17751,0.02483 0.37802,0.06484 0.44562,0.08876c0.06714,0.02391 0.18763,0.0515 0.26719,0.06116c0.25754,0.03127 0.49989,0.17706 0.64936,0.39044c0.02069,0.02943 0.11451,0.14072 0.20924,0.24788c0.09428,0.10715 0.21109,0.24236 0.25984,0.30076c0.04874,0.05795 0.11635,0.13429 0.14992,0.1697c0.03403,0.03495 0.1306,0.14486 0.21522,0.24373c0.08416,0.09888 0.16924,0.19637 0.18901,0.21661c0.01932,0.02023 0.10854,0.12555 0.19775,0.23408c0.08922,0.10853 0.19085,0.22626 0.2258,0.26167c0.11773,0.12049 0.27915,0.30306 0.44563,0.50357c0.0906,0.10991 0.19131,0.2235 0.2235,0.25202c0.09842,0.08921 0.12325,0.2304 0.04369,0.25155c-0.03633,0.00966 -1.54198,0.01794 -3.3461,0.0184l-3.27988,0.00046l-0.02989,-0.0791c-0.04921,-0.13015 -0.03955,-3.22285 0.01058,-3.2647c0.06852,-0.05657 0.854,-0.06347 2.04831,-0.01794m-7.01872,7.8603c-0.3164,0.06393 -0.47552,0.11681 -0.66039,0.21891c-0.04231,0.02345 -0.12003,0.063 -0.17291,0.08783c-0.05289,0.0253 -0.1044,0.06669 -0.11451,0.0929c-0.00966,0.02575 -0.0368,0.04737 -0.05933,0.04737c-0.05105,0 -0.55508,0.52334 -0.61486,0.63832c-0.23316,0.44792 -0.26673,0.53668 -0.35963,0.94321c-0.04369,0.19269 -0.03541,0.66039 0.01518,0.84573c0.02529,0.09243 0.06162,0.2373 0.08048,0.32191c0.01885,0.08416 0.05334,0.17522 0.0768,0.20189c0.02345,0.02667 0.04277,0.06852 0.04277,0.0929c0,0.02391 0.03449,0.09473 0.0768,0.15682c0.0423,0.06254 0.0768,0.12509 0.0768,0.14026c0,0.0814 0.63371,0.66591 0.8356,0.77122c0.05565,0.02898 0.12877,0.06807 0.1628,0.08646c0.47828,0.26305 1.53647,0.31916 1.93978,0.10302c0.06439,-0.0345 0.13843,-0.06301 0.16372,-0.06347c0.02575,-0.00046 0.10347,-0.03863 0.17292,-0.08462c0.06944,-0.04599 0.18165,-0.12095 0.24971,-0.16647c0.16924,-0.11314 0.47322,-0.41574 0.57991,-0.57808c0.16602,-0.25155 0.28513,-0.47551 0.28651,-0.53898c0.00092,-0.03495 0.04047,-0.10071 0.08784,-0.14624l0.08599,-0.08232l4.04237,0l4.0419,0l0.09566,0.08922c0.05334,0.04967 0.09565,0.12049 0.09611,0.16096c0,0.04001 0.02759,0.10669 0.06071,0.149c0.03265,0.04231 0.06024,0.09198 0.0607,0.11083c0.0023,0.12233 0.49529,0.66407 0.78042,0.85768c0.21063,0.14348 0.32882,0.20741 0.49483,0.26857c1.12487,0.41344 2.40932,-0.00046 2.99337,-0.96437c0.13383,-0.22074 0.24466,-0.45804 0.2649,-0.56566c0.01241,-0.06668 0.04323,-0.17015 0.06852,-0.22902c0.06438,-0.15268 0.06484,-0.92482 0.00046,-1.0752c-0.02529,-0.05933 -0.05611,-0.1628 -0.06852,-0.2304c-0.01242,-0.06761 -0.04921,-0.16878 -0.08186,-0.22442c-0.03219,-0.05611 -0.05887,-0.11452 -0.05887,-0.13015c0,-0.07496 -0.25109,-0.407 -0.46402,-0.61302c-0.33295,-0.32238 -0.3725,-0.35273 -0.62636,-0.48104c-0.03403,-0.01702 -0.10991,-0.05565 -0.16923,-0.08554c-0.05887,-0.03035 -0.21109,-0.07358 -0.33802,-0.09703c-0.67832,-0.12417 -0.60658,-0.12141 -1.01726,-0.04323c-0.20878,0.03955 -0.42815,0.09749 -0.48701,0.1283c-0.05933,0.03082 -0.12739,0.05611 -0.15176,0.05611c-0.04967,0 -0.42355,0.24282 -0.58405,0.37894c-0.40056,0.34124 -0.75421,0.97817 -0.82043,1.47944c-0.0115,0.08462 -0.03541,0.16372 -0.05427,0.17614c-0.06162,0.04139 -8.04931,0.02851 -8.0907,-0.01334c-0.02024,-0.02023 -0.03725,-0.10669 -0.03771,-0.19177c-0.00046,-0.08738 -0.02714,-0.21338 -0.06117,-0.28927c-0.03357,-0.07358 -0.06162,-0.15636 -0.06254,-0.18395c-0.00046,-0.02805 -0.04553,-0.12739 -0.0998,-0.22166c-0.28512,-0.49621 -0.63049,-0.85216 -1.01955,-1.05083c-0.30169,-0.15406 -0.43275,-0.20327 -0.63004,-0.23592c-0.10945,-0.01794 -0.25478,-0.04599 -0.32238,-0.06254c-0.17567,-0.04231 -0.3233,-0.03266 -0.70638,0.0446m0.84527,0.877c0.32651,0.06208 0.95149,0.50955 0.95149,0.68154c0,0.0253 0.02667,0.07037 0.05979,0.0998c0.03265,0.02989 0.07312,0.11129 0.08967,0.18165c0.01656,0.0699 0.05151,0.18257 0.07726,0.25018c0.02622,0.06806 0.04737,0.2189 0.04737,0.33801c0,0.11911 -0.02115,0.26995 -0.04737,0.33755c-0.02575,0.06761 -0.0607,0.18028 -0.07726,0.25064c-0.01655,0.0699 -0.05702,0.15176 -0.08967,0.18119c-0.03312,0.0299 -0.06025,0.06899 -0.06071,0.08784c-0.00414,0.11635 -0.45298,0.49483 -0.73627,0.62084c-0.27363,0.12141 -0.88435,0.13199 -1.09682,0.01886c-0.07128,-0.03771 -0.14946,-0.06853 -0.17383,-0.06853c-0.11957,0 -0.67419,-0.52656 -0.71144,-0.6751c-0.01058,-0.04277 -0.03955,-0.10026 -0.06484,-0.12831c-0.16602,-0.18441 -0.14671,-0.98093 0.03219,-1.33182c0.10531,-0.20649 0.59554,-0.72155 0.68706,-0.72155c0.02989,0 0.08508,-0.02162 0.12279,-0.04783c0.13842,-0.09704 0.66407,-0.13705 0.99059,-0.07496m13.08502,0.0023c0.88297,0.20189 1.47714,1.4077 1.066,2.16328c-0.01839,0.03357 -0.05886,0.11359 -0.09013,0.17706c-0.08232,0.16923 -0.57256,0.63693 -0.66729,0.63693c-0.01886,0 -0.0929,0.03082 -0.16418,0.06807c-0.19407,0.10301 -0.86872,0.10347 -1.05037,0.00092c-0.06714,-0.03817 -0.14394,-0.06899 -0.17016,-0.06899c-0.02621,0 -0.07956,-0.02437 -0.11819,-0.0538c-0.29478,-0.2258 -0.40791,-0.33112 -0.49115,-0.45942c-0.05243,-0.08094 -0.11635,-0.1743 -0.1421,-0.20741c-0.0253,-0.03311 -0.04645,-0.0883 -0.04691,-0.12279c-0.00046,-0.03449 -0.02805,-0.12325 -0.06163,-0.19683c-0.08461,-0.18717 -0.08461,-0.58865 0.00092,-0.78778c0.03358,-0.07864 0.06117,-0.17475 0.06117,-0.21338c0,-0.03909 0.02207,-0.08876 0.04829,-0.11083c0.02667,-0.02208 0.07404,-0.09014 0.10485,-0.15085c0.26489,-0.5192 1.05175,-0.82732 1.72088,-0.67418" fill="#0078d3" fill-rule="evenodd" id="path0" stroke="#0078d3"/>
 </g>
</svg>