<?xml version="1.0"?>
<svg width="32" height="32" xmlns="http://www.w3.org/2000/svg" xmlns:svg="http://www.w3.org/2000/svg">
 <g class="currentLayer layer">
  <title>Layer 1</title>
  <g id="svg_1">
   <g id="svg_2">
    <path d="m25.85513,8.29332l-3.82562,-4.35234l-1.1366,0.99799l2.6613,3.04941c-1.60787,0.08316 -2.85535,1.5247 -2.6613,3.16029c0.13861,1.24749 1.16432,2.30092 2.4118,2.49497c0.69305,0.08317 1.35838,-0.05544 1.88509,-0.41583l0,10.75609c0,0.69305 -0.49899,1.35837 -1.21976,1.41382c-0.80393,0.08316 -1.46926,-0.52672 -1.46926,-1.35838l0,-4.79588c0,-1.41382 -1.1366,-2.55041 -2.55041,-2.55041l-0.66533,0l0,-8.73239c0,-1.96826 -1.60787,-3.60385 -3.60384,-3.60385l-6.81958,0c-1.96826,0 -3.60385,1.60787 -3.60385,3.60385l0,20.09836l14.08272,0l0,-9.86899l0.66532,0c0.58216,0 1.05343,0.47127 1.05343,1.05343l0,4.685c0,1.5247 1.1366,2.85535 2.63358,2.93852c1.63559,0.11088 3.04941,-1.19204 3.04941,-2.85536l0,-13.38966c0,-0.85938 -0.33266,-1.71876 -0.8871,-2.32864zm-2.07914,3.88106c-0.74849,0 -1.35838,-0.60988 -1.35838,-1.35837c0,-0.74849 0.60989,-1.35837 1.35838,-1.35837s1.35837,0.60988 1.35837,1.35837c0,0.74849 -0.66533,1.35837 -1.35837,1.35837zm-9.7581,10.92242c-0.47128,0.44355 -1.08116,0.69305 -1.71876,0.69305s-1.21976,-0.2495 -1.71876,-0.69305c-0.91482,-0.8871 -0.91482,-2.38408 0,-3.2989l1.27521,-1.24749c0.22177,-0.22177 0.60988,-0.22177 0.80393,0l1.27521,1.24749c0.99799,0.8871 0.99799,2.38408 0.08317,3.2989zm-6.26515,-9.97988l0,-4.49094c0,-0.66532 0.52672,-1.19204 1.19204,-1.19204l6.87503,0c0.66532,0 1.19204,0.52672 1.19204,1.19204l0,4.49094l-9.25911,0z" id="svg_3"/>
   </g>
  </g>
  <g id="svg_4"/>
  <g id="svg_5"/>
  <g id="svg_6"/>
  <g id="svg_7"/>
  <g id="svg_8"/>
  <g id="svg_9"/>
  <g id="svg_10"/>
  <g id="svg_11"/>
  <g id="svg_12"/>
  <g id="svg_13"/>
  <g id="svg_14"/>
  <g id="svg_15"/>
  <g id="svg_16"/>
  <g id="svg_17"/>
  <g id="svg_18"/>
 </g>
 <defs>
  <rect fill="none" height="100%" id="backgroundrect" width="100%" x="0" y="0"/>
 </defs>
</svg>