<?xml version="1.0"?>
<svg width="24" height="24" xmlns="http://www.w3.org/2000/svg" xmlns:svg="http://www.w3.org/2000/svg">
 <g class="currentLayer layer">
  <title>Layer 1</title>
  <g id="svg_3">
   <path d="m5.21586,15.70044c0,3.7634 3.04339,6.82525 6.78414,6.82525s6.78414,-3.06185 6.78414,-6.82525c0,-3.55429 -2.71462,-6.48219 -6.1674,-6.79683l0,-1.2619l0.61674,0c3.06057,0 5.55066,-2.49009 5.55066,-5.55066l0,-0.61674l-1.85022,0c-2.21641,0 -4.13344,1.30607 -5.02242,3.1889c-0.77188,-1.17663 -2.10253,-1.95542 -3.61194,-1.95542l-1.85022,0l0,0.61674c0,2.38055 1.93663,4.31718 4.31718,4.31718l0.61674,0l0,1.2619c-3.45278,0.31464 -6.1674,3.24254 -6.1674,6.79683zm11.71806,-12.99313l0.57289,0c-0.30018,2.08952 -2.10221,3.70092 -4.27333,3.70092l-0.57289,0c0.30018,-2.08937 2.10221,-3.70092 4.27333,-3.70092zm-6.1674,3.70092c-1.48917,0 -2.73518,-1.06115 -3.0217,-2.46696l0.55474,0c1.48917,0 2.73518,1.06114 3.02171,2.46696l-0.55475,0zm0.61674,14.84929c-2.77147,-0.31014 -4.93392,-2.68378 -4.93392,-5.55708c0,-0.64822 0.1105,-1.27074 0.31271,-1.85022l4.00447,0c0.34001,0 0.61674,0.27673 0.61674,0.61674s-0.27673,0.61674 -0.61674,0.61674c-1.02019,0 -1.85022,0.83003 -1.85022,1.85022s0.83003,1.85022 1.85022,1.85022c0.34001,0 0.61674,0.27673 0.61674,0.61674l0,1.85664zm5.85469,-3.70686l-1.53751,0c-0.34001,0 -0.61674,-0.27673 -0.61674,-0.61674s0.27673,-0.61722 0.61674,-0.61722l1.81633,0c-0.04674,0.42754 -0.14166,0.84079 -0.27882,1.23396zm-5.23795,-7.442c2.85371,0 5.21097,2.18092 5.51677,4.97504l-1.81633,0c-1.02019,0 -1.85022,0.83003 -1.85022,1.85022s0.83003,1.84974 1.85022,1.84974l0.92752,0c-0.88737,1.34719 -2.33831,2.28675 -4.01122,2.47386l0,-1.85664c0,-1.02019 -0.83003,-1.85022 -1.85022,-1.85022c-0.34001,0 -0.61674,-0.27673 -0.61674,-0.61674s0.27673,-0.61674 0.61674,-0.61674c1.02019,0 1.85022,-0.83003 1.85022,-1.85022s-0.83003,-1.85022 -1.85022,-1.85022l-3.39448,0c0.99498,-1.51021 2.69776,-2.50808 4.62796,-2.50808zm0,0" id="svg_1"/>
   <path d="m13.85022,12.61674l1.23348,0l0,1.23348l-1.23348,0l0,-1.23348zm0,0" id="svg_2"/>
  </g>
 </g>
</svg>