<?xml version="1.0"?>
<svg width="24" height="24" xmlns="http://www.w3.org/2000/svg" xmlns:svg="http://www.w3.org/2000/svg">
 <g class="currentLayer layer">
  <title>Layer 1</title>
  <path d="m4.85231,15.89874c0,3.96507 3.20648,7.191 7.14769,7.191s7.14769,-3.22593 7.14769,-7.191c0,-3.74475 -2.86009,-6.82956 -6.4979,-7.16106l0,-1.32953l0.64979,0c3.22458,0 5.84811,-2.62352 5.84811,-5.8481l0,-0.64979l-1.94937,0c-2.33518,0 -4.35495,1.37606 -5.29156,3.35978c-0.81325,-1.23967 -2.21521,-2.0602 -3.8055,-2.0602l-1.94937,0l0,0.64979c0,2.50812 2.04041,4.54852 4.54853,4.54852l0.64979,0l0,1.32953c-3.63781,0.3315 -6.4979,3.41631 -6.4979,7.16106zm12.34601,-13.68941l0.60359,0c-0.31626,2.2015 -2.21487,3.89925 -4.50233,3.89925l-0.60359,0c0.31626,-2.20134 2.21486,-3.89925 4.50233,-3.89925zm-6.4979,3.89925c-1.56897,0 -2.88175,-1.11802 -3.18363,-2.59916l0.58447,0c1.56897,0 2.88175,1.11801 3.18363,2.59916l-0.58447,0zm0.64979,15.64503c-2.91999,-0.32675 -5.19832,-2.8276 -5.19832,-5.85487c0,-0.68296 0.11642,-1.33884 0.32947,-1.94937l4.21906,0c0.35823,0 0.64979,0.29156 0.64979,0.64979s-0.29156,0.64979 -0.64979,0.64979c-1.07486,0 -1.94937,0.87451 -1.94937,1.94937s0.87451,1.94937 1.94937,1.94937c0.35823,0 0.64979,0.29156 0.64979,0.64979l0,1.95613zm6.16843,-3.9055l-1.6199,0c-0.35823,0 -0.64979,-0.29156 -0.64979,-0.64979s0.29156,-0.6503 0.64979,-0.6503l1.91366,0c-0.04924,0.45045 -0.14925,0.88585 -0.29376,1.30009zm-5.51864,-7.8408c3.00663,0 5.49021,2.29779 5.8124,5.24164l-1.91366,0c-1.07486,0 -1.94937,0.87451 -1.94937,1.94937s0.87451,1.94886 1.94937,1.94886l0.97722,0c-0.93492,1.41938 -2.46362,2.4093 -4.22617,2.60643l0,-1.95613c0,-1.07486 -0.87451,-1.94937 -1.94937,-1.94937c-0.35823,0 -0.64979,-0.29156 -0.64979,-0.64979s0.29156,-0.64979 0.64979,-0.64979c1.07486,0 1.94937,-0.87451 1.94937,-1.94937s-0.87451,-1.94937 -1.94937,-1.94937l-3.57638,0c1.04829,-1.59114 2.84232,-2.64248 4.87596,-2.64248zm0,0" id="svg_1"/>
 </g>
</svg>