<?xml version="1.0" encoding="utf-8"?>
<svg width="256" height="256" xmlns="http://www.w3.org/2000/svg">
  <g id="svg_17">
    <path d="m182.41391,144.10663c0,-38.8763 -31.43165,-70.39118 -70.20514,-70.39118s-70.20514,31.51488 -70.20514,70.39118c0,38.87629 31.43165,70.39118 70.20514,70.39118s70.20514,-31.51489 70.20514,-70.39118zm0,0" fill="#ffffff" id="svg_1" stroke="#0078d3" stroke-width="3"/>
    <g fill="#0078d3" id="svg_3" stroke="#0078d3" stroke-width="3">
      <path d="m103.08329,101.0723c-10.81447,6.7772 -18.92655,17.61941 -12.8429,29.81936c6.08365,12.1983 19.60215,7.45443 32.10726,5.76054c12.5051,-1.6939 3.04182,36.93599 10.47667,46.42374c7.43485,9.48776 28.3882,-9.48775 26.3614,-21.6877c-3.00266,-18.06165 -4.05522,-24.39825 20.27775,-37.27379l0.06528,-0.02447c-8.20183,-27.77298 -33.02927,-48.38037 -62.92369,-50.23256l-0.00327,0.10607s-2.70402,20.33161 -13.5185,27.10881zm0,0" fill="#0078d3" id="svg_4" stroke="#0078d3" stroke-width="3"/>
      <path d="m156.19449,89.24769c0.00489,0.00326 0.00979,0.00816 0.01468,0.01142c-0.00489,-0.00326 -0.00979,-0.00652 -0.01468,-0.01142zm0,0" fill="#0078d3" id="svg_5" stroke="#0078d3" stroke-width="3"/>
      <path d="m164.77981,97.45931c0,0.00164 0.00163,0.00327 0.00326,0.00327c-0.00163,-0.00163 -0.00163,-0.00163 -0.00326,-0.00327zm0,0" fill="#0078d3" id="svg_6" stroke="#0078d3" stroke-width="3"/>
      <path d="m65.56962,175.95931c-3.24745,-4.95276 5.74585,-16.60276 7.77264,-25.41328c2.02843,-8.81053 -10.13887,-8.1333 -13.8563,-11.18328c-3.71742,-3.04999 -8.78767,-16.26496 -12.5051,-19.31494l-0.594,-0.46835c-2.83295,7.6372 -4.38323,15.90104 -4.38323,24.52717c0,23.26735 11.25997,43.89433 28.61339,56.70949l0.02122,-1.47522s2.70402,-11.52108 -5.06862,-23.38159zm0,0" fill="#0078d3" id="svg_7" stroke="#0078d3" stroke-width="3"/>
      <path d="m159.18572,161.38824c-0.01468,-0.08812 -0.02937,-0.17461 -0.04406,-0.26273c-1.34304,5.42601 -3.31435,10.60396 -5.83234,15.45065c3.99321,-4.71287 6.66134,-10.45872 5.8764,-15.18792zm0,0" fill="#0078d3" id="svg_8" stroke="#0078d3" stroke-width="3"/>
    </g>
    <path d="m112.11412,234.9469c-4.97234,0 -9.98058,-0.40797 -14.98556,-1.23533c-23.92501,-3.95078 -44.87999,-16.98135 -59.00391,-36.69121c-14.12393,-19.70985 -19.72618,-43.74093 -15.77377,-67.6643c0.28558,-1.73306 1.92726,-2.90475 3.65542,-2.61917c1.73306,0.28558 2.90638,1.92235 2.61917,3.65541c-3.67337,22.24743 1.5356,44.59441 14.67061,62.92369s32.61966,30.446 54.87036,34.121c45.93254,7.58824 89.4646,-23.60842 97.05121,-69.53444c3.67336,-22.24743 -1.5356,-44.59441 -14.67061,-62.9237c-13.13337,-18.32928 -32.61966,-30.446 -54.86873,-34.12099c-1.73305,-0.28558 -2.90638,-1.92236 -2.6208,-3.65541c0.28721,-1.73306 1.92725,-2.90475 3.65542,-2.61917c23.92663,3.95078 44.88161,16.98135 59.00391,36.69121c14.12393,19.70985 19.72618,43.74093 15.77539,67.6643s-16.98298,44.87672 -36.69447,58.99902c-15.58936,11.16859 -33.87948,17.00909 -52.68364,17.00909zm0,0" fill="#0078d3" id="svg_10"/>
    <path d="m92.80571,97.87381c-33.94965,-5.76054 -55.01071,-48.50602 -55.01071,-48.50602s33.98392,-33.40624 67.93357,-27.64733c33.94965,5.75891 55.0107,48.50439 55.0107,48.50439s-33.98391,33.40787 -67.93356,27.64896zm0,0" fill="#ffffff" id="svg_11" stroke="#0078d3" stroke-width="3"/>
    <path d="m158.82018,66.67551l-33.20061,-5.60061l-31.01227,-39.93212c-2.47393,0.14523 -4.92501,0.46182 -7.34346,0.91548l29.08664,37.45167l-25.03468,-4.22331l-21.36132,-27.63754c-2.00395,0.90407 -3.95242,1.86361 -5.83071,2.85906l17.94579,23.2184l-41.39592,-6.98445c-1.85871,1.62372 -2.87864,2.6257 -2.87864,2.6257s0.68213,1.3822 1.9909,3.67499l41.17072,6.94529l-22.83328,17.65532c1.47033,1.51438 3.01246,3.01082 4.62475,4.46319l26.74327,-20.67756l26.50337,4.47135l-36.04498,27.88721c2.23731,1.04441 4.54968,1.94847 6.93386,2.67629l37.64586,-29.12255l33.22183,5.60388c1.92562,-1.67921 2.98797,-2.72035 2.98797,-2.72035s-0.65764,-1.33161 -1.91909,-3.54934zm0,0" fill="#0078d3" id="svg_13"/>
    <path d="m183.83039,56.38161c9.10752,-21.55062 40.6632,-28.80596 40.6632,-28.80596s16.79042,27.68486 7.6829,49.23548c-9.1059,21.55061 -40.66321,28.80596 -40.66321,28.80596s-16.79042,-27.68486 -7.68289,-49.23548zm0,0" fill="#ffffff" id="svg_14" stroke="#0078d3" stroke-width="3"/>
    <path d="m234.75649,59.03668l-24.26607,10.17967l15.93206,-38.08973c-1.14069,-2.25199 -1.92889,-3.55097 -1.92889,-3.55097s-1.50133,0.34596 -3.94425,1.10968l-16.46568,39.36423l-10.21068,-25.12281c-1.72979,1.52581 -3.36167,3.1838 -4.84179,4.9805l11.57004,28.46816l-10.86833,25.98281c1.06072,2.07086 1.78038,3.25887 1.78038,3.25887s1.63188,-0.37534 4.25595,-1.2076l11.22244,-26.82812l27.75503,-11.64183c0.1844,-2.30585 0.17461,-4.61823 0.00979,-6.90286zm0,0" fill="#0078d3" id="svg_16"/>
  </g>
</svg>