<?xml version="1.0" encoding="UTF-8" standalone="no"?> <svg height="512pt" viewBox="-91 0 512 512" width="512pt" xmlns="http://www.w3.org/2000/svg"><path d="m0 346c0 91.53125 74.019531 166 165 166s165-74.46875 165-166c0-86.445312-66.023438-157.65625-150-165.308594v-30.691406h15c74.4375 0 135-60.5625 135-135v-15h-45c-53.90625 0-100.53125 31.765625-122.152344 77.558594-18.773437-28.617188-51.136718-47.558594-87.847656-47.558594h-45v15c0 57.898438 47.101562 105 105 105h15v30.691406c-83.976562 7.652344-150 78.863282-150 165.308594zm285-316.011719h13.933594c-7.300782 50.820313-51.128906 90.011719-103.933594 90.011719h-13.933594c7.300782-50.816406 51.128906-90.011719 103.933594-90.011719zm-150 90.011719c-36.21875 0-66.523438-25.808594-73.492188-60h13.492188c36.21875 0 66.523438 25.808594 73.492188 60zm15 361.15625c-67.40625-7.542969-120-65.273438-120-135.15625 0-15.765625 2.6875-30.90625 7.605469-45h97.394531c8.269531 0 15 6.730469 15 15s-6.730469 15-15 15c-24.8125 0-45 20.1875-45 45s20.1875 45 45 45c8.269531 0 15 6.730469 15 15zm142.394531-90.15625h-37.394531c-8.269531 0-15-6.730469-15-15s6.730469-15.011719 15-15.011719h44.175781c-1.136719 10.398438-3.445312 20.449219-6.78125 30.011719zm-127.394531-181c69.40625 0 126.738281 53.042969 134.175781 121h-44.175781c-24.8125 0-45 20.1875-45 45s20.1875 44.988281 45 44.988281h22.558594c-21.582032 32.765625-56.871094 55.617188-97.558594 60.167969v-45.15625c0-24.8125-20.1875-45-45-45-8.269531 0-15-6.730469-15-15s6.730469-15 15-15c24.8125 0 45-20.1875 45-45s-20.1875-45-45-45h-82.558594c24.199219-36.730469 65.613282-61 112.558594-61zm0 0"/><path d="m210 271h30v30h-30zm0 0"/></svg>