<?xml version="1.0"?>
<svg width="24" height="24" xmlns="http://www.w3.org/2000/svg" xmlns:svg="http://www.w3.org/2000/svg">
 <g class="currentLayer layer">
  <title>Layer 1</title>
  <path d="m5.87538,15.340703c0,3.39754 2.747524,6.161739 6.12462,6.161739s6.12462,-2.764199 6.12462,-6.161739c0,-3.208756 -2.450718,-5.852029 -5.567836,-6.136075l0,-1.139232l0.556783,0c2.763039,0 5.011053,-2.248014 5.011053,-5.011053l0,-0.556783l-1.670351,0c-2.000941,0 -3.73161,1.179105 -4.534162,2.87889c-0.696849,-1.062239 -1.898139,-1.765323 -3.260809,-1.765323l-1.670351,0l0,0.556784c0,2.149127 1.748359,3.897485 3.897486,3.897485l0.556783,0l0,1.139232c-3.117118,0.284046 -5.567836,2.927319 -5.567836,6.136075zm10.578889,-11.730011l0.5172,0c-0.270997,1.886395 -1.897849,3.341137 -3.857902,3.341137l-0.517199,0c0.270997,-1.88625 1.897849,-3.341137 3.857901,-3.341137zm-5.567836,3.341137c-1.344401,0 -2.469278,-0.957987 -2.72795,-2.227135l0.500815,0c1.344401,0 2.469278,0.957987 2.72795,2.227135l-0.500815,0zm0.556783,13.405726c-2.502046,-0.279986 -4.454269,-2.422878 -4.454269,-5.016852c0,-0.585203 0.099757,-1.147207 0.282307,-1.670351l3.615179,0c0.306956,0 0.556783,0.249827 0.556783,0.556783s-0.249827,0.556784 -0.556783,0.556784c-0.921013,0 -1.670351,0.749338 -1.670351,1.670351s0.749338,1.670351 1.670351,1.670351c0.306956,0 0.556783,0.249828 0.556783,0.556784l0,1.67615zm5.28553,-3.346501l-1.388044,0c-0.306956,0 -0.556784,-0.249828 -0.556784,-0.556784s0.249828,-0.557219 0.556784,-0.557219l1.639757,0c-0.042194,0.385979 -0.127886,0.759053 -0.251713,1.114003zm-4.728746,-6.718523c2.576284,0 4.704387,1.968897 4.980459,4.491388l-1.639757,0c-0.921013,0 -1.670351,0.749338 -1.670351,1.670351s0.749338,1.669916 1.670351,1.669916l0.83735,0c-0.801101,1.216224 -2.110993,2.064449 -3.621268,2.233369l0,-1.67615c0,-0.921013 -0.749338,-1.670351 -1.670351,-1.670351c-0.306956,0 -0.556784,-0.249828 -0.556784,-0.556784s0.249828,-0.556784 0.556784,-0.556784c0.921013,0 1.670351,-0.749338 1.670351,-1.670351s-0.749338,-1.670351 -1.670351,-1.670351l-3.064485,0c0.898248,-1.363395 2.435493,-2.264253 4.178052,-2.264253zm0,0" id="svg_1"/>
 </g>
</svg>