<?xml version="1.0"?>
<svg width="32" height="32" xmlns="http://www.w3.org/2000/svg" xmlns:svg="http://www.w3.org/2000/svg">
 <g class="currentLayer layer">
  <title>Layer 1</title>
  <circle cx="16" cy="16" fill="#ffffff" id="svg_1" r="12.75" stroke="#000000" stroke-width="2"/>
  <path d="m20.29685,11.38729c0.04016,0.78307 -0.34134,1.56614 -0.88346,2.38937c0.44173,-2.67047 -0.44174,-5.6622 -3.99567,-7.04764c0.30118,1.12441 -0.42166,2.50985 -1.12441,4.01575c-0.42166,-0.48189 -0.90355,-0.9437 -1.48583,-1.38543c0.2811,3.73464 -7.91102,7.46929 -1.26496,13.85433c0,0 0.44173,0.2811 1.2248,0.5622l-0.06023,-0.06023c-1.42559,-1.54606 -2.20866,-4.73858 0.50196,-6.84685c-0.04015,0.52205 0.22087,1.02401 0.58229,1.54606c-0.2811,-1.72677 0.2811,-3.67441 2.59016,-4.57795c-0.20079,0.72283 0.2811,1.62638 0.72283,2.61023c0.26102,-0.32126 0.58228,-0.62244 0.96378,-0.90354c-0.14055,1.9878 3.55394,4.03583 2.22874,7.06772c0.26102,-0.20079 0.52205,-0.42166 0.76299,-0.68268c2.18858,-2.36929 3.39331,-7.28858 -0.76299,-10.54134z" fill="#000000" id="svg_2"/>
 </g>
</svg>