<?xml version="1.0"?>
<svg width="32" height="32" xmlns="http://www.w3.org/2000/svg" xmlns:svg="http://www.w3.org/2000/svg">
 <g class="currentLayer layer">
  <title>Layer 1</title>
  <path d="m23.15627,9.56537c0.06658,1.3034 -0.56764,2.60681 -1.47153,3.97847c0.73576,-4.44623 -0.73411,-9.42681 -6.65021,-11.73233c0.50106,1.87105 -0.70247,4.17823 -1.87271,6.68516c-0.70081,-0.80235 -1.50316,-1.57141 -2.47364,-2.30718c0.46943,6.2174 -13.1689,12.4348 -2.10409,23.06347c0,0 0.7341,0.46776 2.0375,0.93553l-0.09987,-0.09988c-2.3721,-2.57352 -3.67717,-7.88869 0.83564,-11.39773c-0.06658,0.86893 0.36789,1.70458 0.96882,2.57352c-0.46776,-2.87482 0.46776,-6.11752 4.31139,-7.62069c-0.33292,1.20353 0.46943,2.70669 1.20353,4.34469c0.43447,-0.53434 0.97048,-1.0354 1.60471,-1.50316c-0.23305,3.30762 5.9161,6.71679 3.71046,11.76395c0.43447,-0.33293 0.86894,-0.70081 1.27011,-1.13528c3.64222,-3.94518 5.6481,-12.1335 -1.27011,-17.54854z" fill="#000000" id="svg_2"/>
  <path d="m0.5,0.5l31.5102,0" fill="#000000" fill-rule="nonzero" id="svg_13" stroke="#000000"/>
  <path d="m0.5,31.5l31.5102,0" fill="#000000" fill-rule="nonzero" id="svg_22" stroke="#000000"/>
  <path d="m31.5,0.0102l0,32" fill="#000000" fill-rule="nonzero" id="svg_17" stroke="#000000"/>
  <path d="m0.5,0.0102l0,32" fill="#000000" fill-rule="nonzero" id="svg_23" stroke="#000000"/>
 </g>
</svg>