<?xml version="1.0"?>
<svg width="32" height="32" xmlns="http://www.w3.org/2000/svg" xmlns:svg="http://www.w3.org/2000/svg">
 <g class="currentLayer layer">
  <title>Layer 1</title>
  <circle class="selected" cx="16" cy="16" fill="#dadada" id="svg_1" r="15.35135"/>
  <path d="m21.17353,10.44816c0.04835,0.94284 -0.41099,1.88568 -1.06372,2.87687c0.53186,-3.21532 -0.53186,-6.81745 -4.8109,-8.48555c0.36263,1.35382 -0.50768,3.02192 -1.35382,4.83507c-0.50768,-0.58021 -1.08789,-1.13624 -1.78897,-1.6681c0.33845,4.49662 -9.52509,8.99323 -1.52305,16.681c0,0 0.53186,0.33845 1.4747,0.67691l-0.07253,-0.07253c-1.71645,-1.8615 -2.65929,-5.70538 0.60439,-8.2438c-0.04836,0.62856 0.26592,1.23295 0.70108,1.86151c-0.33845,-2.07908 0.33846,-4.42409 3.11862,-5.51198c-0.24175,0.87031 0.33846,1.9582 0.87031,3.14279c0.31428,-0.3868 0.70109,-0.74943 1.16042,-1.08789c-0.16923,2.39336 4.27904,4.85925 2.68347,8.50973c0.31428,-0.24176 0.62855,-0.50769 0.91866,-0.82197c2.63511,-2.85269 4.08563,-8.77565 -0.91866,-12.69206z" fill="#ffffff" id="svg_2"/>
 </g>
</svg>