<?xml version="1.0"?>
<svg width="19.999999999999996" height="19.999999999999996" xmlns="http://www.w3.org/2000/svg" xmlns:svg="http://www.w3.org/2000/svg">
 <g class="currentLayer layer">
  <title>Layer 1</title>
  <g id="svg_1">
   <g id="svg_2">
    <path d="m16.39368,11.46587c-0.19643,-2.55735 -1.38711,-4.15994 -2.43753,-5.57414c-0.97265,-1.30924 -1.81271,-2.43984 -1.81271,-4.10764c0,-0.13396 -0.07502,-0.2564 -0.19398,-0.31779c-0.11933,-0.06176 -0.26271,-0.05165 -0.37119,0.02719c-1.57757,1.12886 -2.89384,3.03146 -3.35364,4.84682c-0.3192,1.26386 -0.36144,2.68469 -0.36736,3.62308c-1.45687,-0.31117 -1.7869,-2.49038 -1.79038,-2.51412c-0.01641,-0.11303 -0.08547,-0.2114 -0.18594,-0.26512c-0.10151,-0.05301 -0.22084,-0.05687 -0.32376,-0.00593c-0.07639,0.03698 -1.87518,0.95095 -1.97984,4.60019c-0.00733,0.12141 -0.00766,0.24318 -0.00766,0.36492c0,3.54528 2.88476,6.42988 6.43031,6.42988c0.00489,0.00034 0.01011,0.00104 0.0143,0c0.00141,0 0.00278,0 0.00452,0c3.53684,-0.01015 6.4115,-2.89086 6.4115,-6.42988c0,-0.17827 -0.03664,-0.67746 -0.03664,-0.67746zm-6.39368,6.39291c-1.18197,0 -2.14344,-1.0242 -2.14344,-2.28317c0,-0.0429 -0.00033,-0.08617 0.00278,-0.13919c0.0143,-0.53093 0.11514,-0.89337 0.22573,-1.13444c0.20725,0.44513 0.57773,0.85432 1.17953,0.85432c0.19746,0 0.35725,-0.15978 0.35725,-0.35721c0,-0.5086 0.01048,-1.09537 0.13711,-1.62493c0.1127,-0.46955 0.382,-0.9691 0.72321,-1.36956c0.15175,0.51979 0.44761,0.94047 0.73648,1.35107c0.41341,0.58744 0.84076,1.1948 0.91578,2.23052c0.00452,0.06139 0.00908,0.12314 0.00908,0.18942c-0.00007,1.25894 -0.96154,2.28317 -2.14351,2.28317z" id="svg_3"/>
   </g>
  </g>
  <g id="svg_4"/>
  <g id="svg_5"/>
  <g id="svg_6"/>
  <g id="svg_7"/>
  <g id="svg_8"/>
  <g id="svg_9"/>
  <g id="svg_10"/>
  <g id="svg_11"/>
  <g id="svg_12"/>
  <g id="svg_13"/>
  <g id="svg_14"/>
  <g id="svg_15"/>
  <g id="svg_16"/>
  <g id="svg_17"/>
  <g id="svg_18"/>
 </g>
</svg>