<?xml version="1.0"?>
<svg width="32" height="32" xmlns="http://www.w3.org/2000/svg" xmlns:svg="http://www.w3.org/2000/svg">
 <g class="currentLayer layer">
  <title>Layer 1</title>
  <g fill="#0078d3" id="svg_3">
   <path d="m24.79536,9.68405c-0.00137,-0.11138 -0.03647,-0.22123 -0.11284,-0.30808l-4.67782,-5.34302c-0.00093,-0.00137 -0.00234,-0.00185 -0.00375,-0.00326c-0.02788,-0.03123 -0.0599,-0.0569 -0.0943,-0.07941a0.45356,0.45356 0 0 0 -0.03113,-0.01859a0.50417,0.50417 0 0 0 -0.09382,-0.03928c-0.00881,-0.00269 -0.01674,-0.00617 -0.02554,-0.00859a0.47964,0.47964 0 0 0 -0.10914,-0.01357l-11.49565,0c-0.52443,0 -0.95135,0.42701 -0.95135,0.9514l0,22.35671c0,0.52469 0.42687,0.95139 0.95135,0.95139l15.69726,0c0.52492,0 0.95135,-0.4267 0.95135,-0.95139l0,-17.44101c0,-0.01789 -0.00277,-0.03577 -0.00462,-0.0533zm-12.99059,16.76846l-1.20601,-2.12684l-0.42388,0.51937l0,1.60774l-1.10348,0l0,-4.9261l1.10348,0l0,2.17744l0.0222,0c0.10962,-0.18996 0.22634,-0.36512 0.33632,-0.54046l1.11801,-1.63698l1.36681,0l-1.62993,2.09755l1.71749,2.82828l-1.30101,0zm5.99249,0l-0.0729,-1.8857c-0.02184,-0.59186 -0.04413,-1.3081 -0.04413,-2.02443l-0.02184,0c-0.1535,0.62872 -0.3579,1.33039 -0.54791,1.90759l-0.59944,1.92225l-0.86969,0l-0.52606,-1.90759c-0.16072,-0.57741 -0.32866,-1.27934 -0.44595,-1.92225l-0.01475,0c-0.02929,0.66524 -0.05109,1.42495 -0.08743,2.03906l-0.08782,1.8709l-1.03054,0l0.31434,-4.92584l1.48371,0l0.48228,1.64443c0.1534,0.56993 0.30681,1.18408 0.41643,1.76096l0.02194,0c0.13891,-0.56975 0.30707,-1.22076 0.46779,-1.76867l0.52606,-1.63698l1.45442,0l0.27034,4.92583l-1.08885,0l0,0.00044zm5.02035,0l-3.07722,0l0,-4.92583l1.11836,0l0,3.99051l1.9589,0l0,0.93532l-0.00004,0zm-14.66624,-6.42879l0,-15.2019l11.01997,0l0,4.8677c0,0.26254 0.21273,0.47567 0.47568,0.47567l4.20161,0l0.00049,9.85853l-15.69775,0z" fill="#0078d3" id="svg_1"/>
   <path d="m15.85135,6.71131c3.19107,-0.01216 5.85305,2.60009 5.84675,5.85432c-0.0063,3.17561 -2.62247,5.85987 -5.89551,5.83499c-3.20811,-0.02462 -5.79891,-2.71338 -5.78847,-5.87159c0.0107,-3.19129 2.64189,-5.8268 5.83723,-5.81772zm-5.17794,4.25865c0.01907,0.01361 0.0381,0.02669 0.05704,0.04017c0.05783,-0.03497 0.12042,-0.06444 0.17221,-0.1065c0.11531,-0.09417 0.2233,-0.19811 0.33795,-0.2932c0.68783,-0.57116 1.43654,-0.73804 2.26258,-0.32227c0.27942,0.1405 0.55918,0.28699 0.81931,0.45969c1.14994,0.76319 2.27579,1.56448 3.44459,2.29755c0.92488,0.58054 1.93221,0.99583 3.01525,1.20601c0.16723,0.03264 0.24224,-0.01114 0.27408,-0.16049c0.04365,-0.20336 0.06897,-0.41124 0.12403,-0.6112c0.03669,-0.13156 -0.01207,-0.18036 -0.12385,-0.20648a4.03901,4.03901 0 0 1 -1.56334,-0.74919c-0.83983,-0.65542 -1.65605,-1.34237 -2.47012,-2.03064c-0.56323,-0.47682 -1.09846,-0.98699 -1.65988,-1.46676c-0.76218,-0.65048 -1.65557,-0.77063 -2.60622,-0.58032c-0.23471,0.04678 -0.51038,0.09919 -0.67497,0.24947c-0.56605,0.5176 -1.01486,1.13263 -1.28313,1.86226c-0.04946,0.13438 -0.08421,0.27466 -0.12553,0.4119zm9.64787,4.64237c-0.02158,-0.0233 -0.04298,-0.04607 -0.06483,-0.06942c-0.06919,0.01744 -0.13843,0.03334 -0.20714,0.05215c-0.73443,0.20115 -1.47979,0.37719 -2.24179,0.33909c-0.65797,-0.03307 -1.31788,-0.12275 -1.96542,-0.24572c-1.11973,-0.21277 -2.15714,-0.67889 -3.20605,-1.10973c-0.332,-0.13623 -0.69166,-0.25378 -1.04551,-0.27783c-0.47334,-0.03224 -0.73324,0.44643 -0.50831,0.85534c0.52897,0.96108 1.27943,1.69948 2.24945,2.21228c0.07783,0.04087 0.16676,0.06038 0.29475,0.10566c-0.02568,-0.12755 -0.03696,-0.19908 -0.05449,-0.26853c-0.12847,-0.51025 0.0799,-0.72395 0.60283,-0.61618c0.07281,0.01511 0.14588,0.02973 0.21811,0.04876c1.25838,0.32469 2.52944,0.4766 3.82619,0.28104c0.68541,-0.10359 1.35593,-0.23669 1.78492,-0.86868c0.10126,-0.14953 0.21159,-0.29271 0.31729,-0.43823zm-6.01561,-8.22966l0.01137,0.09302c0.05448,0.00907 0.10848,0.02405 0.16296,0.0266c0.28254,0.01577 0.56508,0.02577 0.8474,0.04286c1.03314,0.06258 1.9445,0.43387 2.64502,1.19394c0.54416,0.58962 1.00174,1.25886 1.51436,1.87865c0.22621,0.27417 0.47634,0.53465 0.74672,0.7654c0.20322,0.1734 0.44802,0.14865 0.61988,0.00845c0.18771,-0.15318 0.21788,-0.29892 0.12196,-0.58309c-0.33883,-1.00443 -0.93158,-1.83664 -1.76775,-2.47756c-1.2124,-0.93021 -2.58648,-1.32344 -4.11278,-1.12066c-0.26563,0.0351 -0.52611,0.11385 -0.78914,0.17239z" fill="#0078d3" id="svg_2"/>
  </g>
 </g>
</svg>