<?xml version="1.0"?>
<svg width="20" height="20" xmlns="http://www.w3.org/2000/svg" xmlns:svg="http://www.w3.org/2000/svg">
 <g class="currentLayer layer">
  <title>Layer 1</title>
  <g id="svg_1">
   <g id="svg_2">
    <path d="m16.03305,5.66766c-0.00093,-0.0764 -0.02501,-0.15175 -0.0774,-0.21132l-3.20868,-3.66497c-0.00064,-0.00094 -0.00161,-0.00127 -0.00257,-0.00224c-0.01913,-0.02142 -0.04109,-0.03903 -0.06468,-0.05447c-0.00701,-0.00462 -0.01402,-0.0087 -0.02136,-0.01275c-0.02073,-0.01115 -0.04206,-0.02024 -0.06435,-0.02695c-0.00605,-0.00184 -0.01148,-0.00423 -0.01753,-0.00589c-0.02453,-0.00571 -0.04936,-0.0093 -0.07486,-0.0093l-7.88528,0c-0.35973,0 -0.65257,0.2929 -0.65257,0.65259l0,15.33528c0,0.35991 0.29281,0.65259 0.65257,0.65259l10.76732,0c0.36006,0 0.65257,-0.29268 0.65257,-0.65259l0,-11.96342c0,-0.01227 -0.00191,-0.02453 -0.00318,-0.03656zm-8.91071,11.5021l-0.82725,-1.45888l-0.29075,0.35625l0,1.10281l-0.75692,0l0,-3.37899l0.75692,0l0,1.49359l0.01523,0c0.07519,-0.1303 0.15525,-0.25045 0.23069,-0.37073l0.76688,-1.12286l0.93755,0l-1.11803,1.43878l1.17809,1.94003l-0.89241,0zm4.11046,0l-0.05,-1.29347c-0.01498,-0.40598 -0.03027,-0.89728 -0.03027,-1.38864l-0.01498,0c-0.10529,0.43127 -0.2455,0.91257 -0.37583,1.30849l-0.41118,1.31854l-0.59655,0l-0.36085,-1.30848c-0.11024,-0.39607 -0.22543,-0.87755 -0.30589,-1.31855l-0.01012,0c-0.02009,0.45631 -0.03504,0.97743 -0.05997,1.39867l-0.06024,1.28331l-0.70688,0l0.21562,-3.3788l1.01773,0l0.33081,1.12797c0.10523,0.39093 0.21045,0.8122 0.28565,1.20791l0.01504,0c0.09529,-0.39082 0.21064,-0.83737 0.32088,-1.2132l0.36084,-1.12286l0.99764,0l0.18544,3.3788l-0.74689,0l0,0.00031zm3.44364,0l-2.11077,0l0,-3.37881l0.76712,0l0,2.73724l1.34368,0l0,0.64157l-0.00003,0zm-10.0601,-4.40974l0,-10.42754l7.559,0l0,3.33893c0,0.18009 0.14592,0.32628 0.32628,0.32628l2.88204,0l0.00033,6.76233l-10.76765,0z" id="svg_3"/>
    <g id="svg_4">
     <path d="m9.89804,3.62855c2.18887,-0.00834 4.01481,1.7835 4.01049,4.01569c-0.00432,2.17827 -1.79884,4.0195 -4.04394,4.00243c-2.20056,-0.01689 -3.97768,-1.8612 -3.97052,-4.02754c0.00734,-2.18902 1.81216,-3.9968 4.00397,-3.99058zm-3.55174,2.92116c0.01308,0.00934 0.02613,0.01831 0.03912,0.02756c0.03967,-0.02399 0.0826,-0.0442 0.11813,-0.07305c0.07909,-0.0646 0.15317,-0.1359 0.23181,-0.20112c0.47181,-0.39178 0.98538,-0.50625 1.55199,-0.22106c0.19166,0.09638 0.38356,0.19686 0.56199,0.31532c0.78879,0.5235 1.56105,1.07314 2.36277,1.57597c0.63441,0.39822 1.32537,0.68308 2.06827,0.82725c0.11471,0.02239 0.16616,-0.00764 0.188,-0.11009c0.02994,-0.13949 0.04731,-0.28208 0.08508,-0.41924c0.02516,-0.09024 -0.00828,-0.12372 -0.08496,-0.14163c-0.39492,-0.09312 -0.75736,-0.26822 -1.07235,-0.5139c-0.57607,-0.44957 -1.13594,-0.92078 -1.69434,-1.39289c-0.38634,-0.32707 -0.75347,-0.67701 -1.13858,-1.0061c-0.5228,-0.44619 -1.13561,-0.52861 -1.78769,-0.39807c-0.161,0.03209 -0.35009,0.06804 -0.46299,0.17112c-0.38828,0.35505 -0.69613,0.77692 -0.88015,1.2774c-0.03392,0.09217 -0.05776,0.1884 -0.0861,0.28253zm6.61783,3.18437c-0.01481,-0.01598 -0.02949,-0.0316 -0.04448,-0.04761c-0.04746,0.01196 -0.09495,0.02287 -0.14208,0.03577c-0.50377,0.13797 -1.01504,0.25873 -1.53773,0.23259c-0.45132,-0.02268 -0.90398,-0.0842 -1.34815,-0.16855c-0.76806,-0.14595 -1.47966,-0.46567 -2.19914,-0.7612c-0.22773,-0.09344 -0.47444,-0.17408 -0.71716,-0.19057c-0.32468,-0.02212 -0.50296,0.30622 -0.34867,0.5867c0.36284,0.65924 0.87761,1.16574 1.54299,1.51749c0.05338,0.02803 0.11438,0.04142 0.20217,0.07247c-0.01761,-0.08749 -0.02535,-0.13655 -0.03737,-0.1842c-0.08813,-0.34999 0.0548,-0.49658 0.4135,-0.42265c0.04994,0.01036 0.10006,0.02039 0.14961,0.03344c0.86317,0.22272 1.73504,0.32692 2.62452,0.19278c0.47015,-0.07106 0.93008,-0.16235 1.22434,-0.59586c0.06946,-0.10256 0.14514,-0.20078 0.21765,-0.3006zm-4.12633,-5.64502c0.00263,0.02136 0.00517,0.04245 0.00779,0.06381c0.03738,0.00622 0.07442,0.01649 0.11179,0.01824c0.1938,0.01082 0.38761,0.01768 0.58126,0.0294c0.70867,0.04293 1.3338,0.29761 1.81431,0.81897c0.37327,0.40444 0.68713,0.8635 1.03876,1.28863c0.15517,0.18807 0.32674,0.36674 0.5122,0.52502c0.1394,0.11894 0.30731,0.10196 0.4252,0.0058c0.12876,-0.10508 0.14945,-0.20505 0.08365,-0.39997c-0.23241,-0.68897 -0.639,-1.25981 -1.21256,-1.69945c-0.83163,-0.63806 -1.77416,-0.90779 -2.8211,-0.7687c-0.18221,0.02408 -0.36088,0.0781 -0.5413,0.11825z" id="svg_5"/>
    </g>
   </g>
  </g>
  <g id="svg_6"/>
  <g id="svg_7"/>
  <g id="svg_8"/>
  <g id="svg_9"/>
  <g id="svg_10"/>
  <g id="svg_11"/>
  <g id="svg_12"/>
  <g id="svg_13"/>
  <g id="svg_14"/>
  <g id="svg_15"/>
  <g id="svg_16"/>
  <g id="svg_17"/>
  <g id="svg_18"/>
  <g id="svg_19"/>
  <g id="svg_20"/>
 </g>
</svg>