<svg xmlns="http://www.w3.org/2000/svg" enable-background="new 0 0 511.977 511.977" height="32" width="32" style=""><rect id="backgroundrect" width="100%" height="100%" x="0" y="0" fill="none" stroke="none" class="" style=""/><g class="currentLayer" style=""><title>Layer 1</title><g id="svg_1" class="" fill-opacity="1" fill="#4a90d6" stroke-opacity="1" stroke="#4a90d6"><path d="m30.09830191654386,22.43312155646537 l-6.663573045052407,-6.665202579330102 c1.2503183722120363,-2.8385323164340837 0.7153073502540556,-6.280283303878118 -1.6059060306655621,-8.602078661325482 c-3.024299224090983,-3.02499759592428 -7.919594787236366,-3.025404979493702 -10.944243197243999,0 c-3.0171991104524674,3.017897482285764 -3.0171991104524674,7.92838263280535 0,10.946280115091112 c2.397626899012823,2.398150677887795 5.911368382939181,2.8547694615582304 8.716437049027805,1.558009362431969 l6.629527418179198,6.6310987548041185 c1.0688580908604666,1.0690908814715665 2.7991325055055998,1.0692072767771144 3.8679905963660652,-0.00023279061109887194 c1.0659482082217306,-1.0664137894439276 1.0658318129161812,-2.8015186092693627 -0.00023279061109887194,-3.8678742010605163 zm-17.97905906934633,-5.5554315385690085 c-2.3366939565576925,-2.337217735432664 -2.3366939565576925,-6.140143355996596 0,-8.477419289082036 c2.341873547654643,-2.3424555241823914 6.132577661135884,-2.3428629077518126 8.474858592359949,0 c2.3366939565576925,2.3372759330854405 2.3366939565576925,6.14020155364937 0,8.477419289082036 c-2.3419317453074173,2.3425137218351644 -6.132635858788662,2.3428629077518126 -8.474858592359949,0 zm16.744454063383472,8.189049919583312 c-0.38643241442412685,0.386607007382451 -1.0119407864467915,0.3867816003407746 -1.3984895961764678,0.00005819765277471814 l-6.333883342083633,-6.335396481055775 c0.5206362017226253,-0.4098278708395632 0.9846460872954506,-0.8804140911759301 1.3875484374548208,-1.4101291267314113 l6.3447081054997305,6.346221244471872 c0.38567584493805485,0.38579224024360476 0.38573404259083016,1.0134539254189359 0.00011639530554943586,1.3992461656625395 z" id="svg_2" fill="#4a90d6" stroke="#4a90d6"/><path d="m1.9750427826475763,15.357450932115208 h3.7224382667764973 c0.4821093555857626,0 0.8729647916207671,-0.3908554360350048 0.8729647916207671,-0.8729647916207671 s-0.3908554360350048,-0.8729647916207671 -0.8729647916207671,-0.8729647916207671 h-3.7224382667764973 c-0.4821093555857626,0 -0.8729647916207671,0.3908554360350048 -0.8729647916207671,0.8729647916207671 s0.3908554360350048,0.8729647916207671 0.8729647916207671,0.8729647916207671 z" id="svg_3" fill="#4a90d6" stroke="#4a90d6"/><path d="m1.9750427826475763,19.082100709697144 h5.118367166230877 c0.4821093555857626,0 0.8729647916207671,-0.3908554360350048 0.8729647916207671,-0.8729647916207671 s-0.3908554360350048,-0.8729647916207671 -0.8729647916207671,-0.8729647916207671 h-5.118367166230877 c-0.4821093555857626,0 -0.8729647916207671,0.3908554360350048 -0.8729647916207671,0.8729647916207671 s0.3908554360350048,0.8729647916207671 0.8729647916207671,0.8729647916207671 z" id="svg_4" fill="#4a90d6" stroke="#4a90d6"/><path d="m1.9750427826475763,22.806750487279082 h8.840863630660149 c0.4821093555857626,0 0.8729647916207671,-0.3908554360350048 0.8729647916207671,-0.8729647916207671 s-0.3908554360350048,-0.8729647916207671 -0.8729647916207671,-0.8729647916207671 h-8.840863630660149 c-0.4821093555857626,0 -0.8729647916207671,0.3908554360350048 -0.8729647916207671,0.8729647916207671 s0.3908554360350048,0.8729647916207671 0.8729647916207671,0.8729647916207671 z" id="svg_5" fill="#4a90d6" stroke="#4a90d6"/><path d="m21.052757141075023,24.785470681619483 h-19.077714358427453 c-0.4821093555857626,0 -0.8729647916207671,0.3908554360350048 -0.8729647916207671,0.8729647916207671 s0.3908554360350048,0.8729647916207671 0.8729647916207671,0.8729647916207671 h19.077714358427453 c0.4821093555857626,0 0.8729647916207671,-0.3908554360350048 0.8729647916207671,-0.8729647916207671 s-0.3908554360350048,-0.8729647916207671 -0.8729647916207671,-0.8729647916207671 z" id="svg_6" fill="#4a90d6" stroke="#4a90d6"/></g></g></svg>