<?xml version="1.0"?>
<svg width="20" height="20" xmlns="http://www.w3.org/2000/svg" xmlns:svg="http://www.w3.org/2000/svg">
 <g class="currentLayer layer">
  <title>Layer 1</title>
  <g id="svg_1">
   <path d="m18.37822,13.82302l-3.95997,-3.96094c0.74303,-1.68686 0.42508,-3.73219 -0.95435,-5.11197c-1.79725,-1.79767 -4.70639,-1.79791 -6.50385,0c-1.79303,1.79345 -1.79303,4.71161 0,6.50506c1.42484,1.42516 3.51296,1.69651 5.17993,0.92588l3.93974,3.94068c0.63519,0.63533 1.66345,0.6354 2.29864,-0.00014c0.63346,-0.63374 0.63339,-1.66486 -0.00014,-2.29857zm-10.68444,-3.30143c-1.38863,-1.38894 -1.38863,-3.64891 0,-5.03789c1.39171,-1.39206 3.64441,-1.3923 5.03636,0c1.38863,1.38898 1.38863,3.64895 0,5.03789c-1.39174,1.39209 -3.64445,1.39229 -5.03636,0zm9.95075,4.86652c-0.22965,0.22975 -0.60137,0.22985 -0.83108,0.00003l-3.76405,-3.76494c0.3094,-0.24355 0.58515,-0.52321 0.82458,-0.838l3.77048,3.77137c0.2292,0.22927 0.22923,0.60227 0.00007,0.83154z" id="svg_2"/>
   <path d="m1.66537,9.61815l2.21214,0c0.2865,0 0.51877,-0.23227 0.51877,-0.51878s-0.23227,-0.51877 -0.51877,-0.51877l-2.21214,0c-0.28651,0 -0.51878,0.23227 -0.51878,0.51877s0.23227,0.51878 0.51878,0.51878z" id="svg_3"/>
   <path d="m1.66537,11.83161l3.0417,0c0.2865,0 0.51878,-0.23228 0.51878,-0.51878s-0.23228,-0.51878 -0.51878,-0.51878l-3.0417,0c-0.28651,0 -0.51878,0.23227 -0.51878,0.51878s0.23227,0.51878 0.51878,0.51878z" id="svg_4"/>
   <path d="m1.66537,14.04506l5.25387,0c0.2865,0 0.51878,-0.23228 0.51878,-0.51878s-0.23228,-0.51878 -0.51878,-0.51878l-5.25387,0c-0.28651,0 -0.51878,0.23228 -0.51878,0.51878s0.23227,0.51878 0.51878,0.51878z" id="svg_5"/>
   <path d="m13.00271,15.22096l-11.33734,0c-0.28651,0 -0.51878,0.23227 -0.51878,0.51877s0.23227,0.51878 0.51878,0.51878l11.33734,0c0.2865,0 0.51878,-0.23227 0.51878,-0.51878s-0.23228,-0.51877 -0.51878,-0.51877z" id="svg_6"/>
  </g>
 </g>
</svg>