<?xml version="1.0"?>
<svg width="32" height="32" xmlns="http://www.w3.org/2000/svg" xmlns:svg="http://www.w3.org/2000/svg">
 <g class="currentLayer layer">
  <title>Layer 1</title>
  <g id="svg_1">
   <path d="m30.80823,22.75706l-6.99912,-7.00083c1.31328,-2.98147 0.75132,-6.59653 -1.68678,-9.03524c-3.17658,-3.17732 -8.31838,-3.17775 -11.49534,0c-3.16913,3.16987 -3.16913,8.32762 0,11.49749c2.51836,2.51891 6.20904,2.99852 9.15536,1.63646l6.96336,6.96501c1.12268,1.12293 2.94008,1.12305 4.06276,-0.00024c1.11963,-1.12012 1.1195,-2.94259 -0.00024,-4.06265zm-18.8844,-5.83517c-2.45436,-2.45491 -2.45436,-6.44934 0,-8.90431c2.45979,-2.46041 6.44138,-2.46084 8.90161,0c2.45436,2.45497 2.45436,6.4494 0,8.90431c-2.45986,2.46047 -6.44145,2.46083 -8.90161,0zm17.58762,8.60141c-0.40589,0.40607 -1.06289,0.40626 -1.46891,0.00006l-6.65283,-6.65442c0.54686,-0.43046 1.03423,-0.92475 1.45742,-1.48113l6.6642,6.66578c0.4051,0.40522 0.40516,1.06449 0.00012,1.46971z" id="svg_2"/>
   <path d="m1.26881,15.32509l3.90988,0c0.50639,0 0.91693,-0.41053 0.91693,-0.91692s-0.41054,-0.91692 -0.91693,-0.91692l-3.90988,0c-0.50639,0 -0.91692,0.41054 -0.91692,0.91692s0.41053,0.91692 0.91692,0.91692z" id="svg_3"/>
   <path d="m1.26881,19.2373l5.3761,0c0.50639,0 0.91693,-0.41054 0.91693,-0.91692s-0.41054,-0.91693 -0.91693,-0.91693l-5.3761,0c-0.50639,0 -0.91692,0.41054 -0.91692,0.91693s0.41053,0.91692 0.91692,0.91692z" id="svg_4"/>
   <path d="m1.26881,23.14951l9.28605,0c0.50639,0 0.91692,-0.41054 0.91692,-0.91693s-0.41053,-0.91692 -0.91692,-0.91692l-9.28605,0c-0.50639,0 -0.91692,0.41054 -0.91692,0.91692s0.41053,0.91693 0.91692,0.91693z" id="svg_5"/>
   <path d="m21.30719,25.22787l-20.03838,0c-0.50639,0 -0.91692,0.41053 -0.91692,0.91692s0.41053,0.91692 0.91692,0.91692l20.03838,0c0.50639,0 0.91692,-0.41053 0.91692,-0.91692s-0.41053,-0.91692 -0.91692,-0.91692z" id="svg_6"/>
  </g>
  <rect fill="none" height="100%" id="backgroundrect" width="100%" x="0" y="0"/>
 </g>
</svg>