<svg xmlns="http://www.w3.org/2000/svg" enable-background="new 0 0 511.977 511.977" height="32" width="32"><rect id="backgroundrect" width="100%" height="100%" x="0" y="0" fill="none" stroke="none" class="" style=""/><g class="currentLayer" style=""><title>Layer 1</title><g id="svg_1" class=""><path d="m30.808226768196818,22.757063344520052 l-6.999119776125131,-7.000831366215274 c1.3132786248811983,-2.9814676805974463 0.7513269213561169,-6.596529335636041 -1.6867720338378227,-9.03523957300503 c-3.1765889508739678,-3.1773224894840304 -8.318388966321832,-3.177750387006567 -11.495344686500832,0 c-3.1691313083383372,3.1698648469484 -3.1691313083383372,8.327619327165115 0,11.497484174113515 c2.518360304778235,2.5189104587357813 6.209037564870731,2.99852245328139 9.155356520402702,1.6364635108310628 l6.963359768884603,6.965010230757241 c1.1226808427000599,1.1229253555700813 2.940083877346443,1.1230476120050907 4.062764720046502,-0.000244512870020705 c1.1196244318248012,-1.1201134575648422 1.1195021753897907,-2.9425901342641545 -0.000244512870020705,-4.062642463611493 zm-18.88440136209148,-5.835177386609076 c-2.4543590610503165,-2.4549092150078615 -2.4543590610503165,-6.449332587883579 0,-8.904302931108944 c2.4597994724082763,-2.4604107545833283 6.441385919607905,-2.4608386521058643 8.901613289538718,0 c2.4543590610503165,2.454970343225368 2.4543590610503165,6.449393716101083 0,8.904302931108944 c-2.459860600625781,2.460471882800833 -6.44144704782541,2.4608386521058643 -8.901613289538718,0 zm17.587627355936686,8.601412613370798 c-0.405891364234368,0.40607474888688366 -1.062897445979998,0.40625813353939955 -1.4689110666493763,0.00006112821750517647 l-6.652828423958309,-6.6544177576134445 c0.546853033801304,-0.4304649076714491 1.0342283119700704,-0.9247476744183013 1.4574189617584028,-1.4811367101504103 l6.6641982724142705,6.665787606069406 c0.4050966974068003,0.4052189538418117 0.40515782562430547,1.064486779635132 0.00012225643501035267,1.4697057334769428 z" id="svg_2"/><path d="m1.268810325648139,15.32509466024078 h3.9098830480660567 c0.5063861538128764,0 0.9169232625776378,-0.4105371087647628 0.9169232625776378,-0.9169232625776378 s-0.4105371087647628,-0.9169232625776378 -0.9169232625776378,-0.9169232625776378 h-3.9098830480660567 c-0.5063861538128764,0 -0.9169232625776378,0.4105371087647628 -0.9169232625776378,0.9169232625776378 s0.4105371087647628,0.9169232625776378 0.9169232625776378,0.9169232625776378 z" id="svg_3"/><path d="m1.268810325648139,19.237300580572033 h5.3761044731452055 c0.5063861538128764,0 0.9169232625776378,-0.4105371087647628 0.9169232625776378,-0.9169232625776378 s-0.4105371087647628,-0.9169232625776378 -0.9169232625776378,-0.9169232625776378 h-5.3761044731452055 c-0.5063861538128764,0 -0.9169232625776378,0.4105371087647628 -0.9169232625776378,0.9169232625776378 s0.4105371087647628,0.9169232625776378 0.9169232625776378,0.9169232625776378 z" id="svg_4"/><path d="m1.268810325648139,23.14950650090329 h9.28604864942877 c0.5063861538128764,0 0.9169232625776378,-0.4105371087647628 0.9169232625776378,-0.9169232625776378 s-0.4105371087647628,-0.9169232625776378 -0.9169232625776378,-0.9169232625776378 h-9.28604864942877 c-0.5063861538128764,0 -0.9169232625776378,0.4105371087647628 -0.9169232625776378,0.9169232625776378 s0.4105371087647628,0.9169232625776378 0.9169232625776378,0.9169232625776378 z" id="svg_5"/><path d="m21.307190177802315,25.227865896079273 h-20.03837985215419 c-0.5063861538128764,0 -0.9169232625776378,0.4105371087647628 -0.9169232625776378,0.9169232625776378 s0.4105371087647628,0.9169232625776378 0.9169232625776378,0.9169232625776378 h20.03837985215419 c0.5063861538128764,0 0.9169232625776378,-0.4105371087647628 0.9169232625776378,-0.9169232625776378 s-0.4105371087647628,-0.9169232625776378 -0.9169232625776378,-0.9169232625776378 z" id="svg_6"/></g></g></svg>