<?xml version="1.0"?>
<svg width="24" height="24" xmlns="http://www.w3.org/2000/svg" xmlns:svg="http://www.w3.org/2000/svg">
 <g class="currentLayer layer" display="inline">
  <title>Layer 1</title>
  <g id="svg_1">
   <path d="m22.71732,16.89036l-5.06555,-5.06679c0.95047,-2.15781 0.54376,-4.77417 -1.22079,-6.53917c-2.29902,-2.29955 -6.02035,-2.29986 -8.31965,0c-2.29362,2.29416 -2.29362,6.02704 0,8.3212c1.82264,1.82304 4.49374,2.17015 6.62611,1.18438l5.03966,5.04086c0.81253,0.8127 2.12786,0.81279 2.94039,-0.00018c0.81032,-0.81067 0.81023,-2.12967 -0.00017,-2.9403zm-13.66741,-4.22315c-1.77632,-1.77672 -1.77632,-4.66765 0,-6.44441c1.78025,-1.7807 4.66189,-1.78101 6.44246,0c1.77632,1.77676 1.77632,4.66769 0,6.44441c-1.7803,1.78074 -4.66194,1.781 -6.44246,0zm12.72888,6.22519c-0.29376,0.29389 -0.76926,0.29402 -1.06311,0.00004l-4.81493,-4.81607c0.39578,-0.31155 0.74852,-0.66928 1.0548,-1.07196l4.82315,4.8243c0.29318,0.29328 0.29323,0.77041 0.00009,1.06369z" id="svg_2"/>
   <path d="m1.33844,11.51154l2.82974,0c0.36649,0 0.66362,-0.29712 0.66362,-0.66361s-0.29713,-0.66362 -0.66362,-0.66362l-2.82974,0c-0.36649,0 -0.66362,0.29713 -0.66362,0.66362s0.29713,0.66361 0.66362,0.66361z" id="svg_3"/>
   <path d="m1.33844,14.34297l3.8909,0c0.3665,0 0.66362,-0.29713 0.66362,-0.66362s-0.29712,-0.66361 -0.66362,-0.66361l-3.8909,0c-0.36649,0 -0.66362,0.29712 -0.66362,0.66361s0.29713,0.66362 0.66362,0.66362z" id="svg_4"/>
   <path d="m1.33844,17.17439l6.72069,0c0.36649,0 0.66361,-0.29712 0.66361,-0.66362s-0.29712,-0.66361 -0.66361,-0.66361l-6.72069,0c-0.36649,0 -0.66362,0.29712 -0.66362,0.66361s0.29713,0.66362 0.66362,0.66362z" id="svg_5"/>
   <path d="m15.84103,18.67858l-14.50259,0c-0.36649,0 -0.66362,0.29712 -0.66362,0.66362s0.29713,0.66361 0.66362,0.66361l14.50259,0c0.36649,0 0.66361,-0.29712 0.66361,-0.66361s-0.29712,-0.66362 -0.66361,-0.66362z" id="svg_6"/>
  </g>
 </g>
</svg>