<?xml version="1.0"?>
<svg width="32" height="32" xmlns="http://www.w3.org/2000/svg" xmlns:svg="http://www.w3.org/2000/svg">
 <defs>
  <filter color-interpolation-filters="sRGB" filterUnits="userSpaceOnUse" height="29.312599" id="filter0_i" width="25.429899" x="3.74243" y="1.62338"/>
  <filter color-interpolation-filters="sRGB" filterUnits="userSpaceOnUse" height="7.22869" id="filter1_i" width="15.2187" x="8.8055" y="19.9998"/>
  <filter color-interpolation-filters="sRGB" filterUnits="userSpaceOnUse" height="2.72679" id="filter2_i" width="3.14863" x="13.3762" y="14.5189"/>
  <filter color-interpolation-filters="sRGB" filterUnits="userSpaceOnUse" height="5.86214" id="filter3_i" width="5.64085" x="13.9586" y="8.00827"/>
  <linearGradient id="paint1_linear" x1="0.776943" x2="0.088776" y1="0.012848" y2="0.968068">
   <stop stop-color="#6690D1"/>
   <stop offset="1" stop-color="#25477B"/>
  </linearGradient>
  <linearGradient id="paint2_linear" x1="0.806572" x2="0.667237" y1="0.012851" y2="1.272912">
   <stop stop-color="#6690D1"/>
   <stop offset="1" stop-color="#25477B"/>
  </linearGradient>
  <linearGradient id="paint3_linear" x1="0.983422" x2="-0.01191" y1="0.172767" y2="0.877952">
   <stop stop-color="#6690D1"/>
   <stop offset="1" stop-color="#25477B"/>
  </linearGradient>
  <linearGradient id="paint4_linear" x1="0.983425" x2="-0.0119" y1="0.172738" y2="0.87792">
   <stop stop-color="#6690D1"/>
   <stop offset="1" stop-color="#25477B"/>
  </linearGradient>
 </defs>
 <g class="currentLayer layer">
  <title>Layer 1</title>
  <g filter="url(#filter0_i)" id="svg_2">
   <path clip-rule="evenodd" d="m10.5097,1.62338c-1.42029,0 -2.57166,1.15137 -2.57166,2.57166c0,1.15586 0.76255,2.13361 1.81201,2.45762l0,9.99684l-5.58579,9.4814l1.077,0.6345l-1.077,-0.6345c-0.89733,1.5232 -0.27941,3.3312 1.06533,4.1267c0.45306,0.4198 1.06195,0.6784 1.73005,0.6784l18.99666,0c0.6691,0 1.2789,-0.2594 1.7321,-0.6803c1.3425,-0.7965 1.9587,-2.6028 1.0621,-4.1248l-5.5004,-9.3365l0,-10.16988c1.005,-0.34968 1.7262,-1.30535 1.7262,-2.42948c0,-1.42029 -1.1514,-2.57166 -2.5716,-2.57166l-11.895,0zm1.7404,15.36702l0,-9.74037l8.5,0l0,9.88517l0,0.3408l0.173,0.2937l5.6734,9.6302c0.1541,0.2615 0.048,0.5945 -0.2154,0.7228l-0.225,0.1097l-0.1655,0.1879c-0.0051,0.0058 -0.0108,0.0098 -0.0159,0.0122c-0.0041,0.0018 -0.0093,0.0035 -0.0184,0.0035l-18.99666,0c-0.00905,0 -0.01428,-0.0016 -0.01833,-0.0035c-0.00509,-0.0024 -0.01084,-0.0064 -0.01592,-0.0121l-0.16579,-0.188l-0.2254,-0.1094c-0.26366,-0.1281 -0.37015,-0.4613 -0.21595,-0.7231l5.75875,-9.7751l0.1731,-0.2936l0,-0.3408z" fill="url(#paint1_linear)" fill-rule="evenodd" id="svg_3"/>
  </g>
  <g filter="url(#filter1_i)" id="svg_4">
   <path d="m17.9421,21.631c0.5878,0 1.0681,-0.0945 1.4576,-0.2356c0.7689,-0.2784 2.0753,-0.207 2.4729,0.5075l2.0035,3.6006c0.4305,0.7737 -0.1289,1.725 -1.0142,1.725l-12.89499,0c-0.88368,0 -1.44324,-0.9469 -1.01397,-1.7194c0.92946,-1.6724 2.21746,-3.976 2.31316,-4.0717c0.151,-0.151 0.6663,-1.4376 2.4824,-1.4376c1.816,0 1.8785,1.6312 4.1936,1.6312z" fill="url(#paint2_linear)" id="svg_5"/>
  </g>
  <g filter="url(#filter2_i)" id="svg_6">
   <path d="m15.7377,14.5188l0.7871,1.3634l-0.7871,1.3634l-1.5744,0l-0.7871,-1.3634l0.7871,-1.3634l1.5744,0z" fill="url(#paint3_linear)" id="svg_7"/>
  </g>
  <g filter="url(#filter3_i)" id="svg_8">
   <path d="m17.9072,8.98529l1.1281,1.95401l-1.1281,1.9541l-2.2564,0l-1.1281,-1.9541l1.1281,-1.95401l2.2564,0z" fill="url(#paint4_linear)" id="svg_9"/>
  </g>
 </g>
</svg>