<?xml version="1.0"?>
<svg width="32" height="32" xmlns="http://www.w3.org/2000/svg" xmlns:svg="http://www.w3.org/2000/svg">
 <g class="currentLayer layer" display="inline">
  <title>Layer 1</title>
  <g fill="#4a90d6" id="svg_1" stroke="#4a90d6">
   <path d="m30.0983,22.43312l-6.66357,-6.6652c1.25032,-2.83853 0.71531,-6.28028 -1.60591,-8.60208c-3.0243,-3.025 -7.91959,-3.0254 -10.94424,0c-3.0172,3.0179 -3.0172,7.92838 0,10.94628c2.39763,2.39815 5.91137,2.85477 8.71644,1.55801l6.62952,6.6311c1.06886,1.06909 2.79914,1.06921 3.86799,-0.00023c1.06595,-1.06642 1.06584,-2.80152 -0.00023,-3.86788zm-17.97906,-5.55543c-2.33669,-2.33722 -2.33669,-6.14014 0,-8.47742c2.34188,-2.34245 6.13258,-2.34286 8.47486,0c2.3367,2.33728 2.3367,6.1402 0,8.47742c-2.34193,2.34251 -6.13263,2.34286 -8.47486,0zm16.74446,8.18905c-0.38644,0.38661 -1.01194,0.38678 -1.39849,0.00006l-6.33389,-6.3354c0.52064,-0.40983 0.98465,-0.88041 1.38755,-1.41013l6.34471,6.34622c0.38568,0.3858 0.38573,1.01346 0.00012,1.39925z" fill="#4a90d6" id="svg_2" stroke="#4a90d6"/>
   <path d="m1.97504,15.35745l3.72244,0c0.48211,0 0.87297,-0.39085 0.87297,-0.87296s-0.39086,-0.87297 -0.87297,-0.87297l-3.72244,0c-0.48211,0 -0.87296,0.39086 -0.87296,0.87297s0.39085,0.87296 0.87296,0.87296z" fill="#4a90d6" id="svg_3" stroke="#4a90d6"/>
   <path d="m1.97504,19.0821l5.11837,0c0.48211,0 0.87296,-0.39085 0.87296,-0.87296s-0.39085,-0.87297 -0.87296,-0.87297l-5.11837,0c-0.48211,0 -0.87296,0.39086 -0.87296,0.87297s0.39085,0.87296 0.87296,0.87296z" fill="#4a90d6" id="svg_4" stroke="#4a90d6"/>
   <path d="m1.97504,22.80675l8.84087,0c0.48211,0 0.87296,-0.39085 0.87296,-0.87296s-0.39085,-0.87297 -0.87296,-0.87297l-8.84087,0c-0.48211,0 -0.87296,0.39086 -0.87296,0.87297s0.39085,0.87296 0.87296,0.87296z" fill="#4a90d6" id="svg_5" stroke="#4a90d6"/>
   <path d="m21.05276,24.78547l-19.07772,0c-0.48211,0 -0.87296,0.39086 -0.87296,0.87297s0.39085,0.87296 0.87296,0.87296l19.07772,0c0.48211,0 0.87296,-0.39086 0.87296,-0.87296s-0.39085,-0.87297 -0.87296,-0.87297z" fill="#4a90d6" id="svg_6" stroke="#4a90d6"/>
  </g>
  <rect fill="none" height="100%" id="backgroundrect" width="100%" x="0" y="0"/>
 </g>
</svg>