<?xml version="1.0"?>
<svg width="20" height="20" xmlns="http://www.w3.org/2000/svg" xmlns:svg="http://www.w3.org/2000/svg">
 <g class="currentLayer layer">
  <title>Layer 1</title>
  <g id="svg_1">
   <path d="m17.99741,15.7975l-4.70272,-8.70047l0,-5.18305c0,-0.48779 -0.40806,-0.87661 -0.89546,-0.87661l-4.80012,0c-0.48779,0 -0.88918,0.38882 -0.88918,0.87661l0,5.18305l-4.70665,8.70047c-0.35897,0.66334 -0.3409,1.46886 0.04517,2.11728c0.38607,0.64764 1.08633,1.04785 1.8404,1.04785l12.22024,0c0.75407,0 1.45591,-0.40021 1.84198,-1.04785c0.38567,-0.64842 0.40531,-1.45394 0.04634,-2.11728zm-7.221,-3.63996c0.42141,0 0.76271,0.3413 0.76271,0.76271c0,0.42102 -0.34208,0.76271 -0.76271,0.76271c-0.42102,0 -0.76271,-0.34169 -0.76271,-0.76271c0,-0.42023 0.34129,-0.76271 0.76271,-0.76271zm-2.14478,-4.58608c0.42142,0 0.76271,0.34169 0.76271,0.76311c0,0.42102 -0.34129,0.76271 -0.76271,0.76271c-0.42141,0 -0.76271,-0.34169 -0.76271,-0.76271c0.00039,-0.42142 0.3413,-0.76311 0.76271,-0.76311zm0,2.66281c0.68259,0 1.23636,0.55377 1.23636,1.23597c0,0.68259 -0.55377,1.23597 -1.23636,1.23597c-0.68298,0 -1.23636,-0.55338 -1.23636,-1.23597s0.55338,-1.23597 1.23636,-1.23597zm7.10004,6.34086c-0.15867,0.27021 -0.44891,0.42967 -0.76114,0.42967l-9.94311,0c-0.31263,0 -0.60247,-0.15946 -0.76114,-0.42967c-0.15867,-0.27021 -0.16299,-0.60011 -0.011,-0.87425l1.19512,-2.14831c0.17045,-0.30713 0.50664,-0.48307 0.85618,-0.44969c1.58708,0.15121 3.37093,1.50892 4.96508,1.44844c0.85383,-0.0326 1.64639,-0.34365 2.40124,-0.75957c0.42613,-0.23564 0.96222,-0.0813 1.19866,0.34444l0.8715,1.56391c0.1512,0.27453 0.14728,0.60522 -0.01139,0.87503z" id="svg_2"/>
  </g>
 </g>
</svg>