<?xml version="1.0"?>
<svg width="32" height="32" xmlns="http://www.w3.org/2000/svg" xmlns:svg="http://www.w3.org/2000/svg">
 <g class="currentLayer layer">
  <title>Layer 1</title>
  <g fill="#0078d3" id="svg_2" stroke="#0078d3">
   <path clip-rule="evenodd" d="m10.5097,1.62338c-1.42029,0 -2.57166,1.15137 -2.57166,2.57166c0,1.15586 0.76255,2.13361 1.81201,2.45762l0,9.99684l-5.58579,9.4814l1.077,0.6345l-1.077,-0.6345c-0.89733,1.5232 -0.27941,3.3312 1.06533,4.1267c0.45306,0.4198 1.06195,0.6784 1.73005,0.6784l18.99666,0c0.6691,0 1.2789,-0.2594 1.7321,-0.6803c1.3425,-0.7965 1.9587,-2.6028 1.0621,-4.1248l-5.5004,-9.3365l0,-10.16988c1.005,-0.34968 1.7262,-1.30535 1.7262,-2.42948c0,-1.42029 -1.1514,-2.57166 -2.5716,-2.57166l-11.895,0zm1.7404,15.36702l0,-9.74037l8.5,0l0,9.88517l0,0.3408l0.173,0.2937l5.6734,9.6302c0.1541,0.2615 0.048,0.5945 -0.2154,0.7228l-0.225,0.1097l-0.1655,0.1879c-0.0051,0.0058 -0.0108,0.0098 -0.0159,0.0122c-0.0041,0.0018 -0.0093,0.0035 -0.0184,0.0035l-18.99666,0c-0.00905,0 -0.01428,-0.0016 -0.01833,-0.0035c-0.00509,-0.0024 -0.01084,-0.0064 -0.01592,-0.0121l-0.16579,-0.188l-0.2254,-0.1094c-0.26366,-0.1281 -0.37015,-0.4613 -0.21595,-0.7231l5.75875,-9.7751l0.1731,-0.2936l0,-0.3408z" fill="#0078d3" fill-rule="evenodd" id="svg_3" stroke="#0078d3"/>
  </g>
  <g fill="#0078d3" id="svg_4" stroke="#0078d3">
   <path d="m17.72039,22.47225c0.49089,0 0.892,-0.07892 1.21728,-0.19676c0.64213,-0.2325 1.73314,-0.17287 2.06519,0.42383l1.67317,3.00695c0.35952,0.64614 -0.10765,1.4406 -0.84698,1.4406l-10.76895,0c-0.73799,0 -1.20529,-0.79078 -0.8468,-1.43592c0.77622,-1.39667 1.85186,-3.32046 1.93178,-3.40038c0.12611,-0.12611 0.55645,-1.20058 2.07312,-1.20058c1.51659,0 1.56879,1.36226 3.50219,1.36226z" fill="#0078d3" id="svg_5" stroke="#0078d3"/>
  </g>
  <g fill="#0078d3" id="svg_6">
   <path d="m15.57443,14.5188l0.7871,1.3634l-0.7871,1.3634l-1.5744,0l-0.7871,-1.3634l0.7871,-1.3634l1.5744,0z" fill="#0078d3" id="svg_7"/>
  </g>
  <g fill="#0078d3" id="svg_8" stroke="#0078d3">
   <path d="m18.42473,8.82202l0.89247,1.54586l-0.89247,1.54593l-1.78508,0l-0.89246,-1.54593l0.89246,-1.54586l1.78508,0z" fill="#0078d3" id="svg_9" stroke="#0078d3"/>
  </g>
 </g>
</svg>