<svg xmlns="http://www.w3.org/2000/svg" width="32" height="32" fill="none"><rect id="backgroundrect" width="100%" height="100%" x="0" y="0" fill="none" stroke="none"/>





<defs>
<filter id="filter0_i" x="3.7424299716949463" y="1.6233799457550049" width="25.429899215698242" height="29.312599182128906" filterUnits="userSpaceOnUse" color-interpolation-filters="sRGB">
<feFlood flood-opacity="0" result="BackgroundImageFix"/>
<feBlend mode="normal" in="SourceGraphic" in2="BackgroundImageFix" result="shape"/>
<feColorMatrix in="SourceAlpha" type="matrix" values="0 0 0 0 0 0 0 0 0 0 0 0 0 0 0 0 0 0 127 0" result="hardAlpha"/>
<feOffset dx="0.5" dy="0.5"/>
<feComposite in2="hardAlpha" operator="arithmetic" k2="-1" k3="1"/>
<feColorMatrix type="matrix" values="0 0 0 0 0 0 0 0 0 0 0 0 0 0 0 0 0 0 0.08 0"/>
<feBlend mode="normal" in2="shape" result="effect1_innerShadow"/>
</filter>
<filter id="filter1_i" x="8.805500030517578" y="19.999799728393555" width="15.218700408935547" height="7.228690147399902" filterUnits="userSpaceOnUse" color-interpolation-filters="sRGB">
<feFlood flood-opacity="0" result="BackgroundImageFix"/>
<feBlend mode="normal" in="SourceGraphic" in2="BackgroundImageFix" result="shape"/>
<feColorMatrix in="SourceAlpha" type="matrix" values="0 0 0 0 0 0 0 0 0 0 0 0 0 0 0 0 0 0 127 0" result="hardAlpha"/>
<feOffset dx="0.5" dy="0.5"/>
<feComposite in2="hardAlpha" operator="arithmetic" k2="-1" k3="1"/>
<feColorMatrix type="matrix" values="0 0 0 0 0 0 0 0 0 0 0 0 0 0 0 0 0 0 0.08 0"/>
<feBlend mode="normal" in2="shape" result="effect1_innerShadow"/>
</filter>
<filter id="filter2_i" x="13.376199722290039" y="14.518899917602539" width="3.148629903793335" height="2.726789951324463" filterUnits="userSpaceOnUse" color-interpolation-filters="sRGB">
<feFlood flood-opacity="0" result="BackgroundImageFix"/>
<feBlend mode="normal" in="SourceGraphic" in2="BackgroundImageFix" result="shape"/>
<feColorMatrix in="SourceAlpha" type="matrix" values="0 0 0 0 0 0 0 0 0 0 0 0 0 0 0 0 0 0 127 0" result="hardAlpha"/>
<feOffset dx="0.5" dy="0.5"/>
<feComposite in2="hardAlpha" operator="arithmetic" k2="-1" k3="1"/>
<feColorMatrix type="matrix" values="0 0 0 0 0 0 0 0 0 0 0 0 0 0 0 0 0 0 0.08 0"/>
<feBlend mode="normal" in2="shape" result="effect1_innerShadow"/>
</filter>
<filter id="filter3_i" x="13.958600044250488" y="8.008270263671875" width="5.640850067138672" height="5.86214017868042" filterUnits="userSpaceOnUse" color-interpolation-filters="sRGB">
<feFlood flood-opacity="0" result="BackgroundImageFix"/>
<feBlend mode="normal" in="SourceGraphic" in2="BackgroundImageFix" result="shape"/>
<feColorMatrix in="SourceAlpha" type="matrix" values="0 0 0 0 0 0 0 0 0 0 0 0 0 0 0 0 0 0 127 0" result="hardAlpha"/>
<feOffset dx="0.5" dy="0.5"/>
<feComposite in2="hardAlpha" operator="arithmetic" k2="-1" k3="1"/>
<feColorMatrix type="matrix" values="0 0 0 0 0 0 0 0 0 0 0 0 0 0 0 0 0 0 0.08 0"/>
<feBlend mode="normal" in2="shape" result="effect1_innerShadow"/>
</filter>
<linearGradient id="paint0_linear" x1="0.8069053355752439" y1="-0.08651673174022692" x2="0.05323898395192483" y2="0.9923414757018176">
<stop offset="0.208333" stop-color="white"/>
<stop offset="0.953125" stop-color="#DFE4EC"/>
</linearGradient>
<linearGradient id="paint1_linear" x1="0.7769426893670374" y1="0.01284839267698252" x2="0.08877616924607355" y2="0.9680683574680404">
<stop stop-color="#6690D1"/>
<stop offset="1" stop-color="#25477B"/>
</linearGradient>
<linearGradient id="paint2_linear" x1="0.806572321004187" y1="0.012851455215029547" x2="0.6672373109762918" y2="1.2729120211212845">
<stop stop-color="#6690D1"/>
<stop offset="1" stop-color="#25477B"/>
</linearGradient>
<linearGradient id="paint3_linear" x1="0.9834217060734577" y1="0.17276656138290472" x2="-0.011909874949493358" y2="0.8779522092627561">
<stop stop-color="#6690D1"/>
<stop offset="1" stop-color="#25477B"/>
</linearGradient>
<linearGradient id="paint4_linear" x1="0.983424500132402" y1="0.1727382782273385" x2="-0.011900115030148128" y2="0.8779204534168418">
<stop stop-color="#6690D1"/>
<stop offset="1" stop-color="#25477B"/>
</linearGradient>
</defs>
<g class="currentLayer" style=""><title>Layer 1</title><g filter="url(#filter0_i)" id="svg_2">
<path fill-rule="evenodd" clip-rule="evenodd" d="M10.5097 1.62338C9.08941 1.62338 7.93804 2.77475 7.93804 4.19504C7.93804 5.3509 8.70059 6.32865 9.75005 6.65266V16.6495L4.16426 26.1309L5.24126 26.7654L4.16426 26.1309C3.26693 27.6541 3.88485 29.4621 5.22959 30.2576C5.68265 30.6774 6.29154 30.936 6.95964 30.936H25.9563C26.6254 30.936 27.2352 30.6766 27.6884 30.2557C29.0309 29.4592 29.6471 27.6529 28.7505 26.1309L23.2501 16.7944V6.62452C24.2551 6.27484 24.9763 5.31917 24.9763 4.19504C24.9763 2.77475 23.8249 1.62338 22.4047 1.62338H10.5097ZM12.2501 16.9904V7.25003H20.7501V17.1352V17.476L20.9231 17.7697L26.5965 27.3999C26.7506 27.6614 26.6445 27.9944 26.3811 28.1227L26.1561 28.2324L25.9906 28.4203C25.9855 28.4261 25.9798 28.4301 25.9747 28.4325C25.9706 28.4343 25.9654 28.436 25.9563 28.436H6.95964C6.95059 28.436 6.94536 28.4344 6.94131 28.4325C6.93622 28.4301 6.93047 28.4261 6.92539 28.4204L6.7596 28.2324L6.5342 28.123C6.27054 27.9949 6.16405 27.6617 6.31825 27.3999L12.077 17.6248L12.2501 17.3312V16.9904Z" fill="url(#paint1_linear)" id="svg_3"/>
</g><g filter="url(#filter1_i)" id="svg_4">
<path d="M17.9421 21.631C18.5299 21.631 19.0102 21.5365 19.3997 21.3954C20.1686 21.117 21.475 21.1884 21.8726 21.9029L23.8761 25.5035C24.3066 26.2772 23.7472 27.2285 22.8619 27.2285H9.96691C9.08323 27.2285 8.52367 26.2816 8.95294 25.5091C9.8824 23.8367 11.1704 21.5331 11.2661 21.4374C11.4171 21.2864 11.9324 19.9998 13.7485 19.9998C15.5645 19.9998 15.627 21.631 17.9421 21.631Z" fill="url(#paint2_linear)" id="svg_5"/>
</g><g filter="url(#filter2_i)" id="svg_6">
<path d="M15.7377 14.5188L16.5248 15.8822L15.7377 17.2456L14.1633 17.2456L13.3762 15.8822L14.1633 14.5188L15.7377 14.5188Z" fill="url(#paint3_linear)" id="svg_7"/>
</g><g filter="url(#filter3_i)" id="svg_8">
<path d="M17.9072 8.98529L19.0353 10.9393L17.9072 12.8934L15.6508 12.8934L14.5227 10.9393L15.6508 8.98529L17.9072 8.98529Z" fill="url(#paint4_linear)" id="svg_9"/>
</g></g></svg>