<?xml version="1.0"?>
<svg width="24" height="24" xmlns="http://www.w3.org/2000/svg" xmlns:svg="http://www.w3.org/2000/svg">
 <g class="currentLayer layer">
  <title>Layer 1</title>
  <g id="svg_1">
   <path d="m21.50952,18.89366l-5.59189,-10.34551l0,-6.16304c0,-0.58001 -0.48522,-1.04235 -1.06477,-1.04235l-5.7077,0c-0.58002,0 -1.0573,0.46234 -1.0573,1.04235l0,6.16304l-5.59656,10.34551c-0.42684,0.78877 -0.40536,1.74659 0.05371,2.51761c0.45906,0.77009 1.29173,1.24596 2.18837,1.24596l14.53079,0c0.89665,0 1.73118,-0.47587 2.19024,-1.24596c0.4586,-0.77102 0.48195,-1.72884 0.05511,-2.51761zm-8.58631,-4.32818c0.50109,0 0.90692,0.40582 0.90692,0.90692c0,0.50062 -0.40676,0.90692 -0.90692,0.90692c-0.50063,0 -0.90692,-0.4063 -0.90692,-0.90692c0,-0.4997 0.40582,-0.90692 0.90692,-0.90692zm-2.5503,-5.45319c0.50109,0 0.90692,0.40629 0.90692,0.90738c0,0.50063 -0.40583,0.90692 -0.90692,0.90692c-0.5011,0 -0.90692,-0.40629 -0.90692,-0.90692c0.00046,-0.50109 0.40582,-0.90738 0.90692,-0.90738zm0,3.16628c0.81165,0 1.47012,0.65847 1.47012,1.46965c0,0.81165 -0.65847,1.46966 -1.47012,1.46966c-0.81212,0 -1.47013,-0.65801 -1.47013,-1.46966s0.65801,-1.46965 1.47013,-1.46965zm8.44247,7.53975c-0.18867,0.3213 -0.53378,0.5109 -0.90505,0.5109l-11.82311,0c-0.37173,0 -0.71638,-0.1896 -0.90505,-0.5109c-0.18867,-0.32129 -0.1938,-0.71358 -0.01307,-1.03954l1.42109,-2.55451c0.20267,-0.36519 0.60243,-0.57441 1.01806,-0.53472c1.88716,0.1798 4.00829,1.79423 5.90385,1.72231c1.01526,-0.03876 1.95767,-0.40863 2.85525,-0.90318c0.5067,-0.28021 1.14416,-0.09667 1.4253,0.40956l1.03627,1.8596c0.1798,0.32644 0.17513,0.71965 -0.01354,1.04048z" id="svg_2"/>
  </g>
  <g id="svg_3"/>
  <g id="svg_4"/>
  <g id="svg_5"/>
  <g id="svg_6"/>
  <g id="svg_7"/>
  <g id="svg_8"/>
  <g id="svg_9"/>
  <g id="svg_10"/>
  <g id="svg_11"/>
  <g id="svg_12"/>
  <g id="svg_13"/>
  <g id="svg_14"/>
  <g id="svg_15"/>
  <g id="svg_16"/>
  <g id="svg_17"/>
 </g>
</svg>