<?xml version="1.0"?>
<svg width="32" height="32" xmlns="http://www.w3.org/2000/svg" xmlns:svg="http://www.w3.org/2000/svg">
 <g class="currentLayer layer">
  <title>Layer 1</title>
  <path d="m28.12421,24.7891l-7.12941,-13.19005l0,-7.85759c0,-0.7395 -0.61863,-1.32895 -1.35753,-1.32895l-7.27707,0c-0.73949,0 -1.348,0.58945 -1.348,1.32895l0,7.85759l-7.13536,13.19005c-0.5442,1.00564 -0.51681,2.22683 0.06847,3.20984c0.58529,0.98183 1.6469,1.58855 2.79008,1.58855l18.5261,0c1.14318,0 2.20717,-0.60672 2.79246,-1.58855c0.58469,-0.98301 0.61446,-2.2042 0.07026,-3.20984zm-10.94716,-5.51823c0.63887,0 1.15628,0.51741 1.15628,1.15628c0,0.63828 -0.5186,1.15628 -1.15628,1.15628c-0.63828,0 -1.15628,-0.518 -1.15628,-1.15628c0,-0.63709 0.51741,-1.15628 1.15628,-1.15628zm-3.25152,-6.95257c0.63887,0 1.15628,0.518 1.15628,1.15687c0,0.63828 -0.51741,1.15629 -1.15628,1.15629c-0.63887,0 -1.15628,-0.51801 -1.15628,-1.15629c0.00059,-0.63887 0.51741,-1.15687 1.15628,-1.15687zm0,4.03686c1.03482,0 1.87434,0.83952 1.87434,1.87375c0,1.03481 -0.83952,1.87374 -1.87434,1.87374c-1.03541,0 -1.87434,-0.83893 -1.87434,-1.87374s0.83893,-1.87375 1.87434,-1.87375zm10.76377,9.61285c-0.24054,0.40964 -0.68055,0.65137 -1.1539,0.65137l-15.07392,0c-0.47395,0 -0.91336,-0.24173 -1.1539,-0.65137c-0.24055,-0.40964 -0.2471,-0.90978 -0.01667,-1.32538l1.81182,-3.25688c0.25841,-0.4656 0.76808,-0.73235 1.29799,-0.68174c2.40604,0.22924 5.11038,2.28756 7.52714,2.19587c1.29441,-0.04942 2.49594,-0.52099 3.64032,-1.15152c0.64601,-0.35725 1.45874,-0.12325 1.81718,0.52217l1.32121,2.37091c0.22923,0.41619 0.22328,0.91752 -0.01727,1.32657z" id="svg_2"/>
  <g id="svg_3"/>
  <g id="svg_4"/>
  <g id="svg_5"/>
  <g id="svg_6"/>
  <g id="svg_7"/>
  <g id="svg_8"/>
  <g id="svg_9"/>
  <g id="svg_10"/>
  <g id="svg_11"/>
  <g id="svg_12"/>
  <g id="svg_13"/>
  <g id="svg_14"/>
  <g id="svg_15"/>
  <g id="svg_16"/>
  <g id="svg_17"/>
 </g>
</svg>