<?xml version="1.0"?>
<svg width="20" height="20" xmlns="http://www.w3.org/2000/svg" xmlns:svg="http://www.w3.org/2000/svg">
 <g class="currentLayer layer">
  <title>Layer 1</title>
  <g id="svg_1">
   <path d="m10,7.86563c-1.17687,0 -2.13437,0.95751 -2.13437,2.13437s0.9575,2.13437 2.13437,2.13437s2.13437,-0.9575 2.13437,-2.13437s-0.95751,-2.13437 -2.13437,-2.13437zm0,3.04031c-0.49951,0 -0.90594,-0.40643 -0.90594,-0.90594s0.40643,-0.90599 0.90594,-0.90599s0.90594,0.40648 0.90594,0.90599s-0.40643,0.90594 -0.90594,0.90594z" id="svg_2"/>
   <path d="m10,4.82539c-0.26976,0 -0.53469,0.02085 -0.79341,0.06079c-0.29865,-0.34705 -0.74066,-0.56753 -1.23348,-0.56753c-0.89748,0 -1.62763,0.73015 -1.62763,1.62763c0,0.12246 0.01404,0.24145 0.03976,0.35627c-0.96155,0.93982 -1.55991,2.24971 -1.55991,3.69745c0,2.8533 2.32125,5.17461 5.17461,5.17461s5.17461,-2.32131 5.17461,-5.17461s-2.32119,-5.17461 -5.17455,-5.17461zm-2.02689,0.72169c0.22013,0 0.39926,0.17908 0.39926,0.3992c0,0.22013 -0.17913,0.39926 -0.39926,0.39926c-0.22013,0 -0.3992,-0.17913 -0.3992,-0.39926c0,-0.22018 0.17907,-0.3992 0.3992,-0.3992zm2.02689,8.39916c-2.17601,0 -3.94624,-1.77035 -3.94624,-3.94624c0,-1.03291 0.39949,-1.97379 1.05153,-2.67781c0.25143,0.15916 0.54897,0.25166 0.86782,0.25166c0.85419,0 1.55633,-0.66155 1.62211,-1.49912c0.13309,-0.01374 0.26805,-0.02097 0.40478,-0.02097c2.17601,0 3.94624,1.77029 3.94624,3.94624c0,2.17595 -1.77023,3.94624 -3.94624,3.94624z" id="svg_3"/>
   <path d="m18.72165,5.94628c0,-0.89748 -0.73015,-1.62763 -1.62763,-1.62763c-0.14988,0 -0.29489,0.02079 -0.43273,0.05891c-1.60115,-1.89398 -3.99282,-3.09921 -6.66129,-3.09921c-4.80913,0 -8.72165,3.91253 -8.72165,8.72165c0,2.66841 1.20523,5.06014 3.09915,6.66123c-0.03812,0.13796 -0.05885,0.28297 -0.05885,0.43279c0,0.89748 0.73021,1.62763 1.62763,1.62763c0.45635,0 0.86911,-0.189 1.16489,-0.49252c0.90458,0.31856 1.87677,0.49252 2.88883,0.49252c4.80912,0 8.72165,-3.91253 8.72165,-8.72165c0,-1.01218 -0.1739,-1.98425 -0.49252,-2.88883c0.30352,-0.29578 0.49252,-0.7086 0.49252,-1.16489zm-1.22837,0c0,0.22013 -0.17913,0.39926 -0.39926,0.39926c-0.22013,0 -0.39926,-0.17913 -0.39926,-0.39926c0,-0.22012 0.17913,-0.3992 0.39926,-0.3992c0.22013,0 0.39926,0.17902 0.39926,0.3992zm-11.547,11.54694c-0.22012,0 -0.3992,-0.17907 -0.3992,-0.3992c0,-0.22013 0.17908,-0.39926 0.3992,-0.39926c0.22013,0 0.39926,0.17913 0.39926,0.39926c-0.00006,0.22013 -0.17913,0.3992 -0.39926,0.3992zm4.05372,0c-0.84885,0 -1.66487,-0.14242 -2.42626,-0.40378c-0.00247,-0.89536 -0.73151,-1.62305 -1.62752,-1.62305c-0.29818,0 -0.57774,0.08099 -0.81836,0.22154c-1.60338,-1.37532 -2.6212,-3.41484 -2.6212,-5.68799c0,-4.13183 3.36145,-7.49322 7.49328,-7.49322c2.27315,0 4.31267,1.0177 5.68799,2.62114c-0.14067,0.24068 -0.22154,0.52012 -0.22154,0.81836c0,0.89601 0.72774,1.62511 1.62311,1.62752c0.2613,0.76134 0.40378,1.57735 0.40378,2.42626c0,4.13183 -3.36145,7.49322 -7.49328,7.49322z" id="svg_4"/>
  </g>
  <g id="svg_5"/>
  <g id="svg_6"/>
  <g id="svg_7"/>
  <g id="svg_8"/>
  <g id="svg_9"/>
  <g id="svg_10"/>
  <g id="svg_11"/>
  <g id="svg_12"/>
  <g id="svg_13"/>
  <g id="svg_14"/>
  <g id="svg_15"/>
  <g id="svg_16"/>
  <g id="svg_17"/>
  <g id="svg_18"/>
  <g id="svg_19"/>
 </g>
</svg>