<?xml version="1.0"?>
<svg width="64" height="64" xmlns="http://www.w3.org/2000/svg" xmlns:svg="http://www.w3.org/2000/svg">
 <g class="currentLayer layer">
  <title>Layer 1</title>
  <g id="svg_4">
   <path d="m42.72462,17.60004c5.8612,3.30155 9.53199,9.47803 9.53199,16.35325c0,0.20273 -0.00426,0.4057 -0.0107,0.60843a10.31119,10.31119 0 0 1 4.7818,1.46032c0.05968,-0.68731 0.09055,-1.37864 0.09055,-2.06875c0,-4.81875 -1.441,-9.45566 -4.16729,-13.40916c-2.31402,-3.35575 -5.4132,-6.02893 -9.03403,-7.8106c0.00012,0.01592 0.0006,0.03172 0.0006,0.04764c0,1.68019 -0.41749,3.33911 -1.19292,4.81887zm-18.40475,-0.05421c-0.75817,-1.46736 -1.16521,-3.10562 -1.16521,-4.76466c0,-0.03634 0.00097,-0.07231 0.00134,-0.10853c-3.84131,1.86578 -7.1205,4.75007 -9.46685,8.32654c1.71239,0.23008 3.29401,0.87875 4.63777,1.84014a18.88592,18.88592 0 0 1 5.99295,-5.29349z" fill="#b6b6b6" id="svg_1"/>
   <path d="m42.79973,50.26388c-2.82583,1.62415 -6.00863,2.47385 -9.32756,2.47385c-7.12681,0 -13.58575,-4.01293 -16.76916,-10.31496l-3.26326,4.10286a23.63174,23.63174 0 0 0 20.03242,11.07375c4.39821,0 8.60743,-1.186 12.30337,-3.44801l-2.21715,-2.78755a10.32347,10.32347 0 0 1 -0.75866,-1.09994z" fill="#b6b6b6" id="svg_2"/>
   <path d="m20.4455,37.71754c1.44161,-1.82275 2.23588,-4.10712 2.23588,-6.43014c0,-3.47899 -1.7203,-6.56334 -4.35458,-8.44808c-1.34376,-0.96139 -2.92526,-1.61018 -4.63777,-1.84014a10.43662,10.43662 0 0 0 -1.38922,-0.09322l0,6.51133c2.13342,0 3.87012,1.73573 3.87012,3.87011c0,2.13342 -1.7367,3.87012 -3.87012,3.87012l0,12.80121l1.13994,-1.43322l3.26326,-4.10286l3.74249,-4.70511z" fill="#6d6d6d" id="svg_3"/>
   <path d="m12.29993,35.15752c-2.13438,0 -3.87011,-1.7367 -3.87011,-3.87012c0,-2.13438 1.73573,-3.87011 3.87011,-3.87011l0,-6.51133c-5.72483,0 -10.38144,4.65673 -10.38144,10.38144c0,2.32302 0.79427,4.60727 2.23976,6.435l8.14168,10.23633l0,-12.80121z" fill="#dadada" id="svg_5"/>
   <path d="m37.3404,12.78117c0,2.13342 -1.73671,3.87012 -3.87012,3.87012l0,12.80121l8.14545,-10.24119a10.31046,10.31046 0 0 0 1.04295,-1.61127c0.77543,-1.47976 1.19292,-3.13868 1.19292,-4.81887c0,-0.01592 -0.00048,-0.03172 -0.0006,-0.04764c-0.02577,-5.70296 -4.6729,-10.3338 -10.38084,-10.3338l0,6.51133c2.13366,0.00012 3.87024,1.73585 3.87024,3.87011z" fill="#6d6d6d" id="svg_7"/>
   <path d="m24.31987,17.54583a10.34255,10.34255 0 0 0 1.07455,1.67022l8.14168,10.23632l0,-12.80108c-2.13438,0 -3.87011,-1.7367 -3.87011,-3.87012c0,-2.13438 1.73573,-3.87011 3.87011,-3.87011l0,-6.51133c-5.68849,0 -10.32152,4.59803 -10.3801,10.27291c-0.00037,0.03622 -0.00134,0.07219 -0.00134,0.10853c0,1.65904 0.40716,3.29742 1.16521,4.76466z" fill="#dadada" id="svg_9"/>
   <path d="m57.02771,36.02204a10.31119,10.31119 0 0 0 -4.7818,-1.46032a10.5516,10.5516 0 0 0 -0.54572,-0.01434l0,6.51133c2.13342,0 3.87012,1.73573 3.87012,3.87011c0,2.13342 -1.7367,3.87012 -3.87012,3.87012l0,12.80121l8.14545,-10.24119c1.4416,-1.82275 2.23587,-4.10712 2.23587,-6.43014c0,-3.7781 -2.02888,-7.09059 -5.0538,-8.90678z" fill="#6d6d6d" id="svg_11"/>
   <path d="m47.83008,44.92895c0,-2.13439 1.73573,-3.87012 3.87011,-3.87012l0,-6.51133c-5.72483,0 -10.38144,4.65661 -10.38144,10.38145c0,1.8772 0.51922,3.72888 1.4811,5.33493a10.32493,10.32493 0 0 0 0.75866,1.10007l2.21716,2.78754l5.92452,7.44878l0,-12.80133c-2.13438,0 -3.87011,-1.7367 -3.87011,-3.86999z" fill="#dadada" id="svg_13"/>
  </g>
 </g>
</svg>