<?xml version="1.0"?>
<svg width="32" height="32" xmlns="http://www.w3.org/2000/svg" xmlns:svg="http://www.w3.org/2000/svg">
 <g class="currentLayer layer">
  <title>Layer 1</title>
  <g id="svg_4">
   <path d="m21.115173,9.131844c2.795538,1.574693 4.546343,4.520605 4.546343,7.799786c0,0.096694 -0.002028,0.193503 -0.005101,0.290197a4.917988,4.917988 0 0 1 2.280708,0.696508c0.028463,-0.32782 0.043188,-0.657552 0.043188,-0.986705c0,-2.298331 -0.687291,-4.509939 -1.987613,-6.395582c-1.103688,-1.600548 -2.581861,-2.875537 -4.308841,-3.725317c0.000058,0.007594 0.00029,0.01513 0.00029,0.022724c0,0.801376 -0.199127,1.592606 -0.568974,2.298389zm-8.778259,-0.025854c-0.361616,-0.69987 -0.555757,-1.481246 -0.555757,-2.272535c0,-0.017333 0.000464,-0.034492 0.000638,-0.051767c-1.832138,0.889896 -3.396164,2.265578 -4.515272,3.971399c0.816737,0.109737 1.571099,0.419122 2.212013,0.877664a9.007761,9.007761 0 0 1 2.858378,-2.524761z" fill="#b6b6b6" id="svg_1"/>
   <path d="m21.150998,24.711068c-1.347799,0.774651 -2.865855,1.179918 -4.448838,1.179918c-3.399178,0 -6.479812,-1.91399 -7.998159,-4.919785l-1.556432,1.956888a11.27131,11.27131 0 0 0 9.554591,5.281692c2.097755,0 4.105367,-0.56567 5.868172,-1.644547l-1.057486,-1.329539a4.923843,4.923843 0 0 1 -0.361848,-0.524627z" fill="#b6b6b6" id="svg_2"/>
   <path d="m10.489009,18.727014c0.68758,-0.869374 1.066413,-1.958917 1.066413,-3.066895c0,-1.659329 -0.820505,-3.13043 -2.076944,-4.029368c-0.640914,-0.458542 -1.395218,-0.767985 -2.212013,-0.877664a4.977813,4.977813 0 0 0 -0.662596,-0.044463l0,3.105619c1.017545,0 1.845876,0.827867 1.845876,1.845876c0,1.017545 -0.828331,1.845876 -1.845876,1.845876l0,6.105617l0.5437,-0.683581l1.556432,-1.956888l1.785008,-2.244129z" fill="#6d6d6d" id="svg_3"/>
   <path d="m6.603927,17.505995c-1.018008,0 -1.845876,-0.828331 -1.845876,-1.845876c0,-1.018009 0.827868,-1.845876 1.845876,-1.845876l0,-3.105619c-2.730496,0 -4.951495,2.221057 -4.951495,4.951495c0,1.107978 0.378833,2.197463 1.068269,3.069214l3.883226,4.882279l0,-6.105617z" fill="#dadada" id="svg_5"/>
   <path d="m18.547135,6.833455c0,1.017545 -0.828331,1.845876 -1.845876,1.845876l0,6.105617l3.885023,-4.884598a4.917641,4.917641 0 0 0 0.49744,-0.768506c0.369847,-0.705783 0.568974,-1.497013 0.568974,-2.298389c0,-0.007594 -0.000232,-0.01513 -0.00029,-0.022724c-0.01229,-2.720061 -2.228767,-4.928771 -4.951205,-4.928771l0,3.105619c1.017661,0.000058 1.845934,0.827926 1.845934,1.845876z" fill="#6d6d6d" id="svg_7"/>
   <path d="m12.336914,9.10599a4.932945,4.932945 0 0 0 0.512511,0.796621l3.883227,4.882279l0,-6.105559c-1.018009,0 -1.845876,-0.828331 -1.845876,-1.845876c0,-1.018008 0.827867,-1.845876 1.845876,-1.845876l0,-3.105619c-2.713163,0 -4.922916,2.193058 -4.950857,4.899728c-0.000174,0.017275 -0.000638,0.034434 -0.000638,0.051767c0,0.791289 0.194199,1.572722 0.555757,2.272535z" fill="#dadada" id="svg_9"/>
   <path d="m27.937123,17.918335a4.917988,4.917988 0 0 0 -2.280708,-0.696508a5.032653,5.032653 0 0 0 -0.260285,-0.006841l0,3.105619c1.017545,0 1.845877,0.827868 1.845877,1.845876c0,1.017545 -0.828332,1.845876 -1.845877,1.845876l0,6.105617l3.885024,-4.884598c0.68758,-0.869373 1.066413,-1.958917 1.066413,-3.066895c0,-1.801992 -0.96769,-3.381903 -2.410444,-4.248146z" fill="#6d6d6d" id="svg_11"/>
   <path d="m23.550254,22.166539c0,-1.018008 0.827868,-1.845876 1.845876,-1.845876l0,-3.105619c-2.730496,0 -4.951494,2.220999 -4.951494,4.951495c0,0.895345 0.247647,1.778515 0.70642,2.544529a4.924539,4.924539 0 0 0 0.361848,0.524685l1.057486,1.329539l2.82574,3.55274l0,-6.105675c-1.018008,0 -1.845876,-0.828331 -1.845876,-1.845818z" fill="#dadada" id="svg_13"/>
  </g>
 </g>
</svg>