<?xml version="1.0"?>
<svg width="32" height="32" xmlns="http://www.w3.org/2000/svg" xmlns:svg="http://www.w3.org/2000/svg">
 <g class="currentLayer layer">
  <title>Layer 1</title>
  <g id="XMLID_1484_">
   <path d="m21.19727,14.65242c2.11268,0 3.83148,-1.7188 3.83148,-3.83147s-1.7188,-3.83148 -3.83148,-3.83148c-1.83529,0 -3.3726,1.29733 -3.74485,3.02293l-13.71535,0l0,1.61709l13.71535,0c0.37225,1.7256 1.90956,3.02293 3.74485,3.02293zm0,-6.04586c1.22101,0 2.21439,0.99337 2.21439,2.21439s-0.99338,2.21438 -2.21439,2.21438s-2.21439,-0.99337 -2.21439,-2.21438s0.99338,-2.21439 2.21439,-2.21439z" id="XMLID_1487_"/>
   <path d="m24.43145,17.34757c-1.83529,0 -3.3726,1.29734 -3.74485,3.02294l-16.94953,0l0,1.61709l16.94953,0c0.37225,1.7256 1.90956,3.02293 3.74485,3.02293c2.11268,0 3.83148,-1.7188 3.83148,-3.83148s-1.7188,-3.83148 -3.83148,-3.83148zm0,6.04587c-1.22101,0 -2.21439,-0.99338 -2.21439,-2.21439s0.99338,-2.21439 2.21439,-2.21439s2.21439,0.99338 2.21439,2.21439s-0.99338,2.21439 -2.21439,2.21439z" id="XMLID_1490_"/>
  </g>
  <g id="svg_1"/>
  <g id="svg_2"/>
  <g id="svg_3"/>
  <g id="svg_4"/>
  <g id="svg_5"/>
  <g id="svg_6"/>
  <g id="svg_7"/>
  <g id="svg_8"/>
  <g id="svg_9"/>
  <g id="svg_10"/>
  <g id="svg_11"/>
  <g id="svg_12"/>
  <g id="svg_13"/>
  <g id="svg_14"/>
  <g id="svg_15"/>
 </g>
</svg>