<?xml version="1.0"?>
<svg width="20" height="20" xmlns="http://www.w3.org/2000/svg" xmlns:svg="http://www.w3.org/2000/svg">
 <g class="currentLayer layer">
  <title>Layer 1</title>
  <g id="XMLID_1484_">
   <path d="m13.3181,9.13967c1.3488,0 2.44614,-1.09734 2.44614,-2.44614s-1.09734,-2.44614 -2.44614,-2.44614c-1.1717,0 -2.15317,0.82826 -2.39083,1.92994l-8.75631,0l0,1.0324l8.75631,0c0.23766,1.10168 1.21913,1.92994 2.39083,1.92994zm0,-3.85988c0.77953,0 1.41374,0.63421 1.41374,1.41374s-0.63421,1.41373 -1.41374,1.41373s-1.41373,-0.6342 -1.41373,-1.41373s0.6342,-1.41374 1.41373,-1.41374z" id="XMLID_1487_"/>
   <path d="m15.3829,10.86033c-1.1717,0 -2.15317,0.82827 -2.39083,1.92994l-10.82111,0l0,1.0324l10.82111,0c0.23766,1.10168 1.21913,1.92994 2.39083,1.92994c1.3488,0 2.44614,-1.09734 2.44614,-2.44614s-1.09734,-2.44614 -2.44614,-2.44614zm0,3.85988c-0.77953,0 -1.41373,-0.63421 -1.41373,-1.41374s0.6342,-1.41373 1.41373,-1.41373s1.41374,0.6342 1.41374,1.41373s-0.6342,1.41374 -1.41374,1.41374z" id="XMLID_1490_"/>
  </g>
  <g id="svg_1"/>
  <g id="svg_2"/>
  <g id="svg_3"/>
  <g id="svg_4"/>
  <g id="svg_5"/>
  <g id="svg_6"/>
  <g id="svg_7"/>
  <g id="svg_8"/>
  <g id="svg_9"/>
  <g id="svg_10"/>
  <g id="svg_11"/>
  <g id="svg_12"/>
  <g id="svg_13"/>
  <g id="svg_14"/>
  <g id="svg_15"/>
 </g>
</svg>