<?xml version="1.0"?>
<svg width="24.000000000000004" height="24.000000000000004" xmlns="http://www.w3.org/2000/svg" xmlns:svg="http://www.w3.org/2000/svg" version="1.1">
 <g class="currentLayer layer">
  <title>Layer 1</title>
  <g id="svg_1">
   <path d="m4.81139,6.03651c-0.28588,0.35494 -0.55089,0.73076 -0.81268,1.19813c-0.96203,1.71047 -1.36837,3.6506 -1.20295,5.54738c0.16222,1.8534 0.8721,3.66666 2.14732,5.18279c0.45773,0.54446 0.94919,1.02468 1.46635,1.44065c1.78435,1.43423 3.89955,2.1425 6.00832,2.12323c2.10877,-0.01927 4.20952,-0.7677 5.96496,-2.24529c0.51233,-0.43043 0.99255,-0.92028 1.43101,-1.46634c1.02788,-1.27844 1.68798,-2.7769 1.93853,-4.35889c0.24573,-1.55307 0.09476,-3.18484 -0.49307,-4.76361c-0.56052,-1.50168 -1.41655,-2.83954 -2.53438,-3.8883c-1.06162,-0.99738 -2.36414,-1.73135 -3.87224,-2.09754c-0.47219,-0.11403 -0.95401,-0.18951 -1.44386,-0.22003c-0.49146,-0.03212 -0.99416,-0.02088 -1.50971,0.03534c-0.32282,0.03533 -0.5557,0.32603 -0.52037,0.64885c0.03533,0.32282 0.32603,0.5557 0.64885,0.52037c0.44649,-0.04979 0.88174,-0.05943 1.30735,-0.03052c0.42561,0.02731 0.83997,0.09155 1.24149,0.18791c1.30253,0.31479 2.42517,0.94919 3.34706,1.81326c0.98613,0.92349 1.74259,2.10717 2.23886,3.44181c0.51555,1.38283 0.64886,2.81224 0.43364,4.16937c-0.22003,1.37801 -0.79661,2.68696 -1.69601,3.80479c-0.3967,0.49306 -0.82231,0.92831 -1.2704,1.30574c-1.54023,1.2961 -3.37758,1.95137 -5.21974,1.96904c-1.84217,0.01767 -3.69397,-0.60388 -5.2615,-1.86465c-0.46576,-0.37421 -0.90261,-0.79982 -1.30573,-1.28004c-1.11141,-1.32019 -1.72975,-2.90539 -1.87108,-4.52913c-0.14615,-1.6671 0.212,-3.37114 1.05519,-4.87122c0.25537,-0.45291 0.51555,-0.81428 0.80464,-1.16279l0.08512,2.36092c0.01125,0.32443 0.28267,0.57819 0.6071,0.56695c0.32443,-0.01124 0.57819,-0.28267 0.56694,-0.6071l-0.13651,-3.76142c-0.01124,-0.32443 -0.28267,-0.57658 -0.6071,-0.56534c-0.02088,0.00161 -0.04015,0.00321 -0.05942,0.00482l0,0l-3.64579,0.51234c-0.32121,0.04497 -0.54606,0.34048 -0.50109,0.6633c0.04497,0.32122 0.34048,0.54607 0.6633,0.5011l2.0076,-0.28588l0,0l0,0zm11.09796,5.86377l-5.24704,3.52373l0,-6.99124l5.24704,3.46751l0,0z" id="svg_2"/>
  </g>
 </g>
</svg>