<?xml version="1.0"?>
<svg width="24" height="24" xmlns="http://www.w3.org/2000/svg" xmlns:svg="http://www.w3.org/2000/svg">
 <g class="layer">
  <title>Layer 1</title>
  <path clip-rule="evenodd" d="m19,12c0,-3.86599 -3.134,-7 -7,-7c-3.86599,0 -7,3.13401 -7,7c0,3.866 3.13401,7 7,7c3.866,0 7,-3.134 7,-7zm-8.3125,-1.3125l0,-3.5l2.625,0l0,3.4991l3.5,0.0009l0,2.625l-3.5,0l0,3.5l-2.625,0l0,-3.5l-3.5,0l0,-2.625l3.5,0z" fill="#66788C" fill-rule="evenodd" id="svg_2"/>
  <path clip-rule="evenodd" d="m12,1c-6.07513,0 -11,4.92487 -11,11c0,6.0751 4.92487,11 11,11c6.0751,0 11,-4.9249 11,-11c0,-6.07513 -4.9249,-11 -11,-11zm-9,11c0,-4.97056 4.02944,-9 9,-9c4.9706,0 9,4.02944 9,9c0,4.9706 -4.0294,9 -9,9c-4.97056,0 -9,-4.0294 -9,-9z" fill="#66788C" fill-rule="evenodd" id="svg_3"/>
 </g>
</svg>